<svg width="65" height="65" viewBox="0 0 65 65" fill="none" xmlns="http://www.w3.org/2000/svg">
<mask id="mask0_381_619" style="mask-type:luminance" maskUnits="userSpaceOnUse" x="0" y="0" width="65" height="65">
<path d="M0 0H65V65H0V0Z" fill="white"/>
</mask>
<g mask="url(#mask0_381_619)">
<path fill-rule="evenodd" clip-rule="evenodd" d="M26.8694 11.3642H17.1383C15.1958 11.3642 13.3329 12.1357 11.9591 13.509C10.5853 14.8823 9.81311 16.745 9.81237 18.6875V49.4595C9.81237 51.4025 10.5842 53.2659 11.9581 54.6398C13.332 56.0137 15.1954 56.7856 17.1383 56.7856H47.9132C49.8562 56.7856 51.7196 56.0138 53.0935 54.6399C54.4674 53.266 55.2392 51.4025 55.2392 49.4595V36.5787L59.6349 33.5644V49.4623C59.6342 52.5709 58.399 55.552 56.2009 57.75C54.0028 59.9481 51.0217 61.1833 47.9132 61.1839H17.1383C14.0298 61.1833 11.0487 59.9481 8.85063 57.75C6.65254 55.5519 5.41739 52.5709 5.41675 49.4623V18.6902C5.41643 17.1506 5.71937 15.6261 6.30826 14.2037C6.89716 12.7813 7.76048 11.4888 8.84893 10.4C9.93742 9.31126 11.2297 8.44762 12.652 7.85839C14.0743 7.26917 15.5988 6.9659 17.1383 6.96591H29.4477L26.8694 11.3642Z" fill="black"/>
<path fill-rule="evenodd" clip-rule="evenodd" d="M48.2626 0C48.6552 0 48.9884 0.281709 49.0724 0.66625C49.8415 4.24206 51.6286 7.51903 54.2182 10.102C56.8016 12.6931 60.0797 14.4812 63.6568 15.2506C64.0413 15.3345 64.323 15.6677 64.323 16.0631C64.3207 16.2535 64.2533 16.4373 64.1321 16.584C64.0109 16.7308 63.8432 16.8318 63.6568 16.8702C60.0806 17.6401 56.8036 19.4282 54.2209 22.0188C51.5961 24.6353 49.7958 27.9638 49.0426 31.5927C49.0061 31.7732 48.9087 31.9357 48.7667 32.0531C48.6247 32.1704 48.4468 32.2355 48.2626 32.2373C48.0784 32.2355 47.9004 32.1704 47.7584 32.0531C47.6165 31.9357 47.5191 31.7732 47.4826 31.5927C46.7294 27.9638 44.9291 24.6353 42.3043 22.0188C39.6877 19.3939 36.3592 17.5936 32.7302 16.8405C32.5498 16.8038 32.3873 16.7064 32.27 16.5645C32.1527 16.4225 32.0877 16.2446 32.0857 16.0605C32.0857 15.6813 32.3565 15.3562 32.7302 15.2805C36.3591 14.5272 39.6877 12.7269 42.3043 10.102C44.8947 7.51925 46.6827 4.24229 47.4527 0.66625C47.4912 0.479339 47.5926 0.311257 47.7399 0.19002C47.8873 0.0687827 48.0718 0.00171641 48.2626 0Z" fill="black"/>
</g>
</svg>
