<svg width="65" height="65" viewBox="0 0 65 65" fill="none" xmlns="http://www.w3.org/2000/svg">
<path fill-rule="evenodd" clip-rule="evenodd" d="M32.5 0C50.4497 0 65 14.9173 65 33.322C65 48.0412 55.6985 60.5278 42.7927 64.938C41.145 65.2663 40.56 64.2257 40.56 63.3384C40.56 62.2399 40.599 58.652 40.599 54.1931C40.599 51.0861 39.559 49.0582 38.3923 48.0247C45.63 47.1992 53.235 44.3812 53.235 31.5827C53.235 27.9427 51.974 24.9724 49.8875 22.6389C50.2255 21.7971 51.3402 18.4078 49.569 13.8188C49.569 13.8188 46.8455 12.926 40.6412 17.2355C38.0445 16.4977 35.2625 16.1265 32.5 16.1135C29.7375 16.1265 26.9588 16.4977 24.3653 17.2355C18.1545 12.926 15.4245 13.8188 15.4245 13.8188C13.6598 18.4078 14.7745 21.7971 15.1093 22.6389C13.0325 24.9724 11.7618 27.9427 11.7618 31.5827C11.7618 44.3487 19.3505 47.21 26.5688 48.0517C25.6393 48.8837 24.7975 50.3514 24.505 52.5062C22.6525 53.3577 17.9465 54.8313 15.0475 49.7386C15.0475 49.7386 13.3283 46.5369 10.0653 46.3029C10.0653 46.3029 6.8965 46.2608 9.84425 48.3278C9.84425 48.3278 11.973 49.3516 13.4517 53.2028C13.4517 53.2028 15.3595 59.1502 24.401 57.1352C24.4173 59.9204 24.4465 62.5454 24.4465 63.3384C24.4465 64.2192 23.8485 65.25 22.2267 64.9412C9.31124 60.5375 0 48.0445 0 33.322C0 14.9173 14.5535 0 32.5 0Z" fill="black"/>
</svg>
