<svg width="65" height="54" viewBox="0 0 65 54" fill="none" xmlns="http://www.w3.org/2000/svg">
<path d="M50.3807 4.76498L32.6911 19.3841L14.5972 4.76498V4.76893L14.619 4.7887V25.2593L32.4872 40.1943L50.3807 25.8359V4.76498Z" fill="#EA4335"/>
<path d="M55.024 1.20892L50.3784 4.76488V25.8359L64.9964 13.9512V6.79177C64.9964 6.79177 63.2221 -3.4336 55.024 1.20892Z" fill="#FBBC05"/>
<path d="M50.3784 25.8359V53.1656H61.5823C61.5823 53.1656 64.7706 52.818 64.9999 48.9695V13.9512L50.3784 25.8359Z" fill="#34A853"/>
<path d="M14.5962 4.76841L9.97612 1.23219C1.77806 -3.41033 0 6.81113 0 6.81113V13.9704L14.5962 25.239V4.76841Z" fill="#C5221F"/>
<path d="M0 13.9756V48.994C0.225909 52.8464 3.41769 53.1903 3.41769 53.1903H14.6217L14.5962 25.2402L0 13.9756Z" fill="#4285F4"/>
</svg>
