<svg width="110" height="40" viewBox="0 0 110 40" fill="none" xmlns="http://www.w3.org/2000/svg">
<path d="M54.7677 27.008L50.2026 11.7532H55.1504L57.8605 22.8273L56.3883 22.8602L59.5707 11.7532H64.1668L67.3769 22.8602L65.9046 22.8273L68.6457 11.7532H73.5935L69.0285 27.008H64.4047L61.3395 16.4962H62.4877L59.3363 27.008H54.7712H54.7677Z" fill="#1D1D1B"/>
<path d="M80.9272 27.322C79.5721 27.322 78.3791 26.9788 77.3482 26.2924C76.3172 25.606 75.5035 24.664 74.9036 23.47C74.3036 22.2761 74.0037 20.9069 74.0037 19.3697C74.0037 17.8326 74.3036 16.4962 74.9036 15.2986C75.5035 14.1047 76.3207 13.1627 77.362 12.4762C78.4032 11.7898 79.5824 11.4466 80.8961 11.4466C81.8202 11.4466 82.6546 11.6182 83.3993 11.9614C84.1441 12.3046 84.7578 12.7829 85.2405 13.3963C85.7233 14.0097 86.0129 14.7217 86.1094 15.5323V23.2071C85.9922 24.0177 85.6922 24.737 85.2095 25.3577C84.7268 25.982 84.1131 26.464 83.3683 26.8072C82.6201 27.1504 81.8064 27.322 80.9237 27.322H80.9272ZM82.0167 22.4878C82.8614 22.4878 83.5372 22.1957 84.0475 21.6152C84.5578 21.0347 84.813 20.2862 84.813 19.3697C84.813 18.7892 84.6958 18.2634 84.4579 17.796C84.2234 17.3287 83.8993 16.9599 83.4855 16.6897C83.0718 16.4195 82.5925 16.2844 82.0408 16.2844C81.4892 16.2844 81.003 16.4195 80.5824 16.6897C80.1583 16.9599 79.8273 17.3287 79.579 17.796C79.3342 18.2634 79.2101 18.7892 79.2101 19.3697C79.2101 19.9503 79.3273 20.5089 79.5618 20.9762C79.7962 21.4436 80.1307 21.8124 80.5617 22.0826C80.9927 22.3527 81.4754 22.4878 82.0064 22.4878H82.0167ZM84.6371 27.0117V22.8931L85.375 19.2127L84.6371 15.4994V11.7569H89.7056V27.0117H84.6371Z" fill="#1D1D1B"/>
<path d="M91.4705 16.2771V11.7533H102.959V16.2771H91.4705ZM94.6219 27.008V5.45129H99.7766V27.008H94.6219Z" fill="#1D1D1B"/>
<path d="M107.321 10.008C106.535 10.008 105.887 9.72317 105.376 9.14993C104.866 8.57669 104.611 7.88662 104.611 7.07605C104.611 6.26548 104.866 5.57905 105.376 5.01677C105.887 4.45448 106.535 4.17334 107.321 4.17334C108.107 4.17334 108.724 4.45448 109.235 5.01677C109.745 5.57905 110 6.26548 110 7.07605C110 7.88662 109.745 8.58035 109.235 9.14993C108.724 9.72317 108.086 10.008 107.321 10.008ZM104.7 27.008V11.7532H109.855V27.008H104.7Z" fill="#1D1D1B"/>
<path d="M12.6056 31.5209H25.4078L33.0588 39.6156V31.5209H36.3275C40.2271 31.5209 43.4165 28.1435 43.4165 24.014V13.3525C43.4165 9.22295 40.2271 5.84558 36.3275 5.84558H12.6056C8.70596 5.84558 5.5166 9.22295 5.5166 13.3525V24.014C5.5166 28.1435 8.70596 31.5209 12.6056 31.5209Z" fill="#00E785"/>
<path d="M28.9283 37.3044L20.7015 28.5999H8.46817C3.79964 28.5999 0 24.5763 0 19.6325V8.96736C0 4.02363 3.79964 0 8.46817 0H32.1901C36.8586 0 40.6583 4.02363 40.6583 8.96736V19.6289C40.6583 24.5726 36.8586 28.5963 32.1901 28.5963H28.9214V25.6753H32.1901C35.3381 25.6753 37.8999 22.9624 37.8999 19.6289V8.96736C37.8999 5.63381 35.3381 2.92097 32.1901 2.92097H8.46817C5.32019 2.92097 2.75836 5.63381 2.75836 8.96736V19.6289C2.75836 22.9624 5.32019 25.6753 8.46817 25.6753H21.8428L28.9525 33.1968L28.9283 37.3007V37.3044Z" fill="#1D1D1B"/>
</svg>
