<svg width="100" height="37" viewBox="0 0 100 37" fill="none" xmlns="http://www.w3.org/2000/svg">
<path d="M100 7.79736V32.9061L96.7188 36.298V11.7271L100 7.79736Z" fill="#E79225"/>
<path d="M78.4961 7.81805L75.0977 11.7271L75.2734 11.9753L96.582 11.8925L96.7773 11.7271L100 7.79736L78.4961 7.81805Z" fill="#FFF16D"/>
<path d="M96.7773 11.7271H75.0977V36.3187H96.7773V11.7271Z" fill="url(#paint0_linear_381_544)"/>
<path d="M93.4766 20.5792C93.0469 19.4417 92.4023 18.4075 91.5625 17.5182C90.7617 16.6495 89.8633 15.9877 88.8477 15.5533C87.8516 15.119 86.7773 14.8915 85.6055 14.8915C84.4336 14.8915 83.3398 15.119 82.3438 15.5533C81.3281 15.9877 80.4297 16.6495 79.6289 17.5182C78.7891 18.4075 78.1641 19.4417 77.7344 20.5792C77.3047 21.7167 77.1094 22.9577 77.1094 24.3227C77.1094 25.6464 77.3242 26.8874 77.7539 28.0456C78.1836 29.2038 78.8086 30.238 79.6484 31.148C80.4297 31.996 81.3281 32.6372 82.3242 33.0715C83.3203 33.5058 84.4336 33.7333 85.625 33.7333C86.7773 33.7333 87.8516 33.5058 88.8477 33.0715C89.8438 32.6372 90.7617 31.996 91.5625 31.148C92.4023 30.238 93.0469 29.2038 93.4766 28.0663C93.9062 26.9288 94.1211 25.6671 94.1211 24.3434C94.1211 22.9577 93.9062 21.7167 93.4766 20.5792ZM89.0039 28.6868C88.1641 29.7416 87.0508 30.2793 85.6055 30.2793C84.1602 30.2793 83.0273 29.7416 82.1875 28.6868C81.3477 27.632 80.9375 26.1635 80.9375 24.3021C80.9375 22.3993 81.3672 20.9308 82.1875 19.8553C83.0273 18.7798 84.1406 18.2627 85.6055 18.2627C87.0508 18.2627 88.1641 18.8005 89.0039 19.8553C89.8242 20.9308 90.2539 22.3993 90.2539 24.3021C90.2539 26.1635 89.8438 27.632 89.0039 28.6868Z" fill="white"/>
<path d="M72.9687 5.74976V5.87385L75.7422 28.4386L74.1211 33.1956L73.9062 33.0301L71.0547 11.3961L71.1133 11.1066L72.8906 5.87385L72.9687 5.74976Z" fill="#009ADA"/>
<path d="M51.6211 8.89351L72.9688 5.74976L71.1719 11.1686L70.918 11.4582L50.957 14.5605L51.0547 10.6929L51.6211 8.89351Z" fill="#91C9ED"/>
<path d="M71.1719 11.1686L74.1211 33.1956L53.0859 36.3186L50.2539 15.0362L51.4844 14.0228L71.1719 11.1686Z" fill="url(#paint1_linear_381_544)"/>
<path d="M67.5977 15.3879C67.5 14.7054 67.2852 14.1883 66.9336 13.8367C66.6406 13.5678 66.2891 13.423 65.8789 13.423C65.7813 13.423 65.6641 13.423 65.5469 13.4437C65 13.5264 64.5898 13.7953 64.3359 14.2297C64.1406 14.5399 64.0625 14.9329 64.0625 15.3879C64.0625 15.5533 64.082 15.7395 64.1016 15.9256L64.8633 21.6547L58.8086 22.6061L58.0469 16.877C57.9492 16.2152 57.7344 15.6981 57.3828 15.3465C57.0898 15.057 56.7383 14.9122 56.3477 14.9122C56.25 14.9122 56.1523 14.9122 56.0547 14.9329C55.4883 15.0156 55.0586 15.2845 54.7852 15.7188C54.5898 16.029 54.5117 16.422 54.5117 16.877C54.5117 17.0425 54.5312 17.2286 54.5508 17.4355L56.6211 32.3476C56.7188 33.0301 56.9336 33.5472 57.3242 33.8988C57.6172 34.1677 57.9688 34.2918 58.3984 34.2918C58.5156 34.2918 58.6328 34.2918 58.75 34.2711C59.2773 34.1884 59.668 33.9195 59.9219 33.4852C60.0977 33.1749 60.1758 32.8026 60.1758 32.3683C60.1758 32.2028 60.1562 32.0167 60.1367 31.8306L59.2969 25.936L65.3516 24.9846L66.1914 30.8792C66.2891 31.5617 66.5039 32.0787 66.875 32.4097C67.168 32.6785 67.5195 32.8233 67.9297 32.8233C68.0273 32.8233 68.1445 32.8233 68.2617 32.8026C68.8086 32.7199 69.2188 32.451 69.4727 32.0167C69.6484 31.7065 69.7461 31.3342 69.7461 30.8792C69.7461 30.7137 69.7266 30.5276 69.707 30.3414L67.5977 15.3879Z" fill="white"/>
<path d="M31.6406 0L24.043 19.1107L25.0781 27.5079L25.1367 27.4872L33.6719 7.15618L33.6328 6.72185L31.7969 0.268874L31.6406 0Z" fill="#66BF6B"/>
<path d="M31.6406 0L33.6133 7.0114L33.6523 7.15618L52.4414 16.0704L52.5 16.029L50.8984 9.32786L31.6406 0Z" fill="#98D0A0"/>
<path d="M33.6133 7.01141L52.5 16.029L43.9648 36.5255L25.0781 27.5079L33.6133 7.01141Z" fill="url(#paint2_linear_381_544)"/>
<path d="M46.7773 17.6836C46.3672 16.5254 45.8008 15.5327 45.0586 14.7053C44.3164 13.878 43.418 13.2162 42.3633 12.7405C41.3086 12.2648 40.2539 12.0373 39.1797 12.0373H39.1211C38.0273 12.0373 36.9531 12.3062 35.8984 12.8025C34.7852 13.3196 33.8281 14.0228 33.0078 14.9535C32.1875 15.8636 31.5234 16.9804 31.0156 18.2628C30.5078 19.5244 30.2344 20.8067 30.1758 22.0684V22.5027C30.1758 23.6196 30.3516 24.7157 30.7227 25.7912C31.1133 26.9288 31.6797 27.9009 32.4219 28.7282C33.1641 29.5555 34.082 30.2173 35.1758 30.693C36.2109 31.1687 37.2656 31.3962 38.3398 31.3962H38.3594C39.4336 31.3962 40.5078 31.148 41.5625 30.6723C42.6758 30.1553 43.6523 29.4314 44.4727 28.5007C45.293 27.5906 45.9766 26.4944 46.4844 25.2121C46.9922 23.9298 47.2656 22.6682 47.3242 21.4065V21.0342C47.3438 19.8967 47.168 18.7798 46.7773 17.6836ZM43.0078 23.6402C42.3047 25.4189 41.3477 26.6392 40.1953 27.3011C39.5703 27.6527 38.9258 27.8388 38.2812 27.8388C37.7148 27.8388 37.1094 27.694 36.5039 27.4252C35.1758 26.8254 34.3555 25.874 34.0039 24.5089C33.8867 24.0539 33.8281 23.5782 33.8281 23.0818C33.8281 22.089 34.0625 20.9929 34.5312 19.814C35.2539 17.9939 36.2109 16.7529 37.3633 16.0704C37.9883 15.6981 38.6328 15.5327 39.2773 15.5327C39.8633 15.5327 40.4492 15.6774 41.0742 15.9463C42.3828 16.5461 43.2031 17.4975 43.5547 18.8626C43.6719 19.2969 43.7305 19.7726 43.7305 20.269C43.7305 21.3031 43.4961 22.42 43.0078 23.6402Z" fill="white"/>
<path d="M22.5391 3.24719L25.625 25.1294L24.2188 32.8233L24.0234 32.5544L21.0156 11.4168V11.0032L22.3438 3.61948L22.5391 3.24719Z" fill="#760D16"/>
<path d="M0 14.5606L1.46484 6.82528L22.5391 3.24719L21.1133 11.1273V11.6443L0.253906 14.7674L0 14.5606Z" fill="#EF463E"/>
<path d="M21.1133 11.1273L24.2188 32.8233L3.35938 36.2773L0 14.5606L21.1133 11.1273Z" fill="url(#paint3_linear_381_544)"/>
<path d="M18.8672 29.3693C18.7109 29.1625 18.4766 29.0177 18.2031 28.9143C17.9297 28.8109 17.5977 28.7695 17.1875 28.7695C16.8164 28.7695 16.3867 28.8109 15.918 28.8936L10.4102 29.8864C10.4688 29.4313 10.6836 28.8522 11.0547 28.1283C11.4648 27.3217 12.0898 26.3496 12.8906 25.2328C13.1641 24.8398 13.3789 24.5503 13.5352 24.3434C13.6328 24.1986 13.7891 24.0125 13.9844 23.7436C15.2539 21.9856 16.0156 20.5585 16.3281 19.4416C16.5039 18.8005 16.6016 18.1593 16.6406 17.5182C16.6602 17.332 16.6602 17.1666 16.6602 17.0011C16.6602 16.5461 16.6211 16.0911 16.543 15.636C16.4844 15.2224 16.3867 14.8915 16.25 14.6226C16.1133 14.3537 15.957 14.1469 15.7617 14.0228C15.5469 13.878 15.2148 13.816 14.8047 13.816C14.4727 13.816 14.0625 13.8573 13.5742 13.9401L7.20703 15.0983C6.44531 15.2431 5.85938 15.4706 5.50781 15.8429C5.21484 16.1324 5.07812 16.5047 5.07812 16.9184C5.07812 17.0218 5.07813 17.1459 5.09766 17.27C5.19531 17.8491 5.46875 18.2627 5.91797 18.4696C6.19141 18.5937 6.50391 18.6557 6.89453 18.6557C7.14844 18.6557 7.44141 18.635 7.75391 18.573L13.0664 17.5802C13.0664 17.6836 13.0859 17.787 13.0859 17.8698C13.0859 18.2214 13.0273 18.573 12.9102 18.9039C12.7539 19.3796 12.3633 20.0414 11.7188 20.8894C11.543 21.1169 11.2695 21.4892 10.8984 21.9649C9.45312 23.8057 8.4375 25.3776 7.8125 26.6806C7.36328 27.5906 7.07031 28.4593 6.89453 29.3486C6.79687 29.8657 6.73828 30.3414 6.73828 30.8171C6.73828 31.148 6.75781 31.4789 6.81641 31.7892C6.89453 32.2442 6.99219 32.6165 7.12891 32.906C7.26562 33.1956 7.46094 33.4231 7.67578 33.5472C7.89062 33.6713 8.18359 33.7127 8.61328 33.7127C9.14062 33.7127 9.86328 33.6299 10.7812 33.4645L16.5625 32.4096C17.5781 32.2235 18.3008 31.9546 18.7109 31.603C19.043 31.3135 19.2188 30.9205 19.2188 30.4655C19.2188 30.3414 19.1992 30.2173 19.1797 30.0932C19.1406 29.8243 19.043 29.5761 18.8672 29.3693Z" fill="white"/>
<defs>
<linearGradient id="paint0_linear_381_544" x1="1158.99" y1="46.922" x2="1158.99" y2="2396.65" gradientUnits="userSpaceOnUse">
<stop offset="0.005618" stop-color="#FFE513"/>
<stop offset="1" stop-color="#FDB924"/>
</linearGradient>
<linearGradient id="paint1_linear_381_544" x1="157.953" y1="350.549" x2="2422.48" y2="2084.9" gradientUnits="userSpaceOnUse">
<stop offset="0.005618" stop-color="#008CD2"/>
<stop offset="1" stop-color="#00649D"/>
</linearGradient>
<linearGradient id="paint2_linear_381_544" x1="1396.22" y1="826.878" x2="1396.22" y2="2885.49" gradientUnits="userSpaceOnUse">
<stop stop-color="#26A146"/>
<stop offset="1" stop-color="#008A52"/>
</linearGradient>
<linearGradient id="paint3_linear_381_544" x1="1059.18" y1="217.554" x2="1419.13" y2="2350.76" gradientUnits="userSpaceOnUse">
<stop stop-color="#D92231"/>
<stop offset="1" stop-color="#BA2234"/>
</linearGradient>
</defs>
</svg>
