<svg width="63" height="63" viewBox="0 0 63 63" fill="none" xmlns="http://www.w3.org/2000/svg">
<path fill-rule="evenodd" clip-rule="evenodd" d="M31.3793 62.76C48.7097 62.76 62.7586 49.1952 62.7586 32.4621C62.7586 15.729 48.7097 2.16411 31.3793 2.16411C14.049 2.16411 0 15.729 0 32.4621C0 37.896 1.48155 42.9958 4.07588 47.4054L0 62.76L16.3954 59.0892C20.848 61.4299 25.9527 62.76 31.3793 62.76ZM31.3793 58.0989C46.0435 58.0989 57.9311 46.6209 57.9311 32.4621C57.9311 18.3034 46.0435 6.82534 31.3793 6.82534C16.7152 6.82534 4.82759 18.3034 4.82759 32.4621C4.82759 37.9289 6.59974 42.996 9.61964 47.157L7.24138 55.7681L16.3171 53.5773C20.5969 56.429 25.7862 58.0989 31.3793 58.0989Z" fill="#BFC8D0"/>
<path d="M58.276 30.2979C58.276 44.6405 46.234 56.2676 31.3795 56.2676C25.7137 56.2676 20.457 54.5761 16.1216 51.6876L6.92805 53.9067L9.3372 45.1837C6.27808 40.9686 4.48291 35.8357 4.48291 30.2979C4.48291 15.9553 16.5249 4.32824 31.3795 4.32824C46.234 4.32824 58.276 15.9553 58.276 30.2979Z" fill="url(#paint0_linear_381_575)"/>
<path fill-rule="evenodd" clip-rule="evenodd" d="M31.3793 60.5959C48.7097 60.5959 62.7586 47.0311 62.7586 30.2979C62.7586 13.5648 48.7097 0 31.3793 0C14.049 0 0 13.5648 0 30.2979C0 35.7319 1.48155 40.8317 4.07588 45.2413L0 60.5959L16.3954 56.9251C20.848 59.2658 25.9527 60.5959 31.3793 60.5959ZM31.3793 55.9348C46.0435 55.9348 57.9311 44.4568 57.9311 30.2979C57.9311 16.1392 46.0435 4.66123 31.3793 4.66123C16.7152 4.66123 4.82759 16.1392 4.82759 30.2979C4.82759 35.7648 6.59974 40.8319 9.61964 44.9929L7.24138 53.604L16.3171 51.4132C20.5969 54.2649 25.7862 55.9348 31.3793 55.9348Z" fill="white"/>
<path d="M23.5343 16.2308C22.7884 14.7839 21.6437 14.912 20.4876 14.912C18.4213 14.912 15.1992 17.3018 15.1992 21.7496C15.1992 25.3946 16.8628 29.3846 22.4683 35.3536C27.8781 41.1141 34.9865 44.0939 40.8876 43.9924C46.7887 43.8911 48.0028 38.9878 48.0028 37.332C48.0028 36.5981 47.531 36.232 47.2062 36.1324C45.1953 35.2005 41.4862 33.4643 40.6423 33.1381C39.7985 32.812 39.3578 33.2533 39.0839 33.4933C38.3187 34.1973 36.8017 36.2727 36.2822 36.7395C35.7629 37.2063 34.9885 36.9699 34.6662 36.7936C33.4802 36.3341 30.265 34.9532 27.7022 32.5542C24.5324 29.5876 24.3464 28.5668 23.7493 27.6583C23.2717 26.9314 23.6222 26.4856 23.797 26.2906C24.48 25.5299 25.4229 24.3552 25.8459 23.7715C26.2686 23.1876 25.9331 22.3014 25.7316 21.7496C24.8653 19.3755 24.1312 17.3882 23.5343 16.2308Z" fill="white"/>
<defs>
<linearGradient id="paint0_linear_381_575" x1="54.9139" y1="10.8207" x2="6.13296" y2="57.9746" gradientUnits="userSpaceOnUse">
<stop stop-color="#5BD066"/>
<stop offset="1" stop-color="#27B43E"/>
</linearGradient>
</defs>
</svg>
