<svg width="56" height="55" viewBox="0 0 56 55" fill="none" xmlns="http://www.w3.org/2000/svg">
<path fill-rule="evenodd" clip-rule="evenodd" d="M12.4768 0H42.7779C49.6402 0 55.2548 5.61462 55.2548 12.4768V42.5232C55.2548 49.3855 49.6402 55 42.7779 55H12.4768C5.61462 55 0 49.3855 0 42.5232V12.4768C0 5.61462 5.61462 0 12.4768 0Z" fill="#D77655"/>
<path d="M15.3548 34.1692L23.3036 29.7093L23.4372 29.322L23.3036 29.1066L22.9163 29.1065L21.5878 29.0246L17.0461 28.9018L13.1073 28.7382L9.29112 28.5336L8.33096 28.329L7.43091 27.1425L7.52361 26.5506L8.33106 26.0078L9.48764 26.1087L12.0435 26.2832L15.8786 26.5478L18.661 26.7115L22.7828 27.1398H23.4372L23.53 26.8753L23.3063 26.7115L23.1317 26.5478L19.1628 23.8583L14.8666 21.0159L12.6162 19.3792L11.3996 18.55L10.7859 17.7726L10.5214 16.076L11.6262 14.8594L13.1101 14.9603L13.4892 15.0613L14.9923 16.2178L18.2028 18.7028L22.3952 21.7906L23.009 22.3008L23.2545 22.1263L23.2845 22.0035L23.009 21.5425L20.7286 17.4208L18.2955 13.2283L17.2125 11.4907L16.9261 10.4487C16.8252 10.0205 16.7516 9.66048 16.7516 9.22124L18.0091 7.51363L18.7046 7.28992L20.3822 7.51363L21.0888 8.12737L22.1307 10.5115L23.8192 14.265L26.4379 19.3686L27.2045 20.8825L27.6136 22.2846L27.7664 22.7128L28.0307 22.7127V22.4672L28.2462 19.5921L28.6444 16.0624L29.0318 11.5207L29.1655 10.2414L29.7982 8.7083L31.0557 7.87916L32.0376 8.34839L32.8451 9.50486L32.7333 10.2523L32.2532 13.3728L31.3121 18.2609L30.6984 21.5342H31.0559L31.4651 21.1251L33.1208 18.9266L35.9032 15.4486L37.1307 14.0684L38.5628 12.5437L39.4819 11.818L41.2194 11.8179L42.4987 13.7191L41.926 15.6831L40.1366 17.9526L38.6527 19.8756L36.5249 22.7398L35.1966 25.031L35.3194 25.2138L35.6358 25.1838L40.4421 24.1609L43.0388 23.6917L46.1376 23.1599L47.5397 23.8146L47.6926 24.4801L47.1415 25.8413L43.8273 26.6596L39.9403 27.4371L34.1519 28.8065L34.081 28.8583L34.1628 28.9592L36.7706 29.2047L37.8861 29.2647H40.6166L45.7011 29.6439L47.0295 30.5223L47.826 31.5971L47.6924 32.4154L45.6466 33.4574L42.8861 32.8027L36.4431 31.2697L34.2336 30.7187L33.9282 30.7186V30.9014L35.7694 32.7017L39.1436 35.7486L43.3689 39.6766L43.5844 40.6477L43.0415 41.4142L42.4688 41.3324L38.7563 38.5391L37.3242 37.2817L34.0809 34.5511L33.8655 34.551V34.8375L34.6129 35.9313L38.56 41.8642L38.7645 43.6836L38.4782 44.2756L37.4552 44.6329L36.3313 44.4284L34.021 41.185L31.6368 37.5325L29.7138 34.2592L29.4793 34.3928L28.3445 46.6159L27.8126 47.2405L26.5851 47.7098L25.5623 46.9323L25.0194 45.6748L25.5623 43.1898L26.2169 39.9466L26.7487 37.3688L27.2289 34.1664L27.5153 33.1025L27.4962 33.0316L27.2617 33.0616L24.8475 36.3758L21.176 41.3377L18.2709 44.4474L17.5753 44.7229L16.3696 44.0981L16.4815 42.9826L17.1552 41.9897L21.176 36.8752L23.6009 33.7055L25.1666 31.8751L25.1557 31.6106H25.063L14.3839 38.5445L12.4826 38.79L11.6643 38.0235L11.7653 36.766L12.1526 36.3569L15.3631 34.1473L15.3522 34.1583L15.3548 34.1692Z" fill="#FCF2EE"/>
</svg>
