<svg width="85" height="35" viewBox="0 0 85 35" fill="none" xmlns="http://www.w3.org/2000/svg">
<path d="M5.91122 13.715C5.91122 12.8037 6.65888 12.4533 7.8972 12.4533C9.6729 12.4533 11.9159 12.9907 13.6916 13.9486V8.45794C11.7523 7.68692 9.83645 7.38318 7.8972 7.38318C3.15421 7.38318 0 9.85981 0 13.9953C0 20.4439 8.87851 19.4159 8.87851 22.1963C8.87851 23.271 7.94393 23.6215 6.63551 23.6215C4.69626 23.6215 2.21963 22.8271 0.257009 21.7523V27.3131C2.42991 28.2477 4.62617 28.6449 6.63551 28.6449C11.4953 28.6449 14.8364 26.2383 14.8364 22.0561C14.8131 15.0935 5.91122 16.3318 5.91122 13.715ZM21.7056 2.71028L16.0047 3.92523L15.9813 22.6402C15.9813 26.0981 18.5748 28.6449 22.0327 28.6449C23.9486 28.6449 25.3505 28.2944 26.1215 27.8738V23.1308C25.3738 23.4346 21.6822 24.5093 21.6822 21.0514V12.757H26.1215V7.78037H21.6822L21.7056 2.71028ZM33.3879 9.50935L33.014 7.78037H27.9673V28.2243H33.8084V14.3692C35.1869 12.5701 37.5234 12.8972 38.2477 13.1542V7.78037C37.5 7.5 34.7664 6.98598 33.3879 9.50935ZM39.6729 7.78037H45.5374V28.2243H39.6729V7.78037ZM39.6729 6.00467L45.5374 4.74299V0L39.6729 1.23832V6.00467ZM57.7336 7.38318C55.4439 7.38318 53.972 8.45794 53.1542 9.20561L52.8505 7.75701H47.7103V35L53.5514 33.7617L53.5748 27.1495C54.4159 27.757 55.6542 28.6215 57.7103 28.6215C61.8925 28.6215 65.7009 25.257 65.7009 17.8505C65.6776 11.0748 61.8224 7.38318 57.7336 7.38318ZM56.3318 23.4813C54.9533 23.4813 54.1355 22.9907 53.5748 22.3832L53.5514 13.715C54.1589 13.0374 55 12.5701 56.3318 12.5701C58.4579 12.5701 59.9299 14.9533 59.9299 18.014C59.9299 21.1449 58.4813 23.4813 56.3318 23.4813ZM84.1122 18.0841C84.1122 12.1028 81.215 7.38318 75.6776 7.38318C70.1168 7.38318 66.7523 12.1028 66.7523 18.0374C66.7523 25.0701 70.7243 28.6215 76.4252 28.6215C79.2056 28.6215 81.3084 27.9907 82.8972 27.1028V22.4299C81.3084 23.2243 79.486 23.715 77.1729 23.715C74.9065 23.715 72.8972 22.9206 72.6402 20.1636H84.0654C84.0654 19.8598 84.1122 18.6449 84.1122 18.0841ZM72.5701 15.8645C72.5701 13.2243 74.1822 12.1262 75.6542 12.1262C77.0794 12.1262 78.5981 13.2243 78.5981 15.8645H72.5701Z" fill="black"/>
</svg>
