<svg width="112" height="24" viewBox="0 0 112 24" fill="none" xmlns="http://www.w3.org/2000/svg">
<path d="M10.1229 8.16885L7.18281 19.4225H0L1.45646 13.8862L10.1229 8.16885Z" fill="#072654"/>
<path d="M25.4111 4.59555C27.0937 4.6046 28.2787 4.9755 28.9482 5.72635C29.6176 6.47719 29.7804 7.54466 29.4095 8.94685C29.1653 9.90577 28.6677 10.7833 27.9712 11.4798C27.2475 12.2035 26.3609 12.7282 25.3749 12.9996C26.1257 13.1715 26.5871 13.7052 26.7318 14.6189L26.759 14.8179L27.3017 19.4225H23.9546L23.3937 14.4651C23.3847 14.3023 23.3394 14.1395 23.258 13.9947C23.1766 13.85 23.059 13.7324 22.9233 13.6419C22.6429 13.4972 22.3353 13.4248 22.0187 13.4158H21.8287H19.7661L18.1921 19.4135H15.062L18.9519 4.59555H25.4111ZM111.162 8.47644L107.181 14.2118L102.486 21.0147L102.45 21.0509L101.4 22.5707L101.364 22.625L101.319 22.6973L100.414 24H97.3025L100.939 18.8707L99.2927 8.83829H102.522L103.336 15.3788L107.281 9.77912L107.335 9.6977L107.398 9.60724L107.462 9.52582L107.95 8.48549H111.162V8.47644ZM83.5882 9.27252C84.1853 9.77912 84.5743 10.4757 84.71 11.2537C84.8728 12.2216 84.8004 13.2258 84.52 14.1666C84.2576 15.2069 83.8144 16.1839 83.1992 17.0524C82.6383 17.8485 81.9146 18.5089 81.0733 18.9793C80.2772 19.4135 79.3997 19.6396 78.4951 19.6396C77.8528 19.6668 77.2196 19.504 76.6677 19.1783C76.2426 18.925 75.9169 18.536 75.736 18.0746L75.6817 17.8937L74.0805 24H70.9776L74.1528 11.8779L74.1709 11.8236L74.18 11.7693L74.958 8.82925H77.9885L77.4729 10.53L77.4638 10.6023C77.9071 9.96909 78.5041 9.45345 79.1917 9.11873C79.8792 8.75688 80.6391 8.57595 81.408 8.57595C82.177 8.53072 82.955 8.78402 83.5882 9.27252ZM79.843 10.9551C79.4812 10.9461 79.1193 11.0185 78.7755 11.1542C78.4408 11.2899 78.1332 11.4979 77.8709 11.7512C77.2558 12.3845 76.8306 13.1896 76.6406 14.049C76.3692 15.0531 76.3873 15.813 76.6587 16.3377C76.9301 16.8624 77.4457 17.1338 78.2147 17.1338C78.9474 17.1519 79.653 16.8715 80.1868 16.3558C80.7838 15.7316 81.2 14.9536 81.3899 14.1033C81.6523 13.1172 81.6342 12.3302 81.3628 11.7784C81.0914 11.2265 80.5848 10.9551 79.843 10.9551ZM93.7744 9.03731C94.1905 9.29966 94.5162 9.68865 94.6971 10.15L94.7605 10.3219L95.1585 8.8202H98.1981L95.4118 19.4044H92.3632L92.7703 17.8394C92.3089 18.3913 91.7299 18.8255 91.0786 19.124C90.4453 19.4135 89.7669 19.5673 89.0793 19.5673C88.2833 19.6035 87.4872 19.3773 86.8358 18.8978C86.2388 18.4274 85.8407 17.7399 85.7141 16.9891C85.5513 16.0302 85.6055 15.0531 85.886 14.1214C86.1574 13.081 86.6097 12.095 87.2339 11.2175C87.8038 10.4124 88.5366 9.73388 89.3869 9.24538C90.1649 8.79306 91.0515 8.54881 91.947 8.54881C92.5984 8.53072 93.2316 8.69355 93.7744 9.03731ZM92.2003 10.9823C91.8294 10.9823 91.4585 11.0547 91.1238 11.1994C90.7801 11.3441 90.4725 11.5522 90.2101 11.8145C89.604 12.4568 89.1698 13.2529 88.9798 14.1214C88.7265 15.0984 88.7265 15.8402 89.016 16.3739C89.2965 16.9076 89.8211 17.1609 90.5991 17.1609C90.961 17.17 91.3228 17.0976 91.6666 16.9619C92.0104 16.8262 92.3089 16.6182 92.5712 16.3649C93.105 15.7949 93.494 15.1165 93.7111 14.3566L93.7835 14.0761C94.0548 13.072 94.0458 12.3031 93.7563 11.7874C93.4759 11.2537 92.9602 10.9823 92.2003 10.9823ZM73.393 8.71165L73.592 8.79306L72.814 11.6789C72.3707 11.4436 71.8822 11.326 71.3937 11.326C70.6519 11.2989 69.9282 11.5432 69.3402 12.0045C68.8336 12.4387 68.4627 13.0177 68.2727 13.651L68.2094 13.8952L66.762 19.4225H63.6681L66.4725 8.83829H69.5211L69.1231 10.3943C69.503 9.86958 69.9915 9.4444 70.5434 9.12778C71.1585 8.77497 71.846 8.59404 72.5516 8.59404C72.8321 8.57595 73.1216 8.61214 73.393 8.71165ZM61.9674 9.21824C62.6549 9.65247 63.1525 10.34 63.3424 11.1361C63.5686 12.095 63.5324 13.1082 63.2429 14.049C62.9715 15.1165 62.4921 16.1116 61.8136 16.9619C61.1713 17.7851 60.3571 18.4365 59.4254 18.8798C58.4755 19.323 57.4442 19.5492 56.3948 19.5401C55.2912 19.5401 54.3865 19.323 53.6809 18.8798C52.9844 18.4455 52.4868 17.758 52.2878 16.9619C52.0707 16.003 52.1069 14.9898 52.3873 14.049C52.6587 12.9906 53.1382 11.9955 53.8166 11.1361C54.4589 10.3219 55.2821 9.66151 56.223 9.21824C57.1819 8.77497 58.2313 8.53976 59.2897 8.55786C60.2215 8.51263 61.1532 8.74783 61.9674 9.21824ZM58.6564 10.9461C57.9237 10.9371 57.2181 11.2175 56.6843 11.7241C56.1325 12.2488 55.7164 13.0177 55.454 14.049C54.9112 16.1206 55.4359 17.1519 57.0281 17.1519C57.7518 17.17 58.4484 16.8896 58.9731 16.383C59.5158 15.8673 59.9139 15.0893 60.1853 14.049C60.4567 13.0268 60.4657 12.2578 60.1943 11.7241C59.932 11.1903 59.4163 10.9461 58.6564 10.9461ZM52.3692 8.82925L51.8264 10.928L44.9964 16.9619H50.4785L49.8272 19.4316H40.7537L41.3236 17.2514L48.045 11.308H42.9339L43.5852 8.83829H52.3692V8.82925ZM37.0537 9.03731C37.4699 9.29966 37.7955 9.68865 37.9764 10.15L38.0398 10.3219L38.4378 8.8202H41.4864L38.7092 19.4044H35.6606L36.0677 17.8394C35.6063 18.3822 35.0364 18.8164 34.3941 19.115C33.7518 19.4135 33.0552 19.5673 32.3406 19.5673C31.5445 19.6035 30.7665 19.3683 30.1242 18.8978C29.5271 18.4274 29.1291 17.7399 29.0025 16.9891C28.8396 16.0302 28.8939 15.0531 29.1743 14.1214C29.4367 13.081 29.898 12.095 30.5222 11.2175C31.0922 10.4124 31.8249 9.73388 32.6662 9.24538C33.4442 8.79306 34.3308 8.55786 35.2264 8.55786C35.8777 8.53976 36.5109 8.7026 37.0537 9.03731ZM35.4887 10.9823C35.1178 10.9823 34.7559 11.0547 34.4122 11.1994C34.0684 11.3441 33.7608 11.5522 33.4985 11.8145C32.8833 12.4568 32.4582 13.2529 32.2682 14.1214C32.0149 15.0984 32.0239 15.8402 32.3044 16.3739C32.5848 16.9076 33.1095 17.1609 33.8875 17.1609C34.2493 17.17 34.6112 17.0976 34.955 16.9619C35.2897 16.8262 35.6063 16.6182 35.8596 16.3649C36.3933 15.804 36.7914 15.1165 36.9994 14.3566L37.0718 14.0761C37.3342 13.072 37.307 12.3211 37.0447 11.7874C36.7642 11.2537 36.2395 10.9823 35.4887 10.9823ZM24.2893 7.06521H21.3854L20.3632 10.9371H23.2671C24.1807 10.9371 24.9045 10.7833 25.393 10.4666C25.9086 10.1319 26.2795 9.60723 26.4152 8.99208C26.5961 8.34074 26.5147 7.84319 26.1709 7.52657C25.8272 7.22804 25.203 7.06521 24.2893 7.06521Z" fill="#072654"/>
<path d="M16.6451 0L11.5429 19.4225H8.04198L11.4886 6.26913L6.20557 9.75198L7.14639 6.28722L16.6451 0Z" fill="#3395FF"/>
</svg>
