<svg width="77" height="55" viewBox="0 0 77 55" fill="none" xmlns="http://www.w3.org/2000/svg">
<path d="M76.2365 20.7513C74.6605 19.7179 72.7246 19.1015 70.6448 19.1015C70.4057 19.1015 70.1692 19.1092 69.9353 19.1245L69.9661 19.122C68.8195 19.1245 67.6986 19.2269 66.6086 19.4161L66.7268 19.3982C66.1227 15.9273 64.0917 13.0166 61.2714 11.2363L61.2226 11.2082L60.1197 10.5739L59.3947 11.6174C58.5309 12.927 57.8548 14.4515 57.4511 16.0808L57.4306 16.1805C57.2018 17.0093 57.0706 17.9607 57.0706 18.9429C57.0706 21.0685 57.6877 23.0482 58.752 24.7184L58.7263 24.6749C57.0886 25.4397 55.1759 25.9231 53.1629 26.0152H53.1295H2.4089C1.08233 26.0178 0.00771272 27.0844 0.00257099 28.4016C1.20015e-07 28.5449 0 28.7162 0 28.8876C0 33.3663 0.814965 37.6557 2.30607 41.6177L2.2238 41.367C3.65834 45.5439 6.36803 48.9764 9.88498 51.2938L9.95696 51.3373C14.4406 53.6469 19.7468 55 25.3693 55C25.9015 55 26.4285 54.9872 26.9555 54.9642L26.881 54.9667C26.9272 54.9667 26.9812 54.9667 27.0352 54.9667C30.3054 54.9667 33.501 54.6573 36.5988 54.0664L36.2826 54.1176C40.8973 53.2582 45.0107 51.7158 48.7385 49.5826L48.5482 49.6824C51.7798 47.8024 54.5409 45.5362 56.8907 42.8991L56.9215 42.8633C60.3279 38.8732 63.0993 34.2155 65.0069 29.1408L65.1123 28.8211H65.8219C65.9633 28.8262 66.1278 28.8313 66.2923 28.8313C69.4442 28.8313 72.3082 27.601 74.424 25.5957L74.4188 25.6008C75.3881 24.6852 76.1568 23.5725 76.6632 22.3243L76.6864 22.2629L77 21.3447L76.2365 20.7513ZM7.10844 24.5419H13.911C14.2375 24.5394 14.5023 24.2759 14.5023 23.9511V17.9275C14.5023 17.6027 14.2375 17.3367 13.911 17.3341H7.10844C6.78194 17.3367 6.51714 17.6001 6.51714 17.9249V23.9511C6.51714 24.2759 6.78194 24.5419 7.10844 24.5419ZM16.4767 24.5419H23.274C23.6005 24.5419 23.8679 24.2785 23.8679 23.9511V17.9275C23.8679 17.6027 23.6031 17.3367 23.2766 17.3341H16.4741C16.145 17.3341 15.8777 17.6001 15.8777 17.9275V23.9511C15.8802 24.2785 16.1476 24.5419 16.4767 24.5419ZM25.9837 24.5419H32.7863C33.1128 24.5394 33.3776 24.2759 33.3776 23.9511V17.9275C33.3776 17.6027 33.1128 17.3367 32.7863 17.3341H25.9837C25.6572 17.3367 25.3924 17.6001 25.3924 17.9249V23.9511C25.3924 24.2759 25.6572 24.5419 25.9863 24.5419H25.9837ZM35.3828 24.5419H42.1776C42.5067 24.5419 42.7715 24.2785 42.7741 23.9511V17.9275C42.7741 17.6001 42.5067 17.3341 42.1776 17.3341H35.3828C35.0563 17.3341 34.789 17.5975 34.789 17.9249V23.9511C34.789 24.2759 35.0538 24.5419 35.3803 24.5419C35.3803 24.5419 35.3803 24.5419 35.3828 24.5419ZM16.4767 15.8762H23.274C23.6031 15.8736 23.8679 15.6101 23.8679 15.2828V9.25917C23.8679 8.93433 23.6031 8.66832 23.274 8.66832H16.4767C16.1476 8.66832 15.8828 8.93178 15.8802 9.25917V15.2828C15.8828 15.6101 16.1476 15.8736 16.4767 15.8762ZM25.9837 15.8762H32.7863C33.1128 15.8736 33.3776 15.6076 33.3776 15.2828V9.25917C33.3776 8.93433 33.1128 8.66832 32.7837 8.66832H25.9889C25.6624 8.66832 25.395 8.93178 25.395 9.25917V15.2828C25.3976 15.6101 25.6598 15.8736 25.9889 15.8762H25.9837ZM35.3828 15.8762H42.1776C42.5067 15.8736 42.7715 15.6101 42.7741 15.2828V9.25917C42.7715 8.93178 42.5067 8.66832 42.1776 8.66832H35.3828C35.0563 8.66832 34.789 8.93178 34.789 9.25917V15.2828C34.789 15.6101 35.0538 15.8736 35.3828 15.8762ZM35.3828 7.21039H42.1776C42.5067 7.21039 42.7741 6.94438 42.7741 6.61698V0.590848C42.7715 0.263451 42.5067 0 42.1776 0H35.3828C35.0563 0 34.789 0.263451 34.789 0.590848V6.61698C34.789 6.94182 35.0538 7.20783 35.3803 7.20783C35.3803 7.20783 35.3803 7.20783 35.3828 7.20783V7.21039ZM44.8616 24.5419H51.659C51.988 24.5419 52.2528 24.2785 52.2554 23.9511V17.9275C52.2554 17.6001 51.988 17.3341 51.659 17.3341H44.8616C44.5325 17.3341 44.2677 17.5975 44.2677 17.9249V23.9511C44.2677 24.2759 44.5325 24.5419 44.8616 24.5419Z" fill="black"/>
</svg>
