<svg width="59" height="60" viewBox="0 0 59 60" fill="none" xmlns="http://www.w3.org/2000/svg">
<path d="M55.1245 24.5526C55.7933 22.5323 56.0246 20.3921 55.803 18.275C55.5813 16.1578 54.9119 14.1125 53.8393 12.2757C52.2492 9.49922 49.8212 7.30106 46.9055 5.99807C43.9897 4.69507 40.7367 4.35458 37.6156 5.02567C35.8424 3.04709 33.5815 1.57136 31.0598 0.746716C28.5381 -0.077929 25.8445 -0.222462 23.2495 0.327634C20.6546 0.87773 18.2496 2.10309 16.2761 3.88064C14.3026 5.65819 12.8301 7.92534 12.0065 10.4544C9.92722 10.8821 7.96286 11.7501 6.24473 13.0004C4.5266 14.2506 3.09428 15.8544 2.0435 17.7044C0.436115 20.4762 -0.250868 23.689 0.0818644 26.8782C0.414597 30.0675 1.7498 33.0679 3.89445 35.4458C3.22321 37.4652 2.98959 39.605 3.20922 41.7222C3.42884 43.8394 4.09665 45.8851 5.16796 47.7225C6.76008 50.5 9.19016 52.6987 12.108 54.0016C15.0258 55.3046 18.2807 55.6447 21.4036 54.9728C22.8124 56.5642 24.5434 57.8357 26.481 58.7026C28.4186 59.5695 30.5184 60.0117 32.6399 59.9998C35.839 60.0027 38.9563 58.9859 41.5417 57.096C44.1272 55.2061 46.0471 52.541 47.0244 49.4853C49.1035 49.0568 51.0676 48.1885 52.7856 46.9383C54.5036 45.688 55.9361 44.0846 56.9875 42.2351C58.5758 39.4673 59.251 36.2666 58.9164 33.0907C58.5818 29.9148 57.2546 26.9261 55.1245 24.5526ZM32.6399 56.0728C30.0199 56.0769 27.4821 55.1558 25.4714 53.4708L25.825 53.2698L37.7335 46.3743C38.0299 46.1999 38.2759 45.9512 38.4475 45.6526C38.6191 45.354 38.7103 45.0157 38.7122 44.6711V27.8289L43.7464 30.7503C43.7713 30.763 43.7928 30.7814 43.8093 30.804C43.8258 30.8265 43.8367 30.8527 43.8411 30.8803V44.8368C43.8348 47.8149 42.6526 50.6691 40.5534 52.7749C38.4541 54.8807 35.6087 56.0665 32.6399 56.0728ZM8.56358 45.7593C7.24962 43.4834 6.77785 40.8155 7.23125 38.2251L7.58514 38.4381L19.5053 45.3336C19.8003 45.5072 20.136 45.5987 20.478 45.5987C20.82 45.5987 21.1558 45.5072 21.4507 45.3336L36.0121 36.9123V42.7433C36.0108 42.7735 36.0026 42.8031 35.9883 42.8297C35.974 42.8563 35.9538 42.8793 35.9294 42.8971L23.8677 49.8753C21.2935 51.3628 18.2362 51.7649 15.3668 50.9932C12.4974 50.2214 10.0506 48.3391 8.56358 45.7593ZM5.4274 19.7389C6.75046 17.4483 8.8388 15.7012 11.3227 14.8069V28.9999C11.3182 29.3427 11.4055 29.6806 11.5756 29.978C11.7456 30.2755 11.9921 30.5218 12.2894 30.6911L26.78 39.0768L21.7456 41.9981C21.7183 42.0126 21.6879 42.0202 21.6571 42.0202C21.6262 42.0202 21.5959 42.0126 21.5686 41.9981L9.53055 35.0318C6.96125 33.5379 5.08684 31.0834 4.31779 28.206C3.54874 25.3286 3.94774 22.2628 5.4274 19.6799V19.7389ZM46.7886 29.3784L32.2509 20.9099L37.2737 17.9999C37.3009 17.9854 37.3313 17.9778 37.3622 17.9778C37.393 17.9778 37.4234 17.9854 37.4506 17.9999L49.4887 24.9781C51.3293 26.0435 52.8298 27.6121 53.815 29.5009C54.8003 31.3896 55.2295 33.5205 55.0528 35.6448C54.876 37.7691 54.1005 39.7992 52.8167 41.4979C51.5329 43.1967 49.7939 44.494 47.8027 45.2386V31.0456C47.7923 30.7033 47.6933 30.3696 47.5155 30.0772C47.3376 29.7849 47.0873 29.5442 46.7886 29.3784ZM51.7997 21.8206L51.4458 21.6076L39.5493 14.6531C39.2526 14.4785 38.9147 14.3864 38.5706 14.3864C38.2265 14.3864 37.8887 14.4785 37.5919 14.6531L23.0427 23.0741V17.2434C23.0396 17.2137 23.0446 17.1838 23.057 17.1567C23.0695 17.1297 23.089 17.1065 23.1135 17.0896L35.1516 10.1232C36.9966 9.05696 39.1061 8.53976 41.2333 8.63206C43.3606 8.72436 45.4177 9.42234 47.1641 10.6444C48.9104 11.8664 50.2738 13.5619 51.0947 15.5327C51.9157 17.5035 52.1603 19.668 51.7999 21.7731L51.7997 21.8206ZM20.2951 32.1573L15.2609 29.2479C15.2357 29.2326 15.2141 29.2121 15.1978 29.1876C15.1814 29.1631 15.1706 29.1353 15.1662 29.1061V15.1854C15.1689 13.0498 15.7777 10.9592 16.9213 9.15791C18.0649 7.35662 19.696 5.91914 21.624 5.01352C23.552 4.1079 25.6972 3.77158 27.8087 4.04387C29.9203 4.31617 31.9109 5.18583 33.5478 6.55117L33.194 6.75242L21.2857 13.6474C20.9894 13.8218 20.7433 14.0705 20.5717 14.3691C20.4001 14.6677 20.3089 15.006 20.3071 15.3506L20.2951 32.1573ZM23.0305 26.2439L29.5152 22.4944L36.0121 26.2439V33.7423L29.5389 37.4916L23.0425 33.7423L23.0305 26.2439Z" fill="black"/>
</svg>
