<svg width="65" height="65" viewBox="0 0 65 65" fill="none" xmlns="http://www.w3.org/2000/svg">
<path d="M55.3854 55.3853H45.7546V40.2999C45.7546 36.7033 45.6896 32.072 40.7442 32.072C35.7283 32.072 34.9592 35.9937 34.9592 40.0345V55.3853H25.3283V24.3642H34.5746V28.6054H34.7046C36.5896 25.3879 40.0996 23.4596 43.8262 23.595C53.5871 23.595 55.3908 30.0137 55.3908 38.3716L55.3854 55.3799V55.3853ZM14.4625 20.1229C12.9831 20.1158 11.5662 19.5253 10.5195 18.4797C9.4729 17.4341 8.88104 16.0178 8.8725 14.5384C8.8725 11.4725 11.3967 8.94838 14.4625 8.94838C17.5283 8.94838 20.0471 11.4725 20.0525 14.5384C20.0525 17.6042 17.5283 20.1229 14.4625 20.1229ZM19.2779 55.3853H9.63625V24.3642H19.2779V55.3853ZM60.1792 8.05089e-05H4.79375C3.5379 -0.0072137 2.32991 0.481402 1.43229 1.35975C0.534673 2.23809 0.0199586 3.43519 0 4.6909V60.309C0.0199586 61.5647 0.534673 62.7618 1.43229 63.6402C2.32991 64.5185 3.5379 65.0071 4.79375 64.9998H60.1846C61.4433 65.01 62.6552 64.523 63.5569 63.6447C64.4586 62.7663 64.9772 61.5676 65 60.309V4.68548C64.9772 3.42788 64.4583 2.23027 63.5563 1.35364C62.6543 0.477009 61.4423 -0.00757384 60.1846 0.00549676L60.1792 8.05089e-05Z" fill="#0A66C2"/>
</svg>
