<svg width="439" height="85" viewBox="0 0 439 85" fill="none" xmlns="http://www.w3.org/2000/svg">
<g clip-path="url(#clip0_108_244)">
<path d="M55.584 61.4833L46.7926 84.4333H44.5239V61.4833H38.8521L32.613 73.1L26.6576 61.4833H20.9858V84.4333H18.1499L9.64212 61.4833H4.82106L0 73.95L0.567183 32.5833H67.4948V80.4666L60.405 61.4833H55.584Z" fill="#30261C"/>
<path d="M7.37342 67.15L4.25391 75.9333H10.4929L7.37342 67.15Z" fill="#30261C"/>
<path d="M1.98535 84.15L3.6869 79.05H10.7767L12.7618 84.15H1.98535Z" fill="#30261C"/>
<path d="M57.8529 66.8666L54.7334 75.65H60.9724L57.8529 66.8666Z" fill="#30261C"/>
<path d="M52.4644 83.8667L54.1659 78.7667H61.2557L63.2408 83.8667H52.4644Z" fill="#30261C"/>
<path d="M26.0903 84.15V71.1167L31.4786 80.4667H34.3145L39.1356 71.1167V84.15H26.0903Z" fill="#30261C"/>
<path d="M0.283691 31.1667V29.1833H67.2113V31.1667H0.283691Z" fill="#30261C"/>
<path d="M0.283691 27.4833V25.5H67.2113V27.4833H0.283691Z" fill="#30261C"/>
<path d="M0.283691 24.0833V22.1H67.2113V24.0833H0.283691Z" fill="#30261C"/>
<path d="M0.283691 21.25V17.2833H67.2113V21.25H0.283691Z" fill="#30261C"/>
<path d="M70.6143 85V21.8167L93.3016 72.8166L70.6143 85Z" fill="#D29E0D"/>
<path d="M95.5702 5.38336L72.8828 16.4334L95.003 68.5667L95.5702 5.38336Z" fill="#D29E0D"/>
<path d="M27.7921 1.70001L0.283691 14.1667H67.7785L95.6233 1.70001H27.7921Z" fill="#D29E0D"/>
<path d="M133.602 13.022H138.526L147.704 37.9666H142.71L140.389 31.748H131.668L129.383 37.9666H124.389L133.602 13.022ZM139.51 28.3401L136.064 18.046L132.477 28.3401H139.51ZM170.451 37.9666V21.5945L164.051 33.7858H161.343L154.943 21.5945V37.9666H150.091V13.022H155.295L162.68 27.2158L170.135 13.022H175.304V37.9666H170.451ZM186.952 13.022H191.876L201.054 37.9666H196.06L193.739 31.748H185.018L182.733 37.9666H177.739L186.952 13.022ZM192.86 28.3401L189.414 18.046L185.827 28.3401H192.86ZM126.816 72.5333V47.5886H131.668V68.2821H144.398V72.5333H126.816ZM164.336 68.2821V72.5333H147V47.5886H164.02V51.8397H151.853V57.8475H162.367V61.7825H151.853V68.2821H164.336ZM177.695 72.7089C176.078 72.7089 174.542 72.3808 173.089 71.7252C171.659 71.0696 170.393 70.1674 169.291 69.0199C168.213 67.8486 167.369 66.4903 166.759 64.9445C166.15 63.3986 165.845 61.7241 165.845 59.9204C165.845 58.2108 166.15 56.6061 166.759 55.1071C167.369 53.5847 168.225 52.2496 169.326 51.1019C170.428 49.9543 171.717 49.0525 173.194 48.3967C174.671 47.7409 176.277 47.4129 178.012 47.4129C180.357 47.4129 182.361 47.9165 184.025 48.9237C185.713 49.9074 186.979 51.2191 187.823 52.8586L184.201 55.5287C183.568 54.2873 182.677 53.3387 181.528 52.6829C180.403 52.0271 179.172 51.6992 177.836 51.6992C176.781 51.6992 175.82 51.9217 174.952 52.3667C174.085 52.8117 173.335 53.4207 172.702 54.1937C172.069 54.9666 171.577 55.8567 171.225 56.8638C170.897 57.8708 170.733 58.9367 170.733 60.0609C170.733 61.2555 170.908 62.3565 171.26 63.3635C171.636 64.3704 172.151 65.2488 172.807 65.9985C173.487 66.7482 174.273 67.3454 175.163 67.7903C176.054 68.2119 177.039 68.4227 178.117 68.4227C179.383 68.4227 180.591 68.0946 181.739 67.4389C182.912 66.7833 184.002 65.8228 185.01 64.558V69.3361C182.924 71.5847 180.485 72.7089 177.695 72.7089ZM184.658 63.2581H179.629V59.7096H188.667V72.5333H184.658V63.2581ZM199.238 47.5886H204.161L213.339 72.5333H208.346L206.025 66.3147H197.304L195.018 72.5333H190.025L199.238 47.5886ZM205.146 62.9067L201.7 52.6127L198.113 62.9067H205.146ZM215.726 72.5333V47.5886H220.579V68.2821H233.309V72.5333H215.726ZM257.817 54.1234C257.654 53.9595 257.348 53.7369 256.903 53.4559C256.481 53.1748 255.954 52.9055 255.321 52.6478C254.711 52.3901 254.043 52.1677 253.316 51.9803C252.59 51.7695 251.851 51.6641 251.101 51.6641C249.788 51.6641 248.792 51.91 248.112 52.4019C247.456 52.8937 247.127 53.5847 247.127 54.4747C247.127 55.154 247.338 55.6927 247.76 56.0909C248.182 56.4891 248.815 56.8287 249.659 57.1097C250.503 57.3908 251.558 57.6951 252.824 58.0232C254.465 58.4216 255.883 58.9134 257.079 59.4988C258.298 60.0609 259.224 60.8106 259.857 61.7473C260.513 62.6608 260.842 63.8786 260.842 65.4012C260.842 66.7363 260.595 67.8838 260.103 68.8443C259.611 69.781 258.931 70.5426 258.064 71.1279C257.196 71.7133 256.212 72.1468 255.11 72.4279C254.008 72.6857 252.836 72.8143 251.593 72.8143C250.35 72.8143 249.108 72.6857 247.866 72.4279C246.623 72.17 245.427 71.8074 244.279 71.3387C243.13 70.8469 242.075 70.2615 241.114 69.5821L243.259 65.4012C243.47 65.612 243.845 65.8931 244.384 66.2444C244.924 66.5725 245.58 66.9119 246.354 67.2633C247.127 67.5914 247.971 67.8724 248.885 68.1065C249.8 68.3405 250.726 68.4578 251.663 68.4578C252.977 68.4578 253.972 68.2351 254.653 67.7903C255.333 67.3454 255.672 66.713 255.672 65.8931C255.672 65.1434 255.403 64.558 254.864 64.1364C254.324 63.7148 253.574 63.3516 252.613 63.0473C251.652 62.7192 250.515 62.3678 249.202 61.9933C247.631 61.5484 246.318 61.0566 245.263 60.5177C244.208 59.9555 243.423 59.2529 242.907 58.4097C242.392 57.5665 242.134 56.5125 242.134 55.2477C242.134 53.5379 242.532 52.1091 243.329 50.9614C244.15 49.7903 245.251 48.9119 246.635 48.3264C248.018 47.7174 249.554 47.4129 251.242 47.4129C252.414 47.4129 253.515 47.5417 254.547 47.7994C255.602 48.0571 256.587 48.3967 257.501 48.8183C258.415 49.2399 259.236 49.6966 259.963 50.1885L257.817 54.1234ZM274.812 72.7089C272.983 72.7089 271.319 72.3576 269.818 71.6549C268.342 70.9523 267.064 70.0037 265.985 68.8091C264.93 67.5914 264.11 66.2325 263.524 64.7337C262.938 63.211 262.645 61.6538 262.645 60.0609C262.645 58.3978 262.95 56.8168 263.559 55.3179C264.192 53.7955 265.048 52.4487 266.126 51.2776C267.228 50.0831 268.517 49.1462 269.994 48.4669C271.495 47.7643 273.136 47.4129 274.917 47.4129C276.723 47.4129 278.364 47.776 279.841 48.5021C281.341 49.2281 282.619 50.2002 283.674 51.4181C284.729 52.6361 285.549 53.9946 286.135 55.4936C286.722 56.9924 287.014 58.5383 287.014 60.1312C287.014 61.7706 286.71 63.3516 286.1 64.8742C285.491 66.373 284.635 67.72 283.533 68.9145C282.455 70.0858 281.166 71.0106 279.665 71.6901C278.188 72.3695 276.57 72.7089 274.812 72.7089ZM267.568 60.0609C267.568 61.1382 267.732 62.1808 268.06 63.1878C268.389 64.1948 268.858 65.0969 269.467 65.8931C270.1 66.666 270.862 67.2865 271.753 67.7551C272.667 68.2 273.699 68.4227 274.847 68.4227C276.019 68.4227 277.063 68.1886 277.977 67.72C278.891 67.2281 279.653 66.5838 280.263 65.7877C280.872 64.9677 281.329 64.0661 281.634 63.0824C281.962 62.0754 282.126 61.0679 282.126 60.0609C282.126 58.9837 281.951 57.9529 281.599 56.9692C281.271 55.9621 280.79 55.072 280.157 54.2991C279.548 53.5027 278.786 52.882 277.871 52.437C276.981 51.9685 275.972 51.7343 274.847 51.7343C273.651 51.7343 272.597 51.9803 271.682 52.4721C270.792 52.9406 270.041 53.573 269.432 54.3693C268.822 55.1657 268.353 56.0557 268.025 57.0395C267.72 58.0232 267.568 59.0302 267.568 60.0609ZM290.386 72.5333V47.5886H295.238V68.2821H307.968V72.5333H290.386ZM320.502 72.7089C318.509 72.7089 316.81 72.3808 315.403 71.7252C314.02 71.0458 312.895 70.121 312.027 68.9497C311.183 67.7784 310.562 66.4552 310.163 64.9796C309.765 63.4808 309.566 61.923 309.566 60.3069V47.5886H314.418V60.3069C314.418 61.3376 314.513 62.3446 314.7 63.3283C314.911 64.2888 315.251 65.1553 315.719 65.9282C316.189 66.7011 316.81 67.3103 317.583 67.7551C318.357 68.2 319.318 68.4227 320.467 68.4227C321.639 68.4227 322.612 68.2 323.386 67.7551C324.183 67.2865 324.804 66.666 325.249 65.8931C325.718 65.1201 326.058 64.2537 326.269 63.2932C326.48 62.3095 326.586 61.3138 326.586 60.3069V47.5886H331.403V60.3069C331.403 62.0165 331.192 63.6213 330.77 65.1201C330.372 66.619 329.727 67.9427 328.836 69.0902C327.969 70.2145 326.844 71.1047 325.46 71.7603C324.078 72.3927 322.425 72.7089 320.502 72.7089ZM354.612 51.8397H346.63V72.5333H341.812V51.8397H333.83V47.5886H354.612V51.8397ZM357.36 72.5333V47.5886H362.213V72.5333H357.36ZM377.726 72.7089C375.897 72.7089 374.233 72.3576 372.732 71.6549C371.255 70.9523 369.978 70.0037 368.899 68.8091C367.844 67.5914 367.024 66.2325 366.438 64.7337C365.852 63.211 365.559 61.6538 365.559 60.0609C365.559 58.3978 365.864 56.8168 366.473 55.3179C367.106 53.7955 367.962 52.4487 369.04 51.2776C370.142 50.0831 371.431 49.1462 372.908 48.4669C374.409 47.7643 376.05 47.4129 377.831 47.4129C379.637 47.4129 381.277 47.776 382.754 48.5021C384.255 49.2281 385.532 50.2002 386.587 51.4181C387.642 52.6361 388.463 53.9946 389.049 55.4936C389.635 56.9924 389.928 58.5383 389.928 60.1312C389.928 61.7706 389.624 63.3516 389.014 64.8742C388.405 66.373 387.549 67.72 386.447 68.9145C385.369 70.0858 384.079 71.0106 382.579 71.6901C381.102 72.3695 379.484 72.7089 377.726 72.7089ZM370.482 60.0609C370.482 61.1382 370.646 62.1808 370.974 63.1878C371.302 64.1948 371.771 65.0969 372.381 65.8931C373.014 66.666 373.776 67.2865 374.666 67.7551C375.581 68.2 376.612 68.4227 377.761 68.4227C378.933 68.4227 379.976 68.1886 380.891 67.72C381.805 67.2281 382.567 66.5838 383.176 65.7877C383.786 64.9677 384.243 64.0661 384.548 63.0824C384.876 62.0754 385.04 61.0679 385.04 60.0609C385.04 58.9837 384.864 57.9529 384.513 56.9692C384.185 55.9621 383.704 55.072 383.071 54.2991C382.462 53.5027 381.699 52.882 380.785 52.437C379.895 51.9685 378.886 51.7343 377.761 51.7343C376.565 51.7343 375.51 51.9803 374.596 52.4721C373.706 52.9406 372.955 53.573 372.345 54.3693C371.736 55.1657 371.267 56.0557 370.939 57.0395C370.634 58.0232 370.482 59.0302 370.482 60.0609ZM398.152 56.5125V72.5333H393.299V47.5886H397.167L410.073 64.031V47.6237H414.926V72.5333H410.882L398.152 56.5125ZM434.643 54.1234C434.479 53.9595 434.174 53.7369 433.729 53.4559C433.307 53.1748 432.779 52.9055 432.146 52.6478C431.537 52.3901 430.869 52.1677 430.142 51.9803C429.415 51.7695 428.676 51.6641 427.927 51.6641C426.614 51.6641 425.617 51.91 424.938 52.4019C424.281 52.8937 423.953 53.5847 423.953 54.4747C423.953 55.154 424.164 55.6927 424.586 56.0909C425.008 56.4891 425.641 56.8287 426.485 57.1097C427.329 57.3908 428.384 57.6951 429.65 58.0232C431.291 58.4216 432.709 58.9134 433.905 59.4988C435.124 60.0609 436.05 60.8106 436.683 61.7473C437.339 62.6608 437.667 63.8786 437.667 65.4012C437.667 66.7363 437.421 67.8838 436.929 68.8443C436.437 69.781 435.757 70.5426 434.889 71.1279C434.022 71.7133 433.037 72.1468 431.935 72.4279C430.833 72.6857 429.661 72.8143 428.419 72.8143C427.176 72.8143 425.933 72.6857 424.691 72.4279C423.449 72.17 422.253 71.8074 421.104 71.3387C419.955 70.8469 418.9 70.2615 417.94 69.5821L420.085 65.4012C420.296 65.612 420.671 65.8931 421.21 66.2444C421.749 66.5725 422.406 66.9119 423.179 67.2633C423.953 67.5914 424.797 67.8724 425.711 68.1065C426.625 68.3405 427.551 68.4578 428.489 68.4578C429.802 68.4578 430.798 68.2351 431.478 67.7903C432.158 67.3454 432.498 66.713 432.498 65.8931C432.498 65.1434 432.228 64.558 431.689 64.1364C431.15 63.7148 430.4 63.3516 429.439 63.0473C428.477 62.7192 427.34 62.3678 426.028 61.9933C424.457 61.5484 423.144 61.0566 422.089 60.5177C421.034 59.9555 420.249 59.2529 419.733 58.4097C419.217 57.5665 418.959 56.5125 418.959 55.2477C418.959 53.5379 419.358 52.1091 420.155 50.9614C420.975 49.7903 422.077 48.9119 423.461 48.3264C424.843 47.7174 426.379 47.4129 428.067 47.4129C429.239 47.4129 430.341 47.5417 431.373 47.7994C432.428 48.0571 433.412 48.3967 434.327 48.8183C435.241 49.2399 436.061 49.6966 436.788 50.1885L434.643 54.1234Z" fill="#30261C"/>
<path d="M435.27 7.36667L434.093 5.38107H433.215V7.36667H432.738V2.61346H434.168C434.698 2.61346 435.1 2.7404 435.372 2.99426C435.649 3.24813 435.787 3.58133 435.787 3.99386C435.787 4.3384 435.688 4.63306 435.488 4.87786C435.293 5.11813 435.002 5.27453 434.617 5.34707L435.842 7.36667H435.27ZM433.215 4.99347H434.174C434.546 4.99347 434.826 4.9028 435.012 4.72146C435.202 4.54013 435.297 4.2976 435.297 3.99386C435.297 3.68106 435.207 3.4408 435.025 3.27306C434.844 3.1008 434.558 3.01466 434.168 3.01466H433.215V4.99347Z" fill="#30261C"/>
<path d="M439 4.99541C439 7.75432 436.761 9.99084 434 9.99084C431.239 9.99084 429 7.75432 429 4.99541C429 2.23652 431.239 0 434 0C436.761 0 439 2.23652 439 4.99541ZM429.323 4.99541C429.323 7.57633 431.417 9.66858 434 9.66858C436.583 9.66858 438.677 7.57633 438.677 4.99541C438.677 2.4145 436.583 0.322255 434 0.322255C431.417 0.322255 429.323 2.4145 429.323 4.99541Z" fill="#30261C"/>
</g>
<defs>
<clipPath id="clip0_108_244">
<rect width="439" height="85" fill="white"/>
</clipPath>
</defs>
</svg>
