<svg width="180" height="55" viewBox="0 0 180 55" fill="none" xmlns="http://www.w3.org/2000/svg">
<g clip-path="url(#clip0_153_654)">
<path d="M6.85714 48.125H58.2857V55H0V0H6.85714V48.125ZM180 55H173.143V6.875H121.714V0H180V55ZM26.9832 14.6849C29.0333 14.6849 30.8018 14.9554 32.2869 15.4956C33.7845 16.0357 34.8417 16.5699 35.4593 17.0969L32.9364 22.1172C32.4501 21.7614 31.7071 21.4124 30.7082 21.0698C29.7226 20.7142 28.6257 20.5361 27.4169 20.536C26.0763 20.536 24.9067 20.7472 23.9079 21.1688C22.9092 21.5774 22.0737 22.1428 21.4035 22.8675C20.7333 23.5922 20.2337 24.4104 19.9051 25.3196C19.5768 26.2286 19.4129 27.1837 19.4129 28.1847C19.4129 29.1993 19.5766 30.168 19.9051 31.0903C20.2337 31.9993 20.7334 32.8161 21.4035 33.5407C22.0738 34.2655 22.909 34.8396 23.9079 35.2612C24.9067 35.6696 26.0765 35.8739 27.4169 35.8739C28.6257 35.8739 29.7226 35.6957 30.7082 35.3401C31.7069 34.9845 32.4501 34.6352 32.9364 34.2927L35.4593 39.313C34.8415 39.8399 33.7845 40.3743 32.2869 40.9143C30.8018 41.4545 29.0333 41.7249 26.9832 41.7251C25.0644 41.7251 23.2632 41.3884 21.581 40.7163C19.8987 40.0443 18.414 39.1019 17.1261 37.8897C15.8514 36.6644 14.8454 35.2351 14.1094 33.6012C13.3865 31.9541 13.0246 30.1675 13.0246 28.2435C13.0246 26.3199 13.3866 24.5345 14.1094 22.8876C14.8322 21.2272 15.8312 19.7842 17.106 18.5589C18.3939 17.3334 19.8787 16.3841 21.5607 15.7121C23.2562 15.0269 25.0644 14.6849 26.9832 14.6849ZM84.1858 38.1784L86.7338 33.8781C86.8917 33.9967 87.1935 34.1875 87.6394 34.4505C88.0994 34.7139 88.6584 34.9915 89.3153 35.2813C89.9724 35.558 90.6703 35.7954 91.4062 35.993C92.1552 36.1905 92.8918 36.2885 93.6144 36.2885C94.8231 36.2883 95.7303 36.058 96.3348 35.5969C96.9391 35.1227 97.2405 34.503 97.2405 33.7389C97.2405 33.1724 97.0507 32.6645 96.6696 32.2164C96.2885 31.7685 95.7158 31.3478 94.9536 30.9526C94.1914 30.5443 93.2393 30.1149 92.0961 29.6668C90.9526 29.2057 89.8805 28.6455 88.8818 27.9867C87.8962 27.328 87.0953 26.5042 86.4777 25.516C85.86 24.5278 85.5502 23.3028 85.5502 21.8402C85.5502 20.3777 85.9575 19.1125 86.7723 18.0452C87.6002 16.9648 88.6848 16.1341 90.025 15.5543C91.3788 14.9746 92.8251 14.6849 94.3627 14.6849C95.9793 14.6849 97.3923 14.8629 98.6016 15.2187C99.8107 15.5744 100.784 15.9496 101.519 16.3449C102.255 16.7402 102.703 17.0037 102.861 17.1355L100.021 21.8989C99.8109 21.7408 99.449 21.5105 98.9364 21.2075C98.4372 20.9045 97.8396 20.6338 97.1434 20.3967C96.4599 20.1596 95.743 20.041 94.9939 20.041C93.9819 20.041 93.1605 20.2259 92.5296 20.5947C91.9119 20.9505 91.6022 21.4845 91.6022 22.1961C91.6022 22.6835 91.7674 23.1251 92.0961 23.5204C92.4375 23.9023 92.9499 24.2708 93.6327 24.6264C94.3293 24.969 95.2101 25.3459 96.2746 25.7544C97.247 26.11 98.1609 26.5308 99.0151 27.0182C99.8693 27.5058 100.619 28.0868 101.263 28.7588C101.92 29.4176 102.439 30.1823 102.82 31.0516C103.066 31.6126 103.23 32.2231 103.318 32.8828C103.33 31.3357 103.669 29.9406 104.34 28.6985C105.037 27.4204 106.043 26.4134 107.357 25.6755C108.671 24.9245 110.255 24.5475 112.108 24.5475C113.869 24.5475 115.394 24.8705 116.682 25.516C117.983 26.1618 118.982 27.1248 119.679 28.403C119.686 28.4168 119.693 28.4312 119.7 28.445V25.0226H122.461V18.3607H128.394V25.0226H133.832V18.3607H139.766V25.0226H143.392V29.964H139.766V34.4908C139.766 35.1625 139.864 35.7091 140.061 36.1307C140.258 36.5392 140.62 36.7433 141.146 36.7433C141.5 36.7433 141.803 36.6647 142.053 36.5066C142.302 36.3488 142.452 36.2421 142.505 36.1895L143.995 39.2913V14.0521H150.008V41.25H143.995V40.7531C143.903 40.7952 143.802 40.8449 143.689 40.8942C143.216 41.1049 142.611 41.2969 141.875 41.4683C141.14 41.6395 140.318 41.7249 139.411 41.7251C137.795 41.7251 136.46 41.2696 135.409 40.3604C134.357 39.4381 133.832 38.0212 133.832 36.1106V29.964H128.394V34.4908C128.394 35.1625 128.493 35.7091 128.69 36.1307C128.887 36.5391 129.249 36.7433 129.775 36.7433C130.129 36.7433 130.431 36.6645 130.681 36.5066C130.93 36.3485 131.082 36.2421 131.134 36.1895L133.185 40.4594C133.093 40.5384 132.804 40.6835 132.318 40.8942C131.845 41.1049 131.239 41.2969 130.503 41.4683C129.767 41.6395 128.946 41.7251 128.039 41.7251C126.423 41.7249 125.089 41.2694 124.038 40.3604C122.986 39.4381 122.461 38.0212 122.461 36.1106V29.964H120.33C120.606 30.9016 120.743 31.9627 120.743 33.1464C120.743 33.2518 120.736 33.4632 120.723 33.7791C120.723 34.095 120.711 34.3066 120.685 34.412H108.974C109.014 34.9913 109.198 35.5049 109.527 35.9528C109.855 36.4005 110.308 36.7568 110.886 37.0203C111.477 37.2706 112.174 37.3962 112.975 37.3962C113.738 37.3962 114.422 37.316 115.026 37.1578C115.644 36.9997 116.176 36.8026 116.623 36.5654C117.083 36.3282 117.438 36.084 117.688 35.8335L120.013 39.5496C119.685 39.9054 119.218 40.2545 118.614 40.597C118.022 40.9265 117.241 41.1969 116.268 41.4078C115.296 41.6187 114.067 41.7251 112.582 41.7251C110.795 41.7251 109.204 41.3884 107.811 40.7163C106.418 40.0443 105.32 39.0565 104.518 37.752C103.907 36.758 103.53 35.595 103.384 34.2641C103.353 35.4779 103.089 36.5418 102.584 37.455C102.045 38.4168 101.309 39.2143 100.376 39.8468C99.4563 40.4791 98.4048 40.947 97.2221 41.25C96.0525 41.5662 94.836 41.7251 93.5743 41.7251C91.7871 41.7251 90.1838 41.5207 88.7645 41.1123C87.3583 40.704 86.2202 40.2624 85.3527 39.788C84.8426 39.5091 84.455 39.2812 84.1858 39.1117V41.25H78.2529V38.6215C78.0031 39.109 77.5956 39.596 77.0307 40.0835C76.4655 40.5579 75.8007 40.947 75.0386 41.25C74.2764 41.5661 73.4546 41.7251 72.5743 41.7251C71.0107 41.7249 69.6507 41.3425 68.4945 40.5787C67.3378 39.8011 66.4365 38.7664 65.7924 37.4751C65.334 36.5274 65.0455 35.5058 64.9202 34.412H53.5296C53.5692 34.9912 53.7521 35.5051 54.0804 35.9528C54.4089 36.4007 54.8631 36.7567 55.4414 37.0203C56.0328 37.2706 56.7291 37.3962 57.5307 37.3962C58.2929 37.3962 58.9769 37.316 59.5815 37.1578C60.199 36.9997 60.7318 36.8026 61.1786 36.5654C61.6383 36.3282 61.9937 36.084 62.2433 35.8335L64.5686 39.5496C64.2401 39.9054 63.7737 40.2545 63.169 40.597C62.5778 40.9265 61.7961 41.1969 60.8237 41.4078C59.8512 41.6185 58.6222 41.7251 57.1373 41.7251C55.3498 41.7251 53.7591 41.3882 52.3661 40.7163C50.9729 40.0443 49.8747 39.0565 49.0731 37.752C48.2714 36.4476 47.8711 34.8526 47.8711 32.9684C47.8711 31.3871 48.2122 29.9635 48.8957 28.6985C49.5921 27.4204 50.5983 26.4134 51.9123 25.6755C53.2267 24.9245 54.8103 24.5475 56.6635 24.5475C58.4246 24.5475 59.9493 24.8705 61.2372 25.516C62.5383 26.1618 63.5373 27.1248 64.2338 28.403C64.6344 29.1172 64.9166 29.9329 65.0909 30.8485C65.2486 30.1433 65.4823 29.473 65.7924 28.8377C66.4365 27.5332 67.3378 26.4916 68.4945 25.714C69.6507 24.9368 71.0107 24.5477 72.5743 24.5475C73.6125 24.5475 74.533 24.7132 75.3348 25.0427C76.1366 25.359 76.7875 25.741 77.2869 26.1891C77.7861 26.6238 78.0891 27.0255 78.1942 27.3943V14.0521H84.1858V38.1784ZM159.018 24.5475C160.779 24.5477 162.304 24.8705 163.592 25.516C164.893 26.1618 165.892 27.125 166.589 28.403C167.298 29.6679 167.652 31.2493 167.652 33.1464C167.652 33.2518 167.647 33.4632 167.633 33.7791C167.633 34.095 167.619 34.3066 167.593 34.412H155.883C155.922 34.9913 156.107 35.5049 156.435 35.9528C156.764 36.4005 157.217 36.7567 157.795 37.0203C158.386 37.2706 159.084 37.3962 159.886 37.3962C160.647 37.3962 161.33 37.316 161.935 37.1578C162.552 36.9999 163.085 36.8026 163.532 36.5654C163.992 36.3282 164.347 36.084 164.596 35.8335L166.924 39.5496C166.595 39.9054 166.128 40.2547 165.524 40.597C164.933 40.9265 164.15 41.1969 163.177 41.4078C162.204 41.6185 160.975 41.7251 159.49 41.7251C157.703 41.7249 156.112 41.3882 154.719 40.7163C153.327 40.0443 152.23 39.0562 151.428 37.752C150.626 36.4476 150.226 34.8526 150.226 32.9684C150.226 31.3871 150.567 29.9635 151.251 28.6985C151.947 27.4204 152.953 26.4134 154.267 25.6755C155.582 24.9245 157.165 24.5475 159.018 24.5475ZM46.8751 24.5475C47.6241 24.5475 48.3151 24.6663 48.9459 24.9035C49.5766 25.1274 50.0362 25.3455 50.3253 25.5563L48 30.4391C47.8161 30.2149 47.4871 29.9829 47.0139 29.7457C46.5542 29.4955 45.9758 29.3715 45.2796 29.3715C44.4778 29.3715 43.813 29.5756 43.2874 29.9841C42.775 30.3925 42.3936 30.8866 42.144 31.4662C41.9076 32.0457 41.7891 32.5925 41.7891 33.106V41.25H35.7958V25.0226H41.7891V27.3087C41.9237 27.0478 42.1476 26.7395 42.4605 26.3856C42.8678 25.9115 43.4391 25.4903 44.1747 25.1216C44.9105 24.7395 45.8109 24.5477 46.8751 24.5475ZM74.4091 29.2724C73.7124 29.2724 73.0807 29.4434 72.5157 29.7861C71.9638 30.1154 71.5233 30.5764 71.1948 31.1692C70.8794 31.7489 70.721 32.4084 70.721 33.1464C70.721 33.884 70.8795 34.5493 71.1948 35.1421C71.5233 35.7218 71.9637 36.1773 72.5157 36.5066C73.0807 36.8361 73.7126 37 74.4091 37C75.1317 37 75.7761 36.8359 76.3409 36.5066C76.9191 36.1773 77.3719 35.7218 77.7003 35.1421C78.0288 34.5493 78.1942 33.8841 78.1942 33.1464C78.1942 32.4084 78.029 31.7489 77.7003 31.1692C77.3719 30.5766 76.9188 30.1154 76.3409 29.7861C75.7761 29.4436 75.1317 29.2725 74.4091 29.2724ZM56.7622 28.5809C56.1051 28.5809 55.5465 28.7119 55.0865 28.9754C54.6398 29.2256 54.2985 29.5556 54.0619 29.964C53.8255 30.3724 53.6931 30.807 53.6669 31.2682H59.6602C59.647 30.8466 59.5356 30.4312 59.3253 30.0228C59.1151 29.6013 58.7997 29.259 58.3795 28.9955C57.959 28.7188 57.4193 28.5809 56.7622 28.5809ZM112.207 28.5809C111.55 28.5809 110.991 28.7119 110.531 28.9754C110.084 29.2258 109.743 29.5556 109.507 29.964C109.27 30.3724 109.138 30.807 109.112 31.2682H115.105C115.092 30.8466 114.98 30.4312 114.77 30.0228C114.56 29.6013 114.244 29.259 113.824 28.9955C113.404 28.7188 112.864 28.5809 112.207 28.5809ZM159.116 28.5809C158.459 28.5811 157.901 28.7122 157.441 28.9754C156.995 29.2258 156.652 29.5555 156.415 29.964C156.179 30.3724 156.048 30.8072 156.022 31.2682H162.015C162.002 30.8466 161.889 30.4312 161.679 30.0228C161.468 29.6013 161.153 29.259 160.733 28.9955C160.312 28.7188 159.773 28.5809 159.116 28.5809Z" fill="black"/>
</g>
<defs>
<clipPath id="clip0_153_654">
<rect width="180" height="55" fill="white"/>
</clipPath>
</defs>
</svg>
