<svg width="151" height="65" viewBox="0 0 151 65" fill="none" xmlns="http://www.w3.org/2000/svg">
<g clip-path="url(#clip0_153_634)">
<path d="M139.989 29.5335C140.58 28.9448 141.575 29.1059 141.948 29.8503L143.589 33.1231L146.529 38.0094C146.864 38.5662 147.635 38.6609 148.096 38.2017C148.283 38.0145 148.389 37.7606 148.389 37.4958V24.7472M148.389 24.7472L147.686 24.0464C146.599 22.9629 145.989 21.4934 145.989 19.9611V19.7556C145.989 18.5067 147.503 17.8814 148.389 18.7645L149.24 19.6133C149.471 19.8437 149.663 20.1096 149.809 20.4008C150.394 21.5673 150.165 22.9761 149.24 23.8984L148.389 24.7472ZM148.389 24.7472L147.189 18.7645" stroke="#0C0A0A" stroke-width="2.5" stroke-linecap="round"/>
<path d="M0.798828 47.448L7.99849 34.286" stroke="#0C0A0A" stroke-width="2.5" stroke-linecap="round"/>
<path d="M6.80197 30.7232C8.23513 30.0085 9.9661 30.2885 11.0991 31.4184L12.582 32.8971C13.5077 33.8202 14.1386 34.9958 14.3954 36.2757L14.4806 36.7008C14.931 38.9466 14.2261 41.2683 12.6019 42.8879L9.79995 45.6819C9.40274 46.078 8.95828 46.424 8.47657 46.7122L3.20215 49.8679" stroke="#0C0A0A" stroke-width="2.5" stroke-linecap="round"/>
<path d="M18.8104 46.2806L24.1117 40.9944C24.5287 40.5784 24.6321 39.9431 24.3683 39.417C23.9781 38.6388 22.9674 38.4175 22.2861 38.9611L19.0385 41.5517C18.1357 42.2718 17.6104 43.362 17.6104 44.5146C17.6104 46.2557 18.7989 47.7735 20.4931 48.1959L21.7564 48.5108C22.1905 48.619 22.6365 48.6738 23.0841 48.6738H28.4704C29.2 48.6738 29.8997 48.3848 30.4155 47.8704C31.3424 46.946 31.4862 45.4977 30.7592 44.4101L29.6098 42.6909L28.8098 41.0954C28.5579 40.5934 28.5579 40.0024 28.8098 39.5004C29.2516 38.6192 30.3263 38.262 31.2099 38.7027L31.6746 38.9343C31.8965 39.0449 32.0992 39.1905 32.2746 39.3654L33.2097 40.2979" stroke="#0C0A0A" stroke-width="2.5" stroke-linecap="round"/>
<path d="M39.179 40.2946L35.5791 47.4739" stroke="#0C0A0A" stroke-width="2.5" stroke-linecap="round"/>
<path d="M47.6143 40.2726C46.9516 39.6118 45.877 39.6118 45.2144 40.2726L41.9224 43.5553C41.7253 43.7519 41.6145 44.0184 41.6145 44.2964C41.6145 45.1337 42.5506 45.6332 43.2492 45.1686L45.0474 43.9731C45.1585 43.8994 45.2619 43.8149 45.3561 43.7208C46.6322 42.4484 48.8143 43.3494 48.8143 45.1487V47.4519V53.3121C48.8143 54.1836 48.6474 55.0469 48.3229 55.856L46.938 59.3085C46.5924 60.1698 46.075 60.9522 45.4172 61.6082L43.8953 63.1258C43.2033 63.8158 42.2645 64.2036 41.2858 64.2036H41.1562C40.6686 64.2036 40.1874 64.0903 39.7512 63.8729C38.6869 63.3422 38.0146 62.2577 38.0146 61.0713V60.6139" stroke="#0C0A0A" stroke-width="2.5" stroke-linecap="round"/>
<path d="M56.0032 40.2946L52.5359 44.9045C52.4498 45.0188 52.4033 45.1581 52.4033 45.301C52.4033 45.7686 52.8771 46.0883 53.3125 45.9147L58.2231 43.9559C58.342 43.9086 58.4689 43.8842 58.5969 43.8842C59.1525 43.8842 59.6031 44.3333 59.6031 44.8874V45.679C59.6031 46.6703 60.409 47.4739 61.4032 47.4739H62.0029" stroke="#0C0A0A" stroke-width="2.5" stroke-linecap="round"/>
<path d="M70.3899 40.2946L66.9227 44.9045C66.8365 45.0188 66.79 45.1581 66.79 45.301C66.79 45.7686 67.2638 46.0883 67.6992 45.9147L72.6099 43.9559C72.7287 43.9086 72.8556 43.8842 72.9836 43.8842C73.5393 43.8842 73.9898 44.3333 73.9898 44.8874V45.679C73.9898 46.6703 74.7958 47.4739 75.79 47.4739H76.3896" stroke="#0C0A0A" stroke-width="2.5" stroke-linecap="round"/>
<path d="M83.5929 42.6657L84.0336 41.7868C84.4529 40.9505 84.113 39.9336 83.2743 39.5156C82.7292 39.2438 82.08 39.2841 81.573 39.6212L80.2322 40.5124C79.3061 41.1282 78.6434 42.0657 78.3735 43.1424L78.0046 44.6141C77.7492 45.6323 78.0485 46.7096 78.7928 47.4518C79.5374 48.1942 80.6181 48.4926 81.6396 48.238L83.6285 47.7422C84.3127 47.5716 84.7927 46.9586 84.7927 46.2554" stroke="#0C0A0A" stroke-width="2.5" stroke-linecap="round"/>
<path d="M88.9346 44.3628L90.7067 42.0067C91.5173 40.9289 92.7897 40.2946 94.141 40.2946H95.5553C96.3146 40.2946 97.0087 40.7223 97.3481 41.3994C97.734 42.1687 97.5827 43.0978 96.9728 43.7061L94.3943 46.2773L92.74 47.927C92.2625 48.403 91.6151 48.6703 90.94 48.6703C89.5341 48.6703 88.3945 47.5341 88.3945 46.1326V45.9781C88.3945 45.3956 88.584 44.8288 88.9346 44.3628Z" stroke="#0C0A0A" stroke-width="2.5" stroke-linecap="round"/>
<path d="M108.804 41.4846C108.116 40.1115 106.495 39.4602 105.035 39.9458C104.373 40.1655 103.795 40.6022 103.408 41.1805L102.729 42.1952C101.996 43.2924 101.604 44.5814 101.604 45.9V46.2709C101.604 46.7974 102.181 47.1228 102.634 46.8518L107.099 44.1799C107.434 43.9798 107.734 43.7273 107.987 43.4321L114.468 35.8929C114.692 35.6326 114.895 35.356 115.078 35.0654L120.804 25.9296L112.862 40.6363C112.561 41.1931 112.404 41.8159 112.404 42.4483V45.0745C112.404 45.7353 112.941 46.2709 113.604 46.2709" stroke="#0C0A0A" stroke-width="2.5" stroke-linecap="round"/>
<path d="M119.585 45.0841L122.748 41.9299C123.027 41.6511 123.184 41.2729 123.184 40.8786C123.184 39.6534 121.782 38.9541 120.798 39.6893L119.108 40.9533C118.64 41.3033 118.307 41.8034 118.165 42.3693L117.66 44.3847C117.365 45.561 117.711 46.8052 118.571 47.6625C119.22 48.3101 120.101 48.6738 121.019 48.6738H123.184H125.584" stroke="#0C0A0A" stroke-width="2.5" stroke-linecap="round"/>
<path d="M127.99 48.6419L129.118 36.2715C129.166 35.7454 129.275 35.2267 129.442 34.7255L130.724 30.8918C131.263 29.2778 132.592 28.0506 134.248 27.6379C135.612 27.2978 137.068 27.5549 138.238 28.3327C139.353 29.0737 140.137 30.2327 140.4 31.5422L141.056 34.8147C141.145 35.257 141.19 35.707 141.19 36.158V43.8556V48.6419" stroke="#0C0A0A" stroke-width="2.5" stroke-linecap="round"/>
<path d="M132.79 24.7456L130.881 19.9877C130.556 19.1785 130.39 18.3152 130.39 17.4438V15.3179C130.39 13.693 131.037 12.1345 132.189 10.9854L132.968 10.2089C133.622 9.5568 134.509 9.19043 135.434 9.19043C136.755 9.19043 137.962 9.93454 138.553 11.1125L139.989 13.9766L141.243 17.1035C141.972 18.9201 141.887 20.9606 141.01 22.7107L139.989 24.7456" stroke="#0C0A0A" stroke-width="2.5" stroke-linecap="round"/>
<path d="M133.989 15.1483V13.9518" stroke="#0C0A0A" stroke-width="2.5" stroke-linecap="round"/>
<path d="M137.59 15.1483V13.9518" stroke="#0C0A0A" stroke-width="2.5" stroke-linecap="round"/>
<path d="M133.989 18.7461L134.938 19.2193C135.892 19.695 136.945 19.9427 138.011 19.9427H138.789" stroke="#0C0A0A" stroke-width="2.5" stroke-linecap="round"/>
<path d="M143.594 6.77926L143.997 7.38201C144.947 8.80285 147.041 8.80285 147.991 7.38201C148.254 6.98899 148.394 6.52721 148.394 6.05488V4.38617V3.18927C148.394 1.86778 147.319 0.796509 145.994 0.796509C144.561 0.796509 143.286 1.71707 142.833 3.07269C142.553 3.91141 142.617 4.8304 143.013 5.62117L143.594 6.77926Z" stroke="#0C0A0A" stroke-width="2.5" stroke-linecap="round"/>
<path d="M146.126 7.57928C146.08 7.45194 146.056 7.21993 146.027 6.86632C145.947 5.88506 145.963 5.64991 145.893 5.39976C145.81 5.10149 145.8 4.90538 145.771 4.60324C145.764 4.53285 145.753 4.4867 145.73 4.48025C145.568 4.43521 145.566 4.81047 145.474 4.96783C145.45 5.00844 145.438 5.0547 145.421 5.04963C145.403 5.04458 145.38 4.98701 145.38 4.92857C145.379 4.70365 145.624 4.53346 145.758 4.31225C145.857 4.15036 145.985 3.98639 146.114 3.88172C146.167 3.83824 146.219 3.84613 146.271 3.8634C146.387 3.90141 146.476 3.98534 146.551 4.09525C146.6 4.16592 146.638 4.28574 146.662 4.75954C146.686 5.23334 146.686 6.0623 146.669 6.51237C146.65 7.01083 146.546 7.12503 146.477 7.24697C146.445 7.30206 146.407 7.33437 146.383 7.30611C146.207 7.09474 146.371 6.04136 146.429 5.40551C146.457 5.10057 146.546 4.74383 146.523 4.41815C146.515 4.30903 146.454 4.32272 146.413 4.35743C146.148 4.58057 146.126 5.49221 146.126 5.93774C146.126 6.02183 146.126 5.13982 146.08 4.79513C146.034 4.45042 145.942 4.49646 145.871 4.55474C145.8 4.613 145.754 4.68208 145.707 4.73494C145.66 4.7878 145.614 4.82234 145.531 4.89281" stroke="#0C0A0A" stroke-width="2.5" stroke-linecap="round"/>
</g>
<defs>
<clipPath id="clip0_153_634">
<rect width="151" height="65" fill="white"/>
</clipPath>
</defs>
</svg>
