<svg width="200" height="35" viewBox="0 0 200 35" fill="none" xmlns="http://www.w3.org/2000/svg">
<path d="M16.6233 5.34463V22.4946C16.6233 24.8746 15.9364 26.7296 14.5628 28.0596C13.1892 29.3663 11.3498 30.0196 9.04484 30.0196C6.71658 30.0196 4.8307 29.343 3.38719 27.9896C1.96695 26.6363 1.25684 24.7463 1.25684 22.3196H6.14616C6.16945 23.3696 6.41392 24.1863 6.87956 24.7696C7.36849 25.353 8.06697 25.6446 8.97499 25.6446C9.85969 25.6446 10.5349 25.3646 11.0006 24.8046C11.4662 24.2446 11.699 23.4746 11.699 22.4946V5.34463H16.6233ZM24.7715 5.34463V29.7746H19.8821V5.34463H24.7715ZM49.0547 5.34463L40.1142 29.7746H34.1772L25.2367 5.34463H30.4752L37.1806 24.7696L43.851 5.34463H49.0547ZM60.8566 30.0196C58.575 30.0196 56.4796 29.483 54.5704 28.4096C52.6613 27.3363 51.1478 25.8546 50.0303 23.9646C48.9127 22.0513 48.3539 19.893 48.3539 17.4896C48.3539 15.1096 48.9127 12.9746 50.0303 11.0846C51.1478 9.17129 52.6613 7.67796 54.5704 6.60463C56.4796 5.53129 58.575 4.99463 60.8566 4.99463C63.1616 4.99463 65.257 5.53129 67.1429 6.60463C69.0521 7.67796 70.5538 9.17129 71.6481 11.0846C72.7657 12.9746 73.3244 15.1096 73.3244 17.4896C73.3244 19.893 72.7657 22.0513 71.6481 23.9646C70.5538 25.8546 69.0521 27.3363 67.1429 28.4096C65.2338 29.483 63.1384 30.0196 60.8566 30.0196ZM60.8566 25.6446C62.3234 25.6446 63.6156 25.318 64.7332 24.6646C65.8507 23.988 66.7238 23.0313 67.3525 21.7946C67.9811 20.558 68.2954 19.123 68.2954 17.4896C68.2954 15.8563 67.9811 14.433 67.3525 13.2196C66.7238 11.983 65.8507 11.038 64.7332 10.3846C63.6156 9.73129 62.3234 9.40463 60.8566 9.40463C59.3899 9.40463 58.0861 9.73129 56.9452 10.3846C55.8276 11.038 54.9545 11.983 54.3259 13.2196C53.6973 14.433 53.383 15.8563 53.383 17.4896C53.383 19.123 53.6973 20.558 54.3259 21.7946C54.9545 23.0313 55.8276 23.988 56.9452 24.6646C58.0861 25.318 59.3899 25.6446 60.8566 25.6446ZM85.2837 9.29963V15.4246H93.4908V19.3096H85.2837V25.7846H94.5385V29.7746H80.3944V5.30963H94.5385V9.29963H85.2837ZM117.387 29.7746H112.497L101.426 13.0096V29.7746H96.537V5.30963H101.426L112.497 22.1096V5.30963H117.387V29.7746ZM124.663 9.29963V15.4246H132.87V19.3096H124.663V25.7846H133.918V29.7746H119.773V5.30963H133.918V9.29963H124.663ZM148.489 29.7746L143.11 20.2546H140.805V29.7746H135.916V5.34463H145.066C146.952 5.34463 148.558 5.68297 149.885 6.35963C151.213 7.01297 152.202 7.91129 152.855 9.05463C153.529 10.1746 153.867 11.4346 153.867 12.8346C153.867 14.4446 153.401 15.903 152.47 17.2096C151.539 18.493 150.154 19.3796 148.314 19.8696L154.146 29.7746H148.489ZM140.805 16.5796H144.892C146.219 16.5796 147.209 16.2646 147.86 15.6346C148.512 14.9813 148.838 14.083 148.838 12.9396C148.838 11.8196 148.512 10.9563 147.86 10.3496C147.209 9.71963 146.219 9.40463 144.892 9.40463H140.805V16.5796ZM172.818 12.6946C172.259 11.668 171.491 10.8863 170.513 10.3496C169.535 9.81297 168.394 9.54463 167.091 9.54463C165.646 9.54463 164.367 9.87126 163.249 10.5246C162.131 11.178 161.258 12.1113 160.629 13.3246C160.001 14.538 159.687 15.938 159.687 17.5246C159.687 19.158 160.001 20.5813 160.629 21.7946C161.281 23.008 162.178 23.9413 163.319 24.5946C164.459 25.248 165.786 25.5746 167.3 25.5746C169.162 25.5746 170.687 25.0846 171.875 24.1046C173.062 23.1013 173.842 21.713 174.215 19.9396H165.833V16.1946H179.035V20.4646C178.708 22.168 178.009 23.743 176.939 25.1896C175.868 26.6363 174.483 27.803 172.783 28.6896C171.106 29.553 169.22 29.9846 167.125 29.9846C164.774 29.9846 162.643 29.4596 160.734 28.4096C158.849 27.3363 157.358 25.8546 156.264 23.9646C155.193 22.0746 154.658 19.928 154.658 17.5246C154.658 15.1213 155.193 12.9746 156.264 11.0846C157.358 9.17129 158.849 7.68963 160.734 6.63963C162.643 5.56629 164.762 5.02963 167.091 5.02963C169.837 5.02963 172.224 5.70629 174.249 7.05963C176.275 8.38963 177.672 10.268 178.44 12.6946H172.818ZM199.589 5.34463L191.347 21.2696V29.7746H186.458V21.2696L178.182 5.34463H183.7L188.938 16.5096L194.141 5.34463H199.589Z" fill="black"/>
<path d="M64.3386 16.7605V17.6501C64.3386 21.9319 61.8361 23.8768 58.7496 23.8768H57.8637C57.9625 22.5372 58.3994 21.7264 59.5395 20.763C60.1003 20.2893 60.0528 20.0158 59.7765 20.1729C57.8744 21.2536 57.3764 24.2873 57.3345 26.6197H55.9373C55.9373 26.0134 55.8147 24.3062 55.9218 23.8028C55.815 23.2272 55.9554 22.1948 55.9551 21.2083C55.9551 18.7518 58.0403 16.7605 60.6126 16.7605C61.5441 16.7605 62.4756 17.2052 64.3386 16.7605Z" fill="url(#paint0_linear_153_630)"/>
<defs>
<linearGradient id="paint0_linear_153_630" x1="60.1083" y1="16.7605" x2="56.3379" y2="23.9335" gradientUnits="userSpaceOnUse">
<stop stop-color="white"/>
<stop offset="1"/>
</linearGradient>
</defs>
</svg>
