<svg width="58" height="66" viewBox="0 0 58 66" fill="none" xmlns="http://www.w3.org/2000/svg">
<path d="M26.6227 6.03452L28.4949 1.6446C28.5479 1.52026 28.6241 1.40722 28.7192 1.31156C29.0253 1.00402 29.4869 0.914704 29.8847 1.08604L33.1511 2.49279C33.5052 2.64532 33.9162 2.49401 34.0885 2.14774C34.2754 1.77229 34.7377 1.63163 35.1005 1.8399L38.6169 3.85919C38.8466 3.99107 38.9883 4.23647 38.9883 4.50226C38.9883 4.64846 38.9452 4.79139 38.8645 4.91306L37.6866 6.68855L35.2122 9.79698M26.6227 6.03452L22.4503 9.62844C22.3187 9.74186 22.3985 9.95866 22.5719 9.95866C22.6577 9.95866 22.7324 10.0173 22.7532 10.1008L23.1158 11.5585C23.275 12.1988 23.7231 12.7274 24.3268 12.9875L25.8139 13.6279M26.6227 6.03452C27.0395 6.45328 27.6047 6.68855 28.194 6.68855H29.4201C30.5604 6.68855 31.6689 7.06646 32.5737 7.76374L32.8758 7.9966M35.2122 9.79698L32.8758 7.9966M35.2122 9.79698C35.1288 9.90164 35.0833 10.0317 35.0833 10.1657V10.7676C35.0833 11.4935 34.7433 12.1771 34.1654 12.6127L33.3622 13.218C32.7835 13.6541 32.1047 13.9367 31.3885 14.0395L30.1975 14.2105C28.7107 14.4239 27.1942 14.2224 25.8139 13.6279M25.8139 13.6279L25.9719 13.2288L26.5099 12.1476C26.9989 11.1648 27.8563 10.4175 28.8938 10.07C29.1149 9.99589 29.3293 9.90313 29.5349 9.79265L32.8758 7.9966" stroke="black" stroke-width="2" stroke-linecap="round"/>
<path d="M29.9224 6.67132L33.8273 2.74719" stroke="black" stroke-width="2" stroke-linecap="round"/>
<path d="M24.0562 17.1322H26.0086M26.0086 17.1322H28.6119M26.0086 17.1322V24.9805M33.8184 17.1322H31.8659M31.8659 17.1322V24.9805M31.8659 17.1322H28.6119M28.6119 17.1322V24.3265" stroke="black" stroke-width="2" stroke-linecap="round"/>
<path d="M25.3467 45.9105L25.831 43.9637C25.9385 43.5319 25.8886 43.0756 25.6905 42.6775C25.4705 42.2349 25.0844 41.8986 24.6173 41.7421L24.3706 41.6595C23.7455 41.45 23.0632 41.4988 22.4738 41.7949L22.0927 41.9864M22.0927 41.9864L21.4418 43.2945L20.1402 45.2566L19.4894 46.5646M22.0927 41.9864L21.6129 41.0224C21.4996 40.7946 21.3504 40.5865 21.1712 40.4064C20.5393 39.7715 19.6047 39.5498 18.7568 39.8337L18.7273 39.8437C18.3724 39.9625 18.0499 40.1628 17.7855 40.4285L16.886 41.3324M19.4894 46.5646L20.791 47.8726M19.4894 46.5646L18.1877 45.9105L17.5031 45.5666C17.1026 45.3653 16.7779 45.039 16.5775 44.6364L16.3541 44.1873C16.2775 44.0332 16.2581 43.8566 16.2996 43.6895M16.886 41.3324L16.6045 40.7666C16.3681 40.2914 15.9534 39.93 15.4518 39.762C14.7354 39.5219 13.9455 39.7093 13.4115 40.246L13.1703 40.4883C13.045 40.6143 12.9408 40.7595 12.8615 40.9188C12.5443 41.5564 12.6686 42.3264 13.1703 42.8306L13.3927 43.054C13.5512 43.2133 13.7342 43.3458 13.9346 43.4465L14.0549 43.5071C14.625 43.7934 15.2726 43.8842 15.8989 43.7654L16.2996 43.6895M16.886 41.3324L16.2996 43.6895M20.791 47.8726H22.7435H23.3943H20.791Z" stroke="black" stroke-width="2" stroke-linecap="round"/>
<path d="M25.3548 45.9238L24.7041 46.5778" stroke="black" stroke-width="2" stroke-linecap="round"/>
<path d="M9.70149 9.9364H12.9556M12.9556 9.9364L7.74902 26.941M12.9556 9.9364H14.2573M22.7179 9.9364H14.2573M14.2573 9.9364L20.1146 27.595" stroke="black" stroke-width="2" stroke-linecap="round"/>
<path d="M48.0929 9.9364H44.8389M44.8389 9.9364L50.0454 26.941M44.8389 9.9364H43.5373M35.0767 9.9364H43.5373M43.5373 9.9364L37.6798 27.595" stroke="black" stroke-width="2" stroke-linecap="round"/>
<path d="M32.4801 26.9882H26.6227M26.6227 26.9882H22.0669M26.6227 26.9882L22.9863 31.2515C22.8129 31.4547 22.7177 31.7133 22.7177 31.9808V33.3465C22.7177 33.467 22.7371 33.5866 22.775 33.7008L23.1144 34.724C23.2662 35.1817 23.6924 35.4904 24.1726 35.4904H24.859C25.1548 35.4904 25.4386 35.3723 25.6477 35.162L27.1954 33.6068C27.2473 33.5546 27.3043 33.5078 27.3654 33.4667L28.9449 32.4085C29.1281 32.2858 29.3435 32.2202 29.5637 32.2202H32.1763C32.3751 32.2202 32.5705 32.2738 32.7418 32.375L43.544 38.7606M43.544 38.7606L44.5146 37.2975C44.7213 36.9857 45.0696 36.7984 45.4426 36.7984H50.703M43.544 38.7606L45.083 40.8225C45.3363 41.1621 45.3772 41.6164 45.1883 41.996L45.0119 42.3506C44.904 42.5674 44.729 42.7432 44.513 42.8518L43.7795 43.2204C43.6246 43.2981 43.4538 43.3387 43.2807 43.3387H41.9543C41.7186 43.3387 41.4888 43.2637 41.2982 43.1243L40.6966 42.6847M40.6966 42.6847L34.4325 38.1065M40.6966 42.6847V44.0205C40.6966 44.4097 40.4957 44.771 40.166 44.9749L39.6391 45.3008L38.9165 45.6639C38.5584 45.8438 38.1319 45.817 37.7988 45.5938L36.3849 44.6467M36.3849 44.6467L32.4801 42.0306M36.3849 44.6467V46.1447C36.3849 46.4418 36.2676 46.7269 36.0584 46.937L35.4101 47.5885C35.2008 47.7988 34.9171 47.9169 34.6212 47.9169H34.4325H34.045C33.8718 47.9169 33.7011 47.8763 33.5462 47.7985L31.8293 46.9359M31.8293 46.9359L29.8768 45.9547M31.8293 46.9359V47.9169V48.5323C31.8293 48.9568 31.5906 49.3448 31.2128 49.5346L30.5276 49.8789L29.7248 50.2822C29.4109 50.44 29.0411 50.44 28.7271 50.2822L27.9243 49.8789M27.9243 49.8789V49.2249V47.8107C27.9243 47.2966 27.5761 46.8483 27.0796 46.7235L26.6227 46.6088L25.4786 46.2255C25.0013 46.0657 24.4767 46.2465 24.1977 46.667L23.6711 47.4608C23.4802 47.7485 23.4323 48.1087 23.541 48.4368L23.8734 49.4385C23.9668 49.7205 24.168 49.9536 24.4326 50.0866L25.0855 50.4146C25.2404 50.4924 25.4112 50.5329 25.5844 50.5329H26.3173C26.5173 50.5329 26.7134 50.4789 26.8855 50.3767L27.2028 50.1878C27.2499 50.1598 27.2989 50.1354 27.3495 50.1147L27.9243 49.8789Z" stroke="black" stroke-width="2" stroke-linecap="round"/>
<path d="M13.6185 40.0495L13.8789 39.5261C14.1247 39.0322 14.1247 38.4507 13.8789 37.9566C13.7099 37.617 13.4358 37.3415 13.0978 37.1717L12.8566 37.0505C12.5017 36.8722 12.1103 36.7793 11.7135 36.7793H9.71363H7.11035" stroke="black" stroke-width="2" stroke-linecap="round"/>
<path d="M20.1272 29.5632H7.99677C7.84621 29.5632 7.70181 29.6233 7.59534 29.7304C7.34168 29.9853 7.37651 30.4081 7.66843 30.6175L10.6936 32.789C11.3264 33.2433 12.0846 33.4875 12.8622 33.4875H15.4997C15.966 33.4875 16.4169 33.3198 16.7707 33.015L20.2839 29.989C20.4536 29.8427 20.3507 29.5632 20.1272 29.5632Z" stroke="black" stroke-width="2" stroke-linecap="round"/>
<path d="M50.0944 29.5632H37.964C37.8134 29.5632 37.669 29.6233 37.5626 29.7304C37.309 29.9853 37.3437 30.4081 37.6357 30.6175L40.6609 32.789C41.2936 33.2433 42.0519 33.4875 42.8295 33.4875H45.4671C45.9333 33.4875 46.3841 33.3198 46.7381 33.015L50.2511 29.989C50.4209 29.8427 50.318 29.5632 50.0944 29.5632Z" stroke="black" stroke-width="2" stroke-linecap="round"/>
<path d="M35.4135 26.6377H34.7627V27.2918H35.4135V26.6377Z" stroke="black" stroke-width="2" stroke-linecap="round"/>
<path d="M4.92376 62.2368C4.67686 62.2368 4.40455 62.202 4.10683 62.1328C3.8091 62.0635 3.55494 61.9686 3.34435 61.8482L3.30078 60.5349L3.87809 60.5021L4.17218 61.4213C4.28837 61.498 4.42452 61.5582 4.58064 61.6019C4.73677 61.6421 4.88927 61.6621 5.03813 61.6621C5.29591 61.6621 5.49198 61.6075 5.62632 61.498C5.76066 61.3886 5.82782 61.2408 5.82782 61.0547C5.82782 60.8578 5.76791 60.6972 5.64811 60.5732C5.52829 60.4491 5.37216 60.3452 5.17973 60.2613C4.99092 60.1737 4.78942 60.088 4.57521 60.0041C4.36098 59.9202 4.15766 59.8199 3.96523 59.7032C3.77642 59.5827 3.6203 59.4278 3.49685 59.2379C3.37703 59.0483 3.31712 58.804 3.31712 58.5047C3.31712 58.0305 3.515 57.6456 3.91076 57.3501C4.30652 57.0547 4.82936 56.9069 5.47927 56.9069C5.67896 56.9069 5.90045 56.9306 6.14371 56.9781C6.38697 57.0218 6.5903 57.0802 6.75369 57.1532L6.86261 58.4445L6.2962 58.4829L6.01301 57.6073C5.82056 57.5198 5.61361 57.4759 5.39213 57.4759C5.16339 57.4759 4.97096 57.5362 4.81483 57.6565C4.66234 57.7733 4.58609 57.9393 4.58609 58.1545C4.58609 58.3478 4.646 58.5066 4.76581 58.6307C4.88927 58.751 5.04721 58.8568 5.23964 58.948C5.4357 59.0355 5.64266 59.1231 5.8605 59.2106C6.07835 59.2982 6.2835 59.4021 6.47593 59.5226C6.67199 59.6429 6.83175 59.7944 6.9552 59.9768C7.07864 60.1592 7.14037 60.3909 7.14037 60.6717C7.14037 60.9745 7.04778 61.2444 6.86261 61.4816C6.67744 61.7151 6.41783 61.8993 6.08381 62.0342C5.7534 62.1693 5.36671 62.2368 4.92376 62.2368ZM9.42799 62.2258C9.04313 62.2258 8.70184 62.1419 8.40411 61.9741C8.11001 61.8026 7.87945 61.5709 7.71243 61.2791C7.54542 60.9836 7.4619 60.6517 7.4619 60.2831C7.4619 59.8783 7.55631 59.5226 7.74511 59.2161C7.93392 58.9061 8.179 58.6635 8.48035 58.4883C8.78534 58.3132 9.1103 58.2257 9.45522 58.2257C9.96717 58.2257 10.3666 58.3844 10.6534 58.7017C10.9402 59.0191 11.0836 59.435 11.0836 59.9494V60.1683H8.50758V59.6977H10.2014L10.0543 59.922V59.6102C10.0543 59.3366 9.9944 59.1213 9.87458 58.9644C9.7584 58.8076 9.59501 58.7292 9.38442 58.7292C9.17384 58.7292 8.99592 58.8203 8.8507 59.0027C8.70546 59.1815 8.63285 59.4587 8.63285 59.8344V60.015C8.63285 60.42 8.74177 60.7465 8.95962 60.9946C9.1811 61.2426 9.47519 61.3667 9.84191 61.3667C10.0416 61.3667 10.2213 61.3301 10.3811 61.2573C10.5445 61.1843 10.7024 61.0602 10.8549 60.8851L11.1272 61.1477C10.9638 61.5016 10.7333 61.7697 10.4355 61.9521C10.1378 62.1346 9.80197 62.2258 9.42799 62.2258ZM14.4115 61.4104C14.3207 61.6694 14.1591 61.8738 13.9268 62.0233C13.6944 62.1729 13.4348 62.2477 13.148 62.2477C12.7341 62.2477 12.3964 62.129 12.135 61.892C11.8772 61.6549 11.7483 61.2974 11.7483 60.8195L11.7755 58.8659H11.1656V58.5923L12.7014 57.3775H12.9683L12.9465 58.6361L12.9301 60.7154C12.9301 60.9562 12.9882 61.1277 13.1044 61.2298C13.2242 61.332 13.3894 61.3831 13.6 61.3831C13.8142 61.3831 14.0084 61.3065 14.1827 61.1532L14.4115 61.4104ZM12.5326 58.8659V58.3023H14.1773V58.8659H12.5326ZM17.4343 61.4104C17.3436 61.6694 17.182 61.8738 16.9497 62.0233C16.7173 62.1729 16.4577 62.2477 16.1709 62.2477C15.7569 62.2477 15.4192 62.129 15.1578 61.892C14.9 61.6549 14.7712 61.2974 14.7712 60.8195L14.7984 58.8659H14.1884V58.5923L15.7243 57.3775H15.9912L15.9693 58.6361L15.953 60.7154C15.953 60.9562 16.0111 61.1277 16.1272 61.2298C16.2471 61.332 16.4123 61.3831 16.6229 61.3831C16.837 61.3831 17.0314 61.3065 17.2057 61.1532L17.4343 61.4104ZM15.5555 58.8659V58.3023H17.2002V58.8659H15.5555ZM17.3093 62.1601L17.2821 61.7388L17.8485 61.6019C17.8558 61.5327 17.863 61.4159 17.8703 61.2517C17.8775 61.084 17.8848 60.8978 17.892 60.6936C17.8993 60.4893 17.9029 60.2942 17.9029 60.108V58.9973C17.9029 58.5923 17.8975 58.2002 17.8866 57.8207C17.8794 57.4413 17.8667 57.1514 17.8485 56.9506L17.2058 56.8631L17.1895 56.4746L18.8942 56.0314L19.1446 56.1901C19.1301 56.4344 19.1192 56.6716 19.112 56.9014C19.1047 57.1312 19.0993 57.392 19.0957 57.684C19.0957 57.9758 19.0957 58.3351 19.0957 58.7619L19.0848 60.037C19.0848 60.4528 19.0866 60.8012 19.0902 61.0822C19.0975 61.3631 19.1066 61.5363 19.1174 61.6019L19.6893 61.7388L19.673 62.1601H17.3093ZM21.8571 62.2258C21.4723 62.2258 21.131 62.1419 20.8332 61.9741C20.5391 61.8026 20.3085 61.5709 20.1415 61.2791C19.9746 60.9836 19.8911 60.6517 19.8911 60.2831C19.8911 59.8783 19.9855 59.5226 20.1743 59.2161C20.363 58.9061 20.6081 58.6635 20.9094 58.4883C21.2145 58.3132 21.5395 58.2257 21.8843 58.2257C22.3962 58.2257 22.7957 58.3844 23.0825 58.7017C23.3694 59.0191 23.5127 59.435 23.5127 59.9494V60.1683H20.9368V59.6977H22.6305L22.4834 59.922V59.6102C22.4834 59.3366 22.4236 59.1213 22.3037 58.9644C22.1875 58.8076 22.0241 58.7292 21.8136 58.7292C21.6029 58.7292 21.425 58.8203 21.2799 59.0027C21.1346 59.1815 21.062 59.4587 21.062 59.8344V60.015C21.062 60.42 21.1709 60.7465 21.3888 60.9946C21.6102 61.2426 21.9044 61.3667 22.271 61.3667C22.4707 61.3667 22.6504 61.3301 22.8102 61.2573C22.9736 61.1843 23.1316 61.0602 23.2841 60.8851L23.5564 61.1477C23.393 61.5016 23.1624 61.7697 22.8647 61.9521C22.5669 62.1346 22.231 62.2258 21.8571 62.2258ZM27.9463 62.2204C27.7211 62.1984 27.4651 62.182 27.1783 62.1711C26.8915 62.1638 26.6754 62.1601 26.5301 62.1601H23.8942L23.8725 61.7169L24.4334 61.5746C24.4479 61.5272 24.4589 61.3685 24.4661 61.0986C24.477 60.8286 24.4824 60.533 24.4824 60.2121V58.9589C24.4824 58.6269 24.477 58.3278 24.4661 58.0615C24.4589 57.7916 24.4479 57.6365 24.4334 57.5964L23.8725 57.4541L23.8942 57.0054H26.4703L26.4921 57.4705L25.7678 57.6073C25.7531 57.6365 25.7386 57.7806 25.7241 58.0396C25.7133 58.295 25.7078 58.6014 25.7078 58.9589V60.2121C25.7078 60.5587 25.7096 60.8359 25.7133 61.0438C25.7205 61.2517 25.7314 61.3922 25.7459 61.4652C25.9274 61.4943 26.1598 61.5089 26.443 61.5089H26.7698C26.886 61.5089 26.9932 61.5034 27.0912 61.4925C27.1928 61.4816 27.2745 61.4706 27.3363 61.4597L27.8318 60.4912L28.3765 60.617L27.9463 62.2204ZM30.566 62.2258C30.1595 62.2258 29.7999 62.1438 29.4877 61.9796C29.1754 61.8117 28.9303 61.5819 28.7524 61.2901C28.5781 60.9946 28.491 60.6553 28.491 60.2722C28.491 59.8381 28.591 59.4696 28.7906 59.1669C28.9903 58.8604 29.2499 58.6269 29.5694 58.4665C29.8926 58.306 30.2374 58.2257 30.6042 58.2257C30.9927 58.2257 31.3358 58.3096 31.6334 58.4774C31.9313 58.6416 32.1637 58.8713 32.3306 59.1669C32.4976 59.4624 32.5811 59.8017 32.5811 60.1846C32.5811 60.5678 32.4903 60.9144 32.3088 61.2244C32.1309 61.5309 31.8894 61.7752 31.5845 61.9577C31.2794 62.1365 30.9401 62.2258 30.566 62.2258ZM30.6532 61.6567C30.8675 61.6567 31.0327 61.5527 31.1488 61.3448C31.2649 61.1368 31.3231 60.845 31.3231 60.4693C31.3231 59.9622 31.2432 59.5517 31.0834 59.2379C30.9273 58.9243 30.7204 58.7674 30.4626 58.7674C30.252 58.7674 30.0832 58.8786 29.956 59.1012C29.8327 59.32 29.7709 59.6229 29.7709 60.0095C29.7709 60.4802 29.8544 60.8723 30.0214 61.1861C30.1921 61.4998 30.4026 61.6567 30.6532 61.6567ZM34.3079 62.2258C34.0356 62.2258 33.8013 62.1692 33.6053 62.0562C33.4128 61.9394 33.264 61.799 33.1587 61.6348C33.057 61.467 33.0062 61.3101 33.0062 61.1641C33.0062 60.7374 33.2749 60.4455 33.8122 60.2886L35.1847 59.8892V59.5882C35.1847 59.4021 35.0994 59.2361 34.9287 59.0903C34.7617 58.9407 34.5729 58.8659 34.3622 58.8659C34.2678 58.8659 34.2008 58.8896 34.1608 58.937C34.1245 58.9809 34.1026 59.061 34.0954 59.1778L34.0519 59.7305C33.7577 59.7925 33.5145 59.7834 33.322 59.7032C33.1332 59.6229 33.0388 59.4897 33.0388 59.3036C33.0388 59.187 33.097 59.0703 33.2131 58.9534C33.333 58.8331 33.4818 58.7219 33.6597 58.6196C33.8376 58.5138 34.0173 58.4263 34.1988 58.3569C34.3841 58.2877 34.542 58.2439 34.6727 58.2257C35.1992 58.2257 35.615 58.3442 35.9199 58.5814C36.2286 58.8185 36.3847 59.1395 36.3883 59.5445L36.361 60.7429C36.361 61.0493 36.3829 61.2517 36.4264 61.3503L37.0037 61.4542V61.8427L36.421 62.089C36.203 62.1802 36.0179 62.2258 35.8655 62.2258C35.6367 62.2258 35.4751 62.109 35.3807 61.8756L35.2228 61.4706L35.4079 61.5034C35.0376 61.985 34.6709 62.2258 34.3079 62.2258ZM34.7707 61.4213C34.9269 61.4213 35.0684 61.3594 35.1956 61.2353V60.3872L34.6345 60.4857C34.3622 60.5221 34.2262 60.6572 34.2262 60.8905C34.2262 61.0256 34.2805 61.1477 34.3896 61.2573C34.4984 61.3667 34.6255 61.4213 34.7707 61.4213ZM37.0039 62.1601L36.9767 61.7552L37.5158 61.6019C37.5231 61.5618 37.5303 61.4579 37.5376 61.2901C37.5485 61.1186 37.5559 60.9307 37.5595 60.7264L37.5704 60.0589C37.5704 59.8765 37.5649 59.7214 37.554 59.5938C37.543 59.466 37.5249 59.3255 37.4995 59.1724L36.9386 59.0519V58.6471L38.5016 58.2421L38.7467 58.3953L38.6977 58.9207L38.7249 58.9316C39.0844 58.461 39.5146 58.2257 40.0157 58.2257C40.3933 58.2257 40.7074 58.3642 40.9579 58.6416C41.2083 58.9188 41.3337 59.3073 41.3337 59.8071V60.7154C41.3337 60.9125 41.3373 61.0986 41.3445 61.2737C41.3518 61.4451 41.3627 61.5546 41.3772 61.6019L41.9165 61.7552L41.8891 62.1601H39.6726L39.6508 61.7552L40.1355 61.6019C40.1463 61.5143 40.1554 61.3849 40.1627 61.2134C40.1737 61.0383 40.1791 60.8742 40.1791 60.7209V59.9986C40.1791 59.6666 40.1065 59.4296 39.9612 59.2873C39.8197 59.1413 39.6526 59.0684 39.4601 59.0684C39.1697 59.0684 38.9264 59.1924 38.7304 59.4405V60.7264C38.7304 60.9198 38.734 61.1022 38.7412 61.2737C38.7485 61.4451 38.7594 61.5546 38.774 61.6019L39.2968 61.7552L39.2695 62.1601H37.0039ZM43.5069 62.2258C43.2565 62.2258 43.0095 62.1984 42.7662 62.1438C42.5266 62.089 42.3233 62.0178 42.1563 61.9303L42.1126 60.8905H42.6954L42.8806 61.5254C43.0985 61.6567 43.3271 61.7224 43.5668 61.7224C43.7411 61.7224 43.8737 61.6876 43.9644 61.6184C44.0552 61.5454 44.1005 61.4506 44.1005 61.3338C44.1005 61.2025 44.0498 61.0931 43.948 61.0056C43.85 60.9144 43.6431 60.8085 43.3271 60.6881C42.9023 60.5312 42.6046 60.3598 42.434 60.1737C42.2633 59.984 42.178 59.7469 42.178 59.4624C42.178 59.1012 42.3396 58.8058 42.6628 58.5759C42.9895 58.3424 43.4143 58.2257 43.9371 58.2257C44.1297 58.2257 44.3221 58.2439 44.5145 58.2805C44.7069 58.3169 44.8666 58.3642 44.9937 58.4226L45.0918 59.4514H44.5199L44.3293 58.8222C44.2712 58.7892 44.1985 58.7619 44.1114 58.7401C44.0279 58.7182 43.9499 58.7072 43.8773 58.7072C43.7066 58.7072 43.5686 58.7455 43.4634 58.8222C43.3581 58.8988 43.3054 58.9991 43.3054 59.1231C43.3054 59.2618 43.369 59.3785 43.496 59.4733C43.6268 59.5645 43.8628 59.6795 44.204 59.818C44.5853 59.9713 44.8576 60.1391 45.021 60.3215C45.1844 60.5039 45.2661 60.7264 45.2661 60.989C45.2661 61.3612 45.1027 61.6603 44.7759 61.8866C44.4527 62.1127 44.0297 62.2258 43.5069 62.2258ZM46.519 62.2477C46.2902 62.2477 46.0923 62.1693 45.9253 62.0124C45.7619 61.8555 45.6802 61.6603 45.6802 61.4268C45.6802 61.1934 45.7619 60.9964 45.9253 60.8359C46.0923 60.6717 46.2902 60.5896 46.519 60.5896C46.7549 60.5896 46.9546 60.6717 47.1179 60.8359C47.2813 60.9964 47.363 61.1934 47.363 61.4268C47.363 61.6603 47.2813 61.8555 47.1179 62.0124C46.9546 62.1693 46.7549 62.2477 46.519 62.2477ZM47.6955 62.1601L47.6736 61.7388L48.251 61.6019C48.2546 61.5655 48.2601 61.4634 48.2673 61.2955C48.2782 61.1241 48.2873 60.9344 48.2945 60.7264L48.3001 60.0752C48.3001 59.8965 48.2945 59.7396 48.2836 59.6047C48.2728 59.4696 48.2546 59.3255 48.2293 59.1724L47.6465 59.0519V58.6471L49.2749 58.2421L49.52 58.3953C49.5054 58.585 49.4927 58.7747 49.4818 58.9644C49.471 59.1542 49.4655 59.3675 49.4655 59.6047V60.7264C49.4655 60.9162 49.4691 61.0986 49.4764 61.2737C49.4873 61.4488 49.5 61.5582 49.5145 61.6019L50.0918 61.7388L50.0701 62.1601H47.6955ZM48.9045 57.558C48.6613 57.558 48.4707 57.485 48.3327 57.3392C48.1947 57.1896 48.1258 57.0181 48.1258 56.8248C48.1258 56.6279 48.1947 56.4564 48.3327 56.3104C48.4707 56.1645 48.6613 56.0916 48.9045 56.0916C49.1478 56.0916 49.3347 56.1645 49.4655 56.3104C49.5962 56.4564 49.6615 56.6279 49.6615 56.8248C49.6615 57.0181 49.5962 57.1896 49.4655 57.3392C49.3347 57.485 49.1478 57.558 48.9045 57.558ZM50.1301 62.1601L50.103 61.7552L50.6421 61.6019C50.6494 61.5618 50.6566 61.4579 50.6639 61.2901C50.6747 61.1186 50.682 60.9307 50.6857 60.7264L50.6966 60.0589C50.6966 59.8765 50.6912 59.7214 50.6802 59.5938C50.6693 59.466 50.6512 59.3255 50.6258 59.1724L50.0648 59.0519V58.6471L51.6278 58.2421L51.8729 58.3953L51.824 58.9207L51.8512 58.9316C52.2106 58.461 52.6409 58.2257 53.142 58.2257C53.5195 58.2257 53.8336 58.3642 54.0842 58.6416C54.3346 58.9188 54.4599 59.3073 54.4599 59.8071V60.7154C54.4599 60.9125 54.4636 61.0986 54.4708 61.2737C54.4781 61.4451 54.4889 61.5546 54.5034 61.6019L55.0427 61.7552L55.0154 62.1601H52.7988L52.7771 61.7552L53.2617 61.6019C53.2726 61.5143 53.2817 61.3849 53.2889 61.2134C53.2999 61.0383 53.3054 60.8742 53.3054 60.7209V59.9986C53.3054 59.6666 53.2327 59.4296 53.0875 59.2873C52.9458 59.1413 52.7789 59.0684 52.5864 59.0684C52.2959 59.0684 52.0527 59.1924 51.8566 59.4405V60.7264C51.8566 60.9198 51.8602 61.1022 51.8675 61.2737C51.8747 61.4451 51.8856 61.5546 51.9001 61.6019L52.423 61.7552L52.3958 62.1601H50.1301Z" fill="black"/>
</svg>
