<svg width="53" height="65" viewBox="0 0 53 65" fill="none" xmlns="http://www.w3.org/2000/svg">
<g clip-path="url(#clip0_153_553)">
<path d="M6.80859 15.2787V4.62034V3.88528L6.54673 3.25523L6.2325 2.62518L5.65641 2.10014L5.1327 1.83762L4.60898 1.62761L4.13764 1.5226H3.66629H3.14258V0.997559H3.24732H6.2325H12.0981H14.1406V1.26008V1.68011H13.5645H12.4123L11.6268 2.10014L11.0507 2.8352L10.6841 4.2003L10.5793 5.61791V6.09045V7.29804V13.861V21.8942V30.2948V31.5549V32.5H10.8936H12.6742H15.9736H18.854H21.3155L22.2582 32.395L23.4104 32.0799L24.5102 31.7124L25.4529 31.2924L26.2908 30.7673L27.024 30.2423L27.5477 29.6648L28.1238 28.9822L28.4904 28.5097L28.8046 28.0896V28.1946V29.6648V33.1825V33.9701H28.4904H20.8965H11.4173H5.02795H3.66629H3.24732V33.6026V33.3925H4.19001L4.81847 33.235L5.76116 32.8675L6.33724 32.0799L6.80859 31.1874V30.0323V23.9943V15.2787Z" fill="black"/>
<path d="M23.4624 31.0299L22.5197 31.2399L22.415 31.0299L22.5197 30.8199L22.9387 30.3998L23.4624 29.5073L23.829 28.7197L24.248 26.9346L24.4575 25.937V24.8344V17.2738V6.6155V4.72536V3.83279L24.3004 2.99273L23.6719 2.15266L23.0958 1.83764L22.2055 1.57512H21.4199V0.945068H22.2055H25.6096H29.8517H32.1037H34.3033H35.246L36.1363 1.05008L37.1314 1.26009L38.3359 1.57512L39.5405 1.94265L40.7974 2.46769L42.2114 3.20274L43.6255 4.09531L44.83 5.09289L45.9822 6.40549L47.1343 7.77059L48.6531 10.8158L49.2816 13.126L49.5434 15.0162L49.7006 16.1187L49.8053 16.6963V17.0638V17.5889V18.0614V18.6389L49.7006 19.4265L49.5958 20.1615L49.4387 21.6317L49.1245 22.6817L48.8626 23.6268L48.2865 24.8344L47.6581 26.147L47.082 27.1446L46.2964 28.1422L45.4061 29.1397L44.0968 30.3998L41.9496 31.8174L39.6976 32.9725L37.9693 33.5501L36.3458 33.9176L35.246 34.0226H32.7322H30.5326V33.3401V32.815H30.8468H31.4229H33.3083H34.3557L35.665 32.5525L37.1838 32.185L38.493 31.6599L39.6976 30.9774L41.0592 29.8223L42.4209 28.2997L43.3636 26.7771L44.2539 24.9394L44.9871 22.4717L45.3537 20.4766L45.5108 19.269L45.6156 18.3764V17.6939V16.9063V16.4863L45.5108 15.8037L45.3537 15.0687L45.1442 13.9661L44.83 12.6535L44.411 11.1309L44.0968 10.2908L43.6255 9.1357L43.0494 7.92811L42.2114 6.6155L41.3735 5.56542L40.1166 4.46284L38.6502 3.51777L37.6027 3.04523L36.3458 2.6252L35.4555 2.36268L34.5128 2.15266L34.0415 2.04765L33.3606 1.94265H32.7845H29.9565H29.0138L28.8043 2.04765L28.6472 2.31017L28.5948 2.6252V4.46284V7.77059V11.8659V18.8489V24.2569V25.517L28.4901 25.832L28.1758 26.6195L27.6521 27.6696L27.0237 28.6147L25.7668 29.8223L24.7193 30.5573L23.4624 31.0299Z" fill="black"/>
<path d="M22.6242 52.084L21.3673 51.0864L21.4196 50.8764L21.6291 50.6139L22.0481 50.3514L23.0955 50.0364L24.0906 49.8263L25.0333 49.6688H27.6519L28.3851 49.7738L29.3277 49.9838L30.4799 50.1939L31.2131 50.5089L31.5797 50.8239V51.0339L30.9513 51.664L30.2181 52.1365L29.3277 52.5565L28.2803 53.0291L26.8663 53.4491L26.8139 53.6591L27.1281 54.0267L27.5471 54.5517L28.0185 55.0242L28.3327 54.9192L28.6993 54.8142L29.5896 54.2892L30.637 53.4491L31.3702 52.6616L31.7892 51.9265L31.9463 51.4015L32.0511 51.454L32.4177 52.189L32.8366 52.8716V53.4491L31.9987 54.2892L30.6894 55.1292L29.642 55.6018V55.7593L29.9038 56.8619L30.3752 58.857L31.1607 62.0598L31.6845 64.0549L31.9463 65L28.4898 64.9475L28.3327 64.0549L28.1232 62.9523L27.9137 61.9023L27.7042 60.7997L27.4424 59.3296L27.1281 57.8595L26.8139 56.1268L26.6044 54.9717H26.3949L26.2902 55.2868L26.0807 56.4418L25.9236 57.3344L25.7141 58.4895L25.5046 59.7496L25.3475 60.6947L25.0856 62.1648L24.8238 63.5299L24.5619 64.9475H22.5718H21.053L21.3673 63.4774L21.6291 62.3748L22.1528 60.1696L22.4671 58.857L22.7813 57.5444L23.0432 56.3893L23.305 55.6018L23.0432 55.5493L22.2576 55.1817L21.2102 54.6042L20.5293 53.9742L20.1104 53.4491V53.0291L20.3722 52.504L20.7388 51.874L21.053 51.4015L21.1054 51.5065L21.2102 52.0315L21.5768 52.6616L21.9957 53.1341L22.5194 53.6066L23.2003 54.0792L24.0382 54.6042L24.8762 55.0242L25.138 54.7617L25.7665 54.0267L26.0807 53.6066L24.8238 53.1341L23.7764 52.7141L22.6242 52.084Z" fill="black"/>
<path d="M45.5113 2.20517V0.315024H44.8828V0H46.454V0.315024H45.8255V2.20517H45.5113Z" fill="black"/>
<path d="M46.8203 0V2.20517H47.1345V0.577544L47.8154 1.94265H48.0249L48.7057 0.52504V2.20517H49.0199V0H48.6009L47.9725 1.3126H47.8154L47.2393 0H46.8203Z" fill="black"/>
<path d="M5.57179 42.2657H4.84307C4.79996 42.0556 4.72454 41.871 4.6168 41.7119C4.51102 41.5528 4.38173 41.4192 4.22893 41.3113C4.07809 41.2012 3.91059 41.1188 3.72644 41.0638C3.5423 41.0088 3.35032 40.9812 3.15051 40.9812C2.78614 40.9812 2.45605 41.0735 2.16025 41.2583C1.8664 41.4429 1.6323 41.7148 1.45796 42.0742C1.28556 42.4336 1.19937 42.8745 1.19937 43.397C1.19937 43.9194 1.28556 44.3602 1.45796 44.7196C1.6323 45.0791 1.8664 45.3511 2.16025 45.5357C2.45605 45.7203 2.78614 45.8126 3.15051 45.8126C3.35032 45.8126 3.5423 45.785 3.72644 45.73C3.91059 45.6751 4.07809 45.5936 4.22893 45.4856C4.38173 45.3756 4.51102 45.2411 4.6168 45.082C4.72454 44.9209 4.79996 44.7363 4.84307 44.5281H5.57179C5.51695 44.8365 5.41704 45.1124 5.27207 45.356C5.12711 45.5995 4.94689 45.8067 4.7314 45.9775C4.51591 46.1464 4.27398 46.275 4.0056 46.3634C3.73918 46.4518 3.45415 46.4961 3.15051 46.4961C2.63726 46.4961 2.18082 46.3704 1.78118 46.119C1.38156 45.8676 1.06714 45.5101 0.83794 45.0466C0.60874 44.5831 0.494141 44.0332 0.494141 43.397C0.494141 42.7606 0.60874 42.2107 0.83794 41.7472C1.06714 41.2838 1.38156 40.9263 1.78118 40.6749C2.18082 40.4235 2.63726 40.2979 3.15051 40.2979C3.45415 40.2979 3.73918 40.3421 4.0056 40.4304C4.27398 40.5188 4.51591 40.6484 4.7314 40.8192C4.94689 40.9882 5.12711 41.1944 5.27207 41.4379C5.41704 41.6794 5.51695 41.9554 5.57179 42.2657ZM12.9855 43.397C12.9855 44.0332 12.8709 44.5831 12.6417 45.0466C12.4125 45.5101 12.0981 45.8676 11.6985 46.119C11.2988 46.3704 10.8424 46.4961 10.3291 46.4961C9.81589 46.4961 9.35944 46.3704 8.95981 46.119C8.56019 45.8676 8.24577 45.5101 8.01657 45.0466C7.78737 44.5831 7.67277 44.0332 7.67277 43.397C7.67277 42.7606 7.78737 42.2107 8.01657 41.7472C8.24577 41.2838 8.56019 40.9263 8.95981 40.6749C9.35944 40.4235 9.81589 40.2979 10.3291 40.2979C10.8424 40.2979 11.2988 40.4235 11.6985 40.6749C12.0981 40.9263 12.4125 41.2838 12.6417 41.7472C12.8709 42.2107 12.9855 42.7606 12.9855 43.397ZM12.2802 43.397C12.2802 42.8745 12.1931 42.4336 12.0187 42.0742C11.8464 41.7148 11.6123 41.4429 11.3165 41.2583C11.0226 41.0735 10.6935 40.9812 10.3291 40.9812C9.96477 40.9812 9.63468 41.0735 9.33888 41.2583C9.04503 41.4429 8.81093 41.7148 8.63659 42.0742C8.46419 42.4336 8.378 42.8745 8.378 43.397C8.378 43.9194 8.46419 44.3602 8.63659 44.7196C8.81093 45.0791 9.04503 45.3511 9.33888 45.5357C9.63468 45.7203 9.96477 45.8126 10.3291 45.8126C10.6935 45.8126 11.0226 45.7203 11.3165 45.5357C11.6123 45.3511 11.8464 45.0791 12.0187 44.7196C12.1931 44.3602 12.2802 43.9194 12.2802 43.397ZM19.3186 40.3803H20.0474V44.375C20.0474 44.7874 19.9504 45.1556 19.7564 45.4797C19.5644 45.8017 19.2931 46.0561 18.9424 46.2427C18.5919 46.4273 18.1804 46.5196 17.7083 46.5196C17.2362 46.5196 16.8248 46.4273 16.4742 46.2427C16.1235 46.0561 15.8512 45.8017 15.6573 45.4797C15.4653 45.1556 15.3693 44.7874 15.3693 44.375V40.3803H16.098V44.3161C16.098 44.6106 16.1626 44.8728 16.292 45.1026C16.4213 45.3304 16.6054 45.5101 16.8444 45.6417C17.0853 45.7713 17.3734 45.8361 17.7083 45.8361C18.0433 45.8361 18.3313 45.7713 18.5723 45.6417C18.8132 45.5101 18.9973 45.3304 19.1247 45.1026C19.2539 44.8728 19.3186 44.6106 19.3186 44.3161V40.3803ZM27.4331 40.3803V46.4135H26.7279L23.4486 41.6765H23.3898V46.4135H22.661V40.3803H23.3662L26.6574 45.1291H26.7161V40.3803H27.4331ZM33.3408 41.8886C33.3056 41.5901 33.1626 41.3583 32.9118 41.1934C32.661 41.0284 32.3535 40.946 31.9891 40.946C31.7228 40.946 31.4896 40.9891 31.2899 41.0755C31.092 41.162 30.9372 41.2808 30.8255 41.432C30.7159 41.5833 30.661 41.755 30.661 41.9475C30.661 42.1086 30.6992 42.247 30.7756 42.3629C30.8539 42.4769 30.9538 42.5721 31.0753 42.6487C31.1967 42.7233 31.3241 42.7852 31.4573 42.8342C31.5905 42.8814 31.7129 42.9197 31.8246 42.9492L32.4358 43.1142C32.5925 43.1553 32.7668 43.2123 32.9588 43.285C33.1528 43.3577 33.3379 43.4568 33.5142 43.5825C33.6925 43.7062 33.8394 43.8653 33.955 44.0598C34.0706 44.2541 34.1284 44.4928 34.1284 44.7756C34.1284 45.1017 34.0431 45.3962 33.8727 45.6594C33.7043 45.9225 33.4574 46.1317 33.1322 46.2869C32.809 46.442 32.4163 46.5196 31.9539 46.5196C31.5229 46.5196 31.1497 46.4499 30.8343 46.3104C30.5209 46.171 30.2741 45.9766 30.0939 45.7271C29.9156 45.4777 29.8148 45.1881 29.7912 44.8581H30.5435C30.563 45.0859 30.6394 45.2744 30.7726 45.4237C30.9079 45.571 31.0783 45.681 31.284 45.7537C31.4916 45.8243 31.7149 45.8597 31.9539 45.8597C32.2321 45.8597 32.4818 45.8146 32.7033 45.7241C32.9246 45.6318 33.0999 45.5043 33.2292 45.3412C33.3585 45.1762 33.4232 44.9837 33.4232 44.7638C33.4232 44.5635 33.3673 44.4005 33.2557 44.2748C33.144 44.1491 32.9971 44.047 32.8149 43.9684C32.6327 43.8899 32.4358 43.8211 32.2243 43.7622L31.4837 43.5502C31.0136 43.4146 30.6414 43.2212 30.3672 42.9698C30.0928 42.7184 29.9557 42.3894 29.9557 41.9829C29.9557 41.6451 30.0469 41.3506 30.229 41.0992C30.4132 40.8458 30.66 40.6494 30.9695 40.51C31.281 40.3685 31.6287 40.2979 32.0127 40.2979C32.4006 40.2979 32.7454 40.3676 33.047 40.507C33.3487 40.6445 33.5877 40.833 33.764 41.0726C33.9423 41.3122 34.0363 41.5842 34.0461 41.8886H33.3408ZM36.485 46.4135V40.3803H40.1169V41.0284H37.2137V43.067H39.9289V43.7151H37.2137V45.7654H40.1639V46.4135H36.485ZM42.5889 46.4135V40.3803H43.3176V45.7654H46.115V46.4135H42.5889ZM51.693 41.8886C51.6577 41.5901 51.5147 41.3583 51.2639 41.1934C51.0132 41.0284 50.7056 40.946 50.3413 40.946C50.0748 40.946 49.8417 40.9891 49.6419 41.0755C49.444 41.162 49.2892 41.2808 49.1776 41.432C49.0679 41.5833 49.013 41.755 49.013 41.9475C49.013 42.1086 49.0512 42.247 49.1276 42.3629C49.2061 42.4769 49.3059 42.5721 49.4274 42.6487C49.5489 42.7233 49.6761 42.7852 49.8094 42.8342C49.9426 42.8814 50.065 42.9197 50.1767 42.9492L50.7879 43.1142C50.9446 43.1553 51.119 43.2123 51.311 43.285C51.5048 43.3577 51.69 43.4568 51.8663 43.5825C52.0446 43.7062 52.1914 43.8653 52.3071 44.0598C52.4226 44.2541 52.4804 44.4928 52.4804 44.7756C52.4804 45.1017 52.3953 45.3962 52.2247 45.6594C52.0563 45.9225 51.8094 46.1317 51.4843 46.2869C51.1611 46.442 50.7683 46.5196 50.306 46.5196C49.875 46.5196 49.5019 46.4499 49.1865 46.3104C48.873 46.171 48.6262 45.9766 48.4459 45.7271C48.2677 45.4777 48.1668 45.1881 48.1432 44.8581H48.8955C48.9151 45.0859 48.9915 45.2744 49.1247 45.4237C49.2599 45.571 49.4303 45.681 49.636 45.7537C49.8436 45.8243 50.0669 45.8597 50.306 45.8597C50.5842 45.8597 50.8339 45.8146 51.0553 45.7241C51.2766 45.6318 51.452 45.5043 51.5813 45.3412C51.7106 45.1762 51.7752 44.9837 51.7752 44.7638C51.7752 44.5635 51.7194 44.4005 51.6077 44.2748C51.4961 44.1491 51.3491 44.047 51.167 43.9684C50.9848 43.8899 50.7879 43.8211 50.5763 43.7622L49.8358 43.5502C49.3657 43.4146 48.9934 43.2212 48.7192 42.9698C48.445 42.7184 48.3078 42.3894 48.3078 41.9829C48.3078 41.6451 48.3989 41.3506 48.5811 41.0992C48.7652 40.8458 49.0121 40.6494 49.3216 40.51C49.6331 40.3685 49.9807 40.2979 50.3647 40.2979C50.7526 40.2979 51.0974 40.3676 51.3991 40.507C51.7007 40.6445 51.9397 40.833 52.116 41.0726C52.2943 41.3122 52.3884 41.5842 52.3982 41.8886H51.693Z" fill="black"/>
</g>
<defs>
<clipPath id="clip0_153_553">
<rect width="53" height="65" fill="white"/>
</clipPath>
</defs>
</svg>
