<svg width="88" height="66" viewBox="0 0 88 66" fill="none" xmlns="http://www.w3.org/2000/svg">
<path d="M69.8027 8.28367C69.8027 8.28367 72.0295 10.9189 73.4765 13.4659C73.4765 13.4659 79.9341 4.01391 86.506 1.00024" stroke="url(#paint0_linear_153_548)" stroke-width="2" stroke-linecap="round" stroke-linejoin="round"/>
<path d="M58.2383 56.8445C58.908 56.8445 59.5262 56.961 60.0928 57.1931C60.6681 57.4165 61.1661 57.7346 61.5869 58.1472C62.0074 58.5598 62.3336 59.0454 62.5654 59.6042C62.8058 60.1545 62.9268 60.7607 62.9268 61.4226C62.9268 62.0848 62.8058 62.6947 62.5654 63.2537C62.3336 63.8036 62.0075 64.2854 61.5869 64.698C61.1661 65.1106 60.6681 65.4327 60.0928 65.6648C59.5262 65.8884 58.908 66.0007 58.2383 66.0007C57.5687 66.0007 56.9453 65.8884 56.3701 65.6648C55.8034 65.4327 55.3054 65.1105 54.876 64.698C54.4555 64.277 54.1293 63.7911 53.8975 63.241C53.6656 62.682 53.5498 62.0758 53.5498 61.4226C53.5498 60.7694 53.6656 60.1669 53.8975 59.6169C54.1293 59.0582 54.4555 58.5724 54.876 58.1599C55.3054 57.7389 55.8033 57.4165 56.3701 57.1931C56.9453 56.961 57.5687 56.8445 58.2383 56.8445ZM22.5898 62.7087L28.2188 56.9089H29.0176L25.0547 61.0164L29.2881 65.9363H28.4893L24.6055 61.4929L22.5898 63.5603V65.9363H21.9336V56.9089H22.5898V62.7087ZM39.8984 65.9363H39.1904L38.0352 63.3953H32.8066L31.6553 65.9363H30.9463L35.0938 56.9089H35.751L39.8984 65.9363ZM46.5723 56.9089C47.3277 56.909 47.9757 57.0297 48.5166 57.2703C49.0576 57.5108 49.4744 57.8594 49.7666 58.3152C50.0584 58.7619 50.2041 59.3081 50.2041 59.9529C50.2041 60.5801 50.0585 61.1222 49.7666 61.5779C49.4744 62.0246 49.0576 62.3725 48.5166 62.6218C48.3803 62.6825 48.2369 62.7346 48.0869 62.78L50.3457 65.9363H49.5986L47.4414 62.9216C47.1694 62.9616 46.8799 62.9831 46.5723 62.9832H43.9951V65.9363H43.3389V56.9089H46.5723ZM58.2383 57.4509C57.6631 57.4509 57.13 57.5498 56.6406 57.7478C56.1511 57.9455 55.7217 58.2245 55.3525 58.5857C54.9919 58.9466 54.7091 59.3678 54.5029 59.8494C54.3052 60.322 54.2061 60.8467 54.2061 61.4226C54.2061 61.99 54.3052 62.5144 54.5029 62.9958C54.7091 63.4774 54.9919 63.8986 55.3525 64.2595C55.7217 64.6207 56.1512 64.8997 56.6406 65.0974C57.13 65.2954 57.6631 65.3943 58.2383 65.3943C58.8135 65.3943 59.3457 65.2953 59.835 65.0974C60.3243 64.8997 60.7496 64.6208 61.1104 64.2595C61.4711 63.8986 61.7498 63.4775 61.9473 62.9958C62.1534 62.5144 62.2568 61.99 62.2568 61.4226C62.2568 60.8467 62.1534 60.322 61.9473 59.8494C61.7498 59.3678 61.471 58.9466 61.1104 58.5857C60.7496 58.2245 60.3243 57.9455 59.835 57.7478C59.3457 57.5499 58.8135 57.451 58.2383 57.4509ZM33.0576 62.8416H37.7832L35.416 57.6335L33.0576 62.8416ZM43.9951 62.4031H46.5723C47.5421 62.403 48.2761 62.1873 48.7744 61.7576C49.2806 61.3275 49.5341 60.7263 49.5342 59.9529C49.5342 59.1705 49.2807 58.5683 48.7744 58.1472C48.2761 57.7175 47.5421 57.5027 46.5723 57.5027H43.9951V62.4031ZM10.1582 52.0066H0V6.85913H10.1582V52.0066ZM29.9121 6.85913C41.2748 6.85913 46.9561 11.6569 46.9561 21.2488C46.9557 25.7816 45.3207 29.4551 42.0508 32.2673C38.8014 35.0581 34.4516 36.4536 29.002 36.4539H24.1592V52.0066H14V6.85913H29.9121ZM63.2207 6.85913C64.5527 6.85913 65.8044 6.91946 66.9746 7.04077V13.3201C66.9747 14.7444 68.1281 15.8992 69.5508 15.8992H79.3018C79.5221 16.8965 79.6357 17.976 79.6357 19.1384C79.6357 20.7124 79.3962 22.1723 78.9141 23.5154C78.432 24.8373 77.7495 26.0343 76.8691 27.1042C75.9889 28.1743 74.9189 29.0984 73.6611 29.8748C72.4245 30.6513 71.0408 31.2604 69.5107 31.7009V31.8269C70.181 32.0368 70.8313 32.3827 71.46 32.865C72.0889 33.3269 72.6974 33.8723 73.2842 34.5017C73.8712 35.1312 74.4279 35.8149 74.9521 36.5496C75.4966 37.2625 75.9887 37.9657 76.4287 38.658L84.9521 52.0066H73.2842L66.2725 40.3904C65.7485 39.5091 65.2448 38.7206 64.7627 38.0281C64.2807 37.3357 63.7871 36.748 63.2842 36.2654C62.8023 35.7618 62.2888 35.3836 61.7441 35.1316C61.2202 34.8589 60.6423 34.7234 60.0137 34.7234H57.2783V52.0066H47.1201V6.85913H63.2207ZM24.1592 28.7419H28.1514C33.5595 28.7419 36.264 26.3693 36.2646 21.6267C36.2646 16.9882 33.5602 14.6678 28.1514 14.6677H24.1592V28.7419ZM57.2783 27.0417H61.6816C63.8609 27.0414 65.6112 26.4105 66.9316 25.1521C68.2732 23.8719 68.9443 22.2862 68.9443 20.3972C68.9443 16.4518 66.586 14.4786 61.8701 14.4783H57.2783V27.0417Z" fill="black"/>
<defs>
<linearGradient id="paint0_linear_153_548" x1="67.7031" y1="0.590192" x2="87.1981" y2="3.71908" gradientUnits="userSpaceOnUse">
<stop/>
</linearGradient>
</defs>
</svg>
