<svg width="247" height="45" viewBox="0 0 247 45" fill="none" xmlns="http://www.w3.org/2000/svg">
<path d="M0 0C81.2962 0 162.592 0 246.352 0C246.352 14.85 246.352 29.7 246.352 45C165.056 45 83.7597 45 0 45C0 30.15 0 15.3 0 0ZM56.9388 0.918367C56.9388 15.1622 56.9388 29.4061 56.9388 44.0816C119.142 44.0816 181.345 44.0816 245.434 44.0816C245.434 29.8378 245.434 15.5939 245.434 0.918367C183.23 0.918367 121.027 0.918367 56.9388 0.918367Z" fill="black"/>
<path d="M24.5667 11.9377C23.9003 12.479 23.2236 12.9977 22.529 13.5018C20.9429 14.6958 19.8381 15.8416 19.0565 17.6775C18.9286 17.9474 18.8008 18.2173 18.669 18.4954C17.5628 21.3927 18.0543 24.6467 19.2278 27.4396C20.4283 29.8146 22.3958 31.5293 24.7963 32.6009C24.7963 32.6767 24.7963 32.7525 24.7963 32.8305C22.5486 32.9855 20.3385 32.4658 18.4107 31.2808C17.3471 30.6511 16.5951 30.6368 15.383 30.7642C15.0989 30.7861 14.8148 30.808 14.522 30.8306C12.0412 31.0491 9.36732 31.4761 7.11769 32.6009C8.47306 33.3482 9.68704 33.7435 11.2073 34.0072C11.4169 34.0451 11.6265 34.0831 11.8424 34.1222C13.9301 34.4876 16.0255 34.734 18.1381 34.8968C18.3817 34.9171 18.6254 34.9374 18.8764 34.9583C21.5867 35.1586 24.2935 35.1613 27.0101 35.1564C27.8034 35.1551 28.5966 35.1564 29.3899 35.1578C35.5754 35.166 35.5754 35.166 41.7287 34.5955C42.0518 34.5516 42.0518 34.5516 42.3814 34.5068C46.0848 34.0242 46.0848 34.0242 49.5922 32.8305C49.6679 32.679 49.7437 32.5275 49.8218 32.3713C48.1079 31.8748 46.3995 31.4837 44.6416 31.1803C44.4204 31.1396 44.1991 31.0989 43.9712 31.057C41.2313 30.5078 41.2313 30.5078 38.6722 31.2951C36.0892 32.9089 32.7889 33.2889 29.8111 32.739C27.9454 32.275 26.3117 31.4848 24.7963 30.305C24.5974 30.1724 24.3985 30.0398 24.1936 29.9032C22.1426 27.9602 21.1295 25.5094 21.0264 22.7036C21.0011 19.7174 21.844 17.4224 23.8187 15.151C26.6552 12.4302 30.2367 11.7915 34.0032 11.865C35.409 11.9293 36.6105 12.2579 37.883 12.856C38.0733 12.9419 38.2636 13.0277 38.4597 13.1161C39.6948 13.7327 40.5123 14.5027 41.3269 15.6111C41.0973 16.0703 41.0973 16.0703 40.5224 16.2658C40.2907 16.3244 40.0589 16.383 39.8202 16.4434C39.5878 16.5032 39.3555 16.563 39.1161 16.6246C38.9365 16.669 38.7569 16.7133 38.5718 16.7591C38.4257 16.5265 38.4257 16.5265 38.2767 16.2891C37.3369 14.8598 36.6095 13.9304 34.9324 13.4139C33.0334 13.0341 31.2628 13.2004 29.6177 14.2336C27.7755 15.482 26.6122 17.279 26.0877 19.4424C25.5484 22.9761 25.9908 26.0548 28.0123 29.0611C29.0061 30.2673 30.3782 31.1331 31.9136 31.453C33.2369 31.567 34.5767 31.5022 35.8167 30.9938C36.0579 30.9038 36.2991 30.8138 36.5476 30.7211C37.4786 29.7915 37.3705 28.9879 37.3969 27.7095C37.3963 27.4106 37.3957 27.1117 37.3951 26.8037C37.3998 26.5013 37.4046 26.1988 37.4095 25.8872C37.4203 25.1404 37.4228 24.3936 37.4238 23.6468C38.9391 23.6468 40.4544 23.6468 42.0156 23.6468C42.145 27.2375 42.145 27.2375 41.2982 28.7813C41.0612 29.1535 41.0612 29.1535 41.0973 29.6162C41.2241 29.6311 41.3509 29.6459 41.4816 29.6612C48.389 30.4946 48.389 30.4946 50.7401 32.1417C50.9267 32.644 50.9267 32.644 50.9697 33.0601C49.9504 33.8102 48.982 34.2395 47.7554 34.5668C47.5766 34.6151 47.3977 34.6635 47.2134 34.7133C41.3792 36.2112 35.1198 36.3666 29.1298 36.3461C28.873 36.3457 28.6163 36.3453 28.3518 36.3449C10.3178 36.2958 10.3178 36.2958 6.19932 33.2897C6.02152 32.7934 6.02152 32.7934 5.96973 32.3713C8.36493 30.2347 12.1166 30.0406 15.1762 29.6873C15.6311 29.6354 15.6311 29.6354 16.0718 29.3866C15.983 29.2919 15.8942 29.1972 15.8027 29.0996C13.7162 26.7859 13.1544 24.3119 13.2315 21.2559C13.3894 18.5387 14.7707 16.3205 16.7471 14.5152C19.112 12.6328 21.5704 11.8401 24.5667 11.9377Z" fill="#F4FBF7"/>
<path d="M213.413 14.6547C215.243 16.1414 216.655 18.2765 216.965 20.6636C217.147 23.916 216.834 26.349 214.669 28.9289C212.648 31.1474 209.769 32.5053 206.769 32.6875C203.414 32.7756 200.618 32.1912 197.909 30.0768C197.739 29.959 197.57 29.8412 197.395 29.7199C197.261 29.6104 197.128 29.5009 196.99 29.388C196.99 29.2365 196.99 29.085 196.99 28.9289C196.839 28.9289 196.687 28.9289 196.531 28.9289C196.209 28.5576 196.209 28.5576 195.857 28.0392C195.741 27.874 195.625 27.7089 195.506 27.5387C194.609 25.8177 194.336 24.0941 194.35 22.1702C194.352 21.8536 194.352 21.8536 194.354 21.5306C194.398 19.8781 194.676 18.608 195.613 17.2197C195.729 17.0374 195.846 16.8551 195.966 16.6672C197.675 14.2381 200.217 12.9928 203.041 12.2574C206.824 11.7043 210.301 12.4042 213.413 14.6547ZM199.705 15.5632C199.052 16.3567 198.554 17.1994 198.138 18.138C198.012 18.4222 198.012 18.4222 197.883 18.712C197.576 19.9238 197.604 21.1118 197.607 22.3568C197.604 22.6089 197.6 22.8611 197.596 23.1209C197.595 25.6796 198.368 27.5891 200.033 29.5315C201.978 31.2118 203.697 32.0471 206.301 31.9996C208.415 31.7697 210.292 30.7592 211.684 29.1584C213.698 26.4331 214.113 23.5161 213.751 20.2044C213.285 17.7246 212.049 15.6264 210.005 14.1489C206.497 12.0011 202.506 12.6088 199.705 15.5632Z" fill="black"/>
<path d="M123.964 14.7982C125.717 16.2134 127.009 18.196 127.423 20.4331C127.688 23.4637 127.325 26.1828 125.395 28.5979C123.962 30.2118 122.551 31.1333 120.536 31.9127C120.365 31.9864 120.193 32.06 120.017 32.136C116.907 33.301 113.259 32.7502 110.316 31.423C107.932 30.2007 106.088 28.3374 105.196 25.7854C104.326 22.8234 104.544 19.9987 106.002 17.2663C106.359 16.6604 106.73 16.1181 107.219 15.6116C107.371 15.6116 107.522 15.6116 107.678 15.6116C107.754 15.3843 107.83 15.157 107.908 14.9229C112.744 11.2416 119.093 11.1277 123.964 14.7982ZM110.147 15.6403C108.134 18.015 107.72 20.8617 107.908 23.8769C108.186 25.6685 108.753 27.184 109.745 28.6984C109.944 29.0038 109.944 29.0038 110.147 29.3154C111.819 31.0343 113.753 31.8125 116.116 31.9701C118.214 31.934 120.109 31.0753 121.655 29.6903C123.787 27.4757 124.284 24.7675 124.243 21.8214C124.172 19.2856 123.379 16.9517 121.635 15.0601C119.986 13.5877 118.229 12.9542 116.059 12.7991C113.562 12.9775 111.894 13.8335 110.147 15.6403Z" fill="black"/>
<path d="M222.933 12.3982C226.147 12.3982 226.147 12.3982 227.025 13.1471C227.255 13.4787 227.473 13.818 227.682 14.1632C227.928 14.5245 228.174 14.8853 228.421 15.2457C228.54 15.4253 228.659 15.6049 228.781 15.7899C229.283 16.5226 229.851 17.1849 230.437 17.851C231.26 18.8035 232.045 19.7749 232.805 20.7783C233.754 22.0311 234.752 23.2293 235.783 24.4159C236.816 25.6619 237.788 26.9572 238.774 28.24C238.85 23.0122 238.926 17.7844 239.004 12.3982C239.231 12.3982 239.459 12.3982 239.693 12.3982C239.693 18.9898 239.693 25.5814 239.693 32.3727C238.315 32.3727 238.315 32.3727 237.914 32.0719C237.808 31.9326 237.702 31.7933 237.592 31.6498C237.472 31.4959 237.351 31.342 237.227 31.1835C237.103 31.0171 236.979 30.8508 236.852 30.6794C236.72 30.5102 236.589 30.3409 236.453 30.1664C236.192 29.8297 235.933 29.4917 235.675 29.1523C235.263 28.611 234.84 28.0804 234.412 27.5513C234.2 27.2858 234.2 27.2858 233.984 27.0149C233.351 26.2248 232.712 25.4386 232.073 24.6527C231.946 24.4961 231.819 24.3396 231.688 24.1783C231.04 23.3817 230.392 22.5855 229.742 21.7899C228.323 20.0491 226.919 18.2983 225.536 16.5282C225.055 15.9136 224.568 15.3036 224.081 14.6941C224.005 20.528 223.929 26.362 223.851 32.3727C223.548 32.3727 223.245 32.3727 222.933 32.3727C222.933 25.7811 222.933 19.1895 222.933 12.3982Z" fill="black"/>
<path d="M80.1901 14.1498C80.3212 14.2534 80.4523 14.357 80.5874 14.4637C80.5874 14.6153 80.5874 14.7668 80.5874 14.9229C80.7389 14.9229 80.8905 14.9229 81.0466 14.9229C81.1602 15.3775 81.1602 15.3775 81.2762 15.8413C80.5874 16.3005 80.5874 16.3005 79.669 16.3005C79.3533 15.8479 79.0487 15.3874 78.7507 14.9229C77.2437 13.4502 75.896 13.0479 73.8431 12.9714C72.4509 12.9963 71.4807 13.2237 70.2898 13.9382C69.7966 14.2341 69.7966 14.2341 69.1885 14.444C68.5289 14.7486 68.4548 14.9513 68.1894 15.6117C67.852 16.1559 67.5095 16.6965 67.1644 17.2359C66.2892 18.9039 65.9949 20.4525 66.0083 22.3272C66.01 22.6434 66.01 22.6434 66.0118 22.966C66.0763 25.4939 66.8509 27.7727 68.6486 29.6168C70.203 30.9811 71.6434 31.8124 73.757 31.7836C74.0146 31.7819 74.0146 31.7819 74.2773 31.7803C75.9977 31.7345 77.3224 31.2578 78.7507 30.3056C78.868 29.6608 78.868 29.6608 78.8682 28.9047C78.8804 28.4874 78.8804 28.4874 78.8928 28.0617C78.898 27.7698 78.9032 27.478 78.9085 27.1774C78.9164 26.8838 78.9242 26.5902 78.9323 26.2877C78.9513 25.5607 78.9661 24.8337 78.9803 24.1066C80.041 24.1066 81.1017 24.1066 82.1945 24.1066C82.2311 25.5882 82.2589 26.834 81.7354 28.2392C81.6549 28.4618 81.5744 28.6844 81.4914 28.9137C80.2869 30.8175 78.6036 31.8166 76.4547 32.3719C72.9777 33.0749 69.6247 32.6297 66.6298 30.6751C64.7616 29.3128 63.4058 27.4257 62.7537 25.1792C62.3027 21.4625 62.7478 18.6872 64.9976 15.6386C65.4343 15.1525 65.4343 15.1525 66.1231 14.9229C66.1231 14.7714 66.1231 14.6198 66.1231 14.4637C70.8249 11.793 75.398 11.209 80.1901 14.1498Z" fill="black"/>
<path d="M24.5658 11.9383C23.8995 12.4797 23.2228 12.9983 22.5282 13.5024C20.9421 14.6964 19.8372 15.8422 19.0556 17.6781C18.9278 17.948 18.7999 18.2179 18.6682 18.496C17.562 21.3933 18.0535 24.6473 19.2269 27.4402C20.4275 29.8152 22.3949 31.5299 24.7954 32.6015C24.7954 32.6773 24.7954 32.7531 24.7954 32.8311C22.39 32.997 19.898 32.383 17.9077 30.9944C17.794 30.7671 17.794 30.7671 17.6781 30.5352C17.5171 30.4452 17.3561 30.3553 17.1902 30.2626C14.998 28.8805 13.9085 26.816 13.3158 24.3362C12.9537 21.2254 13.422 18.5153 15.3391 15.9705C17.7689 13.1638 20.8806 11.8183 24.5658 11.9383Z" fill="#F6FBF8"/>
<path d="M133.393 12.3982C146.376 12.3982 146.377 12.398 148.475 14.3699C149.442 15.4975 149.547 16.2736 149.526 17.7205C149.413 18.903 148.979 19.5896 148.1 20.3699C147.415 20.9033 146.848 21.3058 146.021 21.5818L145.791 22.0408C145.98 22.0597 146.169 22.0789 146.364 22.0984C148.138 22.4784 149.375 23.2782 150.383 24.7966C150.916 25.9598 151.044 27.0483 150.7 28.2937C150.071 29.9525 149.066 30.7741 147.479 31.5046C145.373 32.3303 143.324 32.4079 141.083 32.3953C140.887 32.395 140.69 32.3945 140.487 32.3943C139.763 32.3931 139.039 32.3904 138.314 32.3875C136.69 32.3827 135.066 32.3777 133.393 32.3728V12.3982ZM142.37 22.4324C142.063 22.4338 141.757 22.4352 141.45 22.4373C140.867 22.4469 140.867 22.4464 140.296 22.4558C138.434 22.4775 138.433 22.4775 136.608 22.4988V31.6833C137.745 31.6931 138.848 31.7022 139.951 31.7117C140.307 31.716 140.652 31.7202 140.997 31.7244C141.281 31.7255 141.556 31.7261 141.832 31.7273C143.299 31.7399 144.493 31.5167 145.82 30.8796C146.868 29.9683 147.487 28.8327 147.724 27.4568C147.779 25.9841 147.362 24.8522 146.423 23.7048C145.302 22.788 144.285 22.4208 142.841 22.4216C142.681 22.4253 142.525 22.4289 142.37 22.4324ZM139.578 13.0437C138.078 13.0654 138.078 13.0654 136.608 13.0867V21.8113C137.589 21.821 138.541 21.8301 139.492 21.8396C141.39 21.8663 143.155 22.0222 144.802 20.95C145.585 20.1883 146.146 19.5588 146.375 18.4626C146.562 16.8792 146.538 15.6117 145.548 14.2917C144.008 13.1122 142.399 13.0119 140.502 13.0251C140.188 13.0316 139.883 13.0374 139.578 13.0437Z" fill="black"/>
<path d="M88.1631 12.3982C89.148 12.3982 90.133 12.3982 91.1478 12.3982C91.1478 18.7625 91.1478 25.1268 91.1478 31.6839C94.7845 31.6839 98.4212 31.6839 102.168 31.6839C102.168 31.9112 102.168 32.1385 102.168 32.3727C97.5465 32.3727 92.9248 32.3727 88.1631 32.3727C88.1631 25.7811 88.1631 19.1895 88.1631 12.3982Z" fill="black"/>
<path d="M174.72 12.6285C180.175 12.6285 185.63 12.6285 191.25 12.6285C191.25 12.7801 191.25 12.9316 191.25 13.0877C188.977 13.0877 186.704 13.0877 184.363 13.0877C184.363 19.452 184.363 25.8163 184.363 32.3734C183.453 32.3734 182.544 32.3734 181.607 32.3734C181.607 26.0092 181.607 19.6449 181.607 13.0877C179.335 13.0877 177.062 13.0877 174.72 13.0877C174.72 12.9362 174.72 12.7847 174.72 12.6285Z" fill="black"/>
<path d="M17.9085 30.5365C17.4493 30.766 17.4493 30.766 16.6314 30.7517C13.4978 30.7316 9.95302 31.1851 7.11769 32.6028C8.47306 33.35 9.68704 33.7453 11.2073 34.009C11.4169 34.047 11.6265 34.085 11.8424 34.1241C13.9301 34.4895 16.0255 34.7359 18.1381 34.8987C18.3817 34.919 18.6254 34.9392 18.8764 34.9601C21.5867 35.1605 24.2935 35.1632 27.0101 35.1582C27.8034 35.157 28.5966 35.1582 29.3899 35.1597C35.5754 35.1679 35.5754 35.1679 41.7287 34.5974C41.9441 34.5681 42.1595 34.5388 42.3814 34.5086C46.0848 34.0261 46.0848 34.0261 49.5922 32.8324C49.6679 32.6808 49.7437 32.5293 49.8218 32.3732C48.1031 31.8728 46.3922 31.4915 44.6273 31.1965C44.2925 31.1384 44.2925 31.1384 43.951 31.079C42.6198 30.8518 41.293 30.6722 39.9493 30.5365C39.9493 30.4607 39.9493 30.3849 39.9493 30.3069C40.3281 30.3069 40.707 30.3069 41.0973 30.3069C41.0973 30.1553 41.0973 30.0038 41.0973 29.8477C48.7879 30.1913 48.7879 30.1913 50.9697 32.3732C50.9285 32.8324 50.9285 32.8324 50.7401 33.2916C45.0496 36.9335 35.5926 36.3701 29.1298 36.348C28.873 36.3476 28.6163 36.3472 28.3518 36.3467C10.3178 36.2976 10.3178 36.2976 6.19932 33.2916C6.02152 32.7953 6.02152 32.7953 5.96973 32.3732C7.94013 30.6155 10.8227 30.2473 13.3597 29.8764C13.5656 29.846 13.7714 29.8157 13.9835 29.7844C15.564 29.5748 16.5453 29.6406 17.9085 30.5365Z" fill="black"/>
<path d="M164.057 12.3842C164.289 12.3862 164.521 12.3879 164.761 12.39C164.94 12.3927 165.121 12.3961 165.306 12.3988C165.55 12.9482 165.794 13.4981 166.037 14.0482C166.104 14.1984 166.171 14.3495 166.24 14.5043C166.669 15.4763 167.064 16.4567 167.441 17.4496C167.886 18.6161 168.349 19.7729 168.827 20.9261C168.894 21.0881 168.961 21.2505 169.03 21.4174C169.306 22.0831 169.583 22.7491 169.86 23.4144C170.673 25.3665 171.465 27.3213 172.185 29.3099C172.436 29.9968 172.708 30.6468 173.036 31.3011C173.341 31.9138 173.341 31.9142 173.341 32.3734H170.127C169.766 31.5365 169.406 30.6988 169.048 29.8607C168.926 29.5758 168.804 29.2907 168.681 29.0062C168.504 28.597 168.328 28.1868 168.153 27.7767C168.048 27.5303 167.942 27.2836 167.833 27.0297C167.601 26.4037 167.602 26.4035 167.602 25.7152H158.188C157.848 26.8514 157.847 26.8518 157.499 28.0111C157.351 28.407 157.197 28.8006 157.03 29.1888C156.909 29.4729 156.909 29.4734 156.786 29.7631C156.704 29.9519 156.622 30.1408 156.538 30.3353C156.454 30.5328 156.369 30.7305 156.282 30.934C156.077 31.414 155.87 31.8944 155.662 32.3734C155.359 32.2977 155.056 32.221 154.744 32.1429C155.303 30.7415 155.863 29.3401 156.423 27.9388C156.506 27.73 156.59 27.5212 156.676 27.306C157.811 24.4671 158.954 21.6322 160.113 18.8031C160.792 17.1435 161.452 15.4774 162.088 13.8011C162.621 12.4049 162.621 12.4049 163.354 12.3763C163.702 12.3803 163.702 12.3801 164.057 12.3842ZM162.78 14.4652C162.524 14.7214 162.524 14.7214 162.052 15.8871C161.983 16.0594 161.916 16.2266 161.849 16.3939C161.706 16.7489 161.563 17.1043 161.421 17.4594C161.197 18.0187 160.974 18.5785 160.749 19.1371C160.602 19.5005 160.455 19.8641 160.31 20.2279C160.238 20.4075 160.168 20.5819 160.099 20.7562C159.529 22.1651 159.087 23.5617 158.647 25.0267H167.143C167.143 24.5676 167.142 24.5673 166.929 23.9935C166.827 23.7481 166.728 23.51 166.63 23.2719C166.463 22.8668 166.464 22.8661 166.301 22.4691C166.072 21.9168 165.843 21.3645 165.615 20.8119C165.502 20.5358 165.391 20.2674 165.281 19.9994C164.835 18.9162 164.411 17.8275 164.002 16.7299C163.685 15.8624 163.371 15.1779 162.78 14.4652Z" fill="black"/>
<path d="M245.433 0.688965C246.213 1.72948 246.207 2.00519 246.207 3.26153C246.208 3.42839 246.209 3.59525 246.21 3.76716C246.212 4.32644 246.21 4.88559 246.207 5.44487C246.207 5.84577 246.208 6.24667 246.209 6.64757C246.212 7.73672 246.209 8.82581 246.206 9.91495C246.204 11.0543 246.205 12.1936 246.205 13.333C246.205 15.2466 246.203 17.1603 246.199 19.074C246.194 21.2866 246.193 23.4993 246.194 25.7119C246.196 27.8398 246.194 29.9676 246.192 32.0955C246.191 33.0013 246.191 33.9071 246.191 34.8129C246.191 35.8797 246.19 36.9465 246.186 38.0133C246.185 38.4049 246.185 38.7965 246.185 39.1881C246.186 39.7225 246.184 40.2569 246.181 40.7913C246.181 41.0905 246.18 41.3896 246.18 41.6978C246.124 42.4417 245.984 42.9551 245.662 43.6226C245.586 43.6226 245.511 43.6226 245.433 43.6226C245.433 29.4545 245.433 15.2864 245.433 0.688965Z" fill="black"/>
<path d="M41.0974 29.8464C48.7879 30.1901 48.7879 30.1901 50.9698 32.3719C50.9286 32.8311 50.9286 32.8311 50.7402 33.2903C45.1663 36.8576 35.9094 36.3579 29.5837 36.3223C28.8082 36.318 28.0328 36.3176 27.2573 36.3176C24.5916 36.3132 21.9438 36.262 19.2861 36.0454C19.2861 35.9697 19.2861 35.8939 19.2861 35.8158C19.5333 35.8174 19.5333 35.8174 19.7855 35.8189C21.3394 35.8281 22.8933 35.8351 24.4473 35.8396C25.2461 35.842 26.045 35.8453 26.8438 35.8505C27.7625 35.8564 28.6811 35.8586 29.5998 35.8607C29.8864 35.863 30.1729 35.8654 30.4681 35.8678C30.8679 35.8679 30.8679 35.8679 31.2758 35.868C31.6276 35.8695 31.6276 35.8695 31.9865 35.871C32.6189 35.8143 32.9804 35.6778 33.5208 35.3566C34.046 35.094 34.3598 35.092 34.9441 35.0786C35.243 35.0696 35.243 35.0696 35.5479 35.0604C35.8728 35.0508 35.8728 35.0508 36.2042 35.041C43.0715 34.7955 43.0715 34.7955 49.5923 32.8311C49.668 32.6796 49.7438 32.5281 49.8218 32.3719C48.1032 31.8716 46.3923 31.4902 44.6273 31.1953C44.2926 31.1371 44.2926 31.1371 43.9511 31.0778C42.6199 30.8506 41.293 30.671 39.9494 30.5352C39.9494 30.4594 39.9494 30.3837 39.9494 30.3056C40.3282 30.3056 40.7071 30.3056 41.0974 30.3056C41.0974 30.1541 41.0974 30.0026 41.0974 29.8464Z" fill="black"/>
<path d="M33.5208 11.9397C35.747 11.7374 38.1601 12.7073 39.9494 14.0061C40.4564 14.5099 40.9039 15.0375 41.3269 15.6132C41.0974 16.0724 41.0974 16.0724 40.5225 16.2679C40.2907 16.3265 40.059 16.3851 39.8203 16.4455C39.5879 16.5053 39.3556 16.565 39.1162 16.6266C38.9366 16.671 38.7569 16.7154 38.5718 16.7612C38.4258 16.5285 38.4258 16.5285 38.2768 16.2912C37.3345 14.8581 36.6096 13.9438 34.936 13.4132C34.3087 13.2921 33.7147 13.287 33.076 13.2886C32.7248 13.2877 32.7248 13.2877 32.3666 13.2868C31.731 13.3152 31.1548 13.4033 30.5361 13.5469C30.6119 13.3196 30.6877 13.0923 30.7657 12.8581C30.9566 12.8442 31.1475 12.8303 31.3442 12.816C31.5937 12.7967 31.8432 12.7775 32.1002 12.7577C32.4718 12.7297 32.4718 12.7297 32.8509 12.7012C33.5346 12.651 33.5346 12.651 34.2096 12.3989C33.9823 12.2474 33.755 12.0959 33.5208 11.9397Z" fill="#F3FBF5"/>
<path d="M133.393 12.3982C145.102 12.3982 145.102 12.3982 146.479 13.3166C146.252 13.3923 146.025 13.4681 145.791 13.5462C145.408 13.8905 145.408 13.8905 145.102 14.2349C144.96 14.1308 144.818 14.0266 144.671 13.9192C143.703 13.4157 142.728 13.2636 141.658 13.087C141.658 13.0112 141.658 12.9354 141.658 12.8574C139.006 12.7816 136.354 12.7058 133.622 12.6278C133.622 19.1436 133.622 25.6594 133.622 32.3727C133.546 32.3727 133.471 32.3727 133.393 32.3727C133.393 25.7811 133.393 19.1895 133.393 12.3982Z" fill="black"/>
<path d="M36.6203 35.084C36.9892 35.0798 36.9892 35.0798 37.3656 35.0755C37.6003 35.075 37.835 35.0746 38.0768 35.0741C38.2927 35.0732 38.5086 35.0722 38.731 35.0713C39.2606 35.127 39.2606 35.127 39.7198 35.5862C39.4594 35.6194 39.1989 35.6525 38.9306 35.6867C38.1568 35.7267 38.1568 35.7267 37.8831 36.0454C35.2238 36.4533 32.4549 36.3098 29.7742 36.3049C28.9763 36.3037 28.1785 36.3049 27.3806 36.3064C24.6732 36.3071 21.9852 36.2697 19.2861 36.0454C19.2861 35.9696 19.2861 35.8939 19.2861 35.8158C19.5333 35.8173 19.5333 35.8173 19.7855 35.8189C21.3394 35.8281 22.8933 35.8351 24.4473 35.8396C25.2461 35.842 26.045 35.8452 26.8438 35.8504C27.7625 35.8564 28.6811 35.8586 29.5998 35.8606C29.8864 35.863 30.1729 35.8654 30.4681 35.8678C30.8679 35.8679 30.8679 35.8679 31.2758 35.8679C31.6276 35.8695 31.6276 35.8695 31.9865 35.871C32.6189 35.8143 32.9804 35.6778 33.5208 35.3566C34.4399 34.8971 35.6099 35.0846 36.6203 35.084Z" fill="black"/>
<path d="M41.0972 29.8464C44.2195 29.986 47.7963 30.208 50.5104 31.9128C50.6988 32.4087 50.6988 32.4087 50.74 32.8311C50.5127 32.8311 50.2854 32.8311 50.0513 32.8311C50.0513 32.6796 50.0513 32.5281 50.0513 32.3719C46.7072 31.5229 43.3732 30.9537 39.9492 30.5352C39.9492 30.4594 39.9492 30.3837 39.9492 30.3056C40.328 30.3056 40.7069 30.3056 41.0972 30.3056C41.0972 30.1541 41.0972 30.0026 41.0972 29.8464Z" fill="black"/>
<path d="M33.52 35.357C33.6337 35.6979 33.6337 35.6979 33.7496 36.0458C32.2834 36.0516 30.8171 36.0556 29.3509 36.0584C28.8528 36.0595 28.3546 36.0611 27.8565 36.0631C27.1378 36.0659 26.4191 36.0672 25.7005 36.0682C25.4801 36.0694 25.2598 36.0706 25.0327 36.0718C23.7104 36.0719 22.4338 35.9859 21.1221 35.8162C21.1221 35.7404 21.1221 35.6646 21.1221 35.5866C22.5925 35.5536 24.063 35.5209 25.5334 35.4885C26.0331 35.4774 26.5328 35.4663 27.0325 35.4551C27.7529 35.4389 28.4733 35.423 29.1937 35.4072C29.526 35.3997 29.526 35.3997 29.865 35.392C31.0837 35.3655 32.301 35.352 33.52 35.357Z" fill="black"/>
<path d="M157.27 25.7156C157.497 25.9429 157.724 26.1702 157.958 26.4044C157.327 28.4478 156.488 30.403 155.663 32.3737C155.359 32.298 155.056 32.2222 154.744 32.1441C155.578 30.0227 156.411 27.9013 157.27 25.7156Z" fill="black"/>
<path d="M17.9087 30.5374C17.2918 30.8458 16.7451 30.7689 16.0683 30.7589C15.0334 30.7711 14.0034 30.8528 12.9719 30.9352C12.2381 30.9884 11.727 31.0024 11.0209 30.767C10.7936 30.8807 10.7936 30.8807 10.5617 30.9966C10.4102 30.8451 10.2587 30.6935 10.1025 30.5374C10.7195 30.4271 11.3365 30.3171 11.9536 30.2074C12.1263 30.1765 12.299 30.1455 12.4769 30.1137C16.2459 29.4447 16.2459 29.4447 17.9087 30.5374Z" fill="black"/>
<path d="M71.8613 12.1686C74.187 12.0528 76.0962 12.2031 78.2899 13.087C78.5195 13.3166 78.5195 13.3166 78.5338 13.9049C78.5291 14.0896 78.5244 14.2743 78.5195 14.4646C78.3884 14.387 78.2573 14.3095 78.1222 14.2296C76.5278 13.3526 75.0396 13.0465 73.2389 12.8574C73.2389 12.7059 73.2389 12.5543 73.2389 12.3982C72.7843 12.3982 72.3297 12.3982 71.8613 12.3982C71.8613 12.3225 71.8613 12.2467 71.8613 12.1686Z" fill="black"/>
<path d="M143.037 21.5829C143.113 21.8859 143.188 22.189 143.267 22.5013C141.069 22.5013 138.872 22.5013 136.608 22.5013C136.838 22.0421 136.838 22.0421 137.241 21.9031C137.793 21.806 138.325 21.7641 138.885 21.7398C139.203 21.7254 139.203 21.7254 139.529 21.7107C139.859 21.6971 139.859 21.6971 140.196 21.6833C140.529 21.6685 140.529 21.6685 140.868 21.6533C142.469 21.5829 142.469 21.5829 143.037 21.5829Z" fill="black"/>
<path d="M33.5208 11.9384C34.7129 11.8898 35.6163 12.0323 36.7351 12.3976C36.5078 12.4734 36.2805 12.5491 36.0463 12.6272C36.0463 12.9303 36.0463 13.2333 36.0463 13.5456C35.838 13.5077 35.6296 13.4698 35.415 13.4308C33.8034 13.2006 32.1249 13.1789 30.5361 13.5456C30.6119 13.3183 30.6877 13.091 30.7657 12.8568C30.9566 12.8429 31.1475 12.829 31.3442 12.8146C31.5937 12.7954 31.8432 12.7762 32.1002 12.7563C32.4718 12.7284 32.4718 12.7284 32.8509 12.6998C33.5346 12.6497 33.5346 12.6497 34.2096 12.3976C33.9823 12.2461 33.755 12.0945 33.5208 11.9384Z" fill="black"/>
<path d="M36.964 23.4171C37.1155 23.4929 37.267 23.5686 37.4232 23.6467C37.4402 24.5538 37.4527 25.4608 37.461 26.3681C37.4662 26.8287 37.4749 27.2892 37.4837 27.7498C37.4859 28.0383 37.4881 28.3269 37.4904 28.6242C37.494 28.8911 37.4976 29.158 37.5013 29.433C37.4755 29.645 37.4497 29.8569 37.4232 30.0753C37.1959 30.2268 36.9686 30.3783 36.7344 30.5345C36.8101 28.1857 36.8859 25.837 36.964 23.4171Z" fill="black"/>
<path d="M44.7706 35.1278C44.7706 35.2794 44.7706 35.4309 44.7706 35.587C42.3814 36.1362 40.3361 36.3644 37.8828 36.0462C37.8828 35.9704 37.8828 35.8947 37.8828 35.8166C38.0241 35.8039 38.1653 35.7912 38.3108 35.7781C38.9527 35.7199 39.5944 35.6607 40.2361 35.6014C40.4584 35.5814 40.6807 35.5614 40.9097 35.5408C41.1242 35.5208 41.3388 35.5009 41.5599 35.4803C41.8556 35.4532 41.8556 35.4532 42.1574 35.4256C44.5859 35.1227 44.5859 35.1227 44.7706 35.1278Z" fill="black"/>
<path d="M18.5971 13.3182C18.5971 14.007 18.5971 14.007 18.1379 14.6958C17.7589 14.9314 17.3757 15.1603 16.99 15.3846C16.6031 15.6854 16.2193 15.9903 15.842 16.3029C15.6905 16.2272 15.5389 16.1514 15.3828 16.0733C16.3078 14.8576 17.2597 14.0548 18.5971 13.3182Z" fill="black"/>
<path d="M41.0967 28.9276C41.5705 29.0317 42.0439 29.1372 42.5173 29.2433C42.781 29.3019 43.0447 29.3605 43.3164 29.4209C43.9868 29.5922 44.5956 29.8011 45.2293 30.0756C44.3361 30.3981 43.5692 30.2352 42.6464 30.0899C42.3564 30.0452 42.0663 30.0005 41.7675 29.9545C41.5461 29.9187 41.3248 29.8829 41.0967 29.846C41.0967 29.5429 41.0967 29.2399 41.0967 28.9276Z" fill="black"/>
<path d="M19.5156 31.6818C19.9223 31.7142 20.3288 31.7479 20.7353 31.7822C20.9617 31.8009 21.1881 31.8195 21.4214 31.8387C22.0411 31.9114 22.0411 31.9114 22.7299 32.1409C22.8057 31.9894 22.8814 31.8379 22.9595 31.6818C23.5656 31.9848 24.1717 32.2879 24.7962 32.6001C24.7962 32.6759 24.7962 32.7517 24.7962 32.8297C22.8989 32.9606 21.3069 32.4821 19.5156 31.9114C19.5156 31.8356 19.5156 31.7598 19.5156 31.6818Z" fill="black"/>
<path d="M47.7544 33.9789C47.6029 34.1304 47.4514 34.2819 47.2952 34.4381C47.2952 34.5138 47.2952 34.5896 47.2952 34.6677C45.4503 35.1904 45.4503 35.1904 44.5401 34.8972C44.7674 34.8972 44.9947 34.8972 45.2289 34.8972C45.2289 34.7457 45.2289 34.5942 45.2289 34.4381C44.9259 34.3623 44.6228 34.2865 44.3105 34.2085C44.7118 34.1248 45.1138 34.044 45.5159 33.9645C45.8515 33.8966 45.8515 33.8966 46.1939 33.8273C46.8058 33.753 47.1779 33.7826 47.7544 33.9789Z" fill="black"/>
<path d="M48.2141 31.2231C49.2118 31.2897 49.9432 31.5325 50.7396 32.1415C50.7396 32.3688 50.7396 32.5961 50.7396 32.8303C50.5123 32.8303 50.285 32.8303 50.0508 32.8303C50.0508 32.6788 50.0508 32.5272 50.0508 32.3711C49.9277 32.3427 49.8046 32.3143 49.6777 32.285C49.0259 32.1135 48.3926 31.8997 47.7549 31.6823C47.9064 31.5308 48.0579 31.3793 48.2141 31.2231Z" fill="black"/>
<path d="M11.7237 30.52C12.0575 30.5271 12.0575 30.5271 12.3981 30.5344C11.3552 31.4904 10.097 31.6823 8.72461 31.6823C8.72461 31.455 8.72461 31.2277 8.72461 30.9936C9.39925 30.6562 10.0457 30.764 10.7909 30.764C11.0205 30.5344 11.0205 30.5344 11.7237 30.52Z" fill="black"/>
<path d="M205.944 12.1672C205.944 12.3188 205.944 12.4703 205.944 12.6264C204.898 13.1324 203.871 13.2207 202.729 13.3152C202.729 13.0879 202.729 12.8606 202.729 12.6264C204.96 12.1672 204.96 12.1672 205.944 12.1672Z" fill="black"/>
<path d="M71.8613 12.1672C72.9978 12.1672 74.1343 12.1672 75.3052 12.1672C75.3052 12.3945 75.3052 12.6218 75.3052 12.856C74.6233 12.856 73.9414 12.856 73.2389 12.856C73.2389 12.7045 73.2389 12.553 73.2389 12.3968C72.7843 12.3968 72.3297 12.3968 71.8613 12.3968C71.8613 12.3211 71.8613 12.2453 71.8613 12.1672Z" fill="black"/>
<path d="M43.6223 30.7668C43.6223 30.8426 43.6223 30.9184 43.6223 30.9964C43.2574 30.9884 43.2574 30.9884 42.8851 30.9803C42.5664 30.976 42.2477 30.9718 41.9291 30.9677C41.7687 30.9639 41.6083 30.96 41.443 30.9561C41.0213 30.952 40.5995 30.9728 40.1784 30.9964C40.0269 31.148 39.8754 31.2995 39.7192 31.4556C39.1166 31.4843 39.1166 31.4843 38.5713 31.4556C39.9332 30.0029 41.8302 30.4552 43.6223 30.7668Z" fill="black"/>
<path d="M118.698 12.3982C119.38 12.5118 119.38 12.5118 120.076 12.6278C120.152 13.0824 120.228 13.537 120.306 14.0053C119.624 13.778 118.942 13.5507 118.239 13.3166C118.467 13.2408 118.694 13.165 118.928 13.087C118.852 12.8597 118.777 12.6324 118.698 12.3982Z" fill="black"/>
<path d="M32.6455 35.3415C33.0788 35.3486 33.0788 35.3486 33.5208 35.3558C33.5966 35.5831 33.6724 35.8104 33.7504 36.0446C32.6897 36.0446 31.629 36.0446 30.5361 36.0446C31.1976 35.3831 31.75 35.3268 32.6455 35.3415Z" fill="black"/>
<path d="M14.9232 28.2406C15.3777 28.6194 15.8323 28.9983 16.3007 29.3886C15.512 29.9144 15.1561 29.8887 14.2344 29.8477C14.4617 29.772 14.689 29.6962 14.9232 29.6182C14.8592 29.3411 14.8592 29.3411 14.794 29.0585C14.7609 28.8644 14.7277 28.6702 14.6936 28.4702C14.7693 28.3944 14.8451 28.3187 14.9232 28.2406Z" fill="black"/>
<path d="M41.0972 29.8464C41.7791 29.9222 42.461 29.998 43.1635 30.076C42.7043 30.5352 42.7043 30.5352 42.0568 30.5801C41.8064 30.5747 41.556 30.5694 41.2981 30.5639C41.0465 30.5598 40.7949 30.5556 40.5358 30.5514C40.3422 30.546 40.1486 30.5407 39.9492 30.5352C39.9492 30.4594 39.9492 30.3837 39.9492 30.3056C40.328 30.3056 40.7069 30.3056 41.0972 30.3056C41.0972 30.1541 41.0972 30.0026 41.0972 29.8464Z" fill="black"/>
<path d="M205.254 12.1687C205.254 12.2444 205.254 12.3202 205.254 12.3983C204.497 12.5498 203.739 12.7013 202.959 12.8575C202.959 13.0847 202.959 13.312 202.959 13.5462C202.514 13.4745 202.514 13.4745 202.04 13.3166C201.964 13.0893 201.889 12.862 201.811 12.6279C203.01 12.2911 204.01 12.1168 205.254 12.1687Z" fill="black"/>
<path d="M45.2299 34.4389C45.2299 34.5904 45.2299 34.7419 45.2299 34.898C44.5069 35.1391 43.9928 35.1509 43.2353 35.142C43.0071 35.1399 42.779 35.1378 42.5439 35.1357C42.2824 35.1317 42.2824 35.1317 42.0156 35.1276C42.0156 35.0519 42.0156 34.9761 42.0156 34.898C43.1274 34.5914 44.0669 34.3807 45.2299 34.4389Z" fill="black"/>
<path d="M10.3311 34.2096C11.8521 34.1809 11.8521 34.1809 12.627 34.4392C12.627 34.5907 12.627 34.7422 12.627 34.8984C11.9451 34.8984 11.2632 34.8984 10.5606 34.8984C10.4849 34.6711 10.4091 34.4438 10.3311 34.2096Z" fill="black"/>
<path d="M12.2119 30.2911C12.5862 30.2942 12.5862 30.2942 12.968 30.2974C13.1588 30.3 13.3497 30.3027 13.5464 30.3054C12.9294 30.987 12.9294 30.987 12.2837 31.0516C11.7097 30.9942 11.7097 30.9942 11.0209 30.7646C10.7936 30.8783 10.7936 30.8783 10.5617 30.9942C10.4102 30.8427 10.2587 30.6911 10.1025 30.535C10.8568 30.2836 11.4196 30.2826 12.2119 30.2911Z" fill="black"/>
<path d="M8.03663 31.9119C8.18816 31.9876 8.33969 32.0634 8.49581 32.1415C8.26852 32.4824 8.26852 32.4824 8.03663 32.8302C8.18816 32.8302 8.33969 32.8302 8.49581 32.8302C8.57158 33.0575 8.64735 33.2848 8.72541 33.519C7.40525 33.1172 7.40525 33.1172 6.88867 32.6006C7.43395 32.2419 7.43395 32.2419 8.03663 31.9119Z" fill="black"/>
<path d="M14.6948 30.7635C14.6948 30.8393 14.6948 30.915 14.6948 30.9931C14.4177 31.0357 14.4177 31.0357 14.1351 31.0792C13.941 31.1265 13.7468 31.1739 13.5468 31.2227C13.471 31.3742 13.3953 31.5257 13.3172 31.6819C12.6448 31.5378 12.0864 31.3177 11.4805 30.9931C12.574 30.7744 13.5851 30.7444 14.6948 30.7635Z" fill="black"/>
<path d="M25.9434 17.4501C26.2844 17.6774 26.2844 17.6774 26.6322 17.9093C26.4049 18.8184 26.1776 19.7276 25.9434 20.6644C25.8677 20.6644 25.7919 20.6644 25.7138 20.6644C25.7076 20.2148 25.7032 19.7651 25.6995 19.3155C25.6968 19.0651 25.6942 18.8147 25.6914 18.5568C25.7138 17.9093 25.7138 17.9093 25.9434 17.4501Z" fill="black"/>
<path d="M71.8717 12.3304C72.3276 12.3529 72.7835 12.3753 73.2394 12.3977C73.2394 12.5492 73.2394 12.7008 73.2394 12.8569C72.406 12.9327 71.5725 13.0084 70.7139 13.0865C71.4026 12.3977 71.4026 12.3977 71.8717 12.3304Z" fill="black"/>
<path d="M143.036 21.5829C143.718 21.6965 143.718 21.6965 144.414 21.8125C144.414 22.0398 144.414 22.2671 144.414 22.5013C144.035 22.5013 143.656 22.5013 143.266 22.5013C143.19 22.1982 143.114 21.8951 143.036 21.5829Z" fill="black"/>
<path d="M33.7504 12.8562C33.7504 12.9319 33.7504 13.0077 33.7504 13.0858C32.6897 13.2373 31.629 13.3888 30.5361 13.5449C30.6119 13.3176 30.6877 13.0904 30.7657 12.8562C31.8286 12.6229 32.6816 12.6638 33.7504 12.8562Z" fill="black"/>
<path d="M172.883 31.4542C173.035 31.7573 173.186 32.0603 173.342 32.3726C172.282 32.3726 171.221 32.3726 170.128 32.3726C170.128 32.2968 170.128 32.2211 170.128 32.143C170.308 32.1318 170.487 32.1205 170.672 32.1089C170.905 32.0918 171.137 32.0746 171.376 32.0569C171.608 32.0409 171.84 32.0249 172.079 32.0085C172.363 31.9614 172.363 31.9614 172.653 31.9134C172.729 31.7619 172.805 31.6103 172.883 31.4542Z" fill="black"/>
<path d="M12.3976 30.5362C11.775 31.1339 11.5042 31.2237 10.6182 31.268C10.372 31.2538 10.1258 31.2396 9.87207 31.2249C10.1017 30.7658 10.1017 30.7658 10.4891 30.6223C11.1313 30.5181 11.7482 30.5214 12.3976 30.5362Z" fill="black"/>
<path d="M22.2698 13.3182C22.4971 13.394 22.7244 13.4698 22.9586 13.5478C22.8828 13.8509 22.8071 14.154 22.729 14.4662C22.3502 14.3904 21.9714 14.3147 21.5811 14.2366C21.8084 13.9335 22.0356 13.6305 22.2698 13.3182Z" fill="black"/>
<path d="M155.892 29.6163C156.043 29.6163 156.195 29.6163 156.351 29.6163C156.351 29.9952 156.351 30.374 156.351 30.7643C156.124 30.7643 155.896 30.7643 155.662 30.7643C155.586 30.9158 155.511 31.0674 155.433 31.2235C155.634 29.8746 155.634 29.8746 155.892 29.6163Z" fill="black"/>
<path d="M144.873 31.4552C144.797 31.6067 144.721 31.7583 144.643 31.9144C144.946 31.9901 145.249 32.0659 145.561 32.144C145.031 32.144 144.501 32.144 143.954 32.144C143.954 31.9924 143.954 31.8409 143.954 31.6848C143.803 31.609 143.651 31.5333 143.495 31.4552C144.356 31.1969 144.356 31.1969 144.873 31.4552Z" fill="black"/>
<path d="M47.2963 30.7664C47.6751 30.8421 48.054 30.9179 48.4443 30.9959C48.186 31.3547 48.186 31.3547 47.7555 31.6847C47.0237 31.613 47.0237 31.613 46.3779 31.4551C46.681 31.3794 46.9841 31.3036 47.2963 31.2255C47.2963 31.074 47.2963 30.9225 47.2963 30.7664Z" fill="black"/>
<path d="M24.3373 14.694C24.4888 14.694 24.6404 14.694 24.7965 14.694C24.7965 14.9213 24.7965 15.1486 24.7965 15.3827C24.0312 16.0715 24.0312 16.0715 23.4189 16.0715C23.6834 15.5049 23.8891 15.1422 24.3373 14.694Z" fill="black"/>
</svg>
