<svg width="53" height="65" viewBox="0 0 53 65" fill="none" xmlns="http://www.w3.org/2000/svg">
<g clip-path="url(#clip0_154_25)">
<path d="M6.8081 15.2787V4.62034V3.88528L6.54624 3.25523L6.23201 2.62518L5.65592 2.10014L5.13221 1.83762L4.60849 1.62761L4.13715 1.5226H3.66581H3.14209V0.997559H3.24683H6.23201H12.0976H14.1401V1.26008V1.68011H13.564H12.4119L11.6263 2.10014L11.0502 2.8352L10.6836 4.2003L10.5788 5.61791V6.09045V7.29804V13.861V21.8942V30.2948V31.5549V32.5H10.8931H12.6737H15.9731H18.8536H21.315L22.2577 32.395L23.4099 32.0799L24.5097 31.7124L25.4524 31.2924L26.2903 30.7673L27.0235 30.2423L27.5472 29.6648L28.1233 28.9822L28.4899 28.5097L28.8041 28.0896V28.1946V29.6648V33.1825V33.9701H28.4899H20.896H11.4168H5.02747H3.66581H3.24683V33.6026V33.3925H4.18952L4.81798 33.235L5.76067 32.8675L6.33675 32.0799L6.8081 31.1874V30.0323V23.9943V15.2787Z" fill="black"/>
<path d="M23.4624 31.0299L22.5197 31.2399L22.415 31.0299L22.5197 30.8199L22.9387 30.3998L23.4624 29.5073L23.829 28.7197L24.248 26.9346L24.4575 25.937V24.8344V17.2738V6.6155V4.72536V3.83279L24.3004 2.99273L23.6719 2.15266L23.0958 1.83764L22.2055 1.57512H21.4199V0.945068H22.2055H25.6096H29.8517H32.1037H34.3033H35.246L36.1363 1.05008L37.1314 1.26009L38.3359 1.57512L39.5405 1.94265L40.7974 2.46769L42.2114 3.20274L43.6255 4.09531L44.83 5.09289L45.9822 6.40549L47.1343 7.77059L48.6531 10.8158L49.2816 13.126L49.5434 15.0162L49.7006 16.1187L49.8053 16.6963V17.0638V17.5889V18.0614V18.6389L49.7006 19.4265L49.5958 20.1615L49.4387 21.6317L49.1245 22.6817L48.8626 23.6268L48.2865 24.8344L47.6581 26.147L47.082 27.1446L46.2964 28.1422L45.4061 29.1397L44.0968 30.3998L41.9496 31.8174L39.6976 32.9725L37.9693 33.5501L36.3458 33.9176L35.246 34.0226H32.7322H30.5326V33.3401V32.815H30.8468H31.4229H33.3083H34.3557L35.665 32.5525L37.1838 32.185L38.493 31.6599L39.6976 30.9774L41.0592 29.8223L42.4209 28.2997L43.3636 26.7771L44.2539 24.9394L44.9871 22.4717L45.3537 20.4766L45.5108 19.269L45.6156 18.3764V17.6939V16.9063V16.4863L45.5108 15.8037L45.3537 15.0687L45.1442 13.9661L44.83 12.6535L44.411 11.1309L44.0968 10.2908L43.6255 9.1357L43.0494 7.92811L42.2114 6.6155L41.3735 5.56542L40.1166 4.46284L38.6502 3.51777L37.6027 3.04523L36.3458 2.6252L35.4555 2.36268L34.5128 2.15266L34.0415 2.04765L33.3606 1.94265H32.7845H29.9565H29.0138L28.8043 2.04765L28.6472 2.31017L28.5948 2.6252V4.46284V7.77059V11.8659V18.8489V24.2569V25.517L28.4901 25.832L28.1758 26.6195L27.6521 27.6696L27.0237 28.6147L25.7668 29.8223L24.7193 30.5573L23.4624 31.0299Z" fill="black"/>
<path d="M22.6247 52.0839L21.3678 51.0863L21.4201 50.8763L21.6296 50.6138L22.0486 50.3513L23.096 50.0362L24.0911 49.8262L25.0338 49.6687H27.6523L28.3855 49.7737L29.3282 49.9837L30.4804 50.1937L31.2136 50.5088L31.5802 50.8238V51.0338L30.9517 51.6639L30.2185 52.1364L29.3282 52.5564L28.2808 53.029L26.8668 53.449L26.8144 53.659L27.1286 54.0265L27.5476 54.5516L28.0189 55.0241L28.3332 54.9191L28.6998 54.8141L29.5901 54.2891L30.6375 53.449L31.3707 52.6614L31.7897 51.9264L31.9468 51.4013L32.0516 51.4538L32.4182 52.1889L32.8371 52.8714V53.449L31.9992 54.2891L30.6899 55.1291L29.6425 55.6017V55.7592L29.9043 56.8618L30.3757 58.8569L31.1612 62.0597L31.685 64.0548L31.9468 64.9999L28.4903 64.9474L28.3332 64.0548L28.1237 62.9522L27.9142 61.9021L27.7047 60.7996L27.4429 59.3294L27.1286 57.8593L26.8144 56.1267L26.6049 54.9716H26.3954L26.2907 55.2866L26.0812 56.4417L25.9241 57.3343L25.7146 58.4894L25.5051 59.7495L25.348 60.6945L25.0861 62.1647L24.8243 63.5298L24.5624 64.9474H22.5723H21.0535L21.3678 63.4773L21.6296 62.3747L22.1533 60.1695L22.4676 58.8569L22.7818 57.5443L23.0436 56.3892L23.3055 55.6017L23.0436 55.5492L22.2581 55.1816L21.2106 54.6041L20.5298 53.974L20.1108 53.449V53.029L20.3727 52.5039L20.7393 51.8739L21.0535 51.4013L21.1059 51.5063L21.2106 52.0314L21.5772 52.6614L21.9962 53.134L22.5199 53.6065L23.2008 54.079L24.0387 54.6041L24.8767 55.0241L25.1385 54.7616L25.767 54.0265L26.0812 53.6065L24.8243 53.134L23.7768 52.7139L22.6247 52.0839Z" fill="black"/>
<path d="M45.5108 2.20517V0.315024H44.8823V0H46.4535V0.315024H45.825V2.20517H45.5108Z" fill="black"/>
<path d="M46.8203 0V2.20517H47.1345V0.577544L47.8154 1.94265H48.0249L48.7057 0.52504V2.20517H49.0199V0H48.6009L47.9725 1.3126H47.8154L47.2393 0H46.8203Z" fill="black"/>
<path d="M5.57131 42.2657H4.84258C4.79948 42.0556 4.72405 41.871 4.61631 41.7119C4.51053 41.5528 4.38124 41.4192 4.22844 41.3113C4.0776 41.2012 3.9101 41.1188 3.72595 41.0638C3.54182 41.0088 3.34983 40.9812 3.15002 40.9812C2.78565 40.9812 2.45557 41.0735 2.15976 41.2583C1.86592 41.4429 1.63181 41.7148 1.45747 42.0742C1.28507 42.4336 1.19888 42.8745 1.19888 43.397C1.19888 43.9194 1.28507 44.3602 1.45747 44.7196C1.63181 45.0791 1.86592 45.3511 2.15976 45.5357C2.45557 45.7203 2.78565 45.8126 3.15002 45.8126C3.34983 45.8126 3.54182 45.785 3.72595 45.73C3.9101 45.6751 4.0776 45.5936 4.22844 45.4856C4.38124 45.3756 4.51053 45.2411 4.61631 45.082C4.72405 44.9209 4.79948 44.7363 4.84258 44.5281H5.57131C5.51646 44.8365 5.41655 45.1124 5.27158 45.356C5.12662 45.5995 4.9464 45.8067 4.73091 45.9775C4.51542 46.1464 4.27349 46.275 4.00511 46.3634C3.73869 46.4518 3.45366 46.4961 3.15002 46.4961C2.63677 46.4961 2.18033 46.3704 1.7807 46.119C1.38107 45.8676 1.06665 45.5101 0.837452 45.0466C0.608252 44.5831 0.493652 44.0332 0.493652 43.397C0.493652 42.7606 0.608252 42.2107 0.837452 41.7472C1.06665 41.2838 1.38107 40.9263 1.7807 40.6749C2.18033 40.4235 2.63677 40.2979 3.15002 40.2979C3.45366 40.2979 3.73869 40.3421 4.00511 40.4304C4.27349 40.5188 4.51542 40.6484 4.73091 40.8192C4.9464 40.9882 5.12662 41.1944 5.27158 41.4379C5.41655 41.6794 5.51646 41.9554 5.57131 42.2657ZM12.985 43.397C12.985 44.0332 12.8704 44.5831 12.6412 45.0466C12.412 45.5101 12.0976 45.8676 11.698 46.119C11.2983 46.3704 10.8419 46.4961 10.3286 46.4961C9.8154 46.4961 9.35895 46.3704 8.95933 46.119C8.5597 45.8676 8.24528 45.5101 8.01608 45.0466C7.78688 44.5831 7.67229 44.0332 7.67229 43.397C7.67229 42.7606 7.78688 42.2107 8.01608 41.7472C8.24528 41.2838 8.5597 40.9263 8.95933 40.6749C9.35895 40.4235 9.8154 40.2979 10.3286 40.2979C10.8419 40.2979 11.2983 40.4235 11.698 40.6749C12.0976 40.9263 12.412 41.2838 12.6412 41.7472C12.8704 42.2107 12.985 42.7606 12.985 43.397ZM12.2798 43.397C12.2798 42.8745 12.1926 42.4336 12.0182 42.0742C11.8459 41.7148 11.6118 41.4429 11.316 41.2583C11.0221 41.0735 10.693 40.9812 10.3286 40.9812C9.96428 40.9812 9.6342 41.0735 9.33839 41.2583C9.04455 41.4429 8.81044 41.7148 8.6361 42.0742C8.4637 42.4336 8.37751 42.8745 8.37751 43.397C8.37751 43.9194 8.4637 44.3602 8.6361 44.7196C8.81044 45.0791 9.04455 45.3511 9.33839 45.5357C9.6342 45.7203 9.96428 45.8126 10.3286 45.8126C10.693 45.8126 11.0221 45.7203 11.316 45.5357C11.6118 45.3511 11.8459 45.0791 12.0182 44.7196C12.1926 44.3602 12.2798 43.9194 12.2798 43.397ZM19.3181 40.3803H20.0469V44.375C20.0469 44.7874 19.9499 45.1556 19.7559 45.4797C19.5639 45.8017 19.2926 46.0561 18.9419 46.2427C18.5914 46.4273 18.1799 46.5196 17.7079 46.5196C17.2357 46.5196 16.8243 46.4273 16.4737 46.2427C16.123 46.0561 15.8508 45.8017 15.6568 45.4797C15.4648 45.1556 15.3688 44.7874 15.3688 44.375V40.3803H16.0975V44.3161C16.0975 44.6106 16.1622 44.8728 16.2915 45.1026C16.4208 45.3304 16.6049 45.5101 16.8439 45.6417C17.0848 45.7713 17.3729 45.8361 17.7079 45.8361C18.0428 45.8361 18.3308 45.7713 18.5718 45.6417C18.8127 45.5101 18.9968 45.3304 19.1242 45.1026C19.2534 44.8728 19.3181 44.6106 19.3181 44.3161V40.3803ZM27.4326 40.3803V46.4135H26.7274L23.4481 41.6765H23.3893V46.4135H22.6605V40.3803H23.3658L26.6569 45.1291H26.7157V40.3803H27.4326ZM33.3403 41.8886C33.3051 41.5901 33.1621 41.3583 32.9113 41.1934C32.6606 41.0284 32.353 40.946 31.9886 40.946C31.7223 40.946 31.4891 40.9891 31.2894 41.0755C31.0915 41.162 30.9367 41.2808 30.825 41.432C30.7154 41.5833 30.6605 41.755 30.6605 41.9475C30.6605 42.1086 30.6987 42.247 30.7751 42.3629C30.8534 42.4769 30.9534 42.5721 31.0749 42.6487C31.1963 42.7233 31.3236 42.7852 31.4569 42.8342C31.59 42.8814 31.7124 42.9197 31.8241 42.9492L32.4354 43.1142C32.5921 43.1553 32.7663 43.2123 32.9583 43.285C33.1523 43.3577 33.3374 43.4568 33.5137 43.5825C33.692 43.7062 33.8389 43.8653 33.9546 44.0598C34.0701 44.2541 34.1279 44.4928 34.1279 44.7756C34.1279 45.1017 34.0426 45.3962 33.8722 45.6594C33.7038 45.9225 33.4569 46.1317 33.1317 46.2869C32.8086 46.442 32.4158 46.5196 31.9534 46.5196C31.5224 46.5196 31.1492 46.4499 30.8338 46.3104C30.5204 46.171 30.2736 45.9766 30.0934 45.7271C29.9151 45.4777 29.8143 45.1881 29.7907 44.8581H30.543C30.5626 45.0859 30.6389 45.2744 30.7721 45.4237C30.9074 45.571 31.0778 45.681 31.2835 45.7537C31.4911 45.8243 31.7144 45.8597 31.9534 45.8597C32.2316 45.8597 32.4813 45.8146 32.7028 45.7241C32.9241 45.6318 33.0994 45.5043 33.2287 45.3412C33.358 45.1762 33.4227 44.9837 33.4227 44.7638C33.4227 44.5635 33.3668 44.4005 33.2552 44.2748C33.1435 44.1491 32.9966 44.047 32.8144 43.9684C32.6322 43.8899 32.4354 43.8211 32.2238 43.7622L31.4832 43.5502C31.0132 43.4146 30.6409 43.2212 30.3667 42.9698C30.0924 42.7184 29.9553 42.3894 29.9553 41.9829C29.9553 41.6451 30.0464 41.3506 30.2285 41.0992C30.4127 40.8458 30.6595 40.6494 30.9691 40.51C31.2805 40.3685 31.6282 40.2979 32.0122 40.2979C32.4001 40.2979 32.7449 40.3676 33.0465 40.507C33.3482 40.6445 33.5872 40.833 33.7635 41.0726C33.9418 41.3122 34.0358 41.5842 34.0456 41.8886H33.3403ZM36.4845 46.4135V40.3803H40.1164V41.0284H37.2132V43.067H39.9284V43.7151H37.2132V45.7654H40.1634V46.4135H36.4845ZM42.5884 46.4135V40.3803H43.3171V45.7654H46.1145V46.4135H42.5884ZM51.6925 41.8886C51.6572 41.5901 51.5142 41.3583 51.2635 41.1934C51.0127 41.0284 50.7051 40.946 50.3408 40.946C50.0743 40.946 49.8413 40.9891 49.6414 41.0755C49.4435 41.162 49.2887 41.2808 49.1771 41.432C49.0674 41.5833 49.0125 41.755 49.0125 41.9475C49.0125 42.1086 49.0508 42.247 49.1271 42.3629C49.2056 42.4769 49.3054 42.5721 49.4269 42.6487C49.5484 42.7233 49.6757 42.7852 49.8089 42.8342C49.9421 42.8814 50.0646 42.9197 50.1762 42.9492L50.7874 43.1142C50.9441 43.1553 51.1185 43.2123 51.3105 43.285C51.5044 43.3577 51.6895 43.4568 51.8658 43.5825C52.0441 43.7062 52.191 43.8653 52.3066 44.0598C52.4221 44.2541 52.4799 44.4928 52.4799 44.7756C52.4799 45.1017 52.3948 45.3962 52.2243 45.6594C52.0558 45.9225 51.809 46.1317 51.4838 46.2869C51.1606 46.442 50.7678 46.5196 50.3055 46.5196C49.8746 46.5196 49.5014 46.4499 49.186 46.3104C48.8725 46.171 48.6257 45.9766 48.4454 45.7271C48.2672 45.4777 48.1663 45.1881 48.1427 44.8581H48.895C48.9146 45.0859 48.9911 45.2744 49.1242 45.4237C49.2594 45.571 49.4298 45.681 49.6355 45.7537C49.8431 45.8243 50.0664 45.8597 50.3055 45.8597C50.5837 45.8597 50.8334 45.8146 51.0548 45.7241C51.2761 45.6318 51.4515 45.5043 51.5808 45.3412C51.7101 45.1762 51.7747 44.9837 51.7747 44.7638C51.7747 44.5635 51.7189 44.4005 51.6072 44.2748C51.4956 44.1491 51.3486 44.047 51.1665 43.9684C50.9843 43.8899 50.7874 43.8211 50.5758 43.7622L49.8353 43.5502C49.3652 43.4146 48.9929 43.2212 48.7187 42.9698C48.4445 42.7184 48.3073 42.3894 48.3073 41.9829C48.3073 41.6451 48.3984 41.3506 48.5806 41.0992C48.7647 40.8458 49.0116 40.6494 49.3211 40.51C49.6326 40.3685 49.9802 40.2979 50.3642 40.2979C50.7521 40.2979 51.0969 40.3676 51.3986 40.507C51.7002 40.6445 51.9393 40.833 52.1155 41.0726C52.2938 41.3122 52.3879 41.5842 52.3977 41.8886H51.6925Z" fill="black"/>
</g>
<defs>
<clipPath id="clip0_154_25">
<rect width="53" height="65" fill="white"/>
</clipPath>
</defs>
</svg>
