<svg width="58" height="65" viewBox="0 0 58 65" fill="none" xmlns="http://www.w3.org/2000/svg">
<path d="M26.6227 5.66538L28.4949 1.27546C28.5479 1.15112 28.6241 1.03808 28.7192 0.942416C29.0253 0.634879 29.4869 0.545563 29.8847 0.716897L33.1511 2.12365C33.5052 2.27618 33.9162 2.12487 34.0885 1.7786C34.2754 1.40314 34.7377 1.26249 35.1005 1.47076L38.6169 3.49005C38.8466 3.62193 38.9883 3.86733 38.9883 4.13312C38.9883 4.27932 38.9452 4.42225 38.8645 4.54392L37.6866 6.31941L35.2122 9.42784M26.6227 5.66538L22.4503 9.2593C22.3187 9.37272 22.3985 9.58952 22.5719 9.58952C22.6577 9.58952 22.7324 9.64814 22.7532 9.7317L23.1158 11.1893C23.275 11.8296 23.7231 12.3583 24.3268 12.6183L25.8139 13.2587M26.6227 5.66538C27.0395 6.08414 27.6047 6.31941 28.194 6.31941H29.4201C30.5604 6.31941 31.6689 6.69732 32.5737 7.3946L32.8758 7.62745M35.2122 9.42784L32.8758 7.62745M35.2122 9.42784C35.1288 9.5325 35.0833 9.66253 35.0833 9.79655V10.3985C35.0833 11.1244 34.7433 11.8079 34.1654 12.2435L33.3622 12.8488C32.7835 13.285 32.1047 13.5675 31.3885 13.6704L30.1975 13.8413C28.7107 14.0548 27.1942 13.8532 25.8139 13.2587M25.8139 13.2587L25.9719 12.8596L26.5099 11.7784C26.9989 10.7957 27.8563 10.0483 28.8938 9.70081C29.1149 9.62675 29.3293 9.53399 29.5349 9.42351L32.8758 7.62745" stroke="black" stroke-width="2" stroke-linecap="round"/>
<path d="M29.9226 6.30205L33.8276 2.37793" stroke="black" stroke-width="2" stroke-linecap="round"/>
<path d="M24.0559 16.7629H26.0084M26.0084 16.7629H28.6117M26.0084 16.7629V24.6113M33.8182 16.7629H31.8657M31.8657 16.7629V24.6113M31.8657 16.7629H28.6117M28.6117 16.7629V23.9572" stroke="black" stroke-width="2" stroke-linecap="round"/>
<path d="M25.3467 45.5413L25.831 43.5945C25.9385 43.1626 25.8886 42.7063 25.6905 42.3082C25.4705 41.8657 25.0844 41.5293 24.6173 41.3729L24.3706 41.2902C23.7455 41.0808 23.0632 41.1295 22.4738 41.4257L22.0927 41.6172M22.0927 41.6172L21.4418 42.9253L20.1402 44.8873L19.4894 46.1953M22.0927 41.6172L21.6129 40.6531C21.4996 40.4253 21.3504 40.2173 21.1712 40.0371C20.5393 39.4023 19.6047 39.1805 18.7568 39.4645L18.7273 39.4744C18.3724 39.5932 18.0499 39.7935 17.7855 40.0593L16.886 40.9631M19.4894 46.1953L20.791 47.5033M19.4894 46.1953L18.1877 45.5413L17.5031 45.1973C17.1026 44.996 16.7779 44.6698 16.5775 44.2672L16.3541 43.8181C16.2775 43.664 16.2581 43.4873 16.2996 43.3202M16.886 40.9631L16.6045 40.3973C16.3681 39.9221 15.9534 39.5607 15.4518 39.3927C14.7354 39.1526 13.9455 39.3401 13.4115 39.8767L13.1703 40.1191C13.045 40.245 12.9408 40.3903 12.8615 40.5496C12.5443 41.1871 12.6686 41.9571 13.1703 42.4613L13.3927 42.6848C13.5512 42.844 13.7342 42.9766 13.9346 43.0773L14.0549 43.1378C14.625 43.4241 15.2726 43.5149 15.8989 43.3961L16.2996 43.3202M16.886 40.9631L16.2996 43.3202M20.791 47.5033H22.7435H23.3943H20.791Z" stroke="black" stroke-width="2" stroke-linecap="round"/>
<path d="M25.3548 45.5547L24.7041 46.2086" stroke="black" stroke-width="2" stroke-linecap="round"/>
<path d="M9.70125 9.56714H12.9553M12.9553 9.56714L7.74878 26.5718M12.9553 9.56714H14.257M22.7176 9.56714H14.257M14.257 9.56714L20.1143 27.2257" stroke="black" stroke-width="2" stroke-linecap="round"/>
<path d="M48.0927 9.56714H44.8387M44.8387 9.56714L50.0452 26.5718M44.8387 9.56714H43.537M35.0764 9.56714H43.537M43.537 9.56714L37.6796 27.2257" stroke="black" stroke-width="2" stroke-linecap="round"/>
<path d="M32.4801 26.6189H26.6227M26.6227 26.6189H22.0669M26.6227 26.6189L22.9863 30.8823C22.8129 31.0854 22.7177 31.344 22.7177 31.6116V32.9773C22.7177 33.0977 22.7371 33.2174 22.775 33.3315L23.1144 34.3547C23.2662 34.8124 23.6924 35.1211 24.1726 35.1211H24.859C25.1548 35.1211 25.4386 35.0031 25.6477 34.7928L27.1954 33.2375C27.2473 33.1853 27.3043 33.1385 27.3654 33.0975L28.9449 32.0393C29.1281 31.9165 29.3435 31.851 29.5637 31.851H32.1763C32.3751 31.851 32.5705 31.9045 32.7418 32.0058L43.544 38.3913M43.544 38.3913L44.5146 36.9283C44.7213 36.6164 45.0696 36.4291 45.4426 36.4291H50.703M43.544 38.3913L45.083 40.4532C45.3363 40.7928 45.3772 41.2471 45.1883 41.6267L45.0119 41.9813C44.904 42.1982 44.729 42.374 44.513 42.4825L43.7795 42.8511C43.6246 42.9289 43.4538 42.9695 43.2807 42.9695H41.9543C41.7186 42.9695 41.4888 42.8944 41.2982 42.755L40.6966 42.3154M40.6966 42.3154L34.4325 37.7373M40.6966 42.3154V43.6513C40.6966 44.0404 40.4957 44.4017 40.166 44.6057L39.6391 44.9315L38.9165 45.2946C38.5584 45.4745 38.1319 45.4477 37.7988 45.2246L36.3849 44.2775M36.3849 44.2775L32.4801 41.6613M36.3849 44.2775V45.7754C36.3849 46.0725 36.2676 46.3576 36.0584 46.5677L35.4101 47.2193C35.2008 47.4295 34.9171 47.5476 34.6212 47.5476H34.4325H34.045C33.8718 47.5476 33.7011 47.507 33.5462 47.4293L31.8293 46.5666M31.8293 46.5666L29.8768 45.5854M31.8293 46.5666V47.5476V48.163C31.8293 48.5875 31.5906 48.9755 31.2128 49.1653L30.5276 49.5097L29.7248 49.913C29.4109 50.0707 29.0411 50.0707 28.7271 49.913L27.9243 49.5097M27.9243 49.5097V48.8556V47.4414C27.9243 46.9273 27.5761 46.4791 27.0796 46.3542L26.6227 46.2395L25.4786 45.8562C25.0013 45.6964 24.4767 45.8772 24.1977 46.2978L23.6711 47.0915C23.4802 47.3792 23.4323 47.7394 23.541 48.0675L23.8734 49.0692C23.9668 49.3512 24.168 49.5843 24.4326 49.7173L25.0855 50.0454C25.2404 50.1231 25.4112 50.1636 25.5844 50.1636H26.3173C26.5173 50.1636 26.7134 50.1097 26.8855 50.0074L27.2028 49.8186C27.2499 49.7906 27.2989 49.7662 27.3495 49.7454L27.9243 49.5097Z" stroke="black" stroke-width="2" stroke-linecap="round"/>
<path d="M13.6188 39.6803L13.8791 39.157C14.125 38.663 14.125 38.0815 13.8791 37.5874C13.7101 37.2479 13.4361 36.9723 13.098 36.8025L12.8568 36.6814C12.5019 36.503 12.1106 36.4102 11.7137 36.4102H9.71388H7.1106" stroke="black" stroke-width="2" stroke-linecap="round"/>
<path d="M20.1269 29.1938H7.99653C7.84596 29.1938 7.70156 29.2539 7.5951 29.361C7.34143 29.6159 7.37626 30.0387 7.66819 30.2481L10.6934 32.4196C11.3261 32.8739 12.0843 33.1181 12.862 33.1181H15.4995C15.9657 33.1181 16.4166 32.9504 16.7705 32.6456L20.2837 29.6196C20.4533 29.4733 20.3504 29.1938 20.1269 29.1938Z" stroke="black" stroke-width="2" stroke-linecap="round"/>
<path d="M50.0941 29.1938H37.9638C37.8132 29.1938 37.6688 29.2539 37.5624 29.361C37.3088 29.6159 37.3435 30.0387 37.6354 30.2481L40.6606 32.4196C41.2933 32.8739 42.0517 33.1181 42.8292 33.1181H45.4668C45.9331 33.1181 46.3838 32.9504 46.7378 32.6456L50.2509 29.6196C50.4207 29.4733 50.3178 29.1938 50.0941 29.1938Z" stroke="black" stroke-width="2" stroke-linecap="round"/>
<path d="M35.4138 26.2683H34.7629V26.9224H35.4138V26.2683Z" stroke="black" stroke-width="2" stroke-linecap="round"/>
<path d="M4.92352 61.8675C4.67661 61.8675 4.40431 61.8328 4.10658 61.7636C3.80886 61.6942 3.55469 61.5994 3.34411 61.4789L3.30054 60.1656L3.87785 60.1328L4.17193 61.0521C4.28813 61.1287 4.42427 61.1889 4.5804 61.2326C4.73652 61.2728 4.88903 61.2929 5.03789 61.2929C5.29567 61.2929 5.49174 61.2382 5.62607 61.1287C5.76042 61.0193 5.82758 60.8715 5.82758 60.6855C5.82758 60.4885 5.76767 60.328 5.64786 60.204C5.52804 60.0799 5.37192 59.9759 5.17949 59.892C4.99068 59.8045 4.78917 59.7187 4.57496 59.6348C4.36074 59.5509 4.15742 59.4506 3.96499 59.3339C3.77618 59.2134 3.62005 59.0585 3.49661 58.8687C3.37679 58.679 3.31688 58.4347 3.31688 58.1355C3.31688 57.6613 3.51476 57.2763 3.91051 56.9809C4.30628 56.6854 4.82912 56.5376 5.47902 56.5376C5.67872 56.5376 5.90021 56.5613 6.14347 56.6088C6.38672 56.6525 6.59006 56.7109 6.75345 56.7839L6.86236 58.0752L6.29596 58.1136L6.01276 57.2381C5.82032 57.1505 5.61337 57.1067 5.39188 57.1067C5.16315 57.1067 4.97071 57.1669 4.81459 57.2873C4.6621 57.4041 4.58585 57.5701 4.58585 57.7853C4.58585 57.9786 4.64576 58.1373 4.76557 58.2614C4.88903 58.3817 5.04696 58.4875 5.2394 58.5787C5.43545 58.6663 5.64241 58.7538 5.86026 58.8414C6.07811 58.9289 6.28326 59.0329 6.47569 59.1533C6.67175 59.2737 6.83151 59.4251 6.95496 59.6075C7.0784 59.7899 7.14012 60.0216 7.14012 60.3025C7.14012 60.6052 7.04753 60.8751 6.86236 61.1123C6.6772 61.3458 6.41759 61.53 6.08356 61.6649C5.75316 61.8 5.36647 61.8675 4.92352 61.8675ZM9.42775 61.8566C9.04289 61.8566 8.70159 61.7727 8.40387 61.6048C8.10977 61.4334 7.8792 61.2017 7.71219 60.9099C7.54518 60.6143 7.46166 60.2824 7.46166 59.9139C7.46166 59.509 7.55606 59.1533 7.74487 58.8468C7.93368 58.5368 8.17875 58.2942 8.4801 58.1191C8.78509 57.944 9.11006 57.8564 9.45498 57.8564C9.96693 57.8564 10.3663 58.0151 10.6532 58.3324C10.94 58.6499 11.0834 59.0658 11.0834 59.5802V59.799H8.50733V59.3284H10.2011L10.0541 59.5527V59.2409C10.0541 58.9673 9.99416 58.752 9.87434 58.5951C9.75815 58.4383 9.59476 58.3599 9.38418 58.3599C9.17359 58.3599 8.99568 58.4511 8.85045 58.6335C8.70522 58.8122 8.6326 59.0895 8.6326 59.4652V59.6457C8.6326 60.0507 8.74152 60.3773 8.95937 60.6254C9.18086 60.8733 9.47494 60.9974 9.84167 60.9974C10.0414 60.9974 10.2211 60.9609 10.3808 60.888C10.5442 60.815 10.7022 60.6909 10.8547 60.5158L11.127 60.7785C10.9636 61.1323 10.733 61.4005 10.4353 61.5829C10.1376 61.7654 9.80172 61.8566 9.42775 61.8566ZM14.4112 61.0411C14.3205 61.3002 14.1589 61.5045 13.9265 61.654C13.6942 61.8036 13.4346 61.8784 13.1477 61.8784C12.7338 61.8784 12.3961 61.7598 12.1347 61.5228C11.877 61.2856 11.7481 60.9281 11.7481 60.4503L11.7753 58.4966H11.1653V58.223L12.7011 57.0082H12.968L12.9462 58.2669L12.9299 60.3462C12.9299 60.587 12.988 60.7584 13.1042 60.8606C13.224 60.9627 13.3892 61.0138 13.5998 61.0138C13.814 61.0138 14.0082 60.9372 14.1825 60.7839L14.4112 61.0411ZM12.5323 58.4966V57.933H14.177V58.4966H12.5323ZM17.4341 61.0411C17.3433 61.3002 17.1817 61.5045 16.9494 61.654C16.717 61.8036 16.4574 61.8784 16.1706 61.8784C15.7567 61.8784 15.419 61.7598 15.1576 61.5228C14.8998 61.2856 14.771 60.9281 14.771 60.4503L14.7981 58.4966H14.1882V58.223L15.7241 57.0082H15.9909L15.969 58.2669L15.9527 60.3462C15.9527 60.587 16.0108 60.7584 16.127 60.8606C16.2469 60.9627 16.4121 61.0138 16.6226 61.0138C16.8368 61.0138 17.0311 60.9372 17.2054 60.7839L17.4341 61.0411ZM15.5552 58.4966V57.933H17.2V58.4966H15.5552ZM17.309 61.7909L17.2818 61.3695L17.8483 61.2326C17.8556 61.1634 17.8628 61.0466 17.8701 60.8824C17.8773 60.7147 17.8846 60.5286 17.8918 60.3243C17.8991 60.1201 17.9027 59.9249 17.9027 59.7388V58.628C17.9027 58.223 17.8972 57.8309 17.8864 57.4514C17.8791 57.0721 17.8664 56.7821 17.8483 56.5814L17.2056 56.4938L17.1892 56.1053L18.894 55.6621L19.1444 55.8208C19.1299 56.0651 19.119 56.3023 19.1118 56.5322C19.1045 56.7619 19.0991 57.0228 19.0954 57.3147C19.0954 57.6065 19.0954 57.9658 19.0954 58.3927L19.0846 59.6677C19.0846 60.0835 19.0864 60.4319 19.09 60.7129C19.0973 60.9938 19.1063 61.1671 19.1172 61.2326L19.6891 61.3695L19.6728 61.7909H17.309ZM21.8569 61.8566C21.472 61.8566 21.1307 61.7727 20.8329 61.6048C20.5389 61.4334 20.3083 61.2017 20.1413 60.9099C19.9744 60.6143 19.8909 60.2824 19.8909 59.9139C19.8909 59.509 19.9852 59.1533 20.174 58.8468C20.3628 58.5368 20.6079 58.2942 20.9092 58.1191C21.2143 57.944 21.5393 57.8564 21.884 57.8564C22.396 57.8564 22.7955 58.0151 23.0822 58.3324C23.3692 58.6499 23.5125 59.0658 23.5125 59.5802V59.799H20.9365V59.3284H22.6302L22.4831 59.5527V59.2409C22.4831 58.9673 22.4233 58.752 22.3034 58.5951C22.1873 58.4383 22.0239 58.3599 21.8134 58.3599C21.6027 58.3599 21.4248 58.4511 21.2796 58.6335C21.1344 58.8122 21.0617 59.0895 21.0617 59.4652V59.6457C21.0617 60.0507 21.1706 60.3773 21.3885 60.6254C21.6099 60.8733 21.9041 60.9974 22.2708 60.9974C22.4705 60.9974 22.6502 60.9609 22.81 60.888C22.9734 60.815 23.1313 60.6909 23.2838 60.5158L23.5561 60.7785C23.3927 61.1323 23.1621 61.4005 22.8645 61.5829C22.5667 61.7654 22.2308 61.8566 21.8569 61.8566ZM27.946 61.8511C27.7208 61.8291 27.4649 61.8127 27.1781 61.8018C26.8913 61.7945 26.6752 61.7909 26.5299 61.7909H23.894L23.8722 61.3476L24.4331 61.2053C24.4476 61.158 24.4586 60.9993 24.4659 60.7293C24.4768 60.4594 24.4822 60.1638 24.4822 59.8428V58.5896C24.4822 58.2576 24.4768 57.9585 24.4659 57.6922C24.4586 57.4223 24.4476 57.2672 24.4331 57.2272L23.8722 57.0848L23.894 56.6361H26.4701L26.4918 57.1012L25.7675 57.2381C25.7529 57.2672 25.7384 57.4114 25.7239 57.6704C25.713 57.9258 25.7076 58.2321 25.7076 58.5896V59.8428C25.7076 60.1894 25.7094 60.4666 25.713 60.6745C25.7203 60.8824 25.7311 61.0229 25.7456 61.0959C25.9272 61.1251 26.1596 61.1396 26.4428 61.1396H26.7696C26.8857 61.1396 26.9929 61.1342 27.0909 61.1232C27.1926 61.1123 27.2743 61.1014 27.336 61.0904L27.8316 60.1219L28.3763 60.2477L27.946 61.8511ZM30.5658 61.8566C30.1592 61.8566 29.7996 61.7745 29.4875 61.6103C29.1752 61.4425 28.9301 61.2126 28.7522 60.9208C28.5779 60.6254 28.4907 60.2861 28.4907 59.9029C28.4907 59.4688 28.5907 59.1004 28.7904 58.7977C28.99 58.4911 29.2496 58.2576 29.5692 58.0972C29.8924 57.9367 30.2372 57.8564 30.604 57.8564C30.9924 57.8564 31.3355 57.9403 31.6332 58.1082C31.931 58.2723 32.1634 58.5021 32.3303 58.7977C32.4973 59.0931 32.5809 59.4324 32.5809 59.8154C32.5809 60.1985 32.4901 60.5451 32.3086 60.8551C32.1307 61.1616 31.8892 61.4059 31.5843 61.5885C31.2792 61.7672 30.9399 61.8566 30.5658 61.8566ZM30.6529 61.2874C30.8672 61.2874 31.0324 61.1835 31.1486 60.9756C31.2647 60.7675 31.3228 60.4758 31.3228 60.1C31.3228 59.5929 31.243 59.1825 31.0832 58.8687C30.927 58.555 30.7201 58.3981 30.4623 58.3981C30.2518 58.3981 30.083 58.5094 29.9558 58.732C29.8324 58.9508 29.7706 59.2536 29.7706 59.6403C29.7706 60.111 29.8542 60.5031 30.0212 60.8169C30.1918 61.1305 30.4024 61.2874 30.6529 61.2874ZM34.3076 61.8566C34.0353 61.8566 33.8011 61.8 33.6051 61.6869C33.4125 61.5701 33.2638 61.4297 33.1585 61.2656C33.0567 61.0977 33.006 60.9408 33.006 60.7949C33.006 60.3682 33.2746 60.0762 33.812 59.9193L35.1844 59.5199V59.2189C35.1844 59.0329 35.0991 58.8669 34.9285 58.721C34.7614 58.5714 34.5727 58.4966 34.362 58.4966C34.2676 58.4966 34.2005 58.5203 34.1605 58.5678C34.1243 58.6116 34.1024 58.6918 34.0951 58.8086L34.0516 59.3612C33.7575 59.4233 33.5143 59.4142 33.3218 59.3339C33.133 59.2536 33.0386 59.1204 33.0386 58.9344C33.0386 58.8177 33.0967 58.701 33.2129 58.5842C33.3328 58.4638 33.4815 58.3526 33.6594 58.2503C33.8373 58.1446 34.0171 58.057 34.1986 57.9877C34.3839 57.9185 34.5417 57.8746 34.6725 57.8564C35.1989 57.8564 35.6147 57.9749 35.9196 58.2121C36.2283 58.4493 36.3845 58.7702 36.3881 59.1752L36.3608 60.3736C36.3608 60.68 36.3826 60.8824 36.4262 60.981L37.0035 61.085V61.4734L36.4207 61.7197C36.2028 61.8109 36.0176 61.8566 35.8652 61.8566C35.6365 61.8566 35.4749 61.7397 35.3805 61.5064L35.2225 61.1014L35.4077 61.1342C35.0374 61.6158 34.6707 61.8566 34.3076 61.8566ZM34.7705 61.0521C34.9267 61.0521 35.0682 60.9901 35.1953 60.866V60.0179L34.6343 60.1164C34.362 60.1529 34.2259 60.2879 34.2259 60.5213C34.2259 60.6563 34.2803 60.7785 34.3893 60.888C34.4982 60.9974 34.6252 61.0521 34.7705 61.0521ZM37.0036 61.7909L36.9765 61.3859L37.5156 61.2326C37.5229 61.1926 37.5301 61.0886 37.5373 60.9208C37.5482 60.7493 37.5556 60.5615 37.5592 60.3571L37.5701 59.6896C37.5701 59.5072 37.5647 59.3521 37.5538 59.2245C37.5428 59.0967 37.5247 58.9562 37.4993 58.8031L36.9384 58.6826V58.2778L38.5013 57.8728L38.7464 58.0261L38.6975 58.5514L38.7247 58.5623C39.0841 58.0918 39.5144 57.8564 40.0155 57.8564C40.393 57.8564 40.7071 57.995 40.9577 58.2723C41.2081 58.5496 41.3334 58.938 41.3334 59.4379V60.3462C41.3334 60.5433 41.337 60.7293 41.3443 60.9044C41.3515 61.0759 41.3624 61.1853 41.3769 61.2326L41.9162 61.3859L41.8889 61.7909H39.6723L39.6506 61.3859L40.1352 61.2326C40.1461 61.1451 40.1552 61.0156 40.1624 60.8442C40.1734 60.6691 40.1789 60.5049 40.1789 60.3516V59.6294C40.1789 59.2973 40.1062 59.0603 39.9609 58.918C39.8194 58.772 39.6524 58.6992 39.4599 58.6992C39.1694 58.6992 38.9261 58.8232 38.7301 59.0712V60.3571C38.7301 60.5506 38.7337 60.7329 38.741 60.9044C38.7482 61.0759 38.7591 61.1853 38.7738 61.2326L39.2966 61.3859L39.2693 61.7909H37.0036ZM43.5066 61.8566C43.2562 61.8566 43.0093 61.8291 42.766 61.7745C42.5263 61.7197 42.323 61.6486 42.156 61.561L42.1124 60.5213H42.6952L42.8803 61.1561C43.0982 61.2874 43.3269 61.3531 43.5666 61.3531C43.7408 61.3531 43.8734 61.3184 43.9642 61.2492C44.055 61.1762 44.1003 61.0813 44.1003 60.9645C44.1003 60.8333 44.0495 60.7238 43.9477 60.6363C43.8497 60.5451 43.6428 60.4392 43.3269 60.3189C42.9021 60.162 42.6044 59.9905 42.4338 59.8045C42.2631 59.6148 42.1778 59.3776 42.1778 59.0931C42.1778 58.732 42.3394 58.4365 42.6625 58.2066C42.9892 57.9731 43.414 57.8564 43.9369 57.8564C44.1294 57.8564 44.3218 57.8746 44.5142 57.9112C44.7066 57.9476 44.8664 57.995 44.9934 58.0534L45.0916 59.0822H44.5197L44.3291 58.4529C44.2709 58.42 44.1983 58.3927 44.1111 58.3708C44.0276 58.349 43.9497 58.3379 43.8771 58.3379C43.7064 58.3379 43.5684 58.3763 43.4631 58.4529C43.3578 58.5295 43.3051 58.6298 43.3051 58.7538C43.3051 58.8925 43.3687 59.0092 43.4957 59.104C43.6265 59.1952 43.8626 59.3102 44.2037 59.4488C44.585 59.602 44.8573 59.7699 45.0207 59.9522C45.1841 60.1346 45.2658 60.3571 45.2658 60.6198C45.2658 60.992 45.1024 61.2911 44.7756 61.5173C44.4525 61.7434 44.0294 61.8566 43.5066 61.8566ZM46.5187 61.8784C46.2899 61.8784 46.0921 61.8 45.925 61.6431C45.7616 61.4862 45.6799 61.2911 45.6799 61.0575C45.6799 60.8241 45.7616 60.6272 45.925 60.4666C46.0921 60.3025 46.2899 60.2204 46.5187 60.2204C46.7546 60.2204 46.9544 60.3025 47.1177 60.4666C47.2811 60.6272 47.3628 60.8241 47.3628 61.0575C47.3628 61.2911 47.2811 61.4862 47.1177 61.6431C46.9544 61.8 46.7546 61.8784 46.5187 61.8784ZM47.6953 61.7909L47.6734 61.3695L48.2508 61.2326C48.2544 61.1962 48.2598 61.0941 48.2671 60.9263C48.2779 60.7548 48.287 60.5651 48.2943 60.3571L48.2998 59.706C48.2998 59.5272 48.2943 59.3703 48.2834 59.2354C48.2725 59.1004 48.2544 58.9562 48.229 58.8031L47.6462 58.6826V58.2778L49.2747 57.8728L49.5198 58.0261C49.5051 58.2157 49.4925 58.4054 49.4816 58.5951C49.4707 58.7849 49.4653 58.9983 49.4653 59.2354V60.3571C49.4653 60.5469 49.4689 60.7293 49.4762 60.9044C49.487 61.0795 49.4997 61.1889 49.5142 61.2326L50.0916 61.3695L50.0698 61.7909H47.6953ZM48.9042 57.1888C48.6611 57.1888 48.4705 57.1158 48.3325 56.97C48.1944 56.8203 48.1256 56.6489 48.1256 56.4556C48.1256 56.2586 48.1944 56.0871 48.3325 55.9412C48.4705 55.7952 48.6611 55.7223 48.9042 55.7223C49.1475 55.7223 49.3345 55.7952 49.4653 55.9412C49.5959 56.0871 49.6613 56.2586 49.6613 56.4556C49.6613 56.6489 49.5959 56.8203 49.4653 56.97C49.3345 57.1158 49.1475 57.1888 48.9042 57.1888ZM50.1299 61.7909L50.1027 61.3859L50.6419 61.2326C50.6491 61.1926 50.6564 61.0886 50.6636 60.9208C50.6745 60.7493 50.6817 60.5615 50.6855 60.3571L50.6964 59.6896C50.6964 59.5072 50.6909 59.3521 50.6799 59.2245C50.669 59.0967 50.6509 58.9562 50.6256 58.8031L50.0645 58.6826V58.2778L51.6276 57.8728L51.8727 58.0261L51.8238 58.5514L51.8509 58.5623C52.2104 58.0918 52.6406 57.8564 53.1417 57.8564C53.5193 57.8564 53.8334 57.995 54.0839 58.2723C54.3343 58.5496 54.4597 58.938 54.4597 59.4379V60.3462C54.4597 60.5433 54.4633 60.7293 54.4706 60.9044C54.4778 61.0759 54.4887 61.1853 54.5032 61.2326L55.0425 61.3859L55.0151 61.7909H52.7986L52.7768 61.3859L53.2615 61.2326C53.2724 61.1451 53.2814 61.0156 53.2887 60.8442C53.2997 60.6691 53.3051 60.5049 53.3051 60.3516V59.6294C53.3051 59.2973 53.2325 59.0603 53.0872 58.918C52.9456 58.772 52.7787 58.6992 52.5861 58.6992C52.2957 58.6992 52.0524 58.8232 51.8564 59.0712V60.3571C51.8564 60.5506 51.86 60.7329 51.8673 60.9044C51.8745 61.0759 51.8854 61.1853 51.8999 61.2326L52.4227 61.3859L52.3955 61.7909H50.1299Z" fill="black"/>
</svg>
