<svg width="88" height="65" viewBox="0 0 88 65" fill="none" xmlns="http://www.w3.org/2000/svg">
<path d="M69.8022 7.28342C69.8022 7.28342 72.029 9.91868 73.476 12.4656C73.476 12.4656 79.9337 3.01367 86.5055 0" stroke="url(#paint0_linear_154_20)" stroke-width="2" stroke-linecap="round" stroke-linejoin="round"/>
<path d="M58.2383 55.8442C58.908 55.8443 59.5262 55.9608 60.0928 56.1929C60.6681 56.4162 61.1661 56.7344 61.5869 57.147C62.0074 57.5595 62.3336 58.0452 62.5654 58.604C62.8058 59.1542 62.9268 59.7605 62.9268 60.4224C62.9268 61.0845 62.8058 61.6945 62.5654 62.2534C62.3336 62.8034 62.0075 63.2851 61.5869 63.6978C61.1661 64.1103 60.6681 64.4324 60.0928 64.6646C59.5262 64.8881 58.908 65.0005 58.2383 65.0005C57.5687 65.0005 56.9453 64.8882 56.3701 64.6646C55.8034 64.4325 55.3054 64.1103 54.876 63.6978C54.4555 63.2767 54.1293 62.7909 53.8975 62.2407C53.6656 61.6818 53.5498 61.0756 53.5498 60.4224C53.5498 59.7692 53.6656 59.1667 53.8975 58.6167C54.1293 58.0579 54.4555 57.5722 54.876 57.1597C55.3054 56.7387 55.8033 56.4162 56.3701 56.1929C56.9453 55.9608 57.5687 55.8442 58.2383 55.8442ZM22.5898 61.7085L28.2188 55.9087H29.0176L25.0547 60.0161L29.2881 64.936H28.4893L24.6055 60.4927L22.5898 62.5601V64.936H21.9336V55.9087H22.5898V61.7085ZM39.8984 64.936H39.1904L38.0352 62.395H32.8066L31.6553 64.936H30.9463L35.0938 55.9087H35.751L39.8984 64.936ZM46.5723 55.9087C47.3277 55.9087 47.9757 56.0295 48.5166 56.27C49.0576 56.5106 49.4744 56.8592 49.7666 57.3149C50.0584 57.7616 50.2041 58.3078 50.2041 58.9526C50.2041 59.5798 50.0585 60.1219 49.7666 60.5776C49.4744 61.0244 49.0576 61.3723 48.5166 61.6216C48.3803 61.6823 48.2369 61.7344 48.0869 61.7798L50.3457 64.936H49.5986L47.4414 61.9214C47.1694 61.9613 46.8799 61.9829 46.5723 61.9829H43.9951V64.936H43.3389V55.9087H46.5723ZM58.2383 56.4507C57.6631 56.4507 57.13 56.5496 56.6406 56.7476C56.1511 56.9453 55.7217 57.2243 55.3525 57.5854C54.9919 57.9464 54.7091 58.3676 54.5029 58.8491C54.3052 59.3218 54.2061 59.8465 54.2061 60.4224C54.2061 60.9898 54.3052 61.5142 54.5029 61.9956C54.7091 62.4772 54.9919 62.8983 55.3525 63.2593C55.7217 63.6204 56.1512 63.8995 56.6406 64.0972C57.13 64.2951 57.6631 64.394 58.2383 64.394C58.8135 64.394 59.3457 64.2951 59.835 64.0972C60.3243 63.8995 60.7496 63.6205 61.1104 63.2593C61.4711 62.8983 61.7498 62.4772 61.9473 61.9956C62.1534 61.5142 62.2568 60.9898 62.2568 60.4224C62.2568 59.8465 62.1534 59.3218 61.9473 58.8491C61.7498 58.3675 61.471 57.9464 61.1104 57.5854C60.7496 57.2242 60.3243 56.9453 59.835 56.7476C59.3457 56.5497 58.8135 56.4507 58.2383 56.4507ZM33.0576 61.8413H37.7832L35.416 56.6333L33.0576 61.8413ZM43.9951 61.4028H46.5723C47.5421 61.4028 48.2761 61.1871 48.7744 60.7573C49.2806 60.3273 49.5341 59.7261 49.5342 58.9526C49.5342 58.1703 49.2807 57.5681 48.7744 57.147C48.2761 56.7172 47.5421 56.5025 46.5723 56.5024H43.9951V61.4028ZM10.1582 51.0063H0V5.85889H10.1582V51.0063ZM29.9121 5.85889C41.2748 5.85889 46.9561 10.6567 46.9561 20.2485C46.9557 24.7814 45.3207 28.4549 42.0508 31.2671C38.8014 34.0578 34.4516 35.4533 29.002 35.4536H24.1592V51.0063H14V5.85889H29.9121ZM63.2207 5.85889C64.5527 5.85889 65.8044 5.91921 66.9746 6.04053V12.3198C66.9747 13.7441 68.1281 14.8989 69.5508 14.8989H79.3018C79.5221 15.8963 79.6357 16.9758 79.6357 18.1382C79.6357 19.7122 79.3962 21.1721 78.9141 22.5151C78.432 23.8371 77.7495 25.034 76.8691 26.104C75.9889 27.1741 74.9189 28.0982 73.6611 28.8745C72.4245 29.651 71.0408 30.2602 69.5107 30.7007V30.8267C70.181 31.0366 70.8313 31.3824 71.46 31.8647C72.0889 32.3267 72.6974 32.872 73.2842 33.5015C73.8712 34.1309 74.4279 34.8147 74.9521 35.5493C75.4966 36.2623 75.9887 36.9655 76.4287 37.6577L84.9521 51.0063H73.2842L66.2725 39.3901C65.7485 38.5089 65.2448 37.7204 64.7627 37.0278C64.2807 36.3355 63.7871 35.7477 63.2842 35.2651C62.8023 34.7616 62.2888 34.3834 61.7441 34.1313C61.2202 33.8586 60.6423 33.7232 60.0137 33.7231H57.2783V51.0063H47.1201V5.85889H63.2207ZM24.1592 27.7417H28.1514C33.5595 27.7417 36.264 25.369 36.2646 20.6265C36.2646 15.988 33.5602 13.6675 28.1514 13.6675H24.1592V27.7417ZM57.2783 26.0415H61.6816C63.8609 26.0412 65.6112 25.4103 66.9316 24.1519C68.2732 22.8716 68.9443 21.2859 68.9443 19.397C68.9443 15.4515 66.586 13.4784 61.8701 13.478H57.2783V26.0415Z" fill="black"/>
<defs>
<linearGradient id="paint0_linear_154_20" x1="67.7026" y1="-0.410052" x2="87.1976" y2="2.71883" gradientUnits="userSpaceOnUse">
<stop/>
</linearGradient>
</defs>
</svg>
