<svg width="136" height="70" viewBox="0 0 136 70" fill="none" xmlns="http://www.w3.org/2000/svg">
<path d="M29.9393 23.22C30.5049 23.22 31.0574 23.133 31.5925 22.959C32.1364 22.785 32.5366 22.6197 32.7933 22.4543L33.1762 22.1933L34.7772 25.3954C34.7163 25.4302 34.6424 25.4824 34.551 25.552C34.4553 25.6216 34.2377 25.7521 33.8897 25.9349C33.5503 26.1089 33.1936 26.2655 32.8107 26.4047C32.4279 26.5353 31.9232 26.6484 31.2967 26.7528C30.6702 26.8572 30.0263 26.9094 29.365 26.9094C27.8336 26.9094 26.3761 26.5353 24.9969 25.7782C23.6265 25.0256 22.5171 23.9945 21.673 22.6806C20.8377 21.358 20.42 19.9309 20.42 18.3995C20.42 17.2422 20.6637 16.1328 21.151 15.0756C21.6469 14.0097 22.3082 13.1004 23.1349 12.3434C23.9571 11.5777 24.9143 10.9686 26.0063 10.5161C27.094 10.0636 28.2164 9.8374 29.365 9.8374C30.4179 9.8374 31.3924 9.96792 32.2886 10.2203C33.1936 10.4639 33.8375 10.7162 34.2203 10.9686L34.7772 11.3514L33.1762 14.5535C33.0805 14.4752 32.9412 14.3751 32.7585 14.2577C32.5714 14.1446 32.1929 13.9923 31.6273 13.8052C31.0705 13.6225 30.5049 13.5268 29.9393 13.5268C29.0344 13.5268 28.2208 13.679 27.5029 13.9792C26.7807 14.2707 26.2064 14.6536 25.7801 15.1278C25.3624 15.6064 25.0404 16.1198 24.8229 16.6766C24.6141 17.2335 24.5097 17.7991 24.5097 18.3647C24.5097 19.6177 24.9708 20.7445 25.9019 21.7408C26.8416 22.7284 28.186 23.22 29.9393 23.22Z" fill="black"/>
<path d="M34.4635 18.3647C34.4635 15.9762 35.2727 13.9575 36.8999 12.3086C38.5357 10.664 40.4935 9.8374 42.782 9.8374C45.0878 9.8374 47.0456 10.664 48.6467 12.3086C50.2564 13.9444 51.0656 15.9631 51.0656 18.3647C51.0656 20.7793 50.2695 22.8111 48.6815 24.4556C47.1022 26.0915 45.1357 26.9094 42.782 26.9094C40.3673 26.9094 38.3791 26.1002 36.8129 24.473C35.2466 22.8372 34.4635 20.8011 34.4635 18.3647ZM38.5183 18.3647C38.5183 19.2261 38.6488 20.0136 38.9186 20.7315C39.184 21.4406 39.6495 22.0454 40.3108 22.5413C40.9808 23.0286 41.8074 23.2723 42.782 23.2723C44.1829 23.2723 45.2401 22.798 45.9492 21.8452C46.6541 20.8837 47.0108 19.7221 47.0108 18.3647C47.0108 17.0203 46.6454 15.8674 45.9144 14.9016C45.1922 13.927 44.1481 13.4398 42.782 13.4398C41.4246 13.4398 40.3717 13.927 39.6321 14.9016C38.8881 15.8674 38.5183 17.0203 38.5183 18.3647Z" fill="black"/>
<path d="M51.7327 10.1338H56.501C58.7981 10.1338 60.7559 10.9169 62.3831 12.4831C64.0059 14.0494 64.8195 16.0115 64.8195 18.3652C64.8195 20.732 64.0059 22.6985 62.3831 24.2647C60.769 25.831 58.8068 26.6141 56.501 26.6141H51.7327V10.1338ZM55.4916 23.2554H56.0659C57.432 23.2554 58.5545 22.7986 59.4246 21.8806C60.3035 20.9539 60.7516 19.7879 60.7646 18.3826C60.7646 16.9817 60.3209 15.8158 59.442 14.8847C58.5719 13.958 57.4451 13.4925 56.0659 13.4925H55.4916V23.2554Z" fill="black"/>
<path d="M74.9093 10.1338V13.4229H69.236V16.712H74.6657V20.0011H69.236V23.325H74.9093V26.6141H65.4771V10.1338H74.9093Z" fill="black"/>
<path d="M16.4898 45.8729L13.8446 36.6147L11.1994 45.8729H7.04015L2.34143 29.3926H6.51807L9.3373 40.7043H9.42431L12.435 29.3926H15.2716L18.2649 40.7043H18.3519L21.1711 29.3926H25.3303L20.6316 45.8729H16.4898Z" fill="black"/>
<path d="M25.2335 29.3926H31.133C32.708 29.3926 33.9958 29.8189 34.9964 30.663C35.9927 31.5114 36.493 32.7165 36.493 34.2827C36.493 35.5009 36.1885 36.5233 35.5881 37.3456C34.9834 38.1592 34.1611 38.7335 33.1169 39.0685L38.7902 45.8729H34.0219L28.9925 39.3643V45.8729H25.2335V29.3926ZM28.9925 36.7017H29.4276C29.7756 36.7017 30.0628 36.6973 30.2977 36.6843C30.5413 36.6756 30.8111 36.6277 31.1156 36.5451C31.4289 36.4668 31.6769 36.3536 31.8639 36.2144C32.0467 36.0665 32.2033 35.849 32.3338 35.5705C32.473 35.2921 32.5426 34.9571 32.5426 34.5612C32.5426 34.1566 32.473 33.8129 32.3338 33.5344C32.2033 33.2473 32.0467 33.0297 31.8639 32.8905C31.6769 32.7426 31.4289 32.6251 31.1156 32.5425C30.8111 32.4641 30.5413 32.4163 30.2977 32.4032C30.0628 32.3945 29.7756 32.3858 29.4276 32.3858H28.9925V36.7017Z" fill="black"/>
<path d="M37.7888 37.625C37.7888 35.2364 38.598 33.2177 40.2252 31.5688C41.861 29.9243 43.8188 29.0977 46.1073 29.0977C48.4131 29.0977 50.3709 29.9243 51.972 31.5688C53.5817 33.2047 54.3909 35.2234 54.3909 37.625C54.3909 40.0396 53.5948 42.0713 52.0068 43.7159C50.4275 45.3517 48.461 46.1697 46.1073 46.1697C43.6927 46.1697 41.7044 45.3604 40.1382 43.7333C38.5719 42.0974 37.7888 40.0613 37.7888 37.625ZM41.8436 37.625C41.8436 38.4864 41.9742 39.2739 42.2439 39.9917C42.5093 40.7009 42.9748 41.3056 43.6361 41.8016C44.3061 42.2889 45.1327 42.5325 46.1073 42.5325C47.5082 42.5325 48.5654 42.0583 49.2746 41.1055C49.9794 40.144 50.3361 38.9824 50.3361 37.625C50.3361 36.2806 49.9707 35.1277 49.2398 34.1618C48.5176 33.1873 47.4734 32.7 46.1073 32.7C44.7499 32.7 43.697 33.1873 42.9574 34.1618C42.2134 35.1277 41.8436 36.2806 41.8436 37.625Z" fill="black"/>
<path d="M54.0145 32.6817V29.3926H65.6047V32.6817H61.6891V45.8729H57.9301V32.6817H54.0145Z" fill="black"/>
<path d="M75.3982 29.3926V32.6817H69.7249V35.9708H75.1545V39.2599H69.7249V42.5838H75.3982V45.8729H65.9659V29.3926H75.3982Z" fill="black"/>
<mask id="mask0_5_843" style="mask-type:luminance" maskUnits="userSpaceOnUse" x="85" y="13" width="30" height="30">
<path d="M85.4344 13.9844H114.158V42.5813H85.4344V13.9844Z" fill="white"/>
</mask>
<g mask="url(#mask0_5_843)">
<path d="M113.696 14.5981L86.0393 42.251L113.696 14.5981Z" fill="#E61F93"/>
</g>
<mask id="mask1_5_843" style="mask-type:luminance" maskUnits="userSpaceOnUse" x="85" y="13" width="30" height="30">
<path d="M85.4344 13.9844H114.301V42.8728H85.4344V13.9844Z" fill="white"/>
</mask>
<g mask="url(#mask1_5_843)">
<path d="M86.0396 42.7979C86.1788 42.7979 86.3224 42.7457 86.4312 42.6369L114.084 14.9841C114.302 14.7709 114.302 14.4228 114.084 14.2053C113.871 13.9921 113.523 13.9921 113.305 14.2053L85.6524 41.8581C85.4349 42.0757 85.4349 42.4237 85.6524 42.6369C85.7568 42.7457 85.9004 42.7979 86.0396 42.7979Z" fill="#E61F93"/>
</g>
<mask id="mask2_5_843" style="mask-type:luminance" maskUnits="userSpaceOnUse" x="103" y="22" width="12" height="21">
<path d="M103.02 22.5337H114.301V42.873H103.02V22.5337Z" fill="white"/>
</mask>
<g mask="url(#mask2_5_843)">
<path d="M113.697 42.7983C114.001 42.7983 114.245 42.5546 114.245 42.2501L114.241 23.7685C114.241 23.4509 114.049 23.1681 113.758 23.0463C113.462 22.9244 113.127 22.9897 112.901 23.2159L103.951 32.0913C103.738 32.3045 103.734 32.6525 103.947 32.8701C104.164 33.0832 104.512 33.0876 104.726 32.8701L113.14 24.5298L113.144 42.2501C113.144 42.5546 113.392 42.7983 113.697 42.7983ZM113.679 23.9947C113.679 23.9947 113.679 23.9947 113.679 23.9991V23.9947Z" fill="#E61F93"/>
</g>
<mask id="mask3_5_843" style="mask-type:luminance" maskUnits="userSpaceOnUse" x="85" y="13" width="13" height="21">
<path d="M85.4344 13.9844H97.451V33.6711H85.4344V13.9844Z" fill="white"/>
</mask>
<g mask="url(#mask3_5_843)">
<path d="M86.0398 33.0319C86.3443 33.0319 86.5923 32.7882 86.5923 32.4837L86.5966 15.5901L96.1115 25.031C96.3247 25.2442 96.6728 25.2442 96.886 25.031C97.1035 24.8135 97.0991 24.4654 96.886 24.2522L86.8316 14.2718C86.6097 14.0499 86.2747 13.9847 85.9789 14.1065C85.6874 14.224 85.4959 14.5111 85.4959 14.8287L85.4916 32.4837C85.4916 32.7882 85.7352 33.0319 86.0398 33.0319ZM86.0528 15.0506L86.0572 15.0549C86.0572 15.0549 86.0572 15.0549 86.0528 15.0506Z" fill="#E61F93"/>
</g>
<mask id="mask4_5_843" style="mask-type:luminance" maskUnits="userSpaceOnUse" x="80" y="8" width="3" height="41">
<path d="M80.7443 8.05469H82.9718V48.0547H80.7443V8.05469Z" fill="white"/>
</mask>
<g mask="url(#mask4_5_843)">
<path d="M81.6803 46.3452V9.1949" stroke="#E61F93" stroke-width="1.79344"/>
</g>
<g filter="url(#filter0_d_5_843)">
<path d="M112.837 43.8266C112.491 42.1458 114.284 40.8389 115.778 41.682L130.206 49.8208C131.859 50.7529 131.406 53.2469 129.532 53.5389L123.936 54.4105C123.296 54.5102 122.744 54.9131 122.455 55.492L119.922 60.5555C119.073 62.2537 116.557 61.9234 116.174 60.0635L112.837 43.8266Z" fill="#E61F93"/>
<path d="M114.306 43.525C114.22 43.1049 114.668 42.7778 115.041 42.9882L129.469 51.1273C129.882 51.3604 129.769 51.9833 129.301 52.0563L123.705 52.9284C122.586 53.1028 121.62 53.8078 121.113 54.8207L118.58 59.8844C118.368 60.3086 117.739 60.2265 117.644 59.7619L114.306 43.525Z" stroke="white" stroke-width="3"/>
</g>
<defs>
<filter id="filter0_d_5_843" x="108.793" y="41.4185" width="26.4316" height="28.2432" filterUnits="userSpaceOnUse" color-interpolation-filters="sRGB">
<feFlood flood-opacity="0" result="BackgroundImageFix"/>
<feColorMatrix in="SourceAlpha" type="matrix" values="0 0 0 0 0 0 0 0 0 0 0 0 0 0 0 0 0 0 127 0" result="hardAlpha"/>
<feOffset dy="4"/>
<feGaussianBlur stdDeviation="2"/>
<feComposite in2="hardAlpha" operator="out"/>
<feColorMatrix type="matrix" values="0 0 0 0 0 0 0 0 0 0 0 0 0 0 0 0 0 0 0.12 0"/>
<feBlend mode="normal" in2="BackgroundImageFix" result="effect1_dropShadow_5_843"/>
<feBlend mode="normal" in="SourceGraphic" in2="effect1_dropShadow_5_843" result="shape"/>
</filter>
</defs>
</svg>
