<svg width="117" height="69" viewBox="0 0 117 69" fill="none" xmlns="http://www.w3.org/2000/svg">
<path d="M29.5362 27.4683C30.0956 27.3847 30.6292 27.2169 31.1327 26.9657C31.6448 26.7132 32.0163 26.4906 32.2457 26.2891L32.5858 25.9743L34.6425 28.9046C34.5874 28.948 34.522 29.0106 34.4419 29.0929C34.3576 29.1759 34.1617 29.3372 33.8445 29.5693C33.5346 29.7916 33.2049 29.9993 32.8468 30.1935C32.4875 30.3792 32.005 30.5657 31.4009 30.7616C30.7967 30.9574 30.1676 31.1042 29.5135 31.202C27.9989 31.4283 26.5022 31.2737 25.0263 30.7289C23.5596 30.187 22.31 29.3312 21.281 28.1565C20.2594 26.9719 19.6354 25.6223 19.409 24.1077C19.2379 22.9631 19.3149 21.8299 19.6406 20.7123C19.9735 19.5848 20.4932 18.5877 21.1988 17.7168C21.8989 16.838 22.7555 16.0941 23.7686 15.4852C24.7775 14.8769 25.8542 14.4873 26.9901 14.3175C28.0314 14.1619 29.0146 14.1469 29.9383 14.264C30.8693 14.3712 31.5434 14.5256 31.9593 14.7186L32.5667 15.0149L31.4565 18.4185C31.3503 18.3552 31.1978 18.2768 30.9997 18.1876C30.798 18.1034 30.4011 18.0088 29.8141 17.9073C29.2363 17.8089 28.6628 17.7979 28.1034 17.8815C27.2084 18.0152 26.4263 18.2861 25.7607 18.6891C25.0895 19.0841 24.5781 19.5477 24.2265 20.0797C23.8842 20.6147 23.6417 21.1701 23.5088 21.753C23.3846 22.3346 23.365 22.9094 23.4485 23.4688C23.6338 24.708 24.2564 25.7543 25.3245 26.602C26.3999 27.4399 27.8021 27.7274 29.5362 27.4683Z" fill="black"/>
<path d="M33.2933 21.9971C32.9402 19.6348 33.4422 17.5187 34.8077 15.6474C36.1825 13.7791 37.9966 12.6722 40.2599 12.3339C42.5405 11.9931 44.5989 12.5213 46.4255 13.9111C48.2593 15.2911 49.358 17.168 49.713 19.5432C50.0699 21.9313 49.5828 24.0584 48.2553 25.9196C46.9352 27.7709 45.1112 28.8705 42.7833 29.2184C40.3952 29.5753 38.3092 29.0689 36.5197 27.6911C34.7288 26.3047 33.6534 24.4067 33.2933 21.9971ZM37.3035 21.3978C37.4309 22.2497 37.6763 23.0093 38.0492 23.6794C38.4165 24.3415 38.9663 24.8708 39.6937 25.2636C40.4283 25.6465 41.2819 25.7653 42.2457 25.6212C43.6313 25.4141 44.6068 24.7889 45.1673 23.7417C45.7222 22.6866 45.9034 21.485 45.7027 20.1425C45.504 18.8129 44.9722 17.7267 44.1065 16.8795C43.2482 16.0224 42.1435 15.6948 40.7924 15.8967C39.4499 16.0973 38.4806 16.7349 37.8932 17.8081C37.3002 18.8733 37.1048 20.0682 37.3035 21.3978Z" fill="black"/>
<path d="M49.156 11.3047L53.872 10.5999C56.1439 10.2603 58.1959 10.7455 60.0367 12.054C61.8732 13.3632 62.9678 15.1835 63.3157 17.5114C63.6656 19.8521 63.1516 21.9173 61.7781 23.7062C60.4133 25.4938 58.5884 26.5583 56.3079 26.8992L51.592 27.604L49.156 11.3047ZM54.8132 23.7265L55.3812 23.6417C56.7323 23.4397 57.7749 22.822 58.4998 21.7855C59.232 20.7391 59.5028 19.5197 59.308 18.1279C59.101 16.7424 58.4897 15.6548 57.4829 14.8639C56.4854 14.076 55.3021 13.7822 53.9381 13.986L53.3701 14.0709L54.8132 23.7265Z" fill="black"/>
<path d="M72.0781 7.87829L72.5643 11.1313L66.9534 11.9698L67.4395 15.2228L72.8095 14.4202L73.2957 17.6732L67.9257 18.4758L68.417 21.7632L74.0279 20.9246L74.5141 24.1776L65.1855 25.5718L62.7495 9.27246L72.0781 7.87829Z" fill="black"/>
<path d="M19.5828 51.8604L15.5982 43.0948L14.3505 52.6423L10.237 53.2571L3.15393 37.6523L7.28469 37.035L11.7449 47.8058L11.831 47.7929L13.1366 36.1604L15.9421 35.7411L20.5744 46.4862L20.6605 46.4733L21.7768 34.8691L25.8903 34.2544L23.6792 51.2482L19.5828 51.8604Z" fill="black"/>
<path d="M25.7947 34.2686L31.6294 33.3966C33.187 33.1638 34.5237 33.3951 35.6381 34.0819C36.7489 34.7737 37.4218 35.8917 37.6533 37.4407C37.8334 38.6455 37.6833 39.7017 37.211 40.6037C36.7332 41.4977 36.0048 42.1872 35.0217 42.6729L41.6384 48.564L36.9224 49.2688L30.9863 43.5751L31.9483 50.0122L28.2306 50.5678L25.7947 34.2686ZM30.5927 40.9418L31.023 40.8775C31.3672 40.826 31.6506 40.7793 31.881 40.7316C32.1207 40.687 32.3804 40.5998 32.6694 40.4731C32.9676 40.3493 33.1961 40.2008 33.3606 40.0354C33.5194 39.8621 33.6422 39.6238 33.7301 39.3291C33.8267 39.0332 33.846 38.6916 33.7875 38.3C33.7277 37.8998 33.608 37.5702 33.4292 37.3154C33.2576 37.0507 33.0706 36.8587 32.8693 36.748C32.6624 36.6294 32.3998 36.5499 32.0777 36.5144C31.765 36.482 31.4911 36.4745 31.2482 36.4976C31.0146 36.5237 30.7293 36.5576 30.3851 36.609L29.9548 36.6733L30.5927 40.9418Z" fill="black"/>
<path d="M39.4288 40.5542C39.0757 38.192 39.5777 36.0758 40.9432 34.2045C42.318 32.3362 44.1321 31.2293 46.3954 30.8911C48.676 30.5502 50.7344 31.0784 52.561 32.4682C54.3948 33.8482 55.4935 35.7251 55.8485 38.1003C56.2054 40.4884 55.7183 42.6155 54.3908 44.4767C53.0707 46.328 51.2467 47.4276 48.9188 47.7755C46.5307 48.1324 44.4447 47.626 42.6552 46.2482C40.8643 44.8618 39.7889 42.9639 39.4288 40.5542ZM43.439 39.9549C43.5664 40.8069 43.8118 41.5664 44.1847 42.2365C44.552 42.8986 45.1018 43.4279 45.8292 43.8207C46.5638 44.2036 47.4174 44.3224 48.3812 44.1783C49.7668 43.9713 50.7423 43.346 51.3028 42.2988C51.8577 41.2437 52.0389 40.0421 51.8382 38.6996C51.6395 37.37 51.1077 36.2838 50.242 35.4366C49.3837 34.5795 48.279 34.2519 46.9279 34.4538C45.5854 34.6545 44.6161 35.292 44.0287 36.3652C43.4357 37.4304 43.2403 38.6253 43.439 39.9549Z" fill="black"/>
<path d="M54.7457 33.2676L54.2595 30.0146L65.7224 28.3015L66.2085 31.5545L62.336 32.1332L64.2857 45.1796L60.5681 45.7352L58.6183 32.6889L54.7457 33.2676Z" fill="black"/>
<path d="M75.4082 26.8539L75.8944 30.1068L70.2834 30.9454L70.7696 34.1984L76.1396 33.3958L76.6257 36.6488L71.2558 37.4514L71.7471 40.7388L77.358 39.9002L77.8442 43.1532L68.5155 44.5473L66.0796 28.248L75.4082 26.8539Z" fill="black"/>
<mask id="mask0_5_846" style="mask-type:luminance" maskUnits="userSpaceOnUse" x="83" y="5" width="33" height="34">
<path d="M83.0568 10.1309L111.464 5.88532L115.691 34.1681L87.2837 38.4137L83.0568 10.1309Z" fill="white"/>
</mask>
<g mask="url(#mask0_5_846)">
<path d="M111.099 6.56045L87.8331 37.9975L111.099 6.56045Z" fill="#E61F93"/>
</g>
<mask id="mask1_5_846" style="mask-type:luminance" maskUnits="userSpaceOnUse" x="83" y="5" width="33" height="34">
<path d="M83.0568 10.1309L111.606 5.8641L115.876 34.4352L87.3267 38.702L83.0568 10.1309Z" fill="white"/>
</mask>
<g mask="url(#mask1_5_846)">
<path d="M87.9142 38.5389C88.0519 38.5183 88.1862 38.4454 88.2777 38.3218L111.539 6.88537C111.723 6.64237 111.672 6.29814 111.424 6.11515C111.182 5.93582 110.838 5.98727 110.654 6.23026L87.3923 37.6667C87.2093 37.914 87.2608 38.2582 87.5074 38.4369C87.6268 38.529 87.7765 38.5595 87.9142 38.5389Z" fill="#E61F93"/>
</g>
<mask id="mask2_5_846" style="mask-type:luminance" maskUnits="userSpaceOnUse" x="101" y="14" width="15" height="23">
<path d="M101.713 15.9873L112.87 14.3198L115.877 34.4358L104.719 36.1032L101.713 15.9873Z" fill="white"/>
</mask>
<g mask="url(#mask2_5_846)">
<path d="M115.268 34.4517C115.569 34.4067 115.774 34.1297 115.729 33.8285L112.993 15.5505C112.946 15.2364 112.715 14.985 112.408 14.9076C112.098 14.8309 111.776 14.9449 111.586 15.2021L104.047 25.3028C103.867 25.5451 103.915 25.89 104.158 26.0736C104.404 26.2523 104.749 26.2052 104.928 25.9585L112.017 16.4662L114.64 33.9912C114.685 34.2924 114.967 34.4967 115.268 34.4517ZM112.471 15.8572C112.471 15.8572 112.471 15.8572 112.472 15.8615L112.471 15.8572Z" fill="#E61F93"/>
</g>
<mask id="mask3_5_846" style="mask-type:luminance" maskUnits="userSpaceOnUse" x="83" y="8" width="15" height="22">
<path d="M83.0568 10.1309L94.9413 8.3547L97.8512 27.8252L85.9667 29.6014L83.0568 10.1309Z" fill="white"/>
</mask>
<g mask="url(#mask3_5_846)">
<path d="M86.4708 28.879C86.772 28.834 86.9812 28.5564 86.9362 28.2552L84.4435 11.5465L95.2493 19.4773C95.4917 19.6567 95.8359 19.6052 96.0152 19.3629C96.1982 19.1156 96.1425 18.772 95.9001 18.5926L84.481 10.208C84.2287 10.0213 83.8878 10.0063 83.6132 10.1705C83.3423 10.3298 83.1954 10.6421 83.2423 10.9562L85.8476 28.4179C85.8926 28.7191 86.1696 28.924 86.4708 28.879ZM83.8259 11.0933L83.8308 11.097C83.8308 11.097 83.8308 11.097 83.8259 11.0933Z" fill="#E61F93"/>
</g>
<mask id="mask4_5_846" style="mask-type:luminance" maskUnits="userSpaceOnUse" x="77" y="4" width="9" height="41">
<path d="M77.5416 4.95996L79.7447 4.63071L85.6571 44.1913L83.454 44.5206L77.5416 4.95996Z" fill="white"/>
</mask>
<g mask="url(#mask4_5_846)">
<path d="M84.1272 42.6914L78.636 5.94916" stroke="#E61F93" stroke-width="1.79344"/>
</g>
<g filter="url(#filter0_d_5_846)">
<path d="M85.2125 57.3586C86.0655 56.4527 87.5883 56.9709 87.7116 58.2091L87.8373 59.4717C87.9323 60.4261 86.7689 60.9638 86.103 60.2734C85.8761 60.0382 85.5493 59.9272 85.226 59.9757C84.2778 60.1181 83.6835 58.9828 84.3408 58.2846L85.2125 57.3586Z" fill="#E61F93"/>
<path d="M86.2451 58.6202C86.2048 58.6053 86.1641 58.5914 86.1231 58.5786L86.2294 58.4663L86.2451 58.6202Z" stroke="white" stroke-width="3"/>
</g>
<defs>
<filter id="filter0_d_5_846" x="80.0627" y="56.9004" width="11.78" height="11.6851" filterUnits="userSpaceOnUse" color-interpolation-filters="sRGB">
<feFlood flood-opacity="0" result="BackgroundImageFix"/>
<feColorMatrix in="SourceAlpha" type="matrix" values="0 0 0 0 0 0 0 0 0 0 0 0 0 0 0 0 0 0 127 0" result="hardAlpha"/>
<feOffset dy="4"/>
<feGaussianBlur stdDeviation="2"/>
<feComposite in2="hardAlpha" operator="out"/>
<feColorMatrix type="matrix" values="0 0 0 0 0 0 0 0 0 0 0 0 0 0 0 0 0 0 0.12 0"/>
<feBlend mode="normal" in2="BackgroundImageFix" result="effect1_dropShadow_5_846"/>
<feBlend mode="normal" in="SourceGraphic" in2="effect1_dropShadow_5_846" result="shape"/>
</filter>
</defs>
</svg>
