<svg width="53" height="32" viewBox="0 0 53 32" fill="none" xmlns="http://www.w3.org/2000/svg">
<path d="M14.9559 11.594C14.9683 12.1246 15.0493 12.6513 15.197 13.161L15.6791 14.3665C15.7227 14.4154 15.7559 14.4727 15.7766 14.5349C15.7974 14.597 15.8052 14.6628 15.7997 14.7281C15.7997 14.9692 15.6791 15.0897 15.5586 15.3308L14.3532 16.054H13.9915C13.8792 16.0636 13.7663 16.0468 13.6616 16.0049C13.557 15.9631 13.4636 15.8973 13.3888 15.813C13.1227 15.5845 12.9159 15.295 12.7861 14.9692C12.5585 14.6652 12.3568 14.3427 12.1834 14.0048C11.5599 14.7746 10.7688 15.3919 9.87058 15.8097C8.97234 16.2275 7.99059 16.4347 7.00013 16.4157C6.35852 16.4385 5.71881 16.333 5.11853 16.1053C4.51824 15.8776 3.96948 15.5323 3.50442 15.0897C3.06532 14.647 2.72122 14.1193 2.49322 13.5389C2.26522 12.9586 2.15812 12.3378 2.17847 11.7145C2.17729 11.0249 2.32786 10.3434 2.6195 9.71848C2.91115 9.09352 3.33672 8.54039 3.86605 8.09831C5.06456 7.15842 6.56429 6.68708 8.085 6.77235H10.0137L12.0629 7.13398V6.04911C12.1178 5.05431 11.8189 4.07218 11.2191 3.27665C10.3775 2.67715 9.35798 2.37978 8.32608 2.43286L6.39742 2.67395L4.46875 3.27665L3.86605 3.51774H3.62496C3.38388 3.51774 3.26334 3.27665 3.26334 2.91503V2.07124C3.22632 1.86233 3.26936 1.64714 3.38388 1.46853L3.86605 1.10691C4.55576 0.774945 5.28484 0.531919 6.03579 0.383662C6.94074 0.145354 7.87246 0.0238256 8.80825 0.0220374C10.5028 -0.116429 12.1858 0.40141 13.5094 1.46853C14.0269 2.05935 14.4214 2.74745 14.6698 3.49257C14.9181 4.23769 15.0154 5.02486 14.9559 5.80802V11.594ZM7.84392 14.2459L9.65204 13.8843C10.2813 13.6389 10.8551 13.27 11.3396 12.7994C11.6119 12.4375 11.8161 12.029 11.9423 11.594C11.9423 11.2324 12.0629 10.7502 12.0629 10.1475V9.42426L10.4958 9.06264H8.80825C7.86738 8.99126 6.93069 9.24672 6.15634 9.78589C5.86949 10.0411 5.64446 10.3582 5.49828 10.7132C5.35209 11.0683 5.28858 11.4519 5.31255 11.8351C5.27021 12.4933 5.48646 13.142 5.91525 13.6432C6.17811 13.8707 6.48502 14.0417 6.81684 14.1453C7.14866 14.249 7.49829 14.2833 7.84392 14.2459ZM21.9473 16.1746C21.835 16.1841 21.722 16.1673 21.6174 16.1255C21.5127 16.0836 21.4193 16.0179 21.3446 15.9335C21.2187 15.8527 21.1109 15.7467 21.0279 15.6223C20.9449 15.4978 20.8886 15.3575 20.8624 15.2102L16.764 1.58908C16.6831 1.35658 16.6423 1.112 16.6435 0.865827C16.6435 0.818337 16.6528 0.771313 16.671 0.727439C16.6892 0.683565 16.7158 0.6437 16.7494 0.61012C16.7829 0.576541 16.8228 0.549903 16.8667 0.53173C16.9106 0.513557 16.9576 0.504202 17.0051 0.504202H19.4159C19.5862 0.717023 19.7095 0.963524 19.7775 1.22745L22.7911 12.92L25.5635 1.22745C25.5524 1.09684 25.5681 0.965344 25.6096 0.840991C25.651 0.716639 25.7174 0.602042 25.8046 0.504202H28.6976L29.0592 1.22745L31.8317 13.0405L34.8452 1.22745L35.2069 0.504202H37.4971C37.8588 0.504202 37.9793 0.624744 37.9793 0.865827V1.22745C37.9793 1.34799 37.8588 1.46853 37.8588 1.58908L33.5193 15.3308C33.5152 15.4537 33.4799 15.5736 33.4166 15.679C33.3533 15.7845 33.2642 15.8721 33.1576 15.9335L32.5549 16.1746H30.9879C30.8566 16.1952 30.7222 16.1844 30.5958 16.1433C30.4694 16.1021 30.3545 16.0316 30.2605 15.9376C30.1665 15.8436 30.096 15.7287 30.0549 15.6023C30.0137 15.4759 30.003 15.3416 30.0236 15.2102L27.2511 3.87936L24.4787 15.2102C24.4897 15.3409 24.4741 15.4724 24.4326 15.5967C24.3912 15.7211 24.3248 15.8357 24.2376 15.9335L23.5143 16.1746H21.9473ZM44.6091 16.6567C43.7129 16.6555 42.821 16.5339 41.9572 16.2951L39.908 15.5719C39.6637 15.4745 39.4539 15.3066 39.3053 15.0897C39.3053 14.9692 39.1847 14.7281 39.1847 14.6075V13.6432C39.1847 13.5153 39.2355 13.3927 39.3259 13.3023C39.4164 13.2118 39.539 13.161 39.6669 13.161H39.908L40.3901 13.4021L42.3188 14.0048L44.4885 14.2459C45.371 14.2747 46.2451 14.0666 47.0199 13.6432C47.3157 13.4725 47.5608 13.2263 47.7302 12.9298C47.8996 12.6333 47.9873 12.2971 47.9843 11.9556C47.9783 11.508 47.8065 11.0785 47.5021 10.7502C46.9878 10.2851 46.3668 9.95385 45.694 9.78589L43.1626 8.9421C42.0474 8.69122 41.0369 8.1018 40.2696 7.25452C39.7048 6.48715 39.4083 5.55524 39.4258 4.60261C39.3965 3.92661 39.564 3.25662 39.908 2.67395C40.1699 2.09061 40.5868 1.59029 41.1134 1.22745L43.042 0.26312L45.2118 0.0220374H47.5021L48.587 0.383662L49.3102 0.624744C49.5513 0.745286 49.6718 0.986368 49.7924 1.10691C49.9069 1.28551 49.9499 1.5007 49.9129 1.70962V2.55341C49.9129 2.91503 49.7924 3.03557 49.5513 3.03557C49.439 3.04513 49.326 3.0283 49.2214 2.98645C49.1167 2.94459 49.0233 2.87885 48.9486 2.79449C47.8254 2.3988 46.6437 2.19505 45.4529 2.19178C44.6597 2.13971 43.8674 2.3065 43.1626 2.67395C42.8899 2.83059 42.6664 3.06031 42.5173 3.33719C42.3682 3.61407 42.2995 3.92711 42.3188 4.24098C42.3311 4.47253 42.3909 4.69907 42.4946 4.90647C42.5983 5.11386 42.7436 5.29766 42.9215 5.4464C43.4467 5.96305 44.1217 6.30055 44.8502 6.41073L47.261 7.25452C48.3524 7.47975 49.3321 8.07608 50.0335 8.9421C50.5892 9.62165 50.8879 10.4752 50.8773 11.3529C50.8584 12.0618 50.6943 12.7592 50.3951 13.4021C50.0888 14.0257 49.6334 14.564 49.0691 14.9692C48.5393 15.4793 47.8665 15.8157 47.1405 15.9335C46.3618 16.362 45.4965 16.6092 44.6091 16.6567Z" fill="black"/>
<path d="M47.9841 25.2152C42.1981 29.4341 33.7602 31.7244 26.5277 31.7244C16.8237 31.8027 7.44447 28.2317 0.24965 21.7195C-0.353058 21.2373 0.24965 20.5141 0.852357 20.9962C8.85532 25.5707 17.9123 27.9803 27.1304 27.9876C33.9991 27.8951 40.7883 26.5045 47.1403 23.8892C48.1046 23.407 48.9484 24.4919 47.9841 25.2152ZM50.3949 22.4427C49.6717 21.4784 45.4527 21.9606 43.6446 22.2016C41.8365 22.4427 42.9214 21.7195 43.4035 21.3578C46.7787 19.0676 52.2031 19.7908 52.8058 20.5141C53.4085 21.2373 52.6852 26.7822 49.5511 29.4341C49.069 29.7957 48.5868 29.5547 48.8279 29.0725C49.069 28.5903 51.1182 23.407 50.3949 22.4427Z" fill="black"/>
</svg>
