<svg width="22" height="45" viewBox="0 0 22 45" fill="none" xmlns="http://www.w3.org/2000/svg">
<path d="M10.5435 0C12.1921 1.59016 13.5363 3.39077 14.8983 5.22581C15.2385 5.6822 15.2385 5.6822 15.5856 6.14781C19.5633 11.674 22.074 17.8056 21.2076 24.7177C20.2745 30.2133 17.1048 35.581 12.866 39.1935C12.6744 39.2894 12.4828 39.3852 12.2854 39.4839C12.1541 40.2511 12.0542 40.9973 11.9769 41.7702C11.7361 44.0349 11.7361 44.0349 11.4144 45C10.9354 45 10.4564 45 9.96282 45C9.92764 44.7511 9.89246 44.5023 9.85622 44.2458C9.7084 43.2373 9.54726 42.2317 9.38217 41.2258C9.3223 40.8546 9.26242 40.4833 9.20072 40.1008C8.70564 38.9756 8.06027 38.4857 7.12083 37.7193C3.91689 34.9342 1.76744 30.7534 0.672498 26.7097C0.568832 26.3482 0.465167 25.9866 0.35836 25.6142C0.0370893 24.3065 -0.00842454 23.0437 0.00112674 21.7016C0.00276405 21.4588 0.00440137 21.216 0.0060883 20.9659C0.0444113 19.0012 0.310224 17.2485 0.96282 15.3871C1.07958 15.0484 1.19635 14.7097 1.31665 14.3608C2.6806 10.61 4.67738 7.30598 7.26713 4.27319C8.42314 2.89783 9.47666 1.4451 10.5435 0Z" fill="black"/>
<path d="M10.5436 15.9678C10.6394 15.9678 10.7352 15.9678 10.8339 15.9678C11.1854 21.3036 11.4743 26.6429 11.6418 31.9878C11.6597 32.5334 11.6796 33.079 11.7015 33.6244C11.7319 34.392 11.7546 35.1595 11.7752 35.9275C11.7857 36.1575 11.7962 36.3875 11.807 36.6244C11.8193 37.2657 11.8193 37.2657 11.7049 38.3226C11.1199 38.9078 11.1199 38.9078 10.5436 39.1936C10.1126 38.8875 10.1126 38.8875 9.67263 38.3226C9.57801 37.3937 9.57801 37.3937 9.60119 36.2518C9.60464 36.0464 9.60809 35.8409 9.61164 35.6293C9.65516 33.5551 9.77206 31.4842 9.90428 29.4141C9.97433 28.3151 10.0396 27.2159 10.1047 26.1166C10.1177 25.8975 10.1308 25.6784 10.1442 25.4527C10.3288 22.2933 10.4399 19.1307 10.5436 15.9678Z" fill="white"/>
<path d="M10.5434 15.9678C10.6392 15.9678 10.735 15.9678 10.8337 15.9678C11.0069 19.3232 11.1546 22.6781 11.1785 26.0383C11.1841 26.4205 11.1841 26.4205 11.1898 26.8103C11.1902 27.0477 11.1905 27.2851 11.1909 27.5296C11.1921 27.7365 11.1933 27.9433 11.1945 28.1564C11.1125 28.8377 10.8797 29.3098 10.5434 29.9033C10.4476 29.9033 10.3518 29.9033 10.2531 29.9033C10.2111 25.2503 10.334 20.616 10.5434 15.9678Z" fill="white"/>
<path d="M10.2532 24.9678C10.5406 25.0636 10.828 25.1594 11.1241 25.2581C11.1399 25.8145 11.1511 26.3709 11.1604 26.9275C11.1672 27.2373 11.1739 27.5472 11.1808 27.8665C11.1256 28.7201 10.9867 29.1843 10.5435 29.9033C10.4477 29.9033 10.3519 29.9033 10.2532 29.9033C10.2532 28.2745 10.2532 26.6458 10.2532 24.9678Z" fill="white"/>
<path d="M10.8338 22.6453C10.9296 22.6453 11.0254 22.6453 11.1241 22.6453C11.1241 23.5075 11.1241 24.3698 11.1241 25.2582C10.8367 25.1624 10.5493 25.0666 10.2532 24.9678C10.5072 22.9719 10.5072 22.9719 10.8338 22.6453Z" fill="white"/>
</svg>
