<svg width="44" height="45" viewBox="0 0 44 45" fill="none" xmlns="http://www.w3.org/2000/svg">
<path d="M30.1494 2.52424C32.8154 4.44589 34.8103 6.79614 36.0814 9.83924C36.0814 9.98565 36.0814 10.1321 36.0814 10.2829C35.8939 10.2886 35.7063 10.2943 35.513 10.3002C33.6776 10.392 32.2709 10.5458 30.9396 11.8747C30.1559 13.0906 30.3576 14.6555 30.5358 16.0503C31.0912 18.4076 32.2993 20.573 33.4195 22.705C33.4912 22.8435 33.5629 22.982 33.6368 23.1247C34.4472 24.7247 34.4472 24.7247 35.461 26.1962C35.8596 26.6979 35.8596 26.6979 35.8596 27.1415C35.6492 27.2376 35.4387 27.3337 35.2219 27.4327C34.4842 27.7611 34.4842 27.7611 34.085 28.4725C33.9762 29.1374 33.9762 29.1374 33.9273 29.9031C33.9033 30.1941 33.8793 30.4852 33.8546 30.7851C33.8426 30.9394 33.8305 31.0937 33.818 31.2526C33.624 33.6911 33.3873 36.121 33.0036 38.5378C32.9732 38.7453 32.9428 38.9528 32.9115 39.1666C32.6322 40.8288 32.0829 42.5974 30.7992 43.7645C29.0176 44.9173 27.3207 45.1858 25.2121 44.8875C24.1635 44.4366 23.6332 43.6312 23.1463 42.6276C22.3172 40.1934 22.3274 37.5588 22.2841 35.0146C22.2789 34.7331 22.2789 34.7331 22.2735 34.4459C22.2561 33.4891 22.2441 32.5326 22.2407 31.5756C22.2359 31.2165 22.2311 30.8575 22.2261 30.4984C22.2272 30.3331 22.2284 30.1678 22.2295 29.9975C22.2088 28.9098 21.9957 28.348 21.2192 27.5852C20.7578 27.3198 20.7578 27.3198 20.2765 27.1831C20.002 27.0962 19.7274 27.0093 19.4446 26.9197C19.6054 25.8252 20.0201 24.8481 20.429 23.828C20.6346 23.3111 20.8395 22.7939 21.0409 22.2753C21.1856 21.9041 21.3351 21.5348 21.4861 21.1661C21.7393 20.193 21.7383 19.2564 21.7322 18.2547C21.7313 18.0484 21.7303 17.842 21.7294 17.6295C21.6958 15.5715 21.599 13.1832 20.1101 11.6138C18.8736 10.7044 17.6196 10.5012 16.1173 10.7265C15.3982 10.9358 14.7024 11.1737 14.003 11.4414C13.4554 11.6138 13.4554 11.6138 13.0117 11.392C13.2872 7.47933 14.5397 4.43924 17.547 1.82584C21.0639 -0.755373 26.7284 0.3456 30.1494 2.52424Z" fill="black"/>
<path d="M8.67228 0.647315C8.90304 0.64803 9.1338 0.648745 9.37155 0.649481C11.4782 0.686916 13.4307 1.06003 15.4518 1.63166C15.1378 2.31647 14.7515 2.85697 14.2872 3.44785C13.5747 4.45334 13.1276 5.45554 12.7206 6.60884C12.64 6.83475 12.64 6.83475 12.5579 7.06522C11.8232 9.25507 11.6133 11.4117 11.6219 13.7115C11.6214 13.9659 11.621 14.2202 11.6206 14.4823C11.6203 15.0156 11.6211 15.5489 11.6229 16.0822C11.6253 16.8975 11.6229 17.7127 11.6201 18.528C11.6204 19.0483 11.621 19.5687 11.6219 20.089C11.621 20.3316 11.6201 20.5743 11.6191 20.8243C11.6294 22.4906 11.8216 23.693 12.8038 25.0757C13.2007 25.6377 13.4578 26.0397 13.6772 26.6978C13.4528 27.0418 13.4528 27.0418 13.081 27.4326C12.5227 28.0361 11.9744 28.6437 11.4434 29.2713C11.3249 29.4113 11.2064 29.5514 11.0844 29.6956C10.8458 29.9782 10.6075 30.261 10.3696 30.544C9.34566 31.7485 9.34566 31.7485 8.31182 31.9107C7.30377 31.7785 6.98808 31.5579 6.31973 30.8232C5.50682 29.6706 4.92604 28.3865 4.33339 27.1104C4.1571 26.7367 3.96919 26.3685 3.78002 26.0011C2.2758 22.8907 1.67193 19.1169 0.866843 15.773C0.820109 15.5802 0.773375 15.3875 0.725225 15.1889C-0.129895 11.5905 -0.550893 7.33677 1.32609 3.99374C3.12287 1.3722 5.61817 0.617721 8.67228 0.647315Z" fill="black"/>
<path d="M29.205 0.0789676C30.1847 0.0528376 31.1642 0.0373132 32.1441 0.0235115C32.4181 0.0160769 32.692 0.00864235 32.9743 0.000982481C34.8445 -0.0187047 36.3491 0.255915 38.0779 0.966264C38.2448 1.03309 38.4116 1.09991 38.5836 1.16875C40.3502 1.91022 41.8394 3.43697 42.9581 4.9591C43.8266 7.56456 43.1322 11.0937 42.2276 13.5981C42.0437 14.1054 42.0437 14.1054 41.8906 14.858C41.5384 16.3411 40.8812 17.752 40.2962 19.1559C40.1978 19.3963 40.0995 19.6368 39.9981 19.8846C39.5212 20.9912 38.9547 22.0536 38.3968 23.121C38.2323 23.4409 38.2323 23.4409 38.0645 23.7674C37.9589 23.9698 37.8532 24.1723 37.7443 24.3809C37.6008 24.657 37.6008 24.657 37.4544 24.9388C37.1907 25.3669 37.1907 25.3669 36.747 25.5888C36.8159 25.2698 36.8853 24.9509 36.955 24.6321C36.9936 24.4546 37.0322 24.277 37.0719 24.094C37.1907 23.5923 37.1907 23.5923 37.4125 22.9269C37.4288 22.2979 37.4328 21.6745 37.4263 21.0457C37.4255 20.8581 37.4247 20.6705 37.4238 20.4772C37.4202 19.6768 37.414 18.8764 37.4079 18.076C37.4038 17.49 37.4008 16.9041 37.3986 16.3181C37.3973 16.0301 37.3973 16.0301 37.3959 15.7364C37.396 14.2339 37.4878 12.7522 37.6305 11.2569C37.6371 9.96203 37.1411 8.95684 36.5252 7.84282C36.3763 7.5563 36.3763 7.5563 36.2245 7.26399C34.5496 4.24253 32.0347 2.05399 28.9832 0.522616C29.0564 0.376212 29.1296 0.229808 29.205 0.0789676Z" fill="black"/>
<path d="M18.7791 12.0574C19.7141 12.7357 19.924 13.3375 20.1793 14.442C20.7159 18.2712 20.1519 21.4728 18.5685 25.0073C18.3421 25.5721 18.2122 26.0987 18.1136 26.6978C16.7887 26.8669 16.0965 26.5243 15.0254 25.7447C13.8817 24.8073 13.0949 23.7363 12.7898 22.2613C12.7076 21.2245 12.7497 20.1936 12.7898 19.1558C12.798 18.923 12.8061 18.6903 12.8145 18.4504C12.8737 16.7628 12.9401 15.0755 13.0116 13.3884C13.3672 13.2076 13.7231 13.0275 14.0792 12.8477C14.2773 12.7473 14.4755 12.6469 14.6797 12.5435C16.0057 11.9066 17.3322 11.8759 18.7791 12.0574Z" fill="black"/>
<path d="M36.3032 11.6139C36.3093 11.9281 36.3135 12.2424 36.3171 12.5567C36.3197 12.7317 36.3222 12.9067 36.3249 13.087C36.3032 13.6103 36.3032 13.6103 36.1932 14.0193C35.8569 15.4583 35.9728 17.2789 36.1923 18.74C36.4237 20.5329 36.4962 22.3252 35.8596 24.0361C35.7132 24.0361 35.5668 24.0361 35.4159 24.0361C34.5221 22.2693 33.6342 20.4995 32.7818 18.7123C32.5973 18.328 32.5973 18.328 32.4092 17.9359C31.7308 16.2931 31.2233 14.466 31.8945 12.7508C33.1147 11.3679 34.5946 11.5393 36.3032 11.6139Z" fill="black"/>
<path d="M19.4445 28.4724C20.4982 28.6388 20.4982 28.6388 20.9973 29.1379C21.0119 29.8995 20.9631 30.4501 20.4835 31.065C19.309 32.155 18.0027 32.6201 16.4222 32.7564C15.6039 32.6806 14.8938 32.5217 14.1207 32.2434C14.0475 32.097 13.9743 31.9506 13.8989 31.7998C14.0917 31.746 14.2844 31.6923 14.4829 31.6369C16.6932 30.9941 18.0179 30.2733 19.4445 28.4724Z" fill="black"/>
<path d="M37.7866 28.572C39.4118 28.8423 41.0934 28.7246 42.736 28.6942C41.6766 29.8456 40.4791 30.3795 38.9087 30.5105C37.7423 30.5571 36.5806 30.5449 35.4158 30.4688C35.194 30.247 35.194 30.247 35.1108 29.6092C35.194 28.916 35.194 28.916 35.6099 28.4724C36.4737 28.196 36.924 28.3577 37.7866 28.572Z" fill="black"/>
<path d="M16.7828 12.7228C18.4482 12.6409 18.4482 12.6409 19.0011 13.0556C19.1109 13.2203 19.1109 13.2203 19.2229 13.3883C18.807 14.2479 18.807 14.2479 18.5574 14.4974C17.8149 14.5978 17.5333 14.5601 16.9215 14.1092C16.561 13.6101 16.561 13.6101 16.6164 13.111C16.6713 12.9829 16.7262 12.8548 16.7828 12.7228Z" fill="#EBEFF3"/>
<path d="M33.4344 12.4795C33.7084 12.4834 33.7084 12.4834 33.988 12.4873C34.1713 12.4893 34.3546 12.4913 34.5435 12.4934C34.685 12.4959 34.8266 12.4985 34.9724 12.5012C34.9724 12.794 34.9724 13.0868 34.9724 13.3885C34.4018 13.7477 34.1568 13.8419 33.4751 13.7489C33.3104 13.7032 33.1457 13.6574 32.976 13.6103C32.8512 13.1805 32.8512 13.1805 32.7542 12.723C32.976 12.5012 32.976 12.5012 33.4344 12.4795Z" fill="#F4F7F9"/>
<path d="M17.8918 12.0574C18.6376 12.1195 18.9484 12.2296 19.5001 12.7506C19.9522 13.4933 20.0426 14.081 20.1101 14.9411C19.9591 14.7283 19.9591 14.7283 19.8051 14.5113C19.4803 14.0323 19.4803 14.0323 19.001 13.832C18.6515 13.2495 18.5573 12.9733 18.5573 12.2792C18.3377 12.206 18.1181 12.1328 17.8918 12.0574Z" fill="black"/>
<path d="M36.3031 11.6138C36.3031 11.687 36.3031 11.7602 36.3031 11.8356C35.5711 11.9088 34.8391 11.982 34.0849 12.0575C34.2313 12.2039 34.3777 12.3503 34.5285 12.5011C33.1855 12.7177 33.1855 12.7177 32.754 12.7229C32.6075 12.5765 32.4611 12.4301 32.3103 12.2793C33.5801 11.4327 34.8164 11.5489 36.3031 11.6138Z" fill="black"/>
<path d="M29.205 0.0788574C29.937 0.0788574 30.669 0.0788574 31.4232 0.0788574C30.984 0.298463 30.984 0.298463 30.5359 0.522506C30.4627 0.66891 30.3895 0.815314 30.3141 0.966154C29.8749 0.81975 29.4357 0.673346 28.9832 0.522506C29.0564 0.376102 29.1296 0.229698 29.205 0.0788574Z" fill="black"/>
<path d="M37.4123 22.9268C37.6583 23.6649 37.6412 24.1791 37.4123 24.9232C37.1979 25.1522 36.9768 25.3753 36.7468 25.5886C36.8157 25.2697 36.8851 24.9508 36.9548 24.632C36.9934 24.4545 37.032 24.2769 37.0718 24.0939C37.1905 23.5922 37.1905 23.5922 37.4123 22.9268Z" fill="black"/>
</svg>
