<svg width="50" height="41" viewBox="0 0 50 41" fill="none" xmlns="http://www.w3.org/2000/svg">
<path d="M33.2522 11.0974L37.5985 6.75107L37.8881 4.921C29.968 -2.28075 17.378 -1.46415 10.2383 6.6249C8.25513 8.87158 6.78384 11.6725 5.99927 14.5649L7.55591 14.3456L16.2483 12.9122L16.9194 12.2259C20.786 7.97939 27.3237 7.4081 31.7881 11.0212L33.2522 11.0974Z" fill="black"/>
<path d="M43.7899 14.4371C42.7909 10.7582 40.7399 7.45102 37.8882 4.92114L31.7882 11.0211C34.364 13.1258 35.8313 16.2965 35.7685 19.6221V20.7049C38.7667 20.7049 41.1976 23.1356 41.1976 26.1338C41.1976 29.1322 38.7667 31.502 35.7685 31.502H24.8952L23.8276 32.6609V39.1726L24.8952 40.1943H35.7685C43.5673 40.2551 49.9388 34.0432 49.9995 26.2443C50.0362 21.5172 47.7056 17.0856 43.7899 14.4371Z" fill="black"/>
<path d="M14.0373 40.1944H24.8953V31.5018H14.0373C13.2636 31.5016 12.5144 31.3354 11.8109 31.0139L10.2705 31.4866L5.8937 35.8329L5.51245 37.3121C7.96694 39.1655 10.9617 40.2077 14.0373 40.1944Z" fill="black"/>
<path d="M14.0372 11.9972C6.23814 12.0436 -0.0462281 18.4038 0.000256223 26.2026C0.0262328 30.5577 2.06022 34.6573 5.51236 37.3122L11.8108 31.0139C9.07818 29.7794 7.86393 26.5635 9.0985 23.8311C10.3329 21.0987 13.5489 19.8845 16.2811 21.1188C17.4852 21.6628 18.4495 22.6272 18.9934 23.8311L25.2918 17.5329C22.612 14.0296 18.4479 11.9813 14.0372 11.9972Z" fill="black"/>
</svg>
