<svg width="36" height="45" viewBox="0 0 36 45" fill="none" xmlns="http://www.w3.org/2000/svg">
<path d="M18.733 0C19.7215 0.96521 20.643 1.97077 21.5381 3.02348C21.7455 3.26649 21.7455 3.26649 21.9571 3.51441C23.5243 5.35766 25.061 7.22588 26.5922 9.09906C27.0578 9.6671 27.5259 10.233 27.9945 10.7985C32.7276 16.5298 36.3173 21.8587 35.6645 29.5629C35.0429 34.1726 32.6649 38.1372 29.122 41.1341C25.1141 44.0693 20.4625 45.427 15.508 44.8819C10.5907 44.1164 6.4383 41.5428 3.41403 37.6256C0.454452 33.3438 -0.578654 28.3793 0.305908 23.2397C0.750414 21.3491 1.36838 19.5286 2.60777 18.0065C3.70608 17.5832 4.93335 17.6977 6.10157 17.7042C6.28934 17.7031 6.47712 17.7021 6.67058 17.701C7.67936 17.7029 8.61483 17.7652 9.59538 18.0065C9.5732 17.6961 9.55103 17.3857 9.52819 17.0659C9.55941 12.0707 12.1098 7.23331 15.2392 3.4938C15.409 3.28663 15.5787 3.07946 15.7536 2.86601C16.6654 1.78557 17.6188 0.869593 18.733 0Z" fill="black"/>
<path d="M4.90047 17.6737C9.20289 17.5932 12.6646 18.7223 15.8606 21.7186C18.5755 24.6005 19.6328 28.0249 19.599 31.9218C19.4437 34.1697 18.6665 36.318 17.9266 38.4318C19.6683 40.2135 21.7493 41.3183 23.9246 42.4786C24.3568 42.7207 24.7708 42.9945 25.183 43.2693C21.1324 45.2849 16.7203 45.4486 12.4172 44.1449C7.73474 42.4621 4.09038 39.3729 1.8014 34.938C-0.320525 30.3381 -0.520711 25.2843 1.13372 20.4998C1.55308 19.5739 1.96489 18.7959 2.60766 18.0065C3.38118 17.7164 4.07386 17.7294 4.90047 17.6737Z" fill="black"/>
<path d="M9.32647 18.0066C13.1573 19.1791 16.1259 21.3484 18.1187 24.8451C20.2195 29.0212 19.692 33.1256 18.2793 37.4241C18.1629 37.7567 18.0465 38.0892 17.9266 38.4319C19.6683 40.2137 21.7493 41.3184 23.9246 42.4788C24.3568 42.7208 24.7708 42.9947 25.183 43.2695C20.7117 45.4943 16.1317 45.3248 11.4765 43.807C12.1013 43.1316 12.7727 42.6612 13.5426 42.1609C14.9651 41.1853 16.0376 40.0344 17.1203 38.7007C16.6926 37.6994 16.058 36.9927 15.3398 36.1811C11.0055 31.0987 9.00974 24.6463 9.32647 18.0066Z" fill="black"/>
</svg>
