<svg width="53" height="41" viewBox="0 0 53 41" fill="none" xmlns="http://www.w3.org/2000/svg">
<path d="M24.5218 38.8084L37.0179 36.6018L37.1336 36.5757L30.7064 28.9385C28.551 26.3915 26.4073 23.8346 24.2755 21.2678C24.2755 21.2305 30.9154 2.97064 30.9527 2.90727C34.6264 9.18785 38.2767 15.482 41.9036 21.7896L52.9142 40.8546L53 41L12.1377 40.9963L24.5218 38.8084ZM0 36.4825C0 36.4714 3.02697 31.2196 6.72951 24.8125L13.4627 13.1573L21.3082 6.58236C25.6229 2.97064 29.1649 0 29.1761 0C29.1483 0.110273 29.1069 0.216687 29.053 0.316818L20.5282 18.5655L12.1676 36.4863L6.0838 36.4937C2.73584 36.4975 0 36.4937 0 36.4825Z" fill="black"/>
</svg>
