<svg width="45" height="40" viewBox="0 0 45 40" fill="none" xmlns="http://www.w3.org/2000/svg">
<path d="M19.968 29.2985C20.7932 29.3359 21.6365 29.3629 22.4902 29.3629C23.353 29.3629 24.2053 29.3449 25.041 29.2985C24.2053 30.3766 23.38 31.3304 22.5068 32.2393L22.5188 32.2273C21.65 31.3289 20.8157 30.3736 20.0295 29.3793L19.968 29.2985ZM11.4184 28.1006C13.0434 28.5124 15.0255 28.8628 17.0481 29.0784L17.2447 29.0949C18.4825 30.7913 19.7339 32.2842 21.0768 33.6887L21.0603 33.6707C19.0932 35.8613 16.4389 37.4006 13.4365 37.9531L13.354 37.9651C13.348 37.9651 13.342 37.9651 13.336 37.9651C12.9639 37.9651 12.6128 37.8738 12.3052 37.7121L12.3172 37.718C11.0688 37.0068 10.5272 34.2861 10.9488 30.7898C11.0493 29.9289 11.2144 29.023 11.4169 28.0991L11.4184 28.1006ZM33.5996 28.0812C33.7766 28.7909 33.9432 29.6953 34.0617 30.6147L34.0752 30.7434C34.5059 34.2382 33.9747 36.9559 32.7368 37.6821C32.4607 37.8348 32.1306 37.9247 31.7795 37.9247C31.745 37.9247 31.7105 37.9232 31.676 37.9217H31.6805C28.6001 37.3602 25.9473 35.8314 23.9847 33.6677L23.9742 33.6558C25.2931 32.2737 26.5355 30.7839 27.6743 29.2161L27.7613 29.0904C29.976 28.8598 31.9611 28.5034 33.8952 28.0168L33.5996 28.0797V28.0812ZM13.1725 22.4931C13.5476 23.2268 13.9407 23.9575 14.3728 24.6912C14.8039 25.4209 15.2446 26.1336 15.6947 26.8294C14.3923 26.6392 13.1349 26.3996 11.9331 26.1077C12.2707 24.9293 12.6938 23.7089 13.171 22.4901L13.1725 22.4931ZM31.82 22.4556C32.3167 23.685 32.7383 24.9113 33.0879 26.1002C31.8876 26.3937 30.6197 26.6422 29.3083 26.8294C29.7584 26.1271 30.2086 25.4039 30.6302 24.6627C31.0518 23.9335 31.4464 23.1878 31.823 22.4541L31.82 22.4556ZM9.92398 14.4464C10.5782 16.6594 11.2804 18.5101 12.0981 20.295L11.9856 20.0225C11.2864 21.5273 10.5947 23.3675 10.0275 25.2617L9.94948 25.5686C8.89017 25.2437 8.03791 24.9248 7.20816 24.5669L7.38071 24.6328C4.13374 23.2537 2.03311 21.4404 2.03311 20.003C2.03311 18.5655 4.13374 16.7433 7.38071 15.3702C8.16845 15.0333 9.03271 14.7294 9.92398 14.4464ZM35.04 14.4389C35.9478 14.7189 36.8105 15.0318 37.6178 15.3702C40.8648 16.7553 42.9654 18.5655 42.9654 20.003C42.9564 21.4404 40.8558 23.2582 37.6088 24.6343C36.821 24.9712 35.9583 25.2736 35.0685 25.5566C34.4083 23.3361 33.7061 21.4869 32.8914 19.699L33.0054 19.9805C33.7016 18.4772 34.3948 16.637 34.9605 14.7428L35.04 14.4344V14.4389ZM29.2963 13.1766C30.6002 13.3698 31.8561 13.6063 33.0579 13.9013C32.7203 15.0842 32.2987 16.3001 31.82 17.5189C31.4449 16.7897 31.0518 16.0545 30.6197 15.3223C30.1981 14.5886 29.7479 13.8744 29.2978 13.1781L29.2963 13.1766ZM15.6842 13.1766C15.2341 13.8819 14.7839 14.6036 14.3638 15.3478C13.9422 16.077 13.5476 16.8107 13.1725 17.5444C12.6758 16.3165 12.2542 15.0932 11.9046 13.9013C13.1049 13.6213 14.3698 13.3713 15.6827 13.1796L15.6842 13.1766ZM22.4992 12.7005C23.8872 12.7005 25.2691 12.7633 26.6285 12.8741C27.3897 13.9632 28.1289 15.1232 28.8462 16.354C29.5434 17.5518 30.1796 18.7657 30.7547 19.9955C30.1771 21.2218 29.5439 22.4467 28.8552 23.6445C28.1424 24.8798 27.4057 26.0552 26.642 27.1438C25.2766 27.2621 23.8932 27.3265 22.4977 27.3265C21.1098 27.3265 19.7279 27.2606 18.3685 27.1528C17.6078 26.0642 16.8651 24.8993 16.1508 23.673C15.4536 22.4751 14.8174 21.2613 14.2423 20.0314C14.8109 18.8021 15.4531 17.5743 16.1418 16.3749C16.8546 15.1396 17.5913 13.9687 18.355 12.8801C19.7204 12.7604 21.1038 12.6975 22.4992 12.6975V12.7005ZM22.4707 7.78768C23.341 8.68608 24.1753 9.63989 24.96 10.6341L25.02 10.7135C24.1948 10.676 23.3515 10.6506 22.4977 10.6506C21.635 10.6506 20.7827 10.6686 19.947 10.7135C20.7812 9.6354 21.6065 8.68159 22.4812 7.7727L22.4692 7.78468L22.4707 7.78768ZM13.3165 2.07981C16.3969 2.64281 19.0482 4.1716 21.0123 6.33376L21.0228 6.34574C19.7039 7.72928 18.4615 9.21914 17.3227 10.7898L17.2357 10.9156C15.0225 11.1447 13.0374 11.4981 11.1048 11.9847L11.3989 11.9218C11.1889 11.0055 11.0328 10.1175 10.9233 9.26555C10.4926 5.77076 11.0238 3.05308 12.2617 2.32986C12.5708 2.18462 12.9324 2.09478 13.3135 2.0828H13.318L13.3165 2.07981ZM31.637 2.04237V2.05435C31.6565 2.05435 31.679 2.05286 31.703 2.05286C32.0616 2.05286 32.3992 2.1412 32.6963 2.29692L32.6843 2.29093C33.9327 3.00517 34.4743 5.72434 34.0527 9.22213C33.9522 10.0831 33.7871 10.9905 33.5846 11.9158C31.9566 11.4996 29.9745 11.1477 27.9519 10.9336L27.7598 10.9171C26.5205 9.21914 25.2691 7.72629 23.9262 6.32028L23.9442 6.33825C25.9113 4.15213 28.5611 2.61286 31.5575 2.05735L31.6415 2.04387L31.637 2.04237ZM31.646 0.00299447C27.9819 0.558508 24.8099 2.33436 22.4932 4.89631L22.4812 4.90978C20.148 2.34933 16.9761 0.585461 13.402 0.0509095L13.318 0.0404282C13.2985 0.0404282 13.2745 0.0404282 13.2505 0.0404282C12.5138 0.0404282 11.822 0.233585 11.2234 0.571985L11.2444 0.561503C8.6666 2.04537 8.08893 6.66916 9.41983 12.4714C3.71211 14.2307 0 17.0427 0 20.006C0 22.9812 3.73162 25.8007 9.45584 27.5466C8.13544 33.3713 8.72512 38.0025 11.3089 39.4849C11.8761 39.8098 12.5573 40 13.282 40C13.315 40 13.348 40 13.3795 39.9985H13.375C17.0391 39.443 20.2111 37.6656 22.5278 35.1022L22.5398 35.0887C24.873 37.6507 28.0449 39.4145 31.619 39.9491L31.703 39.9596C31.7255 39.9596 31.754 39.9596 31.781 39.9596C32.5133 39.9596 33.202 39.7679 33.7976 39.434L33.7766 39.4445C36.3529 37.9621 36.9321 33.3383 35.6012 27.5346C41.2879 25.7902 45 22.9722 45 20.0045C45 17.0293 41.2684 14.2098 35.5442 12.4594C36.8646 6.64071 36.2749 2.00494 33.6911 0.521075C33.1179 0.193157 32.4307 0 31.6985 0C31.679 0 31.6595 0 31.64 0H31.643L31.646 0.00299447ZM26.681 20.006C26.681 22.3164 24.8039 24.1896 22.4887 24.1896C20.1736 24.1896 18.2965 22.3164 18.2965 20.006C18.2965 17.6956 20.1736 15.8224 22.4887 15.8224C23.6471 15.8224 24.6944 16.2911 25.4536 17.0472C26.2129 17.8049 26.681 18.85 26.681 20.006Z" fill="black"/>
</svg>
