<svg width="53" height="38" viewBox="0 0 53 38" fill="none" xmlns="http://www.w3.org/2000/svg">
<path d="M52.4744 14.3373C51.3897 13.6233 50.0572 13.1974 48.6257 13.1974C48.4611 13.1974 48.2983 13.2027 48.1373 13.2133L48.1585 13.2116C47.3693 13.2133 46.5977 13.284 45.8474 13.4148L45.9288 13.4024C45.513 11.0043 44.1151 8.99326 42.1738 7.76329L42.1402 7.74385L41.3811 7.30558L40.8821 8.0266C40.2875 8.9314 39.8221 9.98465 39.5443 11.1104L39.5301 11.1793C39.3726 11.7518 39.2824 12.4092 39.2824 13.0878C39.2824 14.5564 39.7071 15.9242 40.4397 17.0782L40.422 17.0481C39.2948 17.5765 37.9782 17.9105 36.5927 17.9741H36.5697H1.65807C0.744984 17.9759 0.00530875 18.7128 0.00176964 19.6229C8.26074e-08 19.7219 0 19.8403 0 19.9587C0 23.0531 0.56095 26.0166 1.58729 28.754L1.53067 28.5808C2.51808 31.4667 4.38319 33.8383 6.80395 35.4393L6.85349 35.4694C9.9396 37.0652 13.592 38 17.462 38C17.8283 38 18.191 37.9912 18.5538 37.9753L18.5025 37.977C18.5343 37.977 18.5715 37.977 18.6087 37.977C20.8595 37.977 23.0591 37.7632 25.1914 37.355L24.9738 37.3903C28.1501 36.7965 30.9814 35.7309 33.5473 34.2571L33.4163 34.326C35.6406 33.0271 37.5411 31.4614 39.1585 29.6394L39.1798 29.6147C41.5244 26.8578 43.432 23.6398 44.745 20.1337L44.8176 19.9128H45.306C45.4033 19.9163 45.5165 19.9198 45.6298 19.9198C47.7993 19.9198 49.7706 19.0698 51.2269 17.6843L51.2234 17.6879C51.8905 17.0552 52.4196 16.2865 52.7682 15.4241L52.7841 15.3817L53 14.7472L52.4744 14.3373ZM4.89282 16.9562H9.57507C9.79981 16.9545 9.98207 16.7725 9.98207 16.548V12.3863C9.98207 12.1618 9.79981 11.978 9.57507 11.9763H4.89282C4.66809 11.978 4.48583 12.1601 4.48583 12.3845V16.548C4.48583 16.7725 4.66809 16.9562 4.89282 16.9562ZM11.3411 16.9562H16.0198C16.2445 16.9562 16.4286 16.7742 16.4286 16.548V12.3863C16.4286 12.1618 16.2463 11.978 16.0216 11.9763H11.3393C11.1128 11.9763 10.9288 12.1601 10.9288 12.3863V16.548C10.9306 16.7742 11.1146 16.9562 11.3411 16.9562ZM17.8849 16.9562H22.5672C22.7919 16.9545 22.9742 16.7725 22.9742 16.548V12.3863C22.9742 12.1618 22.7919 11.978 22.5672 11.9763H17.8849C17.6602 11.978 17.4779 12.1601 17.4779 12.3845V16.548C17.4779 16.7725 17.6602 16.9562 17.8867 16.9562H17.8849ZM24.3544 16.9562H29.0314C29.2579 16.9562 29.4401 16.7742 29.4419 16.548V12.3863C29.4419 12.1601 29.2579 11.9763 29.0314 11.9763H24.3544C24.1297 11.9763 23.9456 12.1583 23.9456 12.3845V16.548C23.9456 16.7725 24.1279 16.9562 24.3526 16.9562C24.3526 16.9562 24.3526 16.9562 24.3544 16.9562ZM11.3411 10.969H16.0198C16.2463 10.9672 16.4286 10.7852 16.4286 10.559V6.39725C16.4286 6.17281 16.2463 5.98902 16.0198 5.98902H11.3411C11.1146 5.98902 10.9323 6.17104 10.9306 6.39725V10.559C10.9323 10.7852 11.1146 10.9672 11.3411 10.969ZM17.8849 10.969H22.5672C22.7919 10.9672 22.9742 10.7834 22.9742 10.559V6.39725C22.9742 6.17281 22.7919 5.98902 22.5654 5.98902H17.8885C17.6637 5.98902 17.4797 6.17104 17.4797 6.39725V10.559C17.4815 10.7852 17.6619 10.9672 17.8885 10.969H17.8849ZM24.3544 10.969H29.0314C29.2579 10.9672 29.4401 10.7852 29.4419 10.559V6.39725C29.4401 6.17104 29.2579 5.98902 29.0314 5.98902H24.3544C24.1297 5.98902 23.9456 6.17104 23.9456 6.39725V10.559C23.9456 10.7852 24.1279 10.9672 24.3544 10.969ZM24.3544 4.98172H29.0314C29.2579 4.98172 29.4419 4.79793 29.4419 4.57173V0.408222C29.4401 0.182021 29.2579 0 29.0314 0H24.3544C24.1297 0 23.9456 0.182021 23.9456 0.408222V4.57173C23.9456 4.79617 24.1279 4.97996 24.3526 4.97996C24.3526 4.97996 24.3526 4.97996 24.3544 4.97996V4.98172ZM30.8788 16.9562H35.5575C35.784 16.9562 35.9662 16.7742 35.968 16.548V12.3863C35.968 12.1601 35.784 11.9763 35.5575 11.9763H30.8788C30.6523 11.9763 30.47 12.1583 30.47 12.3845V16.548C30.47 16.7725 30.6523 16.9562 30.8788 16.9562Z" fill="black"/>
</svg>
