<svg width="53" height="28" viewBox="0 0 53 28" fill="none" xmlns="http://www.w3.org/2000/svg">
<path d="M42.5485 12.1442C42.5219 12.1442 42.4919 12.1421 42.4619 12.1421C42.3081 12.1421 42.1544 12.1525 42.0059 12.1752L42.0236 12.1731C41.8928 12.1814 41.7832 12.2846 41.7443 12.4229L40.9986 15.4553C40.8784 15.8413 40.8077 16.2852 40.8077 16.7496C40.8077 17.5299 41.0056 18.2586 41.3467 18.8676L41.3396 18.8531C41.8857 19.6727 42.7287 20.1929 43.6777 20.1929C43.6813 20.1929 43.6848 20.1929 43.6866 20.1929L47.7583 20.486C47.7601 20.486 47.7636 20.486 47.7654 20.486C47.8838 20.486 47.9898 20.5582 48.0499 20.6656V20.6677C48.0888 20.744 48.1118 20.8369 48.1118 20.9339C48.1118 20.9814 48.1065 21.0289 48.0959 21.0743V21.0702C48.0252 21.2911 47.852 21.45 47.647 21.4707H47.6452L43.402 21.7597C40.8448 22.0879 38.7294 24.0077 37.7822 26.6438L37.7645 26.6974L37.4534 27.6222C37.4428 27.6532 37.4358 27.6883 37.4358 27.7254C37.4358 27.8699 37.5365 27.9876 37.6602 27.9876C37.6638 27.9876 37.6673 27.9876 37.6708 27.9876H52.2401C52.2418 27.9876 52.2436 27.9876 52.2436 27.9876C52.4186 27.9876 52.5653 27.8514 52.6112 27.6656V27.6615C52.8551 26.6727 52.9965 25.5352 53 24.3607V24.3586C52.9841 17.6249 48.3115 12.1731 42.5449 12.1648L42.5485 12.1442ZM36.4603 26.4951C36.5804 26.1112 36.6493 25.6674 36.6493 25.205C36.6493 24.4226 36.4514 23.696 36.1086 23.087L36.1156 23.1014C35.5713 22.2819 34.7283 21.7597 33.7793 21.7597C33.7758 21.7597 33.774 21.7597 33.7705 21.7597L14.647 21.4707C14.6452 21.4707 14.6435 21.4707 14.6417 21.4707C14.5215 21.4707 14.4155 21.3984 14.3537 21.289C14.3148 21.2147 14.29 21.1218 14.29 21.0248C14.29 20.9752 14.2953 20.9277 14.3077 20.8823V20.8865C14.3784 20.6656 14.5498 20.5066 14.7548 20.4839L34.0497 20.1949C36.6069 19.8646 38.7206 17.9449 39.6731 15.3108L39.6908 15.2572L40.7936 11.9006C40.8236 11.8201 40.8413 11.7252 40.8413 11.6261C40.8413 11.5703 40.836 11.5146 40.8254 11.463V11.4671C39.5264 4.85521 34.5322 0 28.5677 0C23.0733 0 18.4042 4.12032 16.697 9.85904L16.6705 9.96225C15.7374 9.1386 14.5587 8.64111 13.2792 8.64111C10.3614 8.64111 7.95972 11.2256 7.66105 14.5429L7.65929 14.5718C7.64161 14.772 7.63101 15.0053 7.63101 15.2406C7.63101 15.8207 7.69286 16.3863 7.80774 16.9251L7.7989 16.8776C3.46559 17.0242 0 21.1631 0 26.2474C0 26.2515 0 26.2557 0 26.2598C0.00353451 26.7428 0.0318105 27.2156 0.0830609 27.678L0.0777593 27.6202C0.107803 27.8349 0.261554 27.9959 0.45065 28H35.7445C35.9566 27.9938 36.1333 27.8287 36.1916 27.6037V27.5995L36.4567 26.4993L36.4603 26.4951Z" fill="black"/>
</svg>
