<svg width="28" height="40" viewBox="0 0 28 40" fill="none" xmlns="http://www.w3.org/2000/svg">
<path d="M20.3056 14.9688C17.5091 14.9688 15.2426 17.2214 15.2426 20.0007C15.2426 22.78 17.5091 25.0325 20.3056 25.0325H20.4693C23.2658 25.0325 25.5323 22.78 25.5323 20.0007C25.5323 17.2214 23.2658 14.9688 20.4693 14.9688H20.3056ZM20.4693 27.4837H20.3056C16.147 27.4837 12.7762 24.1336 12.7762 20.0007C12.7762 15.8677 16.147 12.5176 20.3056 12.5176H20.4693C24.6278 12.5176 27.9987 15.8677 27.9987 20.0007C27.9987 24.1336 24.6278 27.4837 20.4693 27.4837ZM7.54951 27.4837C4.75299 27.4837 2.48519 29.7363 2.48519 32.5156C2.48519 35.2949 4.75165 37.5474 7.54816 37.5474C7.56293 37.5474 7.57903 37.5474 7.59379 37.5474H7.5911C7.59513 37.5474 7.6005 37.5474 7.60587 37.5474C10.452 37.5474 12.7628 35.2616 12.7775 32.4356V27.4837H7.54951ZM7.58976 40C7.57232 40 7.55085 40 7.52938 40C3.37084 40 0 36.6499 0 32.5169C0 28.384 3.37084 25.0338 7.52938 25.0338C7.53609 25.0338 7.5428 25.0338 7.54951 25.0338H15.2426V32.4356C15.2265 36.6165 11.8114 40 7.60318 40C7.59916 40 7.59513 40 7.5911 40H7.58976ZM7.54951 14.9688C4.75299 14.9688 2.48653 17.2214 2.48653 20.0007C2.48653 22.78 4.75299 25.0338 7.54951 25.0338L12.7762 25.0325V14.9702L7.54951 14.9688ZM15.2413 27.4837H7.54951C3.39097 27.4837 0.0201283 24.1336 0.0201283 20.0007C0.0201283 15.8677 3.39097 12.5176 7.54951 12.5176H15.2426V27.4837H15.2413ZM7.54951 2.45391C4.75299 2.45391 2.48653 4.70643 2.48653 7.48575C2.48653 10.2651 4.75299 12.5176 7.54951 12.5176H12.7762V2.45257L7.54951 2.45391ZM15.2413 14.9688H7.54951C3.39097 14.9688 0.0187865 11.6187 0.0187865 7.48441C0.0187865 3.35011 3.38963 0 7.54951 0H15.2426V14.9675L15.2413 14.9688ZM15.2413 12.5176H20.4693C23.2604 12.5109 25.5188 10.2611 25.5188 7.48575C25.5188 4.71043 23.2591 2.46057 20.4679 2.45391H15.2413V12.5176ZM20.4693 14.9688L12.7762 14.9702V0.00133355H20.4693C24.6278 0.00133355 28 3.35145 28 7.48575C28 11.62 24.6292 14.9688 20.4693 14.9688Z" fill="black"/>
</svg>
