<svg width="35" height="35" viewBox="0 0 35 35" fill="none" xmlns="http://www.w3.org/2000/svg">
<path d="M34.93 25.1189C34.8875 24.6528 34.8466 24.2136 34.8764 23.8817C35.1395 20.9492 34.2849 18.3056 32.4054 16.2382C30.2733 13.8927 26.9121 12.4921 23.415 12.4921C18.5454 12.4921 14.4638 15.0436 12.4962 19.3177C12.4915 19.3288 12.4857 19.3398 12.4816 19.3509C12.0295 17.6867 11.5734 16.5317 11.2082 15.6059C10.591 14.0402 10.2597 13.2008 10.5251 11.3598C11.0068 11.3074 11.4585 11.1003 11.8125 10.7695C11.8738 10.7736 11.9374 10.7765 12.0015 10.7765C12.6636 10.7765 13.2376 10.5257 13.6524 10.0788L13.7037 10.0794C14.528 10.0794 15.2297 9.723 15.697 9.09417C16.8368 8.9985 17.6243 8.31133 17.78 7.25258C17.99 5.83158 17.493 1.85442 16.4191 0.602583C15.9933 0.105 15.5231 0 15.2046 0C13.3875 0 10.5455 0.419417 8.13288 1.043C3.73571 2.17933 3.04854 3.32675 2.93946 4.2C2.49321 7.80325 1.83171 11.0174 1.24721 13.8536C0.418876 17.8716 -0.23504 21.0455 0.0811263 23.541C0.20421 24.5146 0.449793 25.3499 0.686626 26.1567C0.98296 27.1635 1.28804 28.2047 1.39129 29.6287C1.53304 31.6079 3.67038 32.7431 7.25554 32.7431C8.66079 32.7431 10.094 32.5599 11.27 32.2338C12.712 32.9245 17.4703 35 22.5523 35C24.3 35 25.928 34.7503 27.3934 34.258C34.891 31.7345 35.2275 28.3593 34.93 25.1189ZM1.23904 23.3934C0.733876 19.4075 3.02813 12.9821 4.09796 4.34525C4.27938 2.884 10.9305 1.3545 14.5892 1.18942C14.4405 1.309 14.3337 1.46592 14.3197 1.63275C14.7584 1.43383 15.4135 1.36967 15.7349 2.02533C15.7518 1.91567 15.7588 1.81825 15.7588 1.72725C15.9268 2.05625 16.0802 2.50483 16.2097 3.01583C16.3725 3.75083 16.4635 4.5045 16.4652 5.26108C16.4664 5.78667 16.5807 7.66033 15.7156 7.4165C15.1825 7.266 15.169 6.77425 15.0168 6.26792C14.7823 5.47633 14.3693 4.564 14.4195 3.72283C14.2159 4.54825 14.458 5.53875 14.5478 6.3735C14.5991 6.85942 14.9351 8.1725 14.3401 8.35158C14.0111 8.4525 13.6296 8.22092 13.3572 8.05117C13.2534 7.98583 13.1758 7.50808 13.1379 7.37392C12.9034 6.55375 12.4834 5.6105 12.537 4.74892C12.3317 5.52592 12.5318 6.46217 12.5971 7.25842C12.6374 7.75192 12.8865 8.82175 12.33 9.07025C11.7 9.39983 11.6031 8.60067 11.4865 8.18183C11.27 7.40425 10.9183 6.55375 10.9276 5.73825C10.7077 6.73167 10.9661 7.89483 11.0087 8.91217C11.0315 9.41733 9.97271 9.8735 9.57779 9.55617C8.95888 9.05858 8.85446 7.89367 8.78446 7.14058C8.96996 7.39375 9.23596 7.721 9.57371 7.68775C9.28671 7.3605 9.16479 6.79933 8.97288 6.4015C8.79671 6.07483 8.43913 5.29725 8.01854 5.28442C8.08329 5.42383 8.43796 6.38458 8.38313 6.48608C8.21221 6.804 8.04596 7.12717 7.85579 7.43167C7.69421 7.68775 7.22521 8.50383 6.84663 8.25708C6.43771 7.99225 6.18104 6.80633 6.18104 6.80633C6.18104 6.80633 6.19621 8.28508 6.72471 8.6275C7.22521 8.953 7.79571 8.43967 8.12704 8.07333C8.19296 8.77625 8.38313 9.6005 8.80838 10.1442C7.55888 15.6852 9.85896 15.6298 11.4095 23.037C11.4095 23.037 12.4315 21.5303 13.3251 19.5895C15.2752 15.3533 19.3428 13.4657 23.264 13.4657C27.1525 13.4657 31.3163 15.4537 32.8295 18.8907C33.3294 20.0258 33.4536 21.3827 33.3183 22.8772C33.0972 25.3114 35.4994 29.2717 26.5388 32.2472C19.4285 34.608 10.6832 30.0813 10.6832 30.0813C8.28454 30.8653 2.67521 31.2078 2.55679 29.5464C2.36138 26.8252 1.49746 25.4397 1.23904 23.3934Z" fill="white"/>
<path d="M18.8095 30.0825C20.3711 30.6553 22.068 30.8111 23.7049 30.6163C25.3429 30.4179 26.9459 29.883 28.3424 28.9812C29.0354 28.5273 29.68 27.9813 30.1985 27.3263C30.7055 26.6688 31.1161 25.9093 31.2112 25.1038C30.2032 26.3369 28.921 27.0159 27.5998 27.5555C26.2715 28.0805 24.8745 28.4078 23.4663 28.5763C22.057 28.7391 20.6342 28.7408 19.2249 28.5221C17.7545 28.2932 16.3371 27.8025 15.04 27.0731C15.8357 28.4743 17.259 29.5108 18.8095 30.0825Z" fill="white"/>
<path d="M13.7469 2.82913C13.9942 1.22554 12.3866 1.75346 12.3306 2.43713C12.7692 2.23763 13.4255 2.17404 13.7469 2.82913Z" fill="white"/>
<path d="M12.1574 3.71591C12.4053 2.11174 10.7982 2.63849 10.7422 3.32449C11.1809 3.12324 11.8365 3.06024 12.1574 3.71591Z" fill="white"/>
<path d="M10.3214 4.64153C10.5693 3.03795 8.96225 3.56528 8.90625 4.25011C9.3455 4.04886 10 3.98645 10.3214 4.64153Z" fill="white"/>
</svg>
