<svg width="31" height="35" viewBox="0 0 31 35" fill="none" xmlns="http://www.w3.org/2000/svg">
<path d="M26.9979 6.84643C26.9979 6.84643 26.9688 6.68835 26.8791 6.63109C26.7893 6.57383 26.692 6.56273 26.692 6.56273L23.8782 6.35335L21.8078 4.29493C21.7292 4.23507 21.6385 4.20007 21.5463 4.18123C21.3258 4.13849 21.0293 4.18979 20.9746 4.2026L19.9005 4.535C19.4339 3.15761 18.7965 2.17665 17.9967 1.60925C17.4054 1.19138 16.7539 1.01371 16.0541 1.06665C15.9071 0.870966 15.7452 0.700076 15.5678 0.556515C14.7915 -0.0706753 13.7901 -0.168072 12.5921 0.266036C8.99936 1.57083 7.47416 6.22691 6.9243 8.5528L3.79307 9.52266C3.79307 9.52266 3.05561 9.73287 2.8826 9.93965C2.69253 10.1669 2.65616 10.7822 2.65616 10.7822L0 31.2675L20.0107 35L30.814 32.6621L26.9979 6.84643ZM15.9087 5.7715L12.4489 6.84219C12.9074 5.04692 13.7883 3.21233 15.4726 2.49713C15.8224 3.41315 15.919 4.66664 15.9087 5.7715ZM13.0026 1.3974C13.7345 1.13165 14.2967 1.14357 14.7197 1.42898C12.4622 2.45863 11.4765 5.05288 11.051 7.27534L8.2808 8.13321C8.89943 5.89623 10.2798 2.38603 13.0026 1.3974ZM14.9415 16.4944C14.783 16.4175 14.5959 16.3355 14.3844 16.2577C14.1746 16.1792 13.9409 16.1048 13.6875 16.0433C13.4367 15.9818 13.1667 15.9322 12.8822 15.9031C12.6002 15.8732 12.3041 15.8638 11.9974 15.8818C11.7159 15.8989 11.4608 15.9492 11.2365 16.0296C11.0135 16.1082 10.8204 16.2176 10.6614 16.3535C10.5025 16.4885 10.3773 16.65 10.2889 16.8363C10.2013 17.0217 10.1496 17.2302 10.1398 17.4618C10.1321 17.6335 10.159 17.7976 10.2192 17.9573C10.2794 18.118 10.3739 18.2752 10.502 18.4307C10.6311 18.5879 10.7943 18.7434 10.9929 18.9024C11.1924 19.0639 11.4279 19.2263 11.6996 19.3963C12.0807 19.6407 12.4703 19.9158 12.8407 20.2311C13.2167 20.5515 13.5722 20.913 13.8776 21.3248C14.187 21.741 14.4441 22.2076 14.6176 22.7304C14.792 23.2585 14.8813 23.8404 14.8531 24.4813C14.8074 25.5297 14.5776 26.4337 14.1977 27.1831C13.8226 27.9231 13.3048 28.5041 12.681 28.9262C12.0709 29.3381 11.3642 29.5936 10.5957 29.6961C9.84929 29.796 9.04902 29.7517 8.22361 29.5696C8.21758 29.5687 8.21073 29.5662 8.20395 29.5645C8.19752 29.5636 8.19108 29.5619 8.18471 29.5611C8.17834 29.5594 8.1719 29.5576 8.16505 29.556C8.15861 29.5551 8.15217 29.5534 8.14539 29.5517C7.75834 29.4578 7.38485 29.3364 7.03409 29.1936C6.68848 29.0544 6.36416 28.8954 6.06855 28.7237C5.77718 28.5537 5.51314 28.3717 5.28458 28.1829C5.05855 27.9958 4.86629 27.8035 4.71547 27.6095L5.62588 24.5881C5.77971 24.718 5.96766 24.8658 6.1817 25.0153C6.39786 25.1682 6.64101 25.3238 6.90115 25.4699C7.1643 25.6169 7.44546 25.7528 7.73471 25.8638C8.02779 25.9758 8.32943 26.0629 8.62847 26.1065C8.89251 26.145 9.12834 26.1372 9.3347 26.0911C9.54279 26.0441 9.72005 25.9578 9.86539 25.839C10.0115 25.7219 10.1247 25.5724 10.2037 25.4006C10.2828 25.2272 10.3276 25.0332 10.3362 24.8256C10.3456 24.6171 10.3268 24.4214 10.2742 24.2317C10.2221 24.0412 10.1367 23.8574 10.014 23.6729C9.89135 23.4891 9.73244 23.3046 9.53128 23.1141C9.33217 22.9252 9.09334 22.7304 8.81053 22.5237C8.46231 22.2639 8.13587 21.9828 7.84327 21.6769C7.55444 21.3743 7.29813 21.0471 7.08834 20.6925C6.88074 20.3404 6.71711 19.9602 6.61115 19.5467C6.5056 19.1357 6.45697 18.6904 6.47738 18.2051C6.51327 17.3942 6.67526 16.6465 6.94656 15.9741C7.22081 15.2939 7.60916 14.6838 8.09621 14.1583C8.59313 13.6225 9.19724 13.1705 9.89361 12.8227C10.6101 12.4646 11.4292 12.2135 12.337 12.0947C12.7583 12.0391 13.1625 12.0135 13.5444 12.0118C13.9324 12.0101 14.2968 12.0332 14.6322 12.0759C14.9722 12.1195 15.282 12.1827 15.5567 12.2605C15.8336 12.339 16.0737 12.4314 16.2715 12.5322L14.9415 16.4944ZM17.108 5.40068C17.1063 5.26486 17.1029 5.12726 17.0978 4.98712C17.0576 3.91048 16.9115 3.00384 16.6628 2.26898C16.9337 2.29631 17.1798 2.38603 17.4045 2.545C18.0309 2.9885 18.482 3.88137 18.7999 4.87685L17.108 5.40068Z" fill="white"/>
</svg>
