<svg width="45" height="45" viewBox="0 0 45 45" fill="none" xmlns="http://www.w3.org/2000/svg">
<mask id="mask0_101_136" style="mask-type:luminance" maskUnits="userSpaceOnUse" x="0" y="0" width="45" height="45">
<path d="M45 0H0V45H45V0Z" fill="white"/>
</mask>
<g mask="url(#mask0_101_136)">
<path d="M19.1433 24.9938C18.772 24.9858 18.4174 24.8385 18.1495 24.5813L15.5245 21.9563C15.2612 21.6927 15.1133 21.3352 15.1133 20.9626C15.1133 20.5899 15.2612 20.2325 15.5245 19.9688L18.3558 17.1376C18.6195 16.8742 18.9769 16.7263 19.3495 16.7263C19.7222 16.7263 20.0796 16.8742 20.3433 17.1376C20.476 17.2669 20.5814 17.4214 20.6534 17.5921C20.7254 17.7627 20.7625 17.9461 20.7625 18.1313C20.7625 18.3166 20.7254 18.4999 20.6534 18.6706C20.5814 18.8413 20.476 18.9958 20.3433 19.1251L18.4683 21.0001L20.0995 22.6126C20.3596 22.8818 20.505 23.2414 20.505 23.6157C20.505 23.99 20.3596 24.3496 20.0995 24.6188C19.8357 24.8539 19.4966 24.9869 19.1433 24.9938Z" fill="white"/>
<path d="M25.8559 24.994C25.4847 24.9859 25.13 24.8387 24.8622 24.5815C24.6021 24.3123 24.4568 23.9526 24.4568 23.5784C24.4568 23.2041 24.6021 22.8444 24.8622 22.5752L26.4934 20.9627L24.6184 19.0877C24.4857 18.9585 24.3803 18.8039 24.3083 18.6332C24.2363 18.4626 24.1992 18.2792 24.1992 18.094C24.1992 17.9087 24.2363 17.7254 24.3083 17.5547C24.3803 17.384 24.4857 17.2295 24.6184 17.1002C24.8821 16.8369 25.2395 16.689 25.6122 16.689C25.9848 16.689 26.3422 16.8369 26.6059 17.1002L29.4372 19.9315C29.7005 20.1951 29.8484 20.5526 29.8484 20.9252C29.8484 21.2979 29.7005 21.6553 29.4372 21.919L26.8122 24.544C26.5596 24.8065 26.2192 24.9667 25.8559 24.994Z" fill="white"/>
<path d="M28.125 42.6936H16.875C15.0102 42.6936 13.2218 41.9528 11.9032 40.6342C10.5845 39.3156 9.84375 37.5272 9.84375 35.6624V9.41235C9.84375 7.54755 10.5845 5.75912 11.9032 4.44051C13.2218 3.12189 15.0102 2.3811 16.875 2.3811H28.125C29.9898 2.3811 31.7782 3.12189 33.0968 4.44051C34.4155 5.75912 35.1562 7.54755 35.1562 9.41235V35.6624C35.1562 37.5272 34.4155 39.3156 33.0968 40.6342C31.7782 41.9528 29.9898 42.6936 28.125 42.6936ZM16.875 5.1936C15.7561 5.1936 14.6831 5.63808 13.8919 6.42925C13.1007 7.22042 12.6562 8.29347 12.6562 9.41235V35.6624C12.6562 36.7812 13.1007 37.8543 13.8919 38.6455C14.6831 39.4366 15.7561 39.8811 16.875 39.8811H28.125C29.2439 39.8811 30.3169 39.4366 31.1081 38.6455C31.8993 37.8543 32.3437 36.7812 32.3437 35.6624V9.41235C32.3437 8.29347 31.8993 7.22042 31.1081 6.42925C30.3169 5.63808 29.2439 5.1936 28.125 5.1936H16.875Z" fill="white"/>
<path d="M22.5002 37.0688C22.2223 37.0686 21.9506 36.986 21.7196 36.8315C21.4886 36.6769 21.3085 36.4574 21.2022 36.2006C21.0959 35.9438 21.068 35.6612 21.1222 35.3886C21.1763 35.116 21.3101 34.8655 21.5065 34.6688C21.67 34.5052 21.8713 34.3843 22.0927 34.3171C22.314 34.2498 22.5486 34.2382 22.7755 34.2833C23.0024 34.3284 23.2147 34.4287 23.3935 34.5755C23.5724 34.7223 23.7122 34.9109 23.8007 35.1246C23.8892 35.3384 23.9236 35.5707 23.9009 35.8009C23.8782 36.0311 23.799 36.2522 23.6703 36.4445C23.5417 36.6368 23.3676 36.7943 23.1635 36.9033C22.9594 37.0122 22.7316 37.0691 22.5002 37.0688Z" fill="white"/>
</g>
</svg>
