<svg width="23" height="41" viewBox="0 0 23 41" fill="none" xmlns="http://www.w3.org/2000/svg">
<path d="M0.218818 36.7634C0.582088 36.152 1.04336 35.6874 1.67762 35.3655C1.72115 31.2566 1.76469 27.1477 1.80954 22.9144C1.59188 22.826 1.37422 22.7376 1.14996 22.6466C0.921682 22.4343 0.921682 22.4343 0.729477 22.1947C0.665029 22.1164 0.600581 22.038 0.53418 21.9573C-0.0485155 21.1353 -0.0119509 20.2863 0.0946318 19.2995C0.382461 18.5101 0.935717 17.9355 1.67762 17.559C1.69595 16.0147 1.71002 14.4704 1.71863 12.926C1.72276 12.2088 1.72837 11.4918 1.73733 10.7747C1.74592 10.0828 1.75066 9.39105 1.75272 8.69913C1.75418 8.43499 1.75704 8.17086 1.76131 7.90676C1.76704 7.53709 1.76784 7.16773 1.76748 6.79803C1.77175 6.63379 1.77175 6.63379 1.7761 6.46623C1.78109 6.12271 1.78109 6.12271 1.67762 5.64342C1.30861 5.31369 1.30861 5.31369 0.886127 5.10789C0.125124 4.24972 0.0340781 3.62949 0.0539234 2.48618C0.127818 1.65552 0.468216 1.21399 1.05927 0.647898C1.75975 0.0794568 2.50842 -0.0583896 3.39253 0.0203203C4.13529 0.204816 4.60391 0.492744 5.10743 1.09139C5.18089 1.17423 5.25436 1.25707 5.33004 1.34242C5.82866 2.16174 5.83363 2.98958 5.6351 3.90294C5.34605 4.68878 4.78853 5.26972 4.05211 5.64342C4.05211 7.71995 4.05211 9.79648 4.05211 11.9359C4.40037 11.4058 4.74862 10.8756 5.10743 10.3293C5.36136 9.99879 5.61114 9.68089 5.88244 9.36704C5.94987 9.28849 6.01731 9.20993 6.08679 9.12899C8.6373 6.20355 12.4494 4.01721 16.3203 3.63517C16.7612 3.61817 17.1986 3.6177 17.6394 3.63517C17.6413 3.5544 17.6432 3.47363 17.6451 3.39041C17.6514 3.28341 17.6577 3.17641 17.6642 3.06616C17.6688 2.96054 17.6734 2.85492 17.6781 2.7461C17.8133 2.28814 18.0412 2.1544 18.4309 1.89469C18.8465 1.82539 18.8465 1.82539 19.309 1.82356C19.4765 1.82287 19.644 1.82218 19.8166 1.82147C19.9905 1.82354 20.1645 1.82561 20.3437 1.82774C20.5177 1.82567 20.6916 1.8236 20.8709 1.82147C21.0384 1.82216 21.2059 1.82285 21.3784 1.82356C21.531 1.82416 21.6837 1.82477 21.8409 1.82539C22.3569 1.91143 22.571 2.03112 22.9161 2.43022C22.9993 2.8758 22.9993 2.8758 22.999 3.40087C22.9994 3.49394 22.9997 3.587 23 3.68289C22.9999 3.87915 22.9981 4.07541 22.9948 4.27164C22.9903 4.57148 22.9921 4.87079 22.9947 5.17064C22.9937 5.36171 22.9925 5.55277 22.9908 5.74383C22.9886 6.00374 22.9886 6.00374 22.9864 6.2689C22.9161 6.71448 22.9161 6.71448 22.7055 7.03847C22.2752 7.32552 21.9739 7.31927 21.4609 7.32114C21.3721 7.32165 21.2833 7.32217 21.1919 7.32269C21.0047 7.32306 20.8176 7.32208 20.6304 7.31983C20.3446 7.31697 20.0591 7.31981 19.7733 7.32323C19.591 7.32288 19.4088 7.32219 19.2266 7.32114C19.0614 7.32054 18.8961 7.31993 18.7259 7.31931C18.299 7.25002 18.299 7.25002 17.9834 7.01337C17.7593 6.69751 17.6976 6.5288 17.6724 6.14548C17.6615 5.9798 17.6507 5.81412 17.6394 5.64342C14.1173 6.31054 11.2028 7.28926 8.53725 9.7938C8.37477 9.94239 8.37477 9.94239 8.209 10.094C6.34671 11.8763 4.47555 15.0333 4.31594 17.6929C4.4838 17.9326 4.4838 17.9326 4.74467 18.0946C5.21788 18.428 5.38811 18.7752 5.6351 19.2995C7.26287 18.5267 8.87588 17.7287 10.4793 16.9051C10.9736 16.6514 11.4685 16.3987 11.9633 16.146C12.8784 15.6786 13.7932 15.2107 14.7073 14.7411C15.3494 14.4113 15.9921 14.0828 16.6353 13.7552C16.8785 13.631 17.1215 13.5063 17.3642 13.3811C17.7022 13.2068 18.0409 13.0343 18.3798 12.8621C18.4786 12.8107 18.5774 12.7592 18.6793 12.7062C19.3658 12.3605 20.0244 12.0762 20.7889 12.3292C21.1218 12.6571 21.1609 12.8941 21.2059 13.3545C21.1966 13.9912 20.9908 14.5797 20.8054 15.1831C20.7639 15.325 20.7224 15.4669 20.6797 15.613C20.5476 16.0643 20.413 16.5147 20.2778 16.9649C20.0997 17.5586 19.9242 18.1529 19.7501 18.7478C19.7086 18.8831 19.6671 19.0184 19.6244 19.1578C19.254 20.4231 19.5156 21.3408 19.8789 22.5749C19.9573 22.8477 20.0356 23.1204 20.1139 23.3931C20.2369 23.8197 20.3606 24.246 20.4857 24.6719C20.6068 25.0853 20.7254 25.4994 20.8436 25.9137C20.9002 26.103 20.9002 26.103 20.958 26.2962C21.1733 27.0591 21.2468 27.6251 21.0693 28.4036C20.7889 28.6797 20.7889 28.6797 20.4097 28.8052C19.5477 28.7658 18.8879 28.4126 18.1283 28.0192C17.995 27.9515 17.8617 27.8838 17.7244 27.814C17.2852 27.5906 16.8471 27.3653 16.4089 27.1401C16.1037 26.9843 15.7983 26.8288 15.4929 26.6733C14.7721 26.306 14.0518 25.9376 13.3318 25.5685C12.2743 25.0266 11.2159 24.4865 10.1574 23.9465C9.39793 23.5591 8.63866 23.1713 7.87988 22.7826C7.60548 22.6423 7.33108 22.5019 7.05667 22.3616C6.93126 22.2972 6.80585 22.2328 6.67664 22.1664C6.50467 22.0785 6.50467 22.0785 6.32923 21.9889C6.22962 21.9379 6.13001 21.8868 6.02739 21.8342C5.74968 21.6947 5.74968 21.6947 5.37127 21.5755C5.34134 21.6501 5.31141 21.7246 5.28057 21.8015C5.0579 22.1996 4.78203 22.4752 4.44785 22.7805C4.36079 22.7805 4.27373 22.7805 4.18402 22.7805C5.0266 26.8902 6.91893 30.4316 10.4572 32.8045C12.7266 34.2468 15.0136 34.9115 17.6394 35.3655C17.6566 35.104 17.6738 34.8425 17.691 34.581C17.8059 34.1712 17.9619 34.0117 18.299 33.7589C18.7259 33.6896 18.7259 33.6896 19.2266 33.6878C19.3153 33.6873 19.4041 33.6868 19.4956 33.6862C19.6827 33.6859 19.8699 33.6868 20.057 33.6891C20.3429 33.692 20.6283 33.6891 20.9141 33.6857C21.0964 33.686 21.2786 33.6867 21.4609 33.6878C21.6261 33.6884 21.7913 33.689 21.9615 33.6896C22.3884 33.7589 22.3884 33.7589 22.7055 33.9705C22.9945 34.4151 22.9864 34.7346 22.9908 35.2651C22.9916 35.3582 22.9924 35.4512 22.9933 35.5471C22.9942 35.7434 22.9938 35.9396 22.9921 36.1359C22.9903 36.4357 22.9948 36.735 22.9998 37.0349C22.9999 37.2259 22.9997 37.417 22.999 37.608C22.9991 37.7813 22.9992 37.9546 22.9993 38.1331C22.9161 38.5787 22.9161 38.5787 22.636 38.9027C22.1832 39.1551 21.8934 39.1833 21.3784 39.1854C21.2109 39.1861 21.0434 39.1867 20.8709 39.1875C20.6969 39.1854 20.5229 39.1833 20.3437 39.1812C20.1698 39.1832 19.9958 39.1853 19.8166 39.1875C19.6491 39.1868 19.4816 39.1861 19.309 39.1854C19.1564 39.1848 19.0038 39.1842 18.8465 39.1835C18.3478 39.1004 18.1268 38.9371 17.7714 38.5787C17.6781 38.2628 17.6781 38.2628 17.6642 37.9428C17.6547 37.7823 17.6547 37.7823 17.6451 37.6185C17.6432 37.5377 17.6414 37.457 17.6394 37.3738C17.5333 37.3807 17.5333 37.3807 17.4251 37.3879C13.6401 37.5206 9.85162 35.4931 7.11915 32.9723C5.89126 31.8059 4.9394 30.5189 4.05211 29.073C4.03204 29.9593 4.01818 30.8455 4.00863 31.732C4.00465 32.0336 3.99925 32.3351 3.9924 32.6367C3.9828 33.07 3.97831 33.5032 3.97481 33.9367C3.97073 34.0716 3.96664 34.2065 3.96243 34.3454C3.96226 34.7031 3.96918 35.0178 4.05211 35.3655C4.41237 35.7138 4.41237 35.7138 4.8436 35.901C5.49567 36.5628 5.75125 37.1844 5.77577 38.1038C5.73454 38.9307 5.52819 39.5666 4.97552 40.1853C4.18266 40.8271 3.48548 41.0562 2.46912 40.9886C1.52562 40.8319 1.03527 40.4037 0.428544 39.6707C-0.110082 38.9009 -0.0945133 37.6277 0.218818 36.7634Z" fill="white"/>
</svg>
