<svg width="35" height="35" viewBox="0 0 35 35" fill="none" xmlns="http://www.w3.org/2000/svg">
<path d="M0 33.0556V13.6111H9.72222V35H1.94444C1.42875 35 0.934169 34.7951 0.569514 34.4305C0.20486 34.0658 0 33.5713 0 33.0556ZM35 1.94444C35 1.42875 34.7951 0.934169 34.4305 0.569514C34.0658 0.20486 33.5713 0 33.0556 0H1.94444C1.42875 0 0.934169 0.20486 0.569514 0.569514C0.20486 0.934169 0 1.42875 0 1.94444V9.72222H35V1.94444ZM33.0556 35C33.5713 35 34.0658 34.7951 34.4305 34.4305C34.7951 34.0658 35 33.5713 35 33.0556V13.6111H13.6111V35H33.0556Z" fill="white"/>
</svg>
