<svg width="45" height="45" viewBox="0 0 45 45" fill="none" xmlns="http://www.w3.org/2000/svg">
<path fill-rule="evenodd" clip-rule="evenodd" d="M42.2437 11.7044C42.3405 12.4222 42.3945 13.189 42.3945 14.017C42.3945 17.9723 42.0277 18.1952 33.8107 41.9477C40.5 38.0463 45 30.7992 45 22.4992C45 18.5866 44.001 14.9083 42.2437 11.7044ZM22.896 24.4679L16.1438 44.0823C20.7 45.4232 25.5285 45.2867 29.9722 43.7252C29.9115 43.6285 29.8575 43.5246 29.8125 43.4143L22.896 24.4679ZM37.6898 21.3633C37.6898 18.5824 36.6907 16.6558 35.8335 15.1573C34.695 13.3034 33.624 11.7358 33.624 9.88187C33.624 7.81419 35.1945 5.88847 37.404 5.88847C37.503 5.88847 37.5975 5.90155 37.6943 5.90605C33.6915 2.23867 28.359 0 22.5 0C14.6407 0 7.72426 4.03149 3.70126 10.14C5.13451 10.185 7.05824 10.2036 11.1465 9.88407C12.3592 9.81207 12.501 11.5935 11.2905 11.7352C11.2905 11.7352 10.071 11.8796 8.71425 11.9516L16.9087 36.3229L21.8318 21.5544L18.3263 11.9494C17.1158 11.8797 15.9682 11.7352 15.9682 11.7352C14.7555 11.6632 14.8973 9.80987 16.11 9.88187C20.7608 10.2396 23.1412 10.2666 28.0327 9.88187C29.2455 9.80987 29.3895 11.5912 28.1767 11.7352C28.1767 11.7352 26.955 11.8797 25.6005 11.9494L33.732 36.1361C36.9428 25.4085 37.6898 23.6132 37.6898 21.3633ZM0 22.4992C0 31.4044 5.175 39.1014 12.681 42.7486L1.94849 13.3424C0.699744 16.1414 0 19.2369 0 22.4992Z" fill="white"/>
</svg>
