<svg width="35" height="44" viewBox="0 0 35 44" fill="none" xmlns="http://www.w3.org/2000/svg">
<path d="M2.03426 0.022216C2.19818 0.0213902 2.19818 0.0213902 2.36541 0.0205476C2.48649 0.0207988 2.60758 0.0210665 2.72866 0.0213489C2.85743 0.0210299 2.98621 0.020637 3.11498 0.0201766C3.46897 0.0191311 3.82296 0.0191549 4.17695 0.0193561C4.55869 0.0193909 4.94041 0.0184487 5.32215 0.0176387C6.07008 0.0162198 6.81802 0.015751 7.56595 0.0156558C8.17386 0.0155747 8.78177 0.015224 9.38968 0.0146824C11.1129 0.0131785 12.8361 0.012391 14.5593 0.0125191C14.6522 0.0125259 14.7451 0.0125327 14.8408 0.0125397C14.9804 0.0125502 14.9804 0.0125502 15.1227 0.0125609C16.6306 0.0126303 18.1384 0.0109962 19.6462 0.00858877C21.1941 0.00613687 22.742 0.00495677 24.2899 0.00510433C25.159 0.00516104 26.0282 0.00469081 26.8973 0.00285413C27.6373 0.00130041 28.3773 0.000927161 29.1173 0.00208735C29.4949 0.00264541 29.8724 0.00265276 30.25 0.00117326C30.5957 -0.000167663 30.9415 7.25294e-05 31.2872 0.00156329C31.4122 0.00182585 31.5371 0.00151353 31.6621 0.000562659C32.4443 -0.00499479 33.0097 0.0204605 33.6179 0.55344C33.6639 0.609019 33.7099 0.664597 33.7573 0.72186C33.8047 0.777218 33.852 0.832576 33.9007 0.889612C34.1607 1.26689 34.2163 1.59087 34.2168 2.04488C34.2174 2.15654 34.2179 2.2682 34.2185 2.38324C34.2183 2.50701 34.218 2.63078 34.2177 2.75455C34.218 2.88614 34.2184 3.01773 34.2189 3.14932C34.2199 3.5111 34.2199 3.87288 34.2197 4.23466C34.2197 4.62477 34.2206 5.01488 34.2214 5.40499C34.2228 6.16937 34.2233 6.93374 34.2234 7.69812C34.2235 8.31938 34.2238 8.94064 34.2244 9.5619C34.2259 11.3229 34.2267 13.0839 34.2265 14.8449C34.2265 14.9398 34.2265 15.0348 34.2265 15.1326C34.2265 15.2277 34.2265 15.3228 34.2265 15.4207C34.2264 16.9617 34.2281 18.5026 34.2305 20.0436C34.2329 21.6254 34.2341 23.2073 34.234 24.7891C34.2339 25.6774 34.2344 26.5656 34.2362 27.4539C34.2378 28.2101 34.2381 28.9664 34.237 29.7226C34.2364 30.1085 34.2364 30.4943 34.2379 30.8802C34.2392 31.2335 34.239 31.5868 34.2375 31.9401C34.2372 32.0679 34.2375 32.1956 34.2385 32.3233C34.244 33.1135 34.224 33.6866 33.6856 34.301C33.63 34.347 33.5745 34.393 33.5172 34.4404C33.4618 34.4877 33.4065 34.535 33.3495 34.5838C32.8837 34.9047 32.4645 34.9009 31.9174 34.8946C31.7989 34.8942 31.7989 34.8942 31.678 34.8939C31.4266 34.8929 31.1753 34.8908 30.9239 34.8886C30.7531 34.8877 30.5823 34.887 30.4115 34.8863C29.9935 34.8844 29.5756 34.8814 29.1577 34.8779C29.2676 34.6821 29.3779 34.4865 29.4885 34.291C29.5196 34.2354 29.5508 34.1798 29.5829 34.1225C29.7115 33.8958 29.8262 33.6972 30.0114 33.5119C30.22 33.4874 30.22 33.4874 30.48 33.4826C30.6207 33.4788 30.6207 33.4788 30.7643 33.4749C30.8628 33.473 30.9612 33.4711 31.0626 33.4692C31.2562 33.4655 31.4497 33.4611 31.6433 33.4559C31.7724 33.4535 31.7724 33.4535 31.9042 33.451C32.1654 33.4245 32.3443 33.3864 32.5727 33.2558C32.724 32.9538 32.765 32.7064 32.7658 32.371C32.7665 32.2797 32.7671 32.1884 32.7678 32.0944C32.7676 31.9947 32.7674 31.895 32.7673 31.7922C32.7677 31.6861 32.7682 31.58 32.7687 31.4707C32.77 31.1759 32.7704 30.8811 32.7705 30.5862C32.7708 30.2635 32.7721 29.9408 32.7733 29.6181C32.7755 28.9916 32.7768 28.3651 32.7777 27.7387C32.7789 27.014 32.7811 26.2894 32.7834 25.5648C32.7888 23.6515 32.7927 21.7382 32.7968 19.8249C32.8074 15.5512 32.818 11.2775 32.8289 6.87433C22.4607 6.87433 12.0926 6.87433 1.41026 6.87433C1.42082 11.148 1.43139 15.4217 1.44227 19.8249C1.44518 21.176 1.44808 22.5272 1.45107 23.9192C1.45448 25.1268 1.45448 25.1268 1.45811 26.3344C1.45972 26.8736 1.46087 27.4129 1.46171 27.9522C1.46268 28.5738 1.46423 29.1954 1.46651 29.8169C1.46766 30.1351 1.46854 30.4532 1.46868 30.7713C1.46882 31.1116 1.47027 31.4519 1.47186 31.7922C1.47169 31.8919 1.47153 31.9916 1.47136 32.0944C1.472 32.1857 1.47263 32.277 1.47329 32.371C1.47348 32.4497 1.47368 32.5284 1.47388 32.6094C1.49811 32.8539 1.55789 33.0359 1.66639 33.2558C2.04818 33.5013 2.53345 33.465 2.97372 33.4799C3.05323 33.4832 3.13275 33.4865 3.21467 33.4899C3.41003 33.4979 3.60539 33.5052 3.8008 33.5119C3.79728 33.5947 3.79376 33.6774 3.79013 33.7627C3.78855 34.1479 3.8772 34.5064 3.97156 34.8779C3.63147 34.8864 3.29142 34.8926 2.95125 34.8967C2.7794 34.8992 2.60759 34.9036 2.43578 34.9079C1.68619 34.9155 1.19992 34.8758 0.62119 34.3687C0.575187 34.3131 0.529183 34.2575 0.481786 34.2003C0.434462 34.1449 0.387138 34.0895 0.33838 34.0325C0.0784319 33.6552 0.0228322 33.3312 0.0222661 32.8772C0.0217155 32.7656 0.0211649 32.6539 0.0205976 32.5389C0.0208488 32.4151 0.0211164 32.2913 0.0213988 32.1676C0.0210798 32.036 0.0206871 31.9044 0.0202267 31.7728C0.019181 31.411 0.0192049 31.0492 0.0194061 30.6875C0.0194409 30.2973 0.0184987 29.9072 0.0176886 29.5171C0.0162696 28.7527 0.015801 27.9884 0.0157058 27.224C0.0156247 26.6027 0.0152741 25.9815 0.0147325 25.3602C0.0132286 23.5992 0.0124411 21.8382 0.0125691 20.0772C0.012576 19.9823 0.0125826 19.8873 0.0125896 19.7895C0.0125966 19.6944 0.0126036 19.5993 0.0126108 19.5014C0.0126802 17.9604 0.0110461 16.4195 0.00863875 14.8785C0.00618693 13.2967 0.00500683 11.7148 0.0051544 10.133C0.00521111 9.24472 0.00474062 8.35648 0.00290407 7.46823C0.00135047 6.71198 0.00097713 5.95574 0.00213741 5.19949C0.00269552 4.81363 0.00270266 4.42779 0.00122337 4.04193C-0.000117309 3.6886 0.000122377 3.3353 0.00161338 2.98196C0.001876 2.85425 0.00156338 2.72652 0.000612708 2.59881C-0.00487865 1.80865 0.015102 1.23552 0.553489 0.621141C0.609067 0.575138 0.664645 0.529135 0.721908 0.481737C0.777266 0.434413 0.832624 0.387089 0.889659 0.338331C1.26321 0.0809509 1.58468 0.022789 2.03426 0.022216ZM18.6563 3.03237C18.5351 3.27491 18.5441 3.44686 18.571 3.71539C18.7615 3.95852 18.874 4.04408 19.1686 4.14227C19.3072 4.15045 19.4461 4.15379 19.5849 4.15426C19.7136 4.15499 19.7136 4.15499 19.8449 4.15574C19.9861 4.15588 19.9861 4.15588 20.13 4.15603C20.2292 4.15645 20.3283 4.15687 20.4305 4.15731C20.7592 4.15856 21.088 4.15914 21.4167 4.15961C21.5872 4.15998 21.7577 4.16035 21.9282 4.16072C22.4032 4.16173 22.8783 4.16237 23.3534 4.16266C23.9673 4.16305 24.5812 4.16455 25.1951 4.16702C25.67 4.16887 26.1449 4.16973 26.6197 4.16984C26.9032 4.16993 27.1866 4.17056 27.4701 4.17196C27.7865 4.17341 28.1028 4.17326 28.4192 4.1727C28.5128 4.17349 28.6063 4.17427 28.7027 4.17509C29.1718 4.17251 29.5255 4.16115 29.9261 3.88614C30.0473 3.6436 30.0383 3.47165 30.0114 3.20312C29.8209 2.95999 29.7083 2.87443 29.4138 2.77624C29.2752 2.76806 29.1363 2.76472 28.9975 2.76425C28.9117 2.76376 28.8259 2.76327 28.7374 2.76277C28.5963 2.76263 28.5963 2.76263 28.4524 2.76248C28.3532 2.76206 28.2541 2.76164 28.1519 2.7612C27.8232 2.75995 27.4944 2.75937 27.1657 2.7589C26.9952 2.75853 26.8247 2.75816 26.6542 2.75779C26.1792 2.75678 25.7041 2.75614 25.229 2.75584C24.6151 2.75546 24.0012 2.75396 23.3872 2.75149C22.9124 2.74964 22.4375 2.74878 21.9627 2.74867C21.6792 2.74858 21.3958 2.74795 21.1123 2.74655C20.7959 2.74509 20.4796 2.74525 20.1632 2.74581C20.0696 2.74502 19.9761 2.74423 19.8797 2.74342C19.4106 2.746 19.0569 2.75736 18.6563 3.03237ZM4.36642 3.00035C4.1861 3.2639 4.17544 3.40191 4.22769 3.71539C4.35575 3.92883 4.35575 3.92883 4.56919 4.05689C4.88267 4.10914 5.02068 4.09848 5.28422 3.91815C5.46454 3.65461 5.4752 3.5166 5.42296 3.20312C5.29489 2.98968 5.29489 2.98968 5.08145 2.86162C4.76797 2.80937 4.62997 2.82003 4.36642 3.00035ZM7.09847 3.00035C6.91815 3.2639 6.90749 3.40191 6.95974 3.71539C7.0878 3.92883 7.0878 3.92883 7.30124 4.05689C7.61472 4.10914 7.75273 4.09848 8.01627 3.91815C8.19659 3.65461 8.20726 3.5166 8.15501 3.20312C8.02695 2.98968 8.02695 2.98968 7.8135 2.86162C7.50003 2.80937 7.36202 2.82003 7.09847 3.00035ZM9.83053 3.00035C9.65021 3.2639 9.63954 3.40191 9.69179 3.71539C9.81985 3.92883 9.81985 3.92883 10.0333 4.05689C10.3468 4.10914 10.4848 4.09848 10.7483 3.91815C10.9286 3.65461 10.9393 3.5166 10.8871 3.20312C10.759 2.98968 10.759 2.98968 10.5456 2.86162C10.2321 2.80937 10.0941 2.82003 9.83053 3.00035Z" fill="white"/>
<path d="M17.0984 25.9721C17.1992 25.9696 17.3001 25.9671 17.4039 25.9646C18.0815 25.9596 18.3878 26.0113 18.8823 26.4707C19.1013 26.735 19.2238 26.9354 19.2542 27.2794C19.5504 27.2403 19.824 27.2033 20.108 27.1087C20.7184 27.0444 21.1354 27.1963 21.6447 27.5355C22.1916 27.9934 22.6124 28.4748 22.84 29.1577C22.8611 29.5937 22.8431 29.8656 22.6693 30.2676C22.6549 30.4989 22.6549 30.4989 22.6693 30.6945C22.7555 30.7086 22.8418 30.7227 22.9307 30.7372C23.3673 30.8581 23.6046 31.1958 23.8645 31.5483C24.0485 31.9161 23.9733 32.4035 23.9766 32.8076C23.9791 32.9084 23.9815 33.0092 23.9841 33.113C23.9891 33.7906 23.9373 34.0969 23.478 34.5915C23.2136 34.8104 23.0133 34.933 22.6693 34.9633C22.7084 35.2595 22.7454 35.5331 22.84 35.8171C22.8892 36.5555 22.7092 36.9725 22.2317 37.53C21.7397 38.0574 21.2048 38.5291 20.4601 38.5652C20.1629 38.5624 19.9548 38.4968 19.6811 38.3784C19.4498 38.3641 19.4498 38.3641 19.2542 38.3784C19.2401 38.4647 19.226 38.551 19.2115 38.6399C19.0906 39.0765 18.7529 39.3137 18.4004 39.5737C18.0326 39.7576 17.5452 39.6825 17.1411 39.6857C17.0403 39.6882 16.9395 39.6907 16.8356 39.6932C16.1581 39.6982 15.8518 39.6465 15.3572 39.1871C15.1382 38.9228 15.0157 38.7224 14.9854 38.3784C14.6892 38.4175 14.4156 38.4545 14.1316 38.5492C13.4293 38.6231 12.9301 38.3926 12.3847 37.9528C11.8615 37.4627 11.3874 36.8779 11.3622 36.1319C11.3961 35.8462 11.4576 35.6508 11.5703 35.3902C11.5846 35.1589 11.5846 35.1589 11.5703 34.9633C11.484 34.9492 11.3977 34.9352 11.3088 34.9206C10.8722 34.7997 10.635 34.4621 10.375 34.1096C10.1911 33.7417 10.2662 33.2543 10.263 32.8502C10.2605 32.7494 10.258 32.6486 10.2555 32.5448C10.2505 31.8672 10.3022 31.5609 10.7616 31.0663C11.0259 30.8474 11.2263 30.7248 11.5703 30.6945C11.5312 30.3983 11.4942 30.1247 11.3995 29.8407C11.3256 29.1384 11.5561 28.6392 11.9958 28.0938C12.486 27.5706 13.0708 27.0965 13.8168 27.0713C14.1025 27.1052 14.2978 27.1667 14.5585 27.2794C14.7898 27.2938 14.7898 27.2938 14.9854 27.2794C14.9995 27.1931 15.0135 27.1068 15.0281 27.0179C15.149 26.5814 15.4866 26.3441 15.8391 26.0841C16.207 25.9002 16.6944 25.9753 17.0984 25.9721ZM16.4368 27.4502C16.3243 27.7814 16.266 28.0379 16.266 28.3893C16.2042 28.4048 16.1423 28.4203 16.0786 28.4363C15.7133 28.5313 15.3774 28.6202 15.0387 28.7895C14.7866 28.9156 14.6649 28.9501 14.3877 28.9016C14.1049 28.7308 14.1049 28.7308 13.8755 28.5601C13.5807 28.6862 13.3931 28.8536 13.1711 29.083C13.0806 29.1758 13.0806 29.1758 12.9884 29.2704C12.943 29.3177 12.8977 29.3651 12.851 29.4138C12.947 29.6676 13.0407 29.8693 13.1925 30.0968C13.2507 30.514 13.1315 30.7579 12.9383 31.1127C12.8027 31.3913 12.745 31.6729 12.6802 31.9751C12.5107 31.9946 12.3411 32.014 12.1716 32.0335C11.9806 32.0581 11.9806 32.0581 11.7411 32.1459C11.6245 32.379 11.6444 32.569 11.645 32.8289C11.6448 32.9205 11.6446 33.012 11.6443 33.1064C11.6397 33.3379 11.6397 33.3379 11.7411 33.5119C12.0722 33.6244 12.3288 33.6827 12.6802 33.6827C12.6957 33.7455 12.7112 33.8084 12.7272 33.8731C12.855 34.387 12.855 34.387 13.0804 34.8619C13.2332 35.1166 13.2343 35.2682 13.1925 35.561C13.0217 35.8491 13.0217 35.8491 12.851 36.0732C12.9771 36.3679 13.1445 36.5556 13.3739 36.7776C13.4667 36.868 13.4667 36.868 13.5613 36.9603C13.6323 37.0284 13.6323 37.0284 13.7047 37.0977C13.9585 37.0017 14.1602 36.908 14.3877 36.7562C14.9152 36.7677 15.3728 36.9815 15.8568 37.1781C16.0794 37.2786 16.0794 37.2786 16.266 37.2685C16.2855 37.438 16.3049 37.6076 16.3244 37.7771C16.349 37.9681 16.349 37.9681 16.4368 38.2076C16.6699 38.3242 16.8599 38.3043 17.1198 38.3037C17.2113 38.3039 17.3029 38.3041 17.3973 38.3044C17.6288 38.309 17.6288 38.309 17.8028 38.2076C17.9153 37.8765 17.9735 37.6199 17.9735 37.2685C18.0364 37.253 18.0992 37.2375 18.164 37.2215C18.6778 37.0937 18.6778 37.0937 19.1528 36.8683C19.4075 36.7155 19.5591 36.7144 19.8518 36.7562C20.14 36.927 20.14 36.927 20.3641 37.0977C20.6588 36.9716 20.8464 36.8042 21.0685 36.5748C21.1589 36.482 21.1589 36.482 21.2512 36.3874C21.2966 36.3401 21.3419 36.2927 21.3886 36.244C21.2926 35.9902 21.1988 35.7885 21.0471 35.561C21.0586 35.0335 21.2724 34.5759 21.469 34.0919C21.5695 33.8693 21.5695 33.8693 21.5594 33.6827C21.7289 33.6632 21.8984 33.6438 22.068 33.6243C22.2589 33.5997 22.2589 33.5997 22.4985 33.5119C22.6151 33.2788 22.5952 33.0888 22.5946 32.8289C22.5948 32.7373 22.595 32.6458 22.5952 32.5514C22.5999 32.3199 22.5999 32.3199 22.4985 32.1459C22.1673 32.0334 21.9108 31.9751 21.5594 31.9751C21.5438 31.9133 21.5283 31.8514 21.5123 31.7877C21.4174 31.4224 21.3285 31.0865 21.1592 30.7478C21.0331 30.4957 20.9986 30.374 21.0471 30.0968C21.2179 29.814 21.2179 29.814 21.3886 29.5846C21.2625 29.2899 21.0951 29.1022 20.8657 28.8802C20.7729 28.7898 20.7729 28.7898 20.6783 28.6975C20.6309 28.6521 20.5836 28.6068 20.5348 28.5601C20.2811 28.6561 20.0794 28.7499 19.8518 28.9016C19.3243 28.8901 18.8667 28.6763 18.3828 28.4797C18.1602 28.3792 18.1602 28.3792 17.9735 28.3893C17.9541 28.2198 17.9346 28.0502 17.9152 27.8807C17.8906 27.6897 17.8906 27.6897 17.8028 27.4502C17.5696 27.3336 17.3797 27.3535 17.1198 27.3541C17.0282 27.3539 16.9366 27.3537 16.8423 27.3534C16.6108 27.3488 16.6108 27.3488 16.4368 27.4502Z" fill="white"/>
<path d="M20.1935 22.242C20.2602 22.2617 20.3268 22.2814 20.3955 22.3017C21.8596 22.752 23.2536 23.4994 24.377 24.5472C24.4235 24.5902 24.47 24.6332 24.5179 24.6775C25.2573 25.3676 25.8757 26.0899 26.426 26.9378C26.5058 27.0565 26.5058 27.0565 26.5871 27.1776C27.3759 28.4273 27.9927 30.0593 27.9628 31.5481C28.0133 31.538 28.0638 31.5279 28.1159 31.5174C28.4606 31.4612 28.6682 31.4344 28.9927 31.5801C29.1847 31.8402 29.21 32.0229 29.2028 32.3431C29.1083 32.8282 28.8033 33.2237 28.5338 33.6292C28.4748 33.7213 28.4159 33.8134 28.3552 33.9083C27.7593 34.8306 27.7593 34.8306 27.4185 34.9472C27.148 34.9665 27.0096 34.9118 26.7675 34.7924C26.6438 34.6587 26.6438 34.6587 26.5381 34.4883C26.496 34.4207 26.454 34.3531 26.4107 34.2835C26.3594 34.1979 26.3081 34.1123 26.2553 34.024C26.1821 33.9055 26.109 33.787 26.0358 33.6685C25.9577 33.5399 25.8796 33.4112 25.8017 33.2823C25.7447 33.1895 25.7447 33.1895 25.6866 33.0949C25.483 32.7523 25.3359 32.468 25.3161 32.0604C25.4531 31.7591 25.5502 31.6482 25.8284 31.4627C26.2848 31.4348 26.2848 31.4348 26.5114 31.5481C25.9764 28.974 24.8801 26.6982 22.6738 25.1435C20.3742 23.6477 17.8452 23.0219 15.1292 23.562C12.7374 24.093 10.6217 25.5042 9.25766 27.5464C8.72629 28.3845 8.34287 29.2596 7.98468 30.1821C7.88607 30.1416 7.78746 30.1011 7.68586 30.0594C7.3285 29.9241 6.99837 29.8745 6.61865 29.8406C6.66643 29.3422 6.80682 28.9284 7.00285 28.4692C7.03306 28.3982 7.06327 28.3271 7.09439 28.254C7.38342 27.5954 7.73644 27.0085 8.15543 26.4255C8.20672 26.3535 8.258 26.2816 8.31084 26.2074C9.85847 24.164 11.9412 22.8496 14.3879 22.1567C14.4885 22.1275 14.5891 22.0983 14.6927 22.0683C16.4067 21.6633 18.5107 21.7397 20.1935 22.242Z" fill="white"/>
<path d="M7.13051 31.1214C7.4511 31.3436 7.65204 31.5717 7.85755 31.9012C7.90971 31.984 7.96188 32.0669 8.01563 32.1523C8.06867 32.2382 8.12172 32.3242 8.17637 32.4127C8.23074 32.4994 8.28511 32.586 8.34112 32.6752C8.89406 33.5587 8.89406 33.5587 8.83804 34.1096C8.65662 34.3604 8.65662 34.3604 8.41116 34.5365C8.13765 34.5687 7.97477 34.5744 7.72815 34.4511C8.4921 37.2494 9.82785 39.5133 12.3792 41.0298C14.6206 42.2893 17.2108 42.6208 19.6969 41.9536C22.2157 41.2221 24.2135 39.5463 25.4832 37.2663C25.715 36.8258 25.9022 36.3655 26.0841 35.9025C26.4897 35.9772 26.4897 35.9772 26.6818 36.0733C26.8272 36.0926 26.9732 36.1082 27.1193 36.1213C27.197 36.1285 27.2747 36.1356 27.3548 36.143C27.4144 36.1482 27.4741 36.1533 27.5355 36.1587C27.4844 36.5729 27.3616 36.9318 27.194 37.3112C27.1547 37.4003 27.1547 37.4003 27.1146 37.4912C26.2455 39.3974 24.7641 41.008 23.0106 42.135C22.9255 42.1902 22.8404 42.2453 22.7528 42.3021C20.4148 43.7387 17.3144 44.1863 14.6412 43.5841C11.8315 42.8683 9.35229 41.2028 7.81352 38.72C7.76235 38.6428 7.71117 38.5657 7.65844 38.4862C6.90687 37.2974 6.48514 35.9029 6.19137 34.5365C6.10684 34.5788 6.10684 34.5788 6.02061 34.6219C5.70695 34.6567 5.54653 34.6431 5.26823 34.4885C5.02342 34.2157 5.01446 34.046 4.99609 33.6827C5.08935 33.4165 5.08935 33.4165 5.23421 33.1508C5.28649 33.0541 5.33877 32.9574 5.39263 32.8578C5.42043 32.8084 5.44823 32.7589 5.47688 32.708C5.56147 32.5573 5.64327 32.4052 5.7248 32.2528C6.41217 31.0017 6.41217 31.0017 7.13051 31.1214Z" fill="white"/>
<path d="M6.14885 9.90256C6.26061 9.90224 6.37237 9.90191 6.48752 9.90157C6.72349 9.90107 6.95942 9.9018 7.19538 9.9034C7.49683 9.90534 7.79818 9.90422 8.09962 9.90218C8.38852 9.90064 8.67738 9.90172 8.96628 9.90256C9.12798 9.90153 9.12798 9.90153 9.29294 9.90047C10.2419 9.9106 10.2419 9.9106 10.6311 10.2894C11.0939 10.765 11.022 11.3305 11.018 11.9543C11.0185 12.1219 11.0185 12.1219 11.019 12.2929C11.0195 12.5289 11.0188 12.7648 11.0172 13.0008C11.0152 13.3023 11.0163 13.6036 11.0184 13.9051C11.0199 14.1939 11.0188 14.4828 11.018 14.7717C11.0187 14.8795 11.0194 14.9873 11.0201 15.0984C11.01 16.0473 11.01 16.0473 10.6311 16.4366C10.1556 16.8994 9.59001 16.8274 8.96628 16.8234C8.85452 16.8237 8.74276 16.8241 8.62761 16.8244C8.39164 16.8249 8.15571 16.8242 7.91975 16.8226C7.6183 16.8206 7.31695 16.8218 7.01551 16.8238C6.72661 16.8253 6.43775 16.8243 6.14885 16.8234C5.98715 16.8245 5.98715 16.8245 5.82218 16.8255C4.87326 16.8154 4.87326 16.8154 4.48401 16.4366C4.0212 15.961 4.09314 15.3954 4.09714 14.7717C4.09682 14.6599 4.09649 14.5482 4.09615 14.433C4.09565 14.1971 4.09638 13.9611 4.09798 13.7252C4.09992 13.4237 4.0988 13.1224 4.09676 12.8209C4.09522 12.532 4.0963 12.2432 4.09714 11.9543C4.09645 11.8465 4.09576 11.7387 4.09505 11.6276C4.10518 10.6787 4.10518 10.6787 4.48401 10.2894C4.95955 9.82662 5.52512 9.89856 6.14885 9.90256Z" fill="white"/>
<path d="M6.14902 18.7817C6.26078 18.7814 6.37254 18.7811 6.48769 18.7807C6.72366 18.7802 6.95958 18.7809 7.19555 18.7825C7.497 18.7845 7.79834 18.7834 8.09979 18.7813C8.38868 18.7798 8.67755 18.7809 8.96645 18.7817C9.12814 18.7807 9.12814 18.7807 9.29311 18.7796C10.242 18.7897 10.242 18.7897 10.6313 19.1686C11.0848 19.7178 11.0626 20.3101 11.0688 20.9882C11.0699 21.0789 11.0699 21.0789 11.0709 21.1715C11.0709 22.3105 11.0709 22.3105 10.7473 22.6363C10.501 22.8078 10.2283 22.9114 9.94882 23.0172C9.63662 23.1606 9.39571 23.3905 9.14253 23.6188C9.09209 23.6633 9.04165 23.7077 8.98969 23.7535C8.85281 23.8747 8.71723 23.9971 8.58225 24.1204C8.5226 24.1749 8.46295 24.2294 8.40149 24.2855C8.17483 24.5033 8.00395 24.6811 7.85655 24.9629C7.67874 25.2641 7.53169 25.5 7.21622 25.6572C6.43686 25.8089 5.4208 25.8584 4.69328 25.5135C4.26821 25.1115 4.12397 24.8713 4.09848 24.2832C4.09623 24.0724 4.09596 23.8616 4.09731 23.6509C4.09698 23.5391 4.09666 23.4273 4.09632 23.3122C4.09582 23.0762 4.09654 22.8403 4.09814 22.6043C4.10009 22.3029 4.09897 22.0015 4.09692 21.7001C4.09539 21.4112 4.09647 21.1223 4.09731 20.8334C4.09662 20.7256 4.09593 20.6178 4.09521 20.5068C4.10534 19.5578 4.10534 19.5578 4.48417 19.1686C4.95971 18.7058 5.52528 18.7777 6.14902 18.7817Z" fill="white"/>
<path d="M18.4761 30.3309C19.1885 30.7557 19.6315 31.3437 19.8514 32.1458C19.9367 33.0934 19.8813 33.916 19.2751 34.6911C18.7921 35.2083 18.1905 35.5259 17.4836 35.5895C16.5675 35.6101 15.8125 35.5033 15.1157 34.8525C14.4844 34.1504 14.3376 33.4064 14.3606 32.4863C14.4011 31.7703 14.7096 31.1722 15.2411 30.6944C16.1579 30.0049 17.4239 29.8259 18.4761 30.3309Z" fill="white"/>
<path d="M14.6844 18.7831C14.749 18.7825 14.8135 18.782 14.88 18.7813C15.0965 18.7798 15.3128 18.7807 15.5293 18.7815C15.6844 18.7809 15.8395 18.7802 15.9946 18.7793C16.416 18.7774 16.8374 18.7776 17.2588 18.7784C17.6104 18.7788 17.962 18.7782 18.3136 18.7776C19.1428 18.7761 19.972 18.7764 20.8013 18.7779C21.6573 18.7793 22.5134 18.778 23.3695 18.7752C24.104 18.7729 24.8386 18.7723 25.5732 18.773C26.0121 18.7734 26.451 18.7733 26.8899 18.7715C27.3026 18.7699 27.7151 18.7704 28.1278 18.7725C28.2793 18.773 28.4309 18.7727 28.5825 18.7716C28.7892 18.7702 28.9957 18.7715 29.2023 18.7734C29.2626 18.7724 29.3228 18.7714 29.3848 18.7704C29.6986 18.7764 29.8195 18.8066 30.0487 19.0279C30.2132 19.3064 30.2353 19.4477 30.1822 19.7662C30.0487 19.9923 30.0487 19.9923 29.8407 20.1931C29.6102 20.236 29.4328 20.2506 29.2023 20.2467C29.1378 20.2473 29.0732 20.248 29.0067 20.2486C28.7903 20.2501 28.5739 20.2485 28.3575 20.247C28.2024 20.2474 28.0473 20.2481 27.8921 20.2488C27.4707 20.2504 27.0494 20.2493 26.6279 20.2476C26.1872 20.2462 25.7465 20.247 25.3058 20.2474C24.5657 20.2478 23.8256 20.2465 23.0855 20.2441C22.2294 20.2413 21.3734 20.2413 20.5173 20.2428C19.6943 20.2442 18.8713 20.2436 18.0483 20.2421C17.6978 20.2415 17.3473 20.2416 16.9968 20.2423C16.5842 20.2429 16.1716 20.2419 15.759 20.2395C15.6074 20.239 15.4558 20.239 15.3043 20.2396C15.0976 20.2403 14.8911 20.2389 14.6844 20.2371C14.5941 20.2381 14.5941 20.2381 14.5019 20.2392C14.2129 20.2343 14.0687 20.2109 13.8382 20.0303C13.6931 19.8363 13.6581 19.7491 13.6618 19.5101C13.6605 19.4256 13.6605 19.4256 13.6592 19.3393C13.7988 18.8137 14.2121 18.7776 14.6844 18.7831Z" fill="white"/>
<path d="M14.6844 12.6359C14.749 12.6353 14.8135 12.6347 14.88 12.6341C15.0965 12.6326 15.3128 12.6334 15.5293 12.6343C15.6844 12.6337 15.8395 12.633 15.9946 12.6321C16.416 12.6302 16.8374 12.6304 17.2588 12.6312C17.6104 12.6316 17.962 12.631 18.3136 12.6304C19.1428 12.6289 19.972 12.6292 20.8013 12.6307C21.6573 12.6321 22.5134 12.6307 23.3695 12.628C24.104 12.6257 24.8386 12.6251 25.5732 12.6258C26.0121 12.6262 26.451 12.626 26.8899 12.6243C27.3026 12.6227 27.7151 12.6232 28.1278 12.6253C28.2793 12.6258 28.4309 12.6255 28.5825 12.6244C28.7892 12.623 28.9957 12.6243 29.2023 12.6262C29.2626 12.6252 29.3228 12.6242 29.3848 12.6232C29.6986 12.6292 29.8195 12.6594 30.0487 12.8806C30.2132 13.1591 30.2353 13.3005 30.1822 13.619C30.0487 13.8451 30.0487 13.8451 29.8407 14.0459C29.6102 14.0887 29.4328 14.1034 29.2023 14.0995C29.1378 14.1001 29.0732 14.1007 29.0067 14.1014C28.7903 14.1029 28.5739 14.1013 28.3575 14.0998C28.2024 14.1002 28.0473 14.1008 27.8921 14.1016C27.4707 14.1032 27.0494 14.1021 26.6279 14.1004C26.1872 14.099 25.7465 14.0998 25.3058 14.1002C24.5657 14.1006 23.8256 14.0992 23.0855 14.0969C22.2294 14.0941 21.3734 14.0941 20.5173 14.0956C19.6943 14.0969 18.8713 14.0964 18.0483 14.0949C17.6978 14.0943 17.3473 14.0944 16.9968 14.095C16.5842 14.0957 16.1716 14.0947 15.759 14.0923C15.6074 14.0917 15.4558 14.0917 15.3043 14.0923C15.0976 14.0931 14.8911 14.0917 14.6844 14.0898C14.5941 14.0909 14.5941 14.0909 14.5019 14.092C14.2129 14.0871 14.0687 14.0637 13.8382 13.8831C13.6931 13.6891 13.6581 13.6019 13.6618 13.3629C13.6605 13.2784 13.6605 13.2784 13.6592 13.1921C13.7988 12.6665 14.2121 12.6304 14.6844 12.6359Z" fill="white"/>
<path d="M14.6844 9.90399C14.749 9.9034 14.8135 9.9028 14.88 9.90219C15.0965 9.90063 15.3128 9.90151 15.5293 9.90239C15.6844 9.90178 15.8395 9.90104 15.9946 9.90016C16.416 9.89823 16.8374 9.89849 17.2588 9.89925C17.6104 9.89968 17.962 9.89906 18.3136 9.89844C19.1428 9.89698 19.972 9.89729 20.8013 9.89872C21.6573 9.90016 22.5134 9.89881 23.3695 9.89605C24.104 9.89378 24.8386 9.89315 25.5732 9.89388C26.0121 9.8943 26.451 9.8941 26.8899 9.89236C27.3026 9.89079 27.7151 9.89129 28.1278 9.8934C28.2793 9.89383 28.4309 9.89353 28.5825 9.89245C28.7892 9.89109 28.9957 9.89236 29.2023 9.8943C29.2626 9.89329 29.3228 9.89228 29.3848 9.89124C29.6986 9.89723 29.8195 9.92742 30.0487 10.1487C30.2132 10.4272 30.2353 10.5686 30.1822 10.8871C30.0487 11.1132 30.0487 11.1132 29.8407 11.314C29.6102 11.3568 29.4328 11.3715 29.2023 11.3676C29.1378 11.3682 29.0732 11.3688 29.0067 11.3694C28.7903 11.3709 28.5739 11.3694 28.3575 11.3678C28.2024 11.3683 28.0473 11.3689 27.8921 11.3697C27.4707 11.3713 27.0494 11.3702 26.6279 11.3685C26.1872 11.3671 25.7465 11.3678 25.3058 11.3683C24.5657 11.3687 23.8256 11.3673 23.0855 11.3649C22.2294 11.3622 21.3734 11.3622 20.5173 11.3637C19.6943 11.365 18.8713 11.3644 18.0483 11.363C17.6978 11.3624 17.3473 11.3625 16.9968 11.3631C16.5842 11.3638 16.1716 11.3627 15.759 11.3604C15.6074 11.3598 15.4558 11.3598 15.3043 11.3604C15.0976 11.3612 14.8911 11.3598 14.6844 11.3579C14.5941 11.359 14.5941 11.359 14.5019 11.36C14.2129 11.3551 14.0687 11.3317 13.8382 11.1511C13.6931 10.9572 13.6581 10.87 13.6618 10.6309C13.6605 10.5464 13.6605 10.5464 13.6592 10.4602C13.7988 9.93454 14.2121 9.89847 14.6844 9.90399Z" fill="white"/>
<path d="M14.8396 15.3665C14.9199 15.3657 15.0002 15.365 15.0829 15.3642C15.3483 15.3623 15.6136 15.3629 15.879 15.3637C16.0633 15.3632 16.2477 15.3627 16.4321 15.362C16.8185 15.3612 17.2049 15.3615 17.5913 15.3628C18.0869 15.3643 18.5823 15.3623 19.0779 15.3593C19.4586 15.3574 19.8393 15.3575 20.22 15.3582C20.4027 15.3583 20.5855 15.3577 20.7682 15.3564C21.0235 15.355 21.2787 15.3562 21.534 15.3581C21.6097 15.3571 21.6854 15.3561 21.7633 15.3551C22.2745 15.363 22.2745 15.363 22.5453 15.6128C22.6978 15.8913 22.7213 16.038 22.6691 16.3512C22.5453 16.5772 22.5453 16.5772 22.3276 16.778C22.0636 16.8419 21.8045 16.8355 21.534 16.8319C21.4136 16.8328 21.4136 16.8328 21.2907 16.8338C21.0253 16.8352 20.7601 16.8336 20.4946 16.8317C20.3103 16.8318 20.1259 16.832 19.9415 16.8324C19.5551 16.8326 19.1687 16.8313 18.7823 16.829C18.2868 16.8261 17.7913 16.8266 17.2957 16.8282C16.915 16.8291 16.5343 16.8283 16.1536 16.8271C15.9709 16.8266 15.7881 16.8267 15.6054 16.8272C15.3501 16.8277 15.0949 16.8259 14.8396 16.8236C14.7261 16.8244 14.7261 16.8244 14.6103 16.8253C14.0984 16.8173 14.0984 16.8173 13.8285 16.6151C13.6944 16.4219 13.6582 16.3279 13.6618 16.095C13.6605 16.0105 13.6605 16.0105 13.6592 15.9243C13.8191 15.3224 14.325 15.3627 14.8396 15.3665Z" fill="white"/>
<path d="M21.9858 21.5592C23.0041 21.5493 24.0223 21.5417 25.0405 21.5371C25.5133 21.5349 25.9861 21.5318 26.4589 21.527C26.915 21.5224 27.3711 21.5198 27.8273 21.5187C28.0014 21.5179 28.1756 21.5164 28.3497 21.5141C28.5934 21.511 28.837 21.5106 29.0807 21.5108C29.1529 21.5092 29.2251 21.5077 29.2995 21.5061C29.6537 21.5092 29.7882 21.5106 30.0561 21.7597C30.2111 22.0383 30.2344 22.184 30.182 22.4984C30.0425 22.7242 30.0425 22.7242 29.8405 22.9252C29.5912 22.9806 29.5912 22.9806 29.298 22.9832C29.133 22.986 29.133 22.986 28.9646 22.9889C28.8446 22.9887 28.7245 22.9884 28.6045 22.9879C28.4807 22.9887 28.3569 22.9895 28.2331 22.9904C27.9734 22.9918 27.7138 22.9916 27.4542 22.9903C27.1234 22.9888 26.7929 22.992 26.4621 22.9964C26.2062 22.9993 25.9503 22.9993 25.6943 22.9986C25.5726 22.9986 25.4508 22.9996 25.329 23.0015C24.4711 23.0133 24.0068 22.873 23.3519 22.3276C23.112 22.1887 22.8658 22.0677 22.6155 21.9487C22.5542 21.9189 22.4929 21.889 22.4297 21.8582C22.2821 21.7863 22.134 21.7154 21.9858 21.6446C21.9858 21.6164 21.9858 21.5882 21.9858 21.5592Z" fill="white"/>
</svg>
