<svg width="95" height="95" viewBox="0 0 95 95" fill="none" xmlns="http://www.w3.org/2000/svg">
<g filter="url(#filter0_d_25_163)">
<rect x="12.1001" y="8.09998" width="70" height="70" rx="20" fill="white" shape-rendering="crispEdges"/>
<rect x="11.6001" y="7.59998" width="71" height="71" rx="20.5" stroke="#D1D1D1" shape-rendering="crispEdges"/>
<path d="M45.6219 60.9083L58.118 58.7018L58.2337 58.6757L51.8065 51.0385C49.6511 48.4915 47.5074 45.9345 45.3756 43.3678C45.3756 43.3305 52.0155 25.0706 52.0528 25.0072C55.7265 31.2878 59.3768 37.582 63.0037 43.8896L74.0143 62.9546L74.1001 63.1L33.2378 63.0962L45.6219 60.9083ZM21.1001 58.5825C21.1001 58.5713 24.1271 53.3196 27.8296 46.9124L34.5628 35.2572L42.4083 28.6823C46.723 25.0706 50.265 22.1 50.2762 22.1C50.2484 22.2102 50.207 22.3167 50.1531 22.4168L41.6283 40.6655L33.2677 58.5862L27.1839 58.5937C23.8359 58.5974 21.1001 58.5937 21.1001 58.5825Z" fill="black"/>
</g>
<defs>
<filter id="filter0_d_25_163" x="9.72748e-05" y="-2.47955e-05" width="94.2" height="94.2" filterUnits="userSpaceOnUse" color-interpolation-filters="sRGB">
<feFlood flood-opacity="0" result="BackgroundImageFix"/>
<feColorMatrix in="SourceAlpha" type="matrix" values="0 0 0 0 0 0 0 0 0 0 0 0 0 0 0 0 0 0 127 0" result="hardAlpha"/>
<feOffset dy="4"/>
<feGaussianBlur stdDeviation="5.55"/>
<feComposite in2="hardAlpha" operator="out"/>
<feColorMatrix type="matrix" values="0 0 0 0 0 0 0 0 0 0 0 0 0 0 0 0 0 0 0.22 0"/>
<feBlend mode="normal" in2="BackgroundImageFix" result="effect1_dropShadow_25_163"/>
<feBlend mode="normal" in="SourceGraphic" in2="effect1_dropShadow_25_163" result="shape"/>
</filter>
</defs>
</svg>
