<svg width="95" height="95" viewBox="0 0 95 95" fill="none" xmlns="http://www.w3.org/2000/svg">
<g filter="url(#filter0_d_25_162)">
<rect x="12.1001" y="8.09998" width="70" height="70" rx="20" fill="white" shape-rendering="crispEdges"/>
<rect x="11.6001" y="7.59998" width="71" height="71" rx="20.5" stroke="#D1D1D1" shape-rendering="crispEdges"/>
<path fill-rule="evenodd" clip-rule="evenodd" d="M57.7561 59.9642C54.2661 59.9642 52.0101 58.3004 50.9101 56.1244L53.9701 54.3519C54.7761 55.6679 55.8221 56.6342 57.6761 56.6342C59.2321 56.6342 60.2261 55.8556 60.2261 54.7816C60.2261 53.1656 58.0701 52.5342 56.5481 51.8822C53.8361 50.7282 52.0361 49.2782 52.0361 46.2162C52.0361 43.3982 54.1841 41.2504 57.5421 41.2504C59.9301 41.2504 61.6501 42.0822 62.8841 44.2562L59.9581 46.1361C59.3141 44.9821 58.6161 44.5258 57.5421 44.5258C56.4401 44.5258 55.7421 45.2241 55.7421 46.1361C55.7421 47.2641 56.4401 47.7203 58.0521 48.4183C61.4301 49.8663 63.9861 51.0039 63.9861 54.7279C63.9861 58.1119 61.3281 59.9642 57.7561 59.9642ZM49.1001 54.2982C49.1001 58.1922 46.7021 60.2504 43.3721 60.2504C40.3641 60.2504 38.5621 59.1 37.6761 57.1H37.6461H37.6321H37.6241L40.6821 54.9623C41.2721 56.0083 41.8041 56.7504 43.0921 56.7504C44.3281 56.7504 45.1001 56.1245 45.1001 54.2465V41.1H49.1001V54.2982ZM27.1001 63.1H67.1001V23.1H27.1001V63.1Z" fill="black"/>
</g>
<defs>
<filter id="filter0_d_25_162" x="9.72748e-05" y="-2.47955e-05" width="94.2" height="94.2" filterUnits="userSpaceOnUse" color-interpolation-filters="sRGB">
<feFlood flood-opacity="0" result="BackgroundImageFix"/>
<feColorMatrix in="SourceAlpha" type="matrix" values="0 0 0 0 0 0 0 0 0 0 0 0 0 0 0 0 0 0 127 0" result="hardAlpha"/>
<feOffset dy="4"/>
<feGaussianBlur stdDeviation="5.55"/>
<feComposite in2="hardAlpha" operator="out"/>
<feColorMatrix type="matrix" values="0 0 0 0 0 0 0 0 0 0 0 0 0 0 0 0 0 0 0.22 0"/>
<feBlend mode="normal" in2="BackgroundImageFix" result="effect1_dropShadow_25_162"/>
<feBlend mode="normal" in="SourceGraphic" in2="effect1_dropShadow_25_162" result="shape"/>
</filter>
</defs>
</svg>
