<svg width="95" height="95" viewBox="0 0 95 95" fill="none" xmlns="http://www.w3.org/2000/svg">
<g filter="url(#filter0_d_25_149)">
<rect x="12.1001" y="8.1001" width="70" height="70" rx="20" fill="white" shape-rendering="crispEdges"/>
<rect x="11.6001" y="7.6001" width="71" height="71" rx="20.5" stroke="#D1D1D1" shape-rendering="crispEdges"/>
<path d="M56.7854 60.6025C56.6367 60.6813 56.6492 60.7063 56.7917 60.6338C56.8379 60.615 56.8767 60.5888 56.9104 60.5575C56.9104 60.5313 56.9104 60.5313 56.7854 60.6025ZM57.0854 60.44C57.0142 60.4988 57.0142 60.4988 57.0992 60.46C57.1442 60.4338 57.1842 60.4088 57.1842 60.4013C57.1842 60.3675 57.1642 60.375 57.0854 60.44ZM57.2804 60.3225C57.2092 60.3813 57.2092 60.3813 57.2942 60.3425C57.3404 60.3163 57.3792 60.2888 57.3792 60.2825C57.3792 60.2513 57.3592 60.2575 57.2804 60.3225ZM57.4779 60.2063C57.4067 60.265 57.4067 60.265 57.4892 60.225C57.5354 60.2 57.5741 60.1738 57.5741 60.1663C57.5741 60.135 57.5541 60.1413 57.4779 60.2063ZM57.7441 60.03C57.6079 60.1213 57.5604 60.18 57.6854 60.115C57.7691 60.0638 57.9116 59.9513 57.8866 59.9513C57.8329 59.9713 57.7879 60.005 57.7429 60.03H57.7441ZM45.7908 23.1093C45.6995 23.1155 45.4258 23.1405 45.1858 23.1605C39.501 23.6755 34.1824 26.7356 30.8112 31.4495C28.9475 34.0333 27.7376 37.0346 27.2813 40.1859C27.1201 41.2859 27.1001 41.6109 27.1001 43.1022C27.1001 44.5922 27.1201 44.9122 27.2813 46.0123C28.3701 53.5262 33.7149 59.8338 40.9597 62.1713C42.2634 62.5876 43.6296 62.8751 45.1858 63.0513C45.7908 63.1163 48.4069 63.1163 49.0119 63.0513C51.7018 62.7513 53.973 62.0876 56.2204 60.9413C56.5654 60.7663 56.6304 60.7201 56.5842 60.6813C55.4842 59.23 54.4042 57.7775 53.323 56.3125L50.1269 51.9961L46.1233 46.0648C44.7883 44.0797 43.4483 42.0997 42.0871 40.1346C42.0734 40.1346 42.0559 42.7709 42.0484 45.986C42.0346 51.6174 42.0346 51.8461 41.9634 51.9761C41.8921 52.1324 41.7746 52.2624 41.6184 52.3349C41.4946 52.3936 41.3834 52.4061 40.7922 52.4061H40.1159L39.9397 52.2961C39.8297 52.2249 39.7385 52.1261 39.6797 52.0099L39.5947 51.8336L39.601 43.9947L39.6147 36.1558L39.7385 35.9995C39.8172 35.9033 39.9147 35.8245 40.0247 35.7658C40.1884 35.687 40.2534 35.6745 40.9297 35.6745C41.7234 35.6745 41.8546 35.7058 42.0634 35.9345C43.6833 38.3496 45.2983 40.7709 46.887 43.1997C49.4856 47.1398 53.033 52.5161 54.7767 55.1537L57.9479 59.9525L58.1041 59.8488C59.6278 58.8325 61.014 57.6225 62.2103 56.2425C64.7302 53.3574 66.3651 49.8086 66.9189 46.021C67.0801 44.921 67.1001 44.5947 67.1001 43.1047C67.1001 41.6134 67.0801 41.2947 66.9189 40.1946C65.8301 32.6807 60.4853 26.3731 53.2405 24.0343C51.8856 23.6055 50.4919 23.313 49.0807 23.163C48.7019 23.1243 46.117 23.078 45.792 23.1118L45.7908 23.1093ZM53.9743 35.2058C54.163 35.2958 54.3055 35.4658 54.3705 35.6608C54.4042 35.7658 54.4105 37.9396 54.4042 42.8359L54.3905 49.8661L53.1543 47.966L51.9106 46.0648V40.9609C51.9106 37.6521 51.9243 35.797 51.9418 35.7058C52.0006 35.497 52.1431 35.322 52.3331 35.212C52.4881 35.1333 52.5481 35.127 53.1668 35.127C53.7455 35.127 53.8443 35.1333 53.9743 35.2058Z" fill="black"/>
</g>
<defs>
<filter id="filter0_d_25_149" x="9.72748e-05" y="9.72748e-05" width="94.2" height="94.2" filterUnits="userSpaceOnUse" color-interpolation-filters="sRGB">
<feFlood flood-opacity="0" result="BackgroundImageFix"/>
<feColorMatrix in="SourceAlpha" type="matrix" values="0 0 0 0 0 0 0 0 0 0 0 0 0 0 0 0 0 0 127 0" result="hardAlpha"/>
<feOffset dy="4"/>
<feGaussianBlur stdDeviation="5.55"/>
<feComposite in2="hardAlpha" operator="out"/>
<feColorMatrix type="matrix" values="0 0 0 0 0 0 0 0 0 0 0 0 0 0 0 0 0 0 0.22 0"/>
<feBlend mode="normal" in2="BackgroundImageFix" result="effect1_dropShadow_25_149"/>
<feBlend mode="normal" in="SourceGraphic" in2="effect1_dropShadow_25_149" result="shape"/>
</filter>
</defs>
</svg>
