<svg width="93" height="93" viewBox="0 0 93 93" fill="none" xmlns="http://www.w3.org/2000/svg">
<g filter="url(#filter0_di_25_136)">
<rect x="11.1001" y="7.1001" width="70" height="70" rx="35" fill="#0F0F0F"/>
<path d="M28.1001 58.1557V38.7112H37.8223V60.1001H30.0445C29.5288 60.1001 29.0343 59.8952 28.6696 59.5306C28.305 59.1659 28.1001 58.6714 28.1001 58.1557ZM63.1001 27.0445C63.1001 26.5288 62.8952 26.0343 62.5306 25.6696C62.1659 25.305 61.6714 25.1001 61.1557 25.1001H30.0445C29.5288 25.1001 29.0343 25.305 28.6696 25.6696C28.305 26.0343 28.1001 26.5288 28.1001 27.0445V34.8223H63.1001V27.0445ZM61.1557 60.1001C61.6714 60.1001 62.1659 59.8952 62.5306 59.5306C62.8952 59.1659 63.1001 58.6714 63.1001 58.1557V38.7112H41.7112V60.1001H61.1557Z" fill="white"/>
</g>
<defs>
<filter id="filter0_di_25_136" x="9.72748e-05" y="9.72748e-05" width="92.2" height="92.2" filterUnits="userSpaceOnUse" color-interpolation-filters="sRGB">
<feFlood flood-opacity="0" result="BackgroundImageFix"/>
<feColorMatrix in="SourceAlpha" type="matrix" values="0 0 0 0 0 0 0 0 0 0 0 0 0 0 0 0 0 0 127 0" result="hardAlpha"/>
<feOffset dy="4"/>
<feGaussianBlur stdDeviation="5.55"/>
<feComposite in2="hardAlpha" operator="out"/>
<feColorMatrix type="matrix" values="0 0 0 0 0 0 0 0 0 0 0 0 0 0 0 0 0 0 0.22 0"/>
<feBlend mode="normal" in2="BackgroundImageFix" result="effect1_dropShadow_25_136"/>
<feBlend mode="normal" in="SourceGraphic" in2="effect1_dropShadow_25_136" result="shape"/>
<feColorMatrix in="SourceAlpha" type="matrix" values="0 0 0 0 0 0 0 0 0 0 0 0 0 0 0 0 0 0 127 0" result="hardAlpha"/>
<feOffset dy="4"/>
<feGaussianBlur stdDeviation="2.9"/>
<feComposite in2="hardAlpha" operator="arithmetic" k2="-1" k3="1"/>
<feColorMatrix type="matrix" values="0 0 0 0 0.911538 0 0 0 0 0.911538 0 0 0 0 0.911538 0 0 0 0.61 0"/>
<feBlend mode="normal" in2="shape" result="effect2_innerShadow_25_136"/>
</filter>
</defs>
</svg>
