<svg width="95" height="95" viewBox="0 0 95 95" fill="none" xmlns="http://www.w3.org/2000/svg">
<g filter="url(#filter0_d_88_184)">
<rect x="12.1001" y="8.09998" width="70" height="70" rx="20" fill="white" shape-rendering="crispEdges"/>
<rect x="11.6001" y="7.59998" width="71" height="71" rx="20.5" stroke="#D1D1D1" shape-rendering="crispEdges"/>
<path d="M46.6436 20.1C48.2922 21.6901 49.6364 23.4907 50.9984 25.3258C51.3386 25.7822 51.3386 25.7822 51.6856 26.2478C55.6634 31.7739 58.1741 37.9056 57.3077 44.8177C56.3746 50.3133 53.2049 55.681 48.9661 59.2935C48.7745 59.3893 48.5829 59.4851 48.3855 59.5838C48.2542 60.351 48.1543 61.0973 48.077 61.8701C47.8362 64.1349 47.8362 64.1349 47.5145 65.1C47.0355 65.1 46.5565 65.1 46.0629 65.1C46.0277 64.8511 45.9926 64.6022 45.9563 64.3458C45.8085 63.3373 45.6474 62.3316 45.4823 61.3258C45.4224 60.9545 45.3625 60.5833 45.3008 60.2008C44.8057 59.0756 44.1604 58.5857 43.2209 57.8192C40.017 55.0342 37.8675 50.8534 36.7726 46.8097C36.6689 46.4481 36.5653 46.0866 36.4585 45.7141C36.1372 44.4065 36.0917 43.1437 36.1012 41.8016C36.1029 41.5588 36.1045 41.316 36.1062 41.0659C36.1445 39.1011 36.4103 37.3485 37.0629 35.4871C37.1797 35.1484 37.2964 34.8097 37.4167 34.4607C38.7807 30.71 40.7775 27.406 43.3672 24.3732C44.5232 22.9978 45.5768 21.5451 46.6436 20.1Z" fill="black"/>
<path d="M46.6437 36.0677C46.7395 36.0677 46.8353 36.0677 46.934 36.0677C47.2855 41.4036 47.5744 46.7428 47.7419 52.0878C47.7598 52.6334 47.7797 53.1789 47.8016 53.7244C47.832 54.492 47.8546 55.2595 47.8753 56.0274C47.8858 56.2574 47.8963 56.4874 47.9071 56.7244C47.9194 57.3656 47.9194 57.3656 47.805 58.4226C47.2199 59.0078 47.2199 59.0078 46.6437 59.2936C46.2127 58.9875 46.2127 58.9875 45.7727 58.4226C45.6781 57.4936 45.6781 57.4936 45.7013 56.3518C45.7047 56.1463 45.7082 55.9409 45.7117 55.7292C45.7553 53.6551 45.8722 51.5842 46.0044 49.5141C46.0744 48.4151 46.1397 47.3158 46.2048 46.2166C46.2178 45.9975 46.2309 45.7784 46.2443 45.5527C46.4289 42.3933 46.54 39.2307 46.6437 36.0677Z" fill="white"/>
<path d="M46.6435 36.0677C46.7393 36.0677 46.8351 36.0677 46.9338 36.0677C47.107 39.4232 47.2547 42.7781 47.2786 46.1383C47.2842 46.5204 47.2842 46.5204 47.2899 46.9103C47.2903 47.1476 47.2906 47.385 47.291 47.6296C47.2922 47.8365 47.2934 48.0433 47.2946 48.2564C47.2126 48.9377 46.9798 49.4098 46.6435 50.0032C46.5477 50.0032 46.4519 50.0032 46.3532 50.0032C46.3112 45.3503 46.4341 40.716 46.6435 36.0677Z" fill="white"/>
<path d="M46.3533 45.0677C46.6407 45.1636 46.9281 45.2594 47.2242 45.3581C47.24 45.9144 47.2512 46.4709 47.2605 47.0274C47.2673 47.3373 47.274 47.6472 47.2809 47.9664C47.2257 48.8201 47.0868 49.2843 46.6436 50.0032C46.5478 50.0032 46.452 50.0032 46.3533 50.0032C46.3533 48.3745 46.3533 46.7458 46.3533 45.0677Z" fill="white"/>
<path d="M46.9339 42.7451C47.0297 42.7451 47.1255 42.7451 47.2242 42.7451C47.2242 43.6074 47.2242 44.4696 47.2242 45.358C46.9368 45.2622 46.6494 45.1664 46.3533 45.0677C46.6073 43.0717 46.6073 43.0717 46.9339 42.7451Z" fill="white"/>
</g>
<defs>
<filter id="filter0_d_88_184" x="9.72748e-05" y="-2.47955e-05" width="94.2" height="94.2" filterUnits="userSpaceOnUse" color-interpolation-filters="sRGB">
<feFlood flood-opacity="0" result="BackgroundImageFix"/>
<feColorMatrix in="SourceAlpha" type="matrix" values="0 0 0 0 0 0 0 0 0 0 0 0 0 0 0 0 0 0 127 0" result="hardAlpha"/>
<feOffset dy="4"/>
<feGaussianBlur stdDeviation="5.55"/>
<feComposite in2="hardAlpha" operator="out"/>
<feColorMatrix type="matrix" values="0 0 0 0 0 0 0 0 0 0 0 0 0 0 0 0 0 0 0.22 0"/>
<feBlend mode="normal" in2="BackgroundImageFix" result="effect1_dropShadow_88_184"/>
<feBlend mode="normal" in="SourceGraphic" in2="effect1_dropShadow_88_184" result="shape"/>
</filter>
</defs>
</svg>
