<svg width="95" height="95" viewBox="0 0 95 95" fill="none" xmlns="http://www.w3.org/2000/svg">
<g filter="url(#filter0_d_25_151)">
<rect x="12.1001" y="8.1001" width="70" height="70" rx="20" fill="white" shape-rendering="crispEdges"/>
<rect x="11.6001" y="7.6001" width="71" height="71" rx="20.5" stroke="#D1D1D1" shape-rendering="crispEdges"/>
<path d="M53.4057 38.0689C50.6092 38.0689 48.3427 40.3214 48.3427 43.1008C48.3427 45.8801 50.6092 48.1326 53.4057 48.1326H53.5694C56.3659 48.1326 58.6324 45.8801 58.6324 43.1008C58.6324 40.3214 56.3659 38.0689 53.5694 38.0689H53.4057ZM53.5694 50.5838H53.4057C49.2471 50.5838 45.8763 47.2337 45.8763 43.1008C45.8763 38.9678 49.2471 35.6177 53.4057 35.6177H53.5694C57.7279 35.6177 61.0988 38.9678 61.0988 43.1008C61.0988 47.2337 57.7279 50.5838 53.5694 50.5838ZM40.6496 50.5838C37.8531 50.5838 35.5853 52.8364 35.5853 55.6157C35.5853 58.395 37.8518 60.6475 40.6483 60.6475C40.663 60.6475 40.6791 60.6475 40.6939 60.6475H40.6912C40.6952 60.6475 40.7006 60.6475 40.706 60.6475C43.5521 60.6475 45.8629 58.3617 45.8776 55.5357V50.5838H40.6496ZM40.6899 63.1001C40.6724 63.1001 40.6509 63.1001 40.6295 63.1001C36.4709 63.1001 33.1001 59.75 33.1001 55.617C33.1001 51.4841 36.4709 48.1339 40.6295 48.1339C40.6362 48.1339 40.6429 48.1339 40.6496 48.1339H48.3427V55.5357C48.3266 59.7166 44.9115 63.1001 40.7033 63.1001C40.6993 63.1001 40.6952 63.1001 40.6912 63.1001H40.6899ZM40.6496 38.0689C37.8531 38.0689 35.5866 40.3214 35.5866 43.1008C35.5866 45.8801 37.8531 48.1339 40.6496 48.1339L45.8763 48.1326V38.0703L40.6496 38.0689ZM48.3414 50.5838H40.6496C36.4911 50.5838 33.1202 47.2337 33.1202 43.1008C33.1202 38.9678 36.4911 35.6177 40.6496 35.6177H48.3427V50.5838H48.3414ZM40.6496 25.554C37.8531 25.554 35.5866 27.8065 35.5866 30.5858C35.5866 33.3652 37.8531 35.6177 40.6496 35.6177H45.8763V25.5527L40.6496 25.554ZM48.3414 38.0689H40.6496C36.4911 38.0689 33.1189 34.7188 33.1189 30.5845C33.1189 26.4502 36.4897 23.1001 40.6496 23.1001H48.3427V38.0676L48.3414 38.0689ZM48.3414 35.6177H53.5694C56.3605 35.611 58.6189 33.3612 58.6189 30.5858C58.6189 27.8105 56.3592 25.5607 53.568 25.554H48.3414V35.6177ZM53.5694 38.0689L45.8763 38.0703V23.1014H53.5694C57.7279 23.1014 61.1001 26.4515 61.1001 30.5858C61.1001 34.7201 57.7293 38.0689 53.5694 38.0689Z" fill="black"/>
</g>
<defs>
<filter id="filter0_d_25_151" x="9.72748e-05" y="9.72748e-05" width="94.2" height="94.2" filterUnits="userSpaceOnUse" color-interpolation-filters="sRGB">
<feFlood flood-opacity="0" result="BackgroundImageFix"/>
<feColorMatrix in="SourceAlpha" type="matrix" values="0 0 0 0 0 0 0 0 0 0 0 0 0 0 0 0 0 0 127 0" result="hardAlpha"/>
<feOffset dy="4"/>
<feGaussianBlur stdDeviation="5.55"/>
<feComposite in2="hardAlpha" operator="out"/>
<feColorMatrix type="matrix" values="0 0 0 0 0 0 0 0 0 0 0 0 0 0 0 0 0 0 0.22 0"/>
<feBlend mode="normal" in2="BackgroundImageFix" result="effect1_dropShadow_25_151"/>
<feBlend mode="normal" in="SourceGraphic" in2="effect1_dropShadow_25_151" result="shape"/>
</filter>
</defs>
</svg>
