<svg width="95" height="95" viewBox="0 0 95 95" fill="none" xmlns="http://www.w3.org/2000/svg">
<g filter="url(#filter0_d_25_158)">
<rect x="12.1001" y="8.09998" width="70" height="70" rx="20" fill="white" shape-rendering="crispEdges"/>
<rect x="11.6001" y="7.59998" width="71" height="71" rx="20.5" stroke="#D1D1D1" shape-rendering="crispEdges"/>
<path fill-rule="evenodd" clip-rule="evenodd" d="M46.6001 21.1C59.0268 21.1 69.1001 31.4273 69.1001 44.169C69.1001 54.3593 62.6606 63.0038 53.7258 66.0571C52.5851 66.2843 52.1801 65.5639 52.1801 64.9497C52.1801 64.1892 52.2071 61.7052 52.2071 58.6182C52.2071 56.4672 51.4871 55.0634 50.6794 54.3479C55.6901 53.7764 60.9551 51.8254 60.9551 42.9649C60.9551 40.4449 60.0821 38.3886 58.6376 36.7731C58.8716 36.1903 59.6433 33.8439 58.4171 30.6669C58.4171 30.6669 56.5316 30.0487 52.2363 33.0322C50.4386 32.5215 48.5126 32.2645 46.6001 32.2555C44.6876 32.2645 42.7639 32.5215 40.9684 33.0322C36.6686 30.0487 34.7786 30.6669 34.7786 30.6669C33.5569 33.8439 34.3286 36.1903 34.5604 36.7731C33.1226 38.3886 32.2429 40.4449 32.2429 42.9649C32.2429 51.8029 37.4966 53.7838 42.4939 54.3665C41.8504 54.9425 41.2676 55.9586 41.0651 57.4504C39.7826 58.0399 36.5246 59.0601 34.5176 55.5344C34.5176 55.5344 33.3273 53.3178 31.0683 53.1558C31.0683 53.1558 28.8746 53.1267 30.9153 54.5577C30.9153 54.5577 32.3891 55.2664 33.4128 57.9327C33.4128 57.9327 34.7336 62.0501 40.9931 60.6551C41.0044 62.5834 41.0246 64.4007 41.0246 64.9497C41.0246 65.5594 40.6106 66.273 39.4878 66.0593C30.5463 63.0105 24.1001 54.3615 24.1001 44.169C24.1001 31.4273 34.1756 21.1 46.6001 21.1Z" fill="black"/>
</g>
<defs>
<filter id="filter0_d_25_158" x="9.72748e-05" y="-2.47955e-05" width="94.2" height="94.2" filterUnits="userSpaceOnUse" color-interpolation-filters="sRGB">
<feFlood flood-opacity="0" result="BackgroundImageFix"/>
<feColorMatrix in="SourceAlpha" type="matrix" values="0 0 0 0 0 0 0 0 0 0 0 0 0 0 0 0 0 0 127 0" result="hardAlpha"/>
<feOffset dy="4"/>
<feGaussianBlur stdDeviation="5.55"/>
<feComposite in2="hardAlpha" operator="out"/>
<feColorMatrix type="matrix" values="0 0 0 0 0 0 0 0 0 0 0 0 0 0 0 0 0 0 0.22 0"/>
<feBlend mode="normal" in2="BackgroundImageFix" result="effect1_dropShadow_25_158"/>
<feBlend mode="normal" in="SourceGraphic" in2="effect1_dropShadow_25_158" result="shape"/>
</filter>
</defs>
</svg>
