<svg width="95" height="95" viewBox="0 0 95 95" fill="none" xmlns="http://www.w3.org/2000/svg">
<g filter="url(#filter0_d_25_155)">
<rect x="12.1001" y="8.1001" width="70" height="70" rx="20" fill="white" shape-rendering="crispEdges"/>
<rect x="11.6001" y="7.6001" width="71" height="71" rx="20.5" stroke="#D1D1D1" shape-rendering="crispEdges"/>
<path d="M73.5745 38.4374C72.4898 37.7234 71.1573 37.2975 69.7257 37.2975C69.5612 37.2975 69.3984 37.3028 69.2374 37.3134L69.2586 37.3116C68.4694 37.3134 67.6978 37.3841 66.9475 37.5149L67.0289 37.5025C66.6131 35.1044 65.2152 33.0934 63.2739 31.8634L63.2403 31.8439L62.4812 31.4057L61.9822 32.1267C61.3876 33.0315 60.9222 34.0848 60.6444 35.2105L60.6302 35.2794C60.4727 35.8519 60.3825 36.5093 60.3825 37.1879C60.3825 38.6565 60.8072 40.0243 61.5398 41.1783L61.5221 41.1482C60.3949 41.6766 59.0783 42.0106 57.6928 42.0742H57.6698H22.7582C21.8451 42.076 21.1054 42.8129 21.1019 43.723C21.1001 43.822 21.1001 43.9404 21.1001 44.0588C21.1001 47.1532 21.661 50.1167 22.6874 52.8541L22.6308 52.6809C23.6182 55.5668 25.4833 57.9384 27.904 59.5394L27.9536 59.5695C31.0397 61.1653 34.6921 62.1001 38.5621 62.1001C38.9284 62.1001 39.2911 62.0913 39.6539 62.0754L39.6026 62.0771C39.6344 62.0771 39.6716 62.0771 39.7088 62.0771C41.9596 62.0771 44.1592 61.8633 46.2915 61.4551L46.0739 61.4904C49.2502 60.8966 52.0815 59.831 54.6474 58.3572L54.5164 58.4261C56.7407 57.1272 58.6412 55.5615 60.2586 53.7395L60.2799 53.7148C62.6245 50.9579 64.5321 47.7399 65.8451 44.2338L65.9177 44.0129H66.4061C66.5034 44.0164 66.6166 44.0199 66.7299 44.0199C68.8994 44.0199 70.8707 43.1699 72.327 41.7844L72.3235 41.788C72.9906 41.1553 73.5197 40.3866 73.8683 39.5242L73.8842 39.4818L74.1001 38.8473L73.5745 38.4374ZM25.9929 41.0563H30.6752C30.8999 41.0546 31.0822 40.8725 31.0822 40.6481V36.4864C31.0822 36.2619 30.8999 36.0781 30.6752 36.0764H25.9929C25.7682 36.0781 25.5859 36.2602 25.5859 36.4846V40.6481C25.5859 40.8725 25.7682 41.0563 25.9929 41.0563ZM32.4412 41.0563H37.1199C37.3446 41.0563 37.5287 40.8743 37.5287 40.6481V36.4864C37.5287 36.2619 37.3464 36.0781 37.1217 36.0764H32.4394C32.2129 36.0764 32.0289 36.2602 32.0289 36.4864V40.6481C32.0307 40.8743 32.2147 41.0563 32.4412 41.0563ZM38.985 41.0563H43.6673C43.892 41.0546 44.0743 40.8725 44.0743 40.6481V36.4864C44.0743 36.2619 43.892 36.0781 43.6673 36.0764H38.985C38.7603 36.0781 38.578 36.2602 38.578 36.4846V40.6481C38.578 40.8725 38.7603 41.0563 38.9868 41.0563H38.985ZM45.4545 41.0563H50.1314C50.358 41.0563 50.5402 40.8743 50.542 40.6481V36.4864C50.542 36.2602 50.358 36.0764 50.1314 36.0764H45.4545C45.2298 36.0764 45.0457 36.2584 45.0457 36.4846V40.6481C45.0457 40.8725 45.228 41.0563 45.4527 41.0563C45.4527 41.0563 45.4527 41.0563 45.4545 41.0563ZM32.4412 35.0691H37.1199C37.3464 35.0673 37.5287 34.8853 37.5287 34.6591V30.4973C37.5287 30.2729 37.3464 30.0891 37.1199 30.0891H32.4412C32.2147 30.0891 32.0324 30.2711 32.0307 30.4973V34.6591C32.0324 34.8853 32.2147 35.0673 32.4412 35.0691ZM38.985 35.0691H43.6673C43.892 35.0673 44.0743 34.8835 44.0743 34.6591V30.4973C44.0743 30.2729 43.892 30.0891 43.6655 30.0891H38.9885C38.7638 30.0891 38.5798 30.2711 38.5798 30.4973V34.6591C38.5816 34.8853 38.762 35.0673 38.9885 35.0691H38.985ZM45.4545 35.0691H50.1314C50.358 35.0673 50.5402 34.8853 50.542 34.6591V30.4973C50.5402 30.2711 50.358 30.0891 50.1314 30.0891H45.4545C45.2298 30.0891 45.0457 30.2711 45.0457 30.4973V34.6591C45.0457 34.8853 45.228 35.0673 45.4545 35.0691ZM45.4545 29.0818H50.1314C50.358 29.0818 50.542 28.898 50.542 28.6718V24.5083C50.5402 24.2821 50.358 24.1001 50.1314 24.1001H45.4545C45.2298 24.1001 45.0457 24.2821 45.0457 24.5083V28.6718C45.0457 28.8963 45.228 29.0801 45.4527 29.0801C45.4527 29.0801 45.4527 29.0801 45.4545 29.0801V29.0818ZM51.9789 41.0563H56.6576C56.8841 41.0563 57.0663 40.8743 57.0681 40.6481V36.4864C57.0681 36.2602 56.8841 36.0764 56.6576 36.0764H51.9789C51.7524 36.0764 51.5701 36.2584 51.5701 36.4846V40.6481C51.5701 40.8725 51.7524 41.0563 51.9789 41.0563Z" fill="black"/>
</g>
<defs>
<filter id="filter0_d_25_155" x="9.72748e-05" y="9.72748e-05" width="94.2" height="94.2" filterUnits="userSpaceOnUse" color-interpolation-filters="sRGB">
<feFlood flood-opacity="0" result="BackgroundImageFix"/>
<feColorMatrix in="SourceAlpha" type="matrix" values="0 0 0 0 0 0 0 0 0 0 0 0 0 0 0 0 0 0 127 0" result="hardAlpha"/>
<feOffset dy="4"/>
<feGaussianBlur stdDeviation="5.55"/>
<feComposite in2="hardAlpha" operator="out"/>
<feColorMatrix type="matrix" values="0 0 0 0 0 0 0 0 0 0 0 0 0 0 0 0 0 0 0.22 0"/>
<feBlend mode="normal" in2="BackgroundImageFix" result="effect1_dropShadow_25_155"/>
<feBlend mode="normal" in="SourceGraphic" in2="effect1_dropShadow_25_155" result="shape"/>
</filter>
</defs>
</svg>
