<svg width="95" height="95" viewBox="0 0 95 95" fill="none" xmlns="http://www.w3.org/2000/svg">
<g filter="url(#filter0_d_25_164)">
<rect x="12.1001" y="8.09998" width="70" height="70" rx="20" fill="white" shape-rendering="crispEdges"/>
<rect x="11.6001" y="7.59998" width="71" height="71" rx="20.5" stroke="#D1D1D1" shape-rendering="crispEdges"/>
<path d="M35.0557 38.694C35.0681 39.2245 35.1491 39.7513 35.2968 40.261L35.779 41.4664C35.8226 41.5154 35.8558 41.5727 35.8765 41.6348C35.8972 41.697 35.9051 41.7628 35.8995 41.8281C35.8995 42.0691 35.779 42.1897 35.6584 42.4308L34.453 43.154H34.0914C33.9791 43.1636 33.8661 43.1467 33.7615 43.1049C33.6568 43.063 33.5634 42.9973 33.4887 42.9129C33.2225 42.6845 33.0157 42.395 32.886 42.0691C32.6583 41.7652 32.4567 41.4426 32.2833 41.1048C31.6597 41.8746 30.8687 42.4919 29.9704 42.9097C29.0722 43.3275 28.0904 43.5347 27.1 43.5156C26.4584 43.5385 25.8187 43.433 25.2184 43.2053C24.6181 42.9776 24.0693 42.6323 23.6043 42.1897C23.1652 41.747 22.8211 41.2193 22.5931 40.6389C22.3651 40.0585 22.258 39.4377 22.2783 38.8145C22.2771 38.1249 22.4277 37.4434 22.7194 36.8185C23.011 36.1935 23.4366 35.6404 23.9659 35.1983C25.1644 34.2584 26.6641 33.7871 28.1849 33.8723H30.1135L32.1627 34.234V33.1491C32.2176 32.1543 31.9187 31.1722 31.3189 30.3766C30.4774 29.7771 29.4578 29.4798 28.4259 29.5328L26.4973 29.7739L24.5686 30.3766L23.9659 30.6177H23.7248C23.4837 30.6177 23.3632 30.3766 23.3632 30.015V29.1712C23.3262 28.9623 23.3692 28.7471 23.4837 28.5685L23.9659 28.2069C24.6556 27.8749 25.3847 27.6319 26.1356 27.4836C27.0406 27.2453 27.9723 27.1238 28.9081 27.122C30.6027 26.9835 32.2856 27.5014 33.6092 28.5685C34.1267 29.1593 34.5212 29.8474 34.7696 30.5925C35.018 31.3377 35.1152 32.1248 35.0557 32.908V38.694ZM27.9438 41.3459L29.7519 40.9843C30.3812 40.7388 30.9549 40.37 31.4395 39.8994C31.7118 39.5374 31.916 39.129 32.0422 38.694C32.0422 38.3324 32.1627 37.8502 32.1627 37.2475V36.5242L30.5957 36.1626H28.9081C27.9672 36.0912 27.0305 36.3467 26.2562 36.8859C25.9693 37.1411 25.7443 37.4582 25.5981 37.8132C25.4519 38.1682 25.3884 38.5519 25.4124 38.9351C25.3701 39.5933 25.5863 40.242 26.0151 40.7432C26.278 40.9707 26.5849 41.1416 26.9167 41.2453C27.2485 41.349 27.5981 41.3833 27.9438 41.3459ZM42.0471 43.2746C41.9348 43.2841 41.8219 43.2673 41.7172 43.2254C41.6126 43.1836 41.5192 43.1178 41.4444 43.0335C41.3185 42.9527 41.2107 42.8467 41.1277 42.7222C41.0448 42.5978 40.9884 42.4575 40.9623 42.3102L36.8638 28.6891C36.7829 28.4566 36.7422 28.212 36.7433 27.9658C36.7433 27.9183 36.7527 27.8713 36.7708 27.8274C36.789 27.7835 36.8156 27.7437 36.8492 27.7101C36.8828 27.6765 36.9227 27.6499 36.9665 27.6317C37.0104 27.6135 37.0574 27.6042 37.1049 27.6042H39.5158C39.6861 27.817 39.8093 28.0635 39.8774 28.3274L42.8909 40.0199L45.6634 28.3274C45.6523 28.1968 45.668 28.0653 45.7094 27.941C45.7509 27.8166 45.8172 27.702 45.9045 27.6042H48.7975L49.1591 28.3274L51.9315 40.1405L54.9451 28.3274L55.3067 27.6042H57.597C57.9586 27.6042 58.0792 27.7247 58.0792 27.9658V28.3274C58.0792 28.448 57.9586 28.5685 57.9586 28.6891L53.6191 42.4308C53.6151 42.5537 53.5797 42.6735 53.5164 42.779C53.4532 42.8845 53.364 42.972 53.2575 43.0335L52.6548 43.2746H51.0877C50.9564 43.2952 50.8221 43.2844 50.6957 43.2432C50.5693 43.2021 50.4544 43.1316 50.3604 43.0376C50.2664 42.9436 50.1959 42.8287 50.1547 42.7023C50.1135 42.5759 50.1028 42.4416 50.1234 42.3102L47.351 30.9793L44.5785 42.3102C44.5896 42.4408 44.5739 42.5723 44.5325 42.6967C44.491 42.821 44.4247 42.9356 44.3374 43.0335L43.6142 43.2746H42.0471ZM64.7089 43.7567C63.8128 43.7555 62.9208 43.6339 62.057 43.3951L60.0078 42.6718C59.7635 42.5744 59.5538 42.4066 59.4051 42.1897C59.4051 42.0691 59.2846 41.8281 59.2846 41.7075V40.7432C59.2846 40.6153 59.3354 40.4927 59.4258 40.4022C59.5162 40.3118 59.6389 40.261 59.7667 40.261H60.0078L60.49 40.5021L62.4187 41.1048L64.5884 41.3459C65.4709 41.3747 66.345 41.1666 67.1198 40.7432C67.4155 40.5725 67.6606 40.3263 67.8301 40.0298C67.9995 39.7333 68.0872 39.3971 68.0841 39.0556C68.0782 38.608 67.9063 38.1785 67.6019 37.8502C67.0876 37.385 66.4666 37.0538 65.7938 36.8859L63.2624 36.0421C62.1472 35.7912 61.1368 35.2018 60.3694 34.3545C59.8047 33.5871 59.5082 32.6552 59.5257 31.7026C59.4963 31.0266 59.6638 30.3566 60.0078 29.7739C60.2698 29.1906 60.6867 28.6903 61.2132 28.3274L63.1419 27.3631L65.3116 27.122H67.6019L68.6868 27.4836L69.4101 27.7247C69.6511 27.8453 69.7717 28.0863 69.8922 28.2069C70.0068 28.3855 70.0498 28.6007 70.0128 28.8096V29.6534C70.0128 30.015 69.8922 30.1355 69.6511 30.1355C69.5388 30.1451 69.4259 30.1283 69.3212 30.0864C69.2166 30.0446 69.1232 29.9788 69.0484 29.8945C67.9253 29.4988 66.7435 29.295 65.5527 29.2918C64.7596 29.2397 63.9673 29.4065 63.2624 29.7739C62.9898 29.9306 62.7663 30.1603 62.6172 30.4372C62.4681 30.714 62.3993 31.0271 62.4187 31.341C62.4309 31.5725 62.4908 31.799 62.5945 32.0064C62.6982 32.2138 62.8435 32.3976 63.0214 32.5464C63.5466 33.063 64.2216 33.4005 64.95 33.5107L67.3609 34.3545C68.4523 34.5797 69.4319 35.1761 70.1333 36.0421C70.689 36.7216 70.9877 37.5751 70.9771 38.4529C70.9582 39.1618 70.7941 39.8592 70.4949 40.5021C70.1887 41.1256 69.7332 41.6639 69.169 42.0691C68.6391 42.5792 67.9663 42.9156 67.2403 43.0335C66.4617 43.4619 65.5964 43.7091 64.7089 43.7567Z" fill="black"/>
<path d="M68.0842 52.3153C62.2982 56.5342 53.8603 58.8245 46.6278 58.8245C36.9238 58.9028 27.5446 55.3318 20.3497 48.8196C19.747 48.3374 20.3497 47.6142 20.9525 48.0963C28.9554 52.6708 38.0124 55.0804 47.2305 55.0877C54.0992 54.9952 60.8884 53.6046 67.2404 50.9893C68.2047 50.5071 69.0485 51.592 68.0842 52.3153ZM70.495 49.5428C69.7718 48.5785 65.5528 49.0606 63.7447 49.3017C61.9366 49.5428 63.0215 48.8196 63.5036 48.4579C66.8788 46.1677 72.3032 46.8909 72.9059 47.6142C73.5086 48.3374 72.7853 53.8823 69.6512 56.5342C69.1691 56.8958 68.6869 56.6548 68.928 56.1726C69.1691 55.6904 71.2183 50.5071 70.495 49.5428Z" fill="black"/>
</g>
<defs>
<filter id="filter0_d_25_164" x="9.72748e-05" y="-2.47955e-05" width="94.2" height="94.2" filterUnits="userSpaceOnUse" color-interpolation-filters="sRGB">
<feFlood flood-opacity="0" result="BackgroundImageFix"/>
<feColorMatrix in="SourceAlpha" type="matrix" values="0 0 0 0 0 0 0 0 0 0 0 0 0 0 0 0 0 0 127 0" result="hardAlpha"/>
<feOffset dy="4"/>
<feGaussianBlur stdDeviation="5.55"/>
<feComposite in2="hardAlpha" operator="out"/>
<feColorMatrix type="matrix" values="0 0 0 0 0 0 0 0 0 0 0 0 0 0 0 0 0 0 0.22 0"/>
<feBlend mode="normal" in2="BackgroundImageFix" result="effect1_dropShadow_25_164"/>
<feBlend mode="normal" in="SourceGraphic" in2="effect1_dropShadow_25_164" result="shape"/>
</filter>
</defs>
</svg>
