<svg width="95" height="95" viewBox="0 0 95 95" fill="none" xmlns="http://www.w3.org/2000/svg">
<g filter="url(#filter0_d_88_182)">
<rect x="12.1001" y="8.09998" width="70" height="70" rx="20" fill="white" shape-rendering="crispEdges"/>
<rect x="11.6001" y="7.59998" width="71" height="71" rx="20.5" stroke="#D1D1D1" shape-rendering="crispEdges"/>
<path d="M47.4625 21.1C48.451 22.0652 49.3725 23.0707 50.2676 24.1235C50.475 24.3665 50.475 24.3665 50.6866 24.6144C52.2538 26.4576 53.7905 28.3259 55.3217 30.199C55.7873 30.7671 56.2554 31.3329 56.724 31.8984C61.4571 37.6297 65.0468 42.9587 64.394 50.6629C63.7724 55.2726 61.3943 59.2372 57.8515 62.234C53.8436 65.1693 49.1919 66.5269 44.2375 65.9819C39.3201 65.2164 35.1678 62.6428 32.1435 58.7255C29.1839 54.4437 28.1508 49.4793 29.0354 44.3397C29.4799 42.4491 30.0979 40.6286 31.3373 39.1065C32.4356 38.6832 33.6628 38.7977 34.8311 38.8041C35.0188 38.8031 35.2066 38.8021 35.4001 38.801C36.4089 38.8029 37.3443 38.8652 38.3249 39.1065C38.3027 38.7961 38.2805 38.4857 38.2577 38.1659C38.2889 33.1707 40.8393 28.3333 43.9687 24.5938C44.1385 24.3866 44.3082 24.1794 44.4831 23.966C45.3949 22.8855 46.3483 21.9696 47.4625 21.1Z" fill="black"/>
<path d="M33.63 38.7736C37.9324 38.6932 41.3941 39.8223 44.5901 42.8186C47.305 45.7004 48.3623 49.1249 48.3285 53.0218C48.1732 55.2697 47.396 57.418 46.6561 59.5317C48.3978 61.3135 50.4788 62.4182 52.6541 63.5786C53.0863 63.8207 53.5003 64.0945 53.9125 64.3693C49.8619 66.3848 45.4498 66.5486 41.1467 65.2449C36.4642 63.5621 32.8199 60.4728 30.5309 56.0379C28.409 51.4381 28.2088 46.3843 29.8632 41.5998C30.2826 40.6739 30.6944 39.8958 31.3372 39.1064C32.1107 38.8164 32.8034 38.8294 33.63 38.7736Z" fill="black"/>
<path d="M38.056 39.1064C41.8868 40.279 44.8554 42.4483 46.8482 45.945C48.949 50.121 48.4215 54.2254 47.0088 58.5239C46.8924 58.8565 46.776 59.1891 46.6561 59.5318C48.3978 61.3135 50.4787 62.4182 52.654 63.5786C53.0863 63.8207 53.5003 64.0945 53.9125 64.3693C49.4412 66.5942 44.8612 66.4247 40.206 64.9068C40.8308 64.2315 41.5022 63.7611 42.272 63.2607C43.6946 62.2852 44.7671 61.1343 45.8498 59.8005C45.4221 58.7992 44.7875 58.0925 44.0693 57.2809C39.735 52.1986 37.7392 45.7462 38.056 39.1064Z" fill="black"/>
</g>
<defs>
<filter id="filter0_d_88_182" x="9.72748e-05" y="-2.47955e-05" width="94.2" height="94.2" filterUnits="userSpaceOnUse" color-interpolation-filters="sRGB">
<feFlood flood-opacity="0" result="BackgroundImageFix"/>
<feColorMatrix in="SourceAlpha" type="matrix" values="0 0 0 0 0 0 0 0 0 0 0 0 0 0 0 0 0 0 127 0" result="hardAlpha"/>
<feOffset dy="4"/>
<feGaussianBlur stdDeviation="5.55"/>
<feComposite in2="hardAlpha" operator="out"/>
<feColorMatrix type="matrix" values="0 0 0 0 0 0 0 0 0 0 0 0 0 0 0 0 0 0 0.22 0"/>
<feBlend mode="normal" in2="BackgroundImageFix" result="effect1_dropShadow_88_182"/>
<feBlend mode="normal" in="SourceGraphic" in2="effect1_dropShadow_88_182" result="shape"/>
</filter>
</defs>
</svg>
