<svg width="93" height="93" viewBox="0 0 93 93" fill="none" xmlns="http://www.w3.org/2000/svg">
<g filter="url(#filter0_di_25_133)">
<rect x="11.1001" y="7.1001" width="70" height="70" rx="35" fill="#0F0F0F"/>
<path d="M58.098 30.9465C58.098 30.9465 58.0689 30.7884 57.9792 30.7312C57.8894 30.6739 57.7921 30.6628 57.7921 30.6628L54.9783 30.4534L52.9079 28.395C52.8293 28.3352 52.7386 28.3002 52.6464 28.2813C52.4259 28.2386 52.1294 28.2899 52.0747 28.3027L51.0006 28.6351C50.534 27.2577 49.8966 26.2767 49.0968 25.7094C48.5055 25.2915 47.854 25.1138 47.1542 25.1667C47.0072 24.9711 46.8453 24.8002 46.6679 24.6566C45.8916 24.0294 44.8902 23.932 43.6922 24.3661C40.0995 25.6709 38.5743 30.327 38.0244 32.6529L34.8932 33.6228C34.8932 33.6228 34.1557 33.833 33.9827 34.0397C33.7926 34.267 33.7563 34.8823 33.7563 34.8823L31.1001 55.3676L51.1108 59.1001L61.9141 56.7622L58.098 30.9465ZM47.0088 29.8716L43.549 30.9423C44.0075 29.147 44.8884 27.3124 46.5727 26.5972C46.9225 27.5133 47.0191 28.7667 47.0088 29.8716ZM44.1027 25.4975C44.8346 25.2317 45.3968 25.2437 45.8198 25.5291C43.5623 26.5587 42.5766 29.153 42.1511 31.3754L39.3809 32.2333C39.9995 29.9963 41.3799 26.4861 44.1027 25.4975ZM46.0416 40.5945C45.8831 40.5176 45.696 40.4356 45.4844 40.3578C45.2747 40.2793 45.041 40.2049 44.7876 40.1434C44.5368 40.0819 44.2668 40.0323 43.9823 40.0032C43.7003 39.9733 43.4042 39.9639 43.0975 39.9819C42.816 39.999 42.5609 40.0493 42.3366 40.1297C42.1136 40.2083 41.9205 40.3177 41.7615 40.4536C41.6026 40.5886 41.4774 40.7501 41.389 40.9364C41.3014 41.1218 41.2497 41.3303 41.2399 41.5618C41.2322 41.7336 41.2591 41.8977 41.3193 42.0574C41.3795 42.2181 41.474 42.3753 41.6021 42.5308C41.7312 42.688 41.8944 42.8435 42.093 43.0025C42.2925 43.164 42.528 43.3264 42.7997 43.4964C43.1808 43.7407 43.5704 44.0159 43.9408 44.3312C44.3168 44.6516 44.6723 45.0131 44.9777 45.4249C45.2871 45.8411 45.5442 46.3077 45.7177 46.8305C45.892 47.3586 45.9814 47.9405 45.9532 48.5814C45.9075 49.6298 45.6777 50.5338 45.2978 51.2832C44.9227 52.0232 44.4049 52.6042 43.7811 53.0263C43.171 53.4382 42.4643 53.6937 41.6958 53.7962C40.9494 53.8961 40.1491 53.8518 39.3237 53.6697C39.3177 53.6688 39.3108 53.6663 39.3041 53.6646C39.2976 53.6637 39.2912 53.662 39.2848 53.6612C39.2784 53.6595 39.272 53.6577 39.2651 53.6561C39.2587 53.6552 39.2523 53.6535 39.2455 53.6518C38.8584 53.5578 38.4849 53.4365 38.1342 53.2937C37.7886 53.1545 37.4643 52.9955 37.1686 52.8238C36.8773 52.6538 36.6132 52.4718 36.3847 52.283C36.1586 52.0959 35.9664 51.9036 35.8156 51.7096L36.726 48.6882C36.8798 48.8181 37.0678 48.9659 37.2818 49.1154C37.498 49.2683 37.7411 49.4239 38.0012 49.57C38.2644 49.717 38.5456 49.8529 38.8348 49.9639C39.1279 50.0759 39.4295 50.163 39.7286 50.2066C39.9926 50.245 40.2284 50.2373 40.4348 50.1912C40.6429 50.1442 40.8201 50.0579 40.9655 49.9391C41.1116 49.822 41.2248 49.6724 41.3038 49.5007C41.3829 49.3273 41.4277 49.1333 41.4363 48.9257C41.4457 48.7172 41.4269 48.5215 41.3743 48.3318C41.3222 48.1413 41.2368 47.9575 41.1141 47.773C40.9914 47.5892 40.8325 47.4047 40.6314 47.2142C40.4323 47.0253 40.1934 46.8305 39.9106 46.6238C39.5624 46.364 39.236 46.0829 38.9434 45.777C38.6545 45.4744 38.3982 45.1472 38.1884 44.7926C37.9808 44.4405 37.8172 44.0603 37.7112 43.6468C37.6057 43.2358 37.5571 42.7905 37.5775 42.3052C37.6134 41.4943 37.7754 40.7466 38.0467 40.0742C38.3209 39.394 38.7093 38.7839 39.1963 38.2584C39.6932 37.7226 40.2973 37.2706 40.9937 36.9228C41.7102 36.5647 42.5293 36.3136 43.4371 36.1948C43.8584 36.1392 44.2626 36.1136 44.6445 36.1119C45.0325 36.1102 45.3969 36.1333 45.7323 36.176C46.0723 36.2196 46.3821 36.2828 46.6568 36.3606C46.9337 36.4391 47.1738 36.5315 47.3716 36.6323L46.0416 40.5945ZM48.2081 29.5008C48.2064 29.365 48.203 29.2274 48.1979 29.0872C48.1577 28.0106 48.0116 27.1039 47.7629 26.3691C48.0338 26.3964 48.2799 26.4861 48.5046 26.6451C49.131 27.0886 49.5821 27.9815 49.9 28.9769L48.2081 29.5008Z" fill="white"/>
</g>
<defs>
<filter id="filter0_di_25_133" x="9.72748e-05" y="9.72748e-05" width="92.2" height="92.2" filterUnits="userSpaceOnUse" color-interpolation-filters="sRGB">
<feFlood flood-opacity="0" result="BackgroundImageFix"/>
<feColorMatrix in="SourceAlpha" type="matrix" values="0 0 0 0 0 0 0 0 0 0 0 0 0 0 0 0 0 0 127 0" result="hardAlpha"/>
<feOffset dy="4"/>
<feGaussianBlur stdDeviation="5.55"/>
<feComposite in2="hardAlpha" operator="out"/>
<feColorMatrix type="matrix" values="0 0 0 0 0 0 0 0 0 0 0 0 0 0 0 0 0 0 0.22 0"/>
<feBlend mode="normal" in2="BackgroundImageFix" result="effect1_dropShadow_25_133"/>
<feBlend mode="normal" in="SourceGraphic" in2="effect1_dropShadow_25_133" result="shape"/>
<feColorMatrix in="SourceAlpha" type="matrix" values="0 0 0 0 0 0 0 0 0 0 0 0 0 0 0 0 0 0 127 0" result="hardAlpha"/>
<feOffset dy="4"/>
<feGaussianBlur stdDeviation="2.9"/>
<feComposite in2="hardAlpha" operator="arithmetic" k2="-1" k3="1"/>
<feColorMatrix type="matrix" values="0 0 0 0 0.911538 0 0 0 0 0.911538 0 0 0 0 0.911538 0 0 0 0.61 0"/>
<feBlend mode="normal" in2="shape" result="effect2_innerShadow_25_133"/>
</filter>
</defs>
</svg>
