<svg width="95" height="95" viewBox="0 0 95 95" fill="none" xmlns="http://www.w3.org/2000/svg">
<g filter="url(#filter0_d_25_150)">
<rect x="12.1001" y="8.1001" width="70" height="70" rx="20" fill="white" shape-rendering="crispEdges"/>
<rect x="11.6001" y="7.6001" width="71" height="71" rx="20.5" stroke="#D1D1D1" shape-rendering="crispEdges"/>
<path d="M44.0681 52.3986C44.8933 52.436 45.7366 52.463 46.5903 52.463C47.4531 52.463 48.3054 52.445 49.1411 52.3986C48.3054 53.4767 47.4801 54.4305 46.6068 55.3394L46.6189 55.3274C45.7501 54.429 44.9158 53.4737 44.1296 52.4794L44.0681 52.3986ZM35.5185 51.2007C37.1435 51.6125 39.1256 51.9629 41.1482 52.1785L41.3448 52.195C42.5826 53.8914 43.834 55.3843 45.1769 56.7888L45.1604 56.7708C43.1933 58.9614 40.539 60.5007 37.5366 61.0532L37.4541 61.0652C37.4481 61.0652 37.4421 61.0652 37.4361 61.0652C37.064 61.0652 36.7129 60.9739 36.4053 60.8122L36.4173 60.8181C35.1689 60.1069 34.6273 57.3862 35.0489 53.8899C35.1494 53.029 35.3145 52.1231 35.517 51.1992L35.5185 51.2007ZM57.6997 51.1813C57.8767 51.891 58.0433 52.7954 58.1618 53.7148L58.1753 53.8435C58.6059 57.3383 58.0748 60.056 56.8369 60.7822C56.5608 60.9349 56.2307 61.0248 55.8796 61.0248C55.8451 61.0248 55.8106 61.0233 55.7761 61.0218H55.7806C52.7002 60.4603 50.0474 58.9315 48.0848 56.7678L48.0743 56.7559C49.3932 55.3738 50.6356 53.884 51.7744 52.3162L51.8614 52.1905C54.0761 51.9599 56.0612 51.6035 57.9953 51.1169L57.6997 51.1798V51.1813ZM37.2725 45.5932C37.6477 46.3269 38.0408 47.0576 38.4729 47.7913C38.904 48.521 39.3447 49.2337 39.7948 49.9295C38.4924 49.7393 37.235 49.4997 36.0332 49.2078C36.3708 48.0294 36.7939 46.809 37.271 45.5902L37.2725 45.5932ZM55.9201 45.5557C56.4168 46.7851 56.8384 48.0114 57.188 49.2003C55.9877 49.4937 54.7198 49.7423 53.4084 49.9295C53.8585 49.2272 54.3087 48.504 54.7303 47.7628C55.1519 47.0336 55.5465 46.2879 55.9231 45.5542L55.9201 45.5557ZM34.0241 37.5465C34.6783 39.7595 35.3805 41.6102 36.1982 43.3951L36.0857 43.1226C35.3865 44.6274 34.6948 46.4676 34.1276 48.3618L34.0496 48.6687C32.9903 48.3438 32.138 48.0249 31.3083 47.667L31.4808 47.7329C28.2338 46.3538 26.1332 44.5405 26.1332 43.1031C26.1332 41.6656 28.2338 39.8434 31.4808 38.4703C32.2685 38.1334 33.1328 37.8295 34.0241 37.5465ZM59.1401 37.539C60.0479 37.819 60.9106 38.1319 61.7179 38.4703C64.9649 39.8554 67.0655 41.6656 67.0655 43.1031C67.0565 44.5405 64.9559 46.3583 61.7089 47.7344C60.9211 48.0713 60.0584 48.3737 59.1686 48.6567C58.5084 46.4362 57.8062 44.587 56.9915 42.7991L57.1055 43.0806C57.8017 41.5773 58.4949 39.7371 59.0606 37.8429L59.1401 37.5345V37.539ZM53.3964 36.2767C54.7003 36.4699 55.9562 36.7064 57.158 37.0014C56.8204 38.1843 56.3988 39.4002 55.9201 40.619C55.545 39.8898 55.1519 39.1546 54.7198 38.4224C54.2982 37.6887 53.848 36.9745 53.3979 36.2782L53.3964 36.2767ZM39.7843 36.2767C39.3342 36.982 38.884 37.7037 38.4639 38.4479C38.0423 39.1771 37.6477 39.9108 37.2725 40.6445C36.7759 39.4166 36.3543 38.1933 36.0047 37.0014C37.205 36.7214 38.4699 36.4714 39.7828 36.2797L39.7843 36.2767ZM46.5993 35.8006C47.9873 35.8006 49.3692 35.8634 50.7286 35.9742C51.4898 37.0633 52.229 38.2233 52.9463 39.4541C53.6435 40.6519 54.2797 41.8658 54.8548 43.0956C54.2772 44.3219 53.644 45.5468 52.9553 46.7446C52.2425 47.9799 51.5058 49.1553 50.7421 50.2439C49.3767 50.3622 47.9933 50.4266 46.5978 50.4266C45.2099 50.4266 43.828 50.3607 42.4686 50.2529C41.7079 49.1643 40.9652 47.9994 40.2509 46.7731C39.5537 45.5752 38.9175 44.3614 38.3424 43.1315C38.911 41.9022 39.5532 40.6744 40.2419 39.475C40.9547 38.2397 41.6914 37.0688 42.4551 35.9802C43.8205 35.8604 45.2039 35.7976 46.5993 35.7976V35.8006ZM46.5708 30.8878C47.4411 31.7862 48.2754 32.74 49.0601 33.7342L49.1201 33.8136C48.2949 33.7761 47.4516 33.7507 46.5978 33.7507C45.7351 33.7507 44.8828 33.7687 44.0471 33.8136C44.8813 32.7355 45.7066 31.7817 46.5813 30.8728L46.5693 30.8848L46.5708 30.8878ZM37.4166 25.1799C40.497 25.7429 43.1483 27.2717 45.1124 29.4339L45.1229 29.4458C43.804 30.8294 42.5616 32.3192 41.4228 33.8899L41.3358 34.0157C39.1226 34.2448 37.1375 34.5982 35.2049 35.0848L35.499 35.0219C35.289 34.1056 35.1329 33.2176 35.0234 32.3657C34.5927 28.8709 35.1239 26.1532 36.3618 25.43C36.6709 25.2847 37.0325 25.1949 37.4136 25.1829H37.4181L37.4166 25.1799ZM55.7371 25.1425V25.1545C55.7566 25.1545 55.7791 25.153 55.8031 25.153C56.1617 25.153 56.4993 25.2413 56.7964 25.397L56.7844 25.391C58.0328 26.1053 58.5744 28.8244 58.1528 32.3222C58.0523 33.1832 57.8872 34.0906 57.6847 35.0159C56.0567 34.5997 54.0746 34.2478 52.052 34.0337L51.8599 34.0172C50.6206 32.3192 49.3692 30.8264 48.0263 29.4204L48.0443 29.4383C50.0114 27.2522 52.6612 25.713 55.6576 25.1574L55.7416 25.144L55.7371 25.1425ZM55.7461 23.1031C52.082 23.6586 48.91 25.4345 46.5933 27.9964L46.5813 28.0099C44.2481 25.4494 41.0762 23.6856 37.5021 23.151L37.4181 23.1405C37.3986 23.1405 37.3746 23.1405 37.3506 23.1405C36.6139 23.1405 35.9221 23.3337 35.3235 23.6721L35.3445 23.6616C32.7667 25.1455 32.189 29.7693 33.5199 35.5715C27.8122 37.3308 24.1001 40.1428 24.1001 43.1061C24.1001 46.0813 27.8317 48.9008 33.5559 50.6467C32.2355 56.4714 32.8252 61.1026 35.409 62.585C35.9762 62.9099 36.6574 63.1001 37.3821 63.1001C37.4151 63.1001 37.4481 63.1001 37.4796 63.0986H37.4751C41.1392 62.5431 44.3112 60.7657 46.6279 58.2023L46.6399 58.1888C48.9731 60.7508 52.145 62.5146 55.7191 63.0492L55.8031 63.0597C55.8256 63.0597 55.8541 63.0597 55.8811 63.0597C56.6134 63.0597 57.3021 62.868 57.8977 62.5341L57.8767 62.5446C60.453 61.0622 61.0322 56.4384 59.7013 50.6347C65.388 48.8903 69.1001 46.0723 69.1001 43.1046C69.1001 40.1294 65.3685 37.3099 59.6443 35.5595C60.9647 29.7408 60.375 25.105 57.7912 23.6212C57.218 23.2933 56.5308 23.1001 55.7986 23.1001C55.7791 23.1001 55.7596 23.1001 55.7401 23.1001H55.7431L55.7461 23.1031ZM50.7811 43.1061C50.7811 45.4165 48.904 47.2897 46.5888 47.2897C44.2736 47.2897 42.3966 45.4165 42.3966 43.1061C42.3966 40.7957 44.2736 38.9225 46.5888 38.9225C47.7472 38.9225 48.7945 39.3912 49.5537 40.1473C50.313 40.905 50.7811 41.9501 50.7811 43.1061Z" fill="black"/>
</g>
<defs>
<filter id="filter0_d_25_150" x="9.72748e-05" y="9.72748e-05" width="94.2" height="94.2" filterUnits="userSpaceOnUse" color-interpolation-filters="sRGB">
<feFlood flood-opacity="0" result="BackgroundImageFix"/>
<feColorMatrix in="SourceAlpha" type="matrix" values="0 0 0 0 0 0 0 0 0 0 0 0 0 0 0 0 0 0 127 0" result="hardAlpha"/>
<feOffset dy="4"/>
<feGaussianBlur stdDeviation="5.55"/>
<feComposite in2="hardAlpha" operator="out"/>
<feColorMatrix type="matrix" values="0 0 0 0 0 0 0 0 0 0 0 0 0 0 0 0 0 0 0.22 0"/>
<feBlend mode="normal" in2="BackgroundImageFix" result="effect1_dropShadow_25_150"/>
<feBlend mode="normal" in="SourceGraphic" in2="effect1_dropShadow_25_150" result="shape"/>
</filter>
</defs>
</svg>
