<svg width="95" height="95" viewBox="0 0 95 95" fill="none" xmlns="http://www.w3.org/2000/svg">
<g filter="url(#filter0_d_25_160)">
<rect x="12.1001" y="8.09998" width="70" height="70" rx="20" fill="white" shape-rendering="crispEdges"/>
<rect x="11.6001" y="7.59998" width="71" height="71" rx="20.5" stroke="#D1D1D1" shape-rendering="crispEdges"/>
<path d="M63.6485 41.2442C63.622 41.2442 63.592 41.2421 63.562 41.2421C63.4082 41.2421 63.2544 41.2524 63.106 41.2751L63.1237 41.2731C62.9929 41.2813 62.8833 41.3846 62.8444 41.5229L62.0987 44.5553C61.9785 44.9413 61.9078 45.3851 61.9078 45.8496C61.9078 46.6299 62.1057 47.3586 62.4468 47.9676L62.4397 47.9531C62.9858 48.7726 63.8288 49.2928 64.7778 49.2928C64.7814 49.2928 64.7849 49.2928 64.7867 49.2928L68.8584 49.586C68.8602 49.586 68.8637 49.586 68.8655 49.586C68.9839 49.586 69.0899 49.6582 69.15 49.7656V49.7676C69.1889 49.844 69.2119 49.9369 69.2119 50.0339C69.2119 50.0814 69.2066 50.1289 69.196 50.1743V50.1702C69.1253 50.391 68.9521 50.55 68.7471 50.5706H68.7453L64.5021 50.8596C61.9449 51.1879 59.8295 53.1076 58.8823 55.7437L58.8646 55.7974L58.5535 56.7222C58.5429 56.7532 58.5359 56.7883 58.5359 56.8254C58.5359 56.9699 58.6366 57.0876 58.7603 57.0876C58.7639 57.0876 58.7674 57.0876 58.7709 57.0876H73.3402C73.3419 57.0876 73.3437 57.0876 73.3437 57.0876C73.5187 57.0876 73.6654 56.9513 73.7113 56.7656V56.7614C73.9552 55.7726 74.0966 54.6352 74.1001 53.4606V53.4586C74.0842 46.7249 69.4116 41.2731 63.645 41.2648L63.6485 41.2442ZM57.5604 55.5951C57.6805 55.2112 57.7494 54.7673 57.7494 54.3049C57.7494 53.5226 57.5515 52.7959 57.2087 52.187L57.2157 52.2014C56.6714 51.3819 55.8284 50.8596 54.8794 50.8596C54.8759 50.8596 54.8741 50.8596 54.8706 50.8596L35.7471 50.5706C35.7453 50.5706 35.7436 50.5706 35.7418 50.5706C35.6216 50.5706 35.5156 50.4984 35.4537 50.389C35.4149 50.3147 35.3901 50.2218 35.3901 50.1247C35.3901 50.0752 35.3954 50.0277 35.4078 49.9823V49.9864C35.4785 49.7656 35.6499 49.6066 35.8549 49.5839L55.1498 49.2949C57.707 48.9646 59.8207 47.0448 60.7732 44.4108L60.7909 44.3571L61.8937 41.0006C61.9237 40.9201 61.9414 40.8251 61.9414 40.726C61.9414 40.6703 61.9361 40.6146 61.9255 40.563V40.5671C60.6265 33.9552 55.6323 29.1 49.6678 29.1C44.1734 29.1 39.5043 33.2203 37.7971 38.959L37.7706 39.0622C36.8375 38.2386 35.6588 37.7411 34.3793 37.7411C31.4615 37.7411 29.0598 40.3256 28.7612 43.6429L28.7594 43.6718C28.7417 43.872 28.7311 44.1053 28.7311 44.3406C28.7311 44.9207 28.793 45.4863 28.9078 46.0251L28.899 45.9776C24.5657 46.1242 21.1001 50.2631 21.1001 55.3474C21.1001 55.3515 21.1001 55.3557 21.1001 55.3598C21.1036 55.8428 21.1319 56.3155 21.1832 56.7779L21.1779 56.7201C21.2079 56.9348 21.3617 57.0958 21.5507 57.1H56.8446C57.0567 57.0938 57.2334 56.9286 57.2917 56.7036V56.6995L57.5568 55.5992L57.5604 55.5951Z" fill="black"/>
</g>
<defs>
<filter id="filter0_d_25_160" x="9.72748e-05" y="-2.47955e-05" width="94.2" height="94.2" filterUnits="userSpaceOnUse" color-interpolation-filters="sRGB">
<feFlood flood-opacity="0" result="BackgroundImageFix"/>
<feColorMatrix in="SourceAlpha" type="matrix" values="0 0 0 0 0 0 0 0 0 0 0 0 0 0 0 0 0 0 127 0" result="hardAlpha"/>
<feOffset dy="4"/>
<feGaussianBlur stdDeviation="5.55"/>
<feComposite in2="hardAlpha" operator="out"/>
<feColorMatrix type="matrix" values="0 0 0 0 0 0 0 0 0 0 0 0 0 0 0 0 0 0 0.22 0"/>
<feBlend mode="normal" in2="BackgroundImageFix" result="effect1_dropShadow_25_160"/>
<feBlend mode="normal" in="SourceGraphic" in2="effect1_dropShadow_25_160" result="shape"/>
</filter>
</defs>
</svg>
