<svg width="95" height="95" viewBox="0 0 95 95" fill="none" xmlns="http://www.w3.org/2000/svg">
<g filter="url(#filter0_d_88_186)">
<rect x="12.1001" y="8.09998" width="70" height="70" rx="20" fill="white" shape-rendering="crispEdges"/>
<rect x="11.6001" y="7.59998" width="71" height="71" rx="20.5" stroke="#D1D1D1" shape-rendering="crispEdges"/>
<path d="M55.2495 22.6242C57.9155 24.5459 59.9104 26.8961 61.1815 29.9392C61.1815 30.0856 61.1815 30.232 61.1815 30.3829C60.994 30.3886 60.8064 30.3943 60.6131 30.4002C58.7777 30.492 57.371 30.6458 56.0397 31.9746C55.256 33.1906 55.4577 34.7554 55.6359 36.1503C56.1913 38.5075 57.3994 40.673 58.5196 42.805C58.5913 42.9435 58.663 43.082 58.7369 43.2246C59.5473 44.8247 59.5473 44.8247 60.5611 46.2962C60.9597 46.7979 60.9597 46.7979 60.9597 47.2415C60.7493 47.3376 60.5388 47.4337 60.322 47.5327C59.5843 47.8611 59.5843 47.8611 59.1851 48.5725C59.0763 49.2373 59.0763 49.2373 59.0274 50.003C59.0034 50.2941 58.9794 50.5852 58.9547 50.885C58.9427 51.0393 58.9306 51.1936 58.9181 51.3526C58.7241 53.7911 58.4874 56.221 58.1037 58.6377C58.0733 58.8452 58.0429 59.0527 58.0116 59.2665C57.7323 60.9288 57.183 62.6974 55.8993 63.8645C54.1177 65.0173 52.4208 65.2858 50.3121 64.9874C49.2636 64.5365 48.7333 63.7312 48.2464 62.7276C47.4173 60.2934 47.4275 57.6587 47.3842 55.1145C47.379 54.8331 47.379 54.8331 47.3736 54.5459C47.3562 53.5891 47.3442 52.6326 47.3408 51.6756C47.336 51.3165 47.3312 50.9574 47.3262 50.5983C47.3273 50.433 47.3285 50.2677 47.3296 50.0974C47.3089 49.0097 47.0958 48.448 46.3193 47.6852C45.8579 47.4198 45.8579 47.4198 45.3766 47.2831C45.1021 47.1962 44.8275 47.1092 44.5447 47.0197C44.7055 45.9252 45.1202 44.9481 45.5291 43.928C45.7347 43.4111 45.9395 42.8939 46.141 42.3753C46.2857 42.0041 46.4352 41.6348 46.5862 41.2661C46.8394 40.293 46.8384 39.3564 46.8323 38.3547C46.8314 38.1483 46.8304 37.942 46.8295 37.7294C46.7959 35.6714 46.699 33.2831 45.2102 31.7138C43.9737 30.8044 42.7197 30.6012 41.2174 30.8265C40.4983 31.0358 39.8025 31.2737 39.1031 31.5414C38.5555 31.7138 38.5555 31.7138 38.1118 31.492C38.3873 27.5793 39.6398 24.5392 42.6471 21.9258C46.164 19.3446 51.8285 20.4456 55.2495 22.6242Z" fill="black"/>
<path d="M33.7724 20.7474C34.0031 20.7481 34.2339 20.7488 34.4716 20.7496C36.5783 20.787 38.5308 21.1601 40.5519 21.7318C40.2379 22.4166 39.8516 22.9571 39.3873 23.5479C38.6748 24.5534 38.2277 25.5556 37.8207 26.7089C37.7401 26.9348 37.7401 26.9348 37.658 27.1653C36.9233 29.3552 36.7134 31.5118 36.7219 33.8116C36.7215 34.066 36.7211 34.3203 36.7207 34.5824C36.7204 35.1157 36.7212 35.649 36.723 36.1823C36.7254 36.9976 36.723 37.8128 36.7202 38.6281C36.7205 39.1484 36.7211 39.6688 36.7219 40.1891C36.7211 40.4317 36.7202 40.6744 36.7192 40.9244C36.7295 42.5907 36.9217 43.7931 37.9039 45.1758C38.3008 45.7378 38.5579 46.1398 38.7773 46.7979C38.5529 47.1419 38.5529 47.1419 38.1811 47.5327C37.6228 48.1362 37.0744 48.7438 36.5435 49.3714C36.425 49.5114 36.3065 49.6514 36.1844 49.7957C35.9459 50.0783 35.7076 50.3611 35.4697 50.6441C34.4458 51.8486 34.4458 51.8486 33.4119 52.0108C32.4039 51.8786 32.0882 51.658 31.4198 50.9233C30.6069 49.7707 30.0261 48.4866 29.4335 47.2105C29.2572 46.8368 29.0693 46.4686 28.8801 46.1012C27.3759 42.9908 26.772 39.217 25.9669 35.8731C25.9202 35.6803 25.8735 35.4876 25.8253 35.289C24.9702 31.6906 24.5492 27.4369 26.4262 24.0938C28.223 21.4723 30.7183 20.7178 33.7724 20.7474Z" fill="black"/>
<path d="M54.3051 20.1789C55.2847 20.1528 56.2643 20.1373 57.2442 20.1235C57.5182 20.1161 57.7921 20.1086 58.0744 20.101C59.9446 20.0813 61.4492 20.3559 63.178 21.0662C63.3449 21.1331 63.5117 21.1999 63.6836 21.2687C65.4503 22.0102 66.9395 23.5369 68.0582 25.0591C68.9267 27.6645 68.2323 31.1937 67.3277 33.6981C67.1438 34.2053 67.1438 34.2054 66.9906 34.958C66.6385 36.4411 65.9813 37.852 65.3963 39.2558C65.2979 39.4963 65.1996 39.7368 65.0982 39.9846C64.6213 41.0912 64.0548 42.1536 63.4969 43.2209C63.3324 43.5409 63.3324 43.5409 63.1646 43.8673C63.059 44.0698 62.9533 44.2722 62.8444 44.4808C62.7009 44.757 62.7009 44.757 62.5545 45.0387C62.2907 45.4669 62.2907 45.4669 61.8471 45.6887C61.916 45.3698 61.9854 45.0509 62.0551 44.7321C62.0937 44.5545 62.1323 44.377 62.172 44.194C62.2907 43.6923 62.2907 43.6923 62.5126 43.0268C62.5289 42.3979 62.5329 41.7745 62.5264 41.1457C62.5256 40.9581 62.5248 40.7705 62.5239 40.5772C62.5203 39.7768 62.5141 38.9764 62.508 38.176C62.5039 37.59 62.5009 37.004 62.4987 36.418C62.4974 36.1301 62.4974 36.1301 62.496 35.8364C62.4961 34.3339 62.5878 32.8521 62.7306 31.3569C62.7372 30.062 62.2412 29.0568 61.6253 27.9428C61.4764 27.6563 61.4764 27.6563 61.3246 27.364C59.6497 24.3425 57.1348 22.154 54.0833 20.6226C54.1565 20.4762 54.2297 20.3298 54.3051 20.1789Z" fill="black"/>
<path d="M43.8792 32.1574C44.8142 32.8357 45.0241 33.4375 45.2794 34.542C45.816 38.3712 45.252 41.5728 43.6686 45.1072C43.4422 45.6721 43.3123 46.1986 43.2137 46.7978C41.8888 46.9669 41.1966 46.6243 40.1255 45.8446C38.9818 44.9073 38.195 43.8363 37.8899 42.3613C37.8077 41.3245 37.8498 40.2936 37.8899 39.2558C37.8981 39.023 37.9062 38.7902 37.9146 38.5504C37.9738 36.8628 38.0402 35.1755 38.1117 33.4883C38.4673 33.3075 38.8232 33.1274 39.1793 32.9476C39.3774 32.8473 39.5756 32.7469 39.7797 32.6435C41.1058 32.0066 42.4323 31.9758 43.8792 32.1574Z" fill="black"/>
<path d="M61.4033 31.7138C61.4094 32.028 61.4136 32.3423 61.4172 32.6565C61.4198 32.8315 61.4223 33.0065 61.425 33.1868C61.4033 33.7102 61.4033 33.7102 61.2933 34.1192C60.957 35.5581 61.0729 37.3787 61.2924 38.8399C61.5238 40.6327 61.5963 42.425 60.9597 44.1359C60.8133 44.1359 60.6669 44.1359 60.516 44.1359C59.6222 42.3692 58.7343 40.5993 57.8819 38.8121C57.6974 38.4278 57.6974 38.4278 57.5093 38.0358C56.8309 36.3929 56.3234 34.5658 56.9946 32.8506C58.2148 31.4677 59.6947 31.6391 61.4033 31.7138Z" fill="black"/>
<path d="M44.5446 48.5724C45.5983 48.7388 45.5983 48.7388 46.0974 49.2379C46.112 49.9995 46.0632 50.5501 45.5836 51.165C44.4091 52.2549 43.1028 52.7201 41.5223 52.8564C40.704 52.7806 39.9939 52.6217 39.2208 52.3434C39.1476 52.197 39.0744 52.0506 38.999 51.8998C39.1918 51.846 39.3845 51.7922 39.583 51.7368C41.7933 51.094 43.118 50.3733 44.5446 48.5724Z" fill="black"/>
<path d="M62.8867 48.6721C64.5119 48.9424 66.1935 48.8247 67.8361 48.7943C66.7767 49.9456 65.5792 50.4796 64.0088 50.6106C62.8424 50.6572 61.6807 50.645 60.5159 50.5689C60.2941 50.3471 60.2941 50.3471 60.2109 49.7093C60.2941 49.0161 60.2941 49.0161 60.71 48.5725C61.5738 48.2961 62.0241 48.4578 62.8867 48.6721Z" fill="black"/>
<path d="M41.8829 32.8229C43.5483 32.741 43.5483 32.741 44.1012 33.1557C44.211 33.3204 44.211 33.3204 44.323 33.4884C43.9071 34.348 43.9071 34.348 43.6575 34.5975C42.915 34.6979 42.6334 34.6602 42.0216 34.2093C41.6611 33.7102 41.6611 33.7102 41.7165 33.2111C41.7714 33.083 41.8263 32.9549 41.8829 32.8229Z" fill="#EBEFF3"/>
<path d="M58.5345 32.5795C58.8085 32.5833 58.8085 32.5833 59.0881 32.5873C59.2714 32.5893 59.4547 32.5913 59.6436 32.5933C59.7851 32.5959 59.9267 32.5985 60.0725 32.6011C60.0725 32.8939 60.0725 33.1867 60.0725 33.4884C59.5019 33.8477 59.2569 33.9419 58.5752 33.8489C58.4105 33.8031 58.2458 33.7574 58.0761 33.7103C57.9513 33.2805 57.9513 33.2805 57.8542 32.823C58.0761 32.6011 58.0761 32.6011 58.5345 32.5795Z" fill="#F4F7F9"/>
<path d="M42.9919 32.1575C43.7377 32.2196 44.0485 32.3297 44.6002 32.8507C45.0523 33.5934 45.1427 34.1811 45.2102 35.0412C45.0592 34.8284 45.0592 34.8284 44.9052 34.6114C44.5804 34.1324 44.5804 34.1324 44.1011 33.9321C43.7516 33.3496 43.6574 33.0734 43.6574 32.3793C43.4378 32.3061 43.2182 32.2329 42.9919 32.1575Z" fill="black"/>
<path d="M61.4032 31.7138C61.4032 31.787 61.4032 31.8602 61.4032 31.9356C60.6712 32.0088 59.9392 32.082 59.185 32.1574C59.3314 32.3038 59.4778 32.4502 59.6286 32.6011C58.2856 32.8177 58.2856 32.8177 57.854 32.8229C57.7076 32.6765 57.5612 32.5301 57.4104 32.3793C58.6802 31.5327 59.9165 31.6488 61.4032 31.7138Z" fill="black"/>
<path d="M54.3051 20.179C55.0371 20.179 55.7691 20.179 56.5233 20.179C56.0841 20.3986 56.0841 20.3986 55.636 20.6226C55.5628 20.769 55.4896 20.9154 55.4142 21.0663C54.975 20.9198 54.5358 20.7734 54.0833 20.6226C54.1565 20.4762 54.2297 20.3298 54.3051 20.179Z" fill="black"/>
<path d="M62.5124 43.0269C62.7584 43.765 62.7413 44.2792 62.5124 45.0233C62.298 45.2523 62.0769 45.4754 61.8469 45.6887C61.9158 45.3698 61.9852 45.0509 62.0549 44.7321C62.0935 44.5546 62.1321 44.377 62.1719 44.194C62.2906 43.6923 62.2906 43.6923 62.5124 43.0269Z" fill="black"/>
</g>
<defs>
<filter id="filter0_d_88_186" x="9.72748e-05" y="-2.47955e-05" width="94.2" height="94.2" filterUnits="userSpaceOnUse" color-interpolation-filters="sRGB">
<feFlood flood-opacity="0" result="BackgroundImageFix"/>
<feColorMatrix in="SourceAlpha" type="matrix" values="0 0 0 0 0 0 0 0 0 0 0 0 0 0 0 0 0 0 127 0" result="hardAlpha"/>
<feOffset dy="4"/>
<feGaussianBlur stdDeviation="5.55"/>
<feComposite in2="hardAlpha" operator="out"/>
<feColorMatrix type="matrix" values="0 0 0 0 0 0 0 0 0 0 0 0 0 0 0 0 0 0 0.22 0"/>
<feBlend mode="normal" in2="BackgroundImageFix" result="effect1_dropShadow_88_186"/>
<feBlend mode="normal" in="SourceGraphic" in2="effect1_dropShadow_88_186" result="shape"/>
</filter>
</defs>
</svg>
