<svg width="95" height="95" viewBox="0 0 95 95" fill="none" xmlns="http://www.w3.org/2000/svg">
<g filter="url(#filter0_d_25_153)">
<rect x="12.1001" y="8.1001" width="70" height="70" rx="20" fill="white" shape-rendering="crispEdges"/>
<rect x="11.6001" y="7.6001" width="71" height="71" rx="20.5" stroke="#D1D1D1" shape-rendering="crispEdges"/>
<path d="M59.9548 30.9246C59.9548 30.9246 59.9216 30.7439 59.8191 30.6785C59.7165 30.613 59.6052 30.6004 59.6052 30.6004L56.3894 30.3611L54.0232 28.0086C53.9335 27.9402 53.8298 27.9002 53.7245 27.8786C53.4725 27.8298 53.1336 27.8884 53.0711 27.9031L51.8435 28.283C51.3103 26.7088 50.5818 25.5877 49.6678 24.9392C48.9919 24.4617 48.2474 24.2586 47.4476 24.3191C47.2796 24.0955 47.0946 23.9002 46.8919 23.7361C46.0047 23.0193 44.8602 22.908 43.4911 23.4041C39.3851 24.8953 37.642 30.2166 37.0136 32.8747L33.435 33.9831C33.435 33.9831 32.5922 34.2234 32.3945 34.4597C32.1773 34.7194 32.1357 35.4226 32.1357 35.4226L29.1001 58.8344L51.9695 63.1001L64.3161 60.4282L59.9548 30.9246ZM47.2815 29.6961L43.3275 30.9197C43.8514 28.868 44.8582 26.7713 46.783 25.954C47.1829 27.0008 47.2932 28.4334 47.2815 29.6961ZM43.9603 24.6971C44.7967 24.3934 45.4392 24.407 45.9226 24.7332C43.3426 25.91 42.2161 28.8748 41.7298 31.4148L38.5639 32.3952C39.2709 29.8386 40.8485 25.827 43.9603 24.6971ZM46.1761 41.9509C45.9949 41.863 45.7811 41.7692 45.5394 41.6803C45.2996 41.5906 45.0325 41.5055 44.743 41.4353C44.4563 41.365 44.1477 41.3083 43.8226 41.2751C43.5003 41.2409 43.1619 41.2302 42.8114 41.2507C42.4897 41.2702 42.1981 41.3278 41.9418 41.4196C41.6869 41.5095 41.4663 41.6345 41.2846 41.7898C41.103 41.9441 40.9599 42.1286 40.8588 42.3416C40.7587 42.5535 40.6996 42.7917 40.6884 43.0564C40.6796 43.2527 40.7104 43.4402 40.7792 43.6227C40.848 43.8064 40.956 43.986 41.1024 44.1638C41.2499 44.3434 41.4364 44.5211 41.6634 44.7028C41.8915 44.8874 42.1606 45.073 42.471 45.2673C42.9066 45.5466 43.3519 45.861 43.7752 46.2213C44.2049 46.5876 44.6111 47.0006 44.9603 47.4713C45.3138 47.9469 45.6077 48.4802 45.806 49.0777C46.0052 49.6813 46.1073 50.3463 46.0751 51.0787C46.0229 52.277 45.7602 53.3101 45.326 54.1665C44.8973 55.0122 44.3055 55.6762 43.5927 56.1587C42.8954 56.6293 42.0878 56.9213 41.2094 57.0385C40.3564 57.1527 39.4418 57.102 38.4985 56.8939C38.4916 56.8929 38.4838 56.89 38.476 56.8881C38.4687 56.8871 38.4613 56.8852 38.454 56.8842C38.4468 56.8823 38.4394 56.8802 38.4316 56.8783C38.4242 56.8773 38.4169 56.8754 38.4091 56.8735C37.9668 56.7661 37.5399 56.6274 37.1391 56.4643C36.7441 56.3051 36.3734 56.1234 36.0356 55.9272C35.7026 55.7329 35.4008 55.5248 35.1396 55.3091C34.8813 55.0953 34.6616 54.8755 34.4892 54.6539L35.5297 51.2008C35.7055 51.3492 35.9203 51.5182 36.1649 51.689C36.4119 51.8638 36.6898 52.0416 36.9871 52.2085C37.2879 52.3765 37.6092 52.5318 37.9398 52.6587C38.2747 52.7867 38.6194 52.8863 38.9612 52.936C39.263 52.98 39.5325 52.9712 39.7683 52.9185C40.0061 52.8647 40.2087 52.7662 40.3748 52.6304C40.5418 52.4966 40.6712 52.3256 40.7615 52.1294C40.8519 51.9312 40.9031 51.7095 40.9129 51.4722C40.9236 51.2339 40.9021 51.0103 40.8421 50.7934C40.7825 50.5757 40.6849 50.3657 40.5447 50.1548C40.4045 49.9448 40.2229 49.7339 39.993 49.5162C39.7654 49.3004 39.4925 49.0777 39.1693 48.8414C38.7713 48.5445 38.3982 48.2233 38.0638 47.8737C37.7337 47.5279 37.4408 47.1539 37.2011 46.7487C36.9638 46.3463 36.7768 45.9118 36.6557 45.4392C36.5351 44.9694 36.4795 44.4606 36.5028 43.9059C36.5438 42.9792 36.729 42.1247 37.039 41.3562C37.3524 40.5788 37.7963 39.8816 38.3529 39.281C38.9208 38.6687 39.6112 38.1521 40.4071 37.7546C41.2259 37.3454 42.162 37.0584 43.1996 36.9226C43.681 36.8591 44.143 36.8298 44.5794 36.8279C45.0228 36.8259 45.4393 36.8523 45.8226 36.9012C46.2112 36.951 46.5653 37.0232 46.8792 37.1121C47.1956 37.2018 47.4701 37.3074 47.6961 37.4226L46.1761 41.9509ZM48.6521 29.2723C48.6502 29.1171 48.6463 28.9598 48.6405 28.7997C48.5945 27.5692 48.4275 26.5331 48.1433 25.6932C48.4529 25.7244 48.7342 25.827 48.991 26.0087C49.7069 26.5155 50.2224 27.5359 50.5857 28.6736L48.6521 29.2723Z" fill="black"/>
</g>
<defs>
<filter id="filter0_d_25_153" x="9.72748e-05" y="9.72748e-05" width="94.2" height="94.2" filterUnits="userSpaceOnUse" color-interpolation-filters="sRGB">
<feFlood flood-opacity="0" result="BackgroundImageFix"/>
<feColorMatrix in="SourceAlpha" type="matrix" values="0 0 0 0 0 0 0 0 0 0 0 0 0 0 0 0 0 0 127 0" result="hardAlpha"/>
<feOffset dy="4"/>
<feGaussianBlur stdDeviation="5.55"/>
<feComposite in2="hardAlpha" operator="out"/>
<feColorMatrix type="matrix" values="0 0 0 0 0 0 0 0 0 0 0 0 0 0 0 0 0 0 0.22 0"/>
<feBlend mode="normal" in2="BackgroundImageFix" result="effect1_dropShadow_25_153"/>
<feBlend mode="normal" in="SourceGraphic" in2="effect1_dropShadow_25_153" result="shape"/>
</filter>
</defs>
</svg>
