<svg width="93" height="93" viewBox="0 0 93 93" fill="none" xmlns="http://www.w3.org/2000/svg">
<g filter="url(#filter0_di_25_142)">
<rect x="11.1001" y="7.1001" width="70" height="70" rx="35" fill="#0F0F0F"/>
<mask id="mask0_25_142" style="mask-type:luminance" maskUnits="userSpaceOnUse" x="23" y="20" width="46" height="46">
<path d="M68.1001 20.1001H23.1001V65.1001H68.1001V20.1001Z" fill="white"/>
</mask>
<g mask="url(#mask0_25_142)">
<path d="M42.2434 45.0939C41.8721 45.0859 41.5175 44.9386 41.2496 44.6814L38.6246 42.0564C38.3613 41.7928 38.2134 41.4353 38.2134 41.0627C38.2134 40.69 38.3613 40.3326 38.6246 40.0689L41.4559 37.2377C41.7196 36.9743 42.077 36.8264 42.4496 36.8264C42.8223 36.8264 43.1797 36.9743 43.4434 37.2377C43.5761 37.367 43.6815 37.5215 43.7535 37.6922C43.8255 37.8628 43.8626 38.0462 43.8626 38.2314C43.8626 38.4167 43.8255 38.6 43.7535 38.7707C43.6815 38.9414 43.5761 39.0959 43.4434 39.2252L41.5684 41.1002L43.1996 42.7127C43.4597 42.9819 43.605 43.3415 43.605 43.7158C43.605 44.0901 43.4597 44.4497 43.1996 44.7189C42.9358 44.954 42.5967 45.087 42.2434 45.0939Z" fill="white"/>
<path d="M48.956 45.0941C48.5848 45.086 48.2301 44.9388 47.9623 44.6816C47.7022 44.4124 47.5569 44.0527 47.5569 43.6785C47.5569 43.3042 47.7022 42.9445 47.9623 42.6753L49.5935 41.0628L47.7185 39.1878C47.5858 39.0586 47.4804 38.904 47.4084 38.7333C47.3364 38.5627 47.2993 38.3793 47.2993 38.1941C47.2993 38.0088 47.3364 37.8255 47.4084 37.6548C47.4804 37.4841 47.5858 37.3296 47.7185 37.2003C47.9822 36.937 48.3396 36.7891 48.7123 36.7891C49.0849 36.7891 49.4423 36.937 49.706 37.2003L52.5373 40.0316C52.8006 40.2952 52.9485 40.6527 52.9485 41.0253C52.9485 41.398 52.8006 41.7554 52.5373 42.0191L49.9123 44.6441C49.6597 44.9066 49.3192 45.0668 48.956 45.0941Z" fill="white"/>
<path d="M51.2251 62.7937H39.9751C38.1103 62.7937 36.3219 62.0529 35.0033 60.7343C33.6846 59.4157 32.9438 57.6273 32.9438 55.7624V29.5125C32.9438 27.6476 33.6846 25.8592 35.0033 24.5406C36.3219 23.222 38.1103 22.4812 39.9751 22.4812H51.2251C53.0899 22.4812 54.8783 23.222 56.1969 24.5406C57.5156 25.8592 58.2563 27.6476 58.2563 29.5125V55.7624C58.2563 57.6273 57.5156 59.4157 56.1969 60.7343C54.8783 62.0529 53.0899 62.7937 51.2251 62.7937ZM39.9751 25.2937C38.8562 25.2937 37.7832 25.7382 36.992 26.5293C36.2008 27.3205 35.7563 28.3936 35.7563 29.5125V55.7624C35.7563 56.8813 36.2008 57.9544 36.992 58.7456C37.7832 59.5367 38.8562 59.9812 39.9751 59.9812H51.2251C52.344 59.9812 53.417 59.5367 54.2082 58.7456C54.9994 57.9544 55.4438 56.8813 55.4438 55.7624V29.5125C55.4438 28.3936 54.9994 27.3205 54.2082 26.5293C53.417 25.7382 52.344 25.2937 51.2251 25.2937H39.9751Z" fill="white"/>
<path d="M45.6003 57.1689C45.3224 57.1687 45.0507 57.0861 44.8197 56.9316C44.5887 56.777 44.4086 56.5575 44.3023 56.3007C44.196 56.0439 44.1681 55.7613 44.2223 55.4887C44.2764 55.2161 44.4102 54.9656 44.6066 54.7689C44.7701 54.6053 44.9714 54.4844 45.1928 54.4172C45.4141 54.3499 45.6487 54.3383 45.8756 54.3834C46.1025 54.4285 46.3148 54.5288 46.4936 54.6756C46.6725 54.8224 46.8123 55.011 46.9008 55.2247C46.9893 55.4385 47.0237 55.6707 47.001 55.901C46.9782 56.1312 46.8991 56.3523 46.7704 56.5446C46.6418 56.7368 46.4677 56.8944 46.2636 57.0034C46.0595 57.1123 45.8317 57.1691 45.6003 57.1689Z" fill="white"/>
</g>
</g>
<defs>
<filter id="filter0_di_25_142" x="9.72748e-05" y="9.72748e-05" width="92.2" height="92.2" filterUnits="userSpaceOnUse" color-interpolation-filters="sRGB">
<feFlood flood-opacity="0" result="BackgroundImageFix"/>
<feColorMatrix in="SourceAlpha" type="matrix" values="0 0 0 0 0 0 0 0 0 0 0 0 0 0 0 0 0 0 127 0" result="hardAlpha"/>
<feOffset dy="4"/>
<feGaussianBlur stdDeviation="5.55"/>
<feComposite in2="hardAlpha" operator="out"/>
<feColorMatrix type="matrix" values="0 0 0 0 0 0 0 0 0 0 0 0 0 0 0 0 0 0 0.22 0"/>
<feBlend mode="normal" in2="BackgroundImageFix" result="effect1_dropShadow_25_142"/>
<feBlend mode="normal" in="SourceGraphic" in2="effect1_dropShadow_25_142" result="shape"/>
<feColorMatrix in="SourceAlpha" type="matrix" values="0 0 0 0 0 0 0 0 0 0 0 0 0 0 0 0 0 0 127 0" result="hardAlpha"/>
<feOffset dy="4"/>
<feGaussianBlur stdDeviation="2.9"/>
<feComposite in2="hardAlpha" operator="arithmetic" k2="-1" k3="1"/>
<feColorMatrix type="matrix" values="0 0 0 0 0.911538 0 0 0 0 0.911538 0 0 0 0 0.911538 0 0 0 0.61 0"/>
<feBlend mode="normal" in2="shape" result="effect2_innerShadow_25_142"/>
</filter>
</defs>
</svg>
