<svg width="93" height="93" viewBox="0 0 93 93" fill="none" xmlns="http://www.w3.org/2000/svg">
<g filter="url(#filter0_di_25_126)">
<rect x="11.1001" y="7.1001" width="70" height="70" rx="35" fill="#0F0F0F"/>
<path d="M34.3189 58.8635C34.6822 58.2521 35.1435 57.7875 35.7777 57.4656C35.8213 53.3567 35.8648 49.2478 35.9096 45.0145C35.692 44.9261 35.4743 44.8377 35.2501 44.7467C35.0218 44.5344 35.0218 44.5344 34.8296 44.2948C34.7651 44.2165 34.7007 44.1381 34.6343 44.0574C34.0516 43.2354 34.0881 42.3864 34.1947 41.3996C34.4826 40.6102 35.0358 40.0356 35.7777 39.6591C35.796 38.1148 35.8101 36.5705 35.8187 35.0261C35.8229 34.3089 35.8285 33.5919 35.8374 32.8748C35.846 32.1829 35.8508 31.4911 35.8528 30.7992C35.8543 30.5351 35.8571 30.271 35.8614 30.0069C35.8671 29.6372 35.8679 29.2678 35.8676 28.8981C35.8718 28.7339 35.8718 28.7339 35.8762 28.5663C35.8812 28.2228 35.8812 28.2228 35.7777 27.7435C35.4087 27.4138 35.4087 27.4138 34.9862 27.208C34.2252 26.3498 34.1342 25.7296 34.154 24.5863C34.2279 23.7556 34.5683 23.3141 35.1594 22.748C35.8598 22.1796 36.6085 22.0417 37.4926 22.1204C38.2354 22.3049 38.704 22.5928 39.2075 23.1915C39.281 23.2743 39.3545 23.3572 39.4301 23.4425C39.9288 24.2618 39.9337 25.0897 39.7352 26.003C39.4461 26.7889 38.8886 27.3698 38.1522 27.7435C38.1522 29.82 38.1522 31.8966 38.1522 34.036C38.5005 33.5058 38.8487 32.9757 39.2075 32.4294C39.4615 32.0989 39.7112 31.781 39.9825 31.4671C40.05 31.3886 40.1174 31.31 40.1869 31.2291C42.7374 28.3036 46.5495 26.1173 50.4204 25.7353C50.8613 25.7183 51.2987 25.7178 51.7395 25.7353C51.7414 25.6545 51.7433 25.5737 51.7452 25.4905C51.7515 25.3835 51.7578 25.2765 51.7643 25.1663C51.7689 25.0606 51.7735 24.955 51.7782 24.8462C51.9134 24.3882 52.1413 24.2545 52.531 23.9948C52.9466 23.9255 52.9466 23.9255 53.4091 23.9237C53.5766 23.923 53.7441 23.9223 53.9167 23.9216C54.0906 23.9236 54.2646 23.9257 54.4438 23.9278C54.6178 23.9258 54.7917 23.9237 54.971 23.9216C55.1385 23.9223 55.306 23.9229 55.4785 23.9237C55.6311 23.9243 55.7838 23.9249 55.941 23.9255C56.457 24.0115 56.6711 24.1312 57.0162 24.5303C57.0994 24.9759 57.0994 24.9759 57.0991 25.501C57.0995 25.594 57.0998 25.6871 57.1001 25.783C57.1 25.9792 57.0982 26.1755 57.0949 26.3717C57.0904 26.6716 57.0922 26.9709 57.0948 27.2707C57.0938 27.4618 57.0926 27.6529 57.0909 27.8439C57.0887 28.1038 57.0887 28.1038 57.0865 28.369C57.0162 28.8146 57.0162 28.8146 56.8056 29.1386C56.3753 29.4256 56.074 29.4194 55.561 29.4212C55.4722 29.4217 55.3834 29.4223 55.292 29.4228C55.1048 29.4232 54.9177 29.4222 54.7305 29.4199C54.4447 29.4171 54.1592 29.4199 53.8734 29.4233C53.6911 29.423 53.5089 29.4223 53.3267 29.4212C53.1614 29.4206 52.9962 29.42 52.826 29.4194C52.3991 29.3501 52.3991 29.3501 52.0835 29.1135C51.8594 28.7976 51.7977 28.6289 51.7725 28.2456C51.7616 28.0799 51.7507 27.9142 51.7395 27.7435C48.2174 28.4106 45.3029 29.3894 42.6373 31.8939C42.4749 32.0425 42.4749 32.0425 42.3091 32.1941C40.4468 33.9764 38.5756 37.1334 38.416 39.793C38.5839 40.0327 38.5839 40.0327 38.8448 40.1947C39.318 40.5281 39.4882 40.8753 39.7352 41.3996C41.363 40.6268 42.976 39.8288 44.5794 39.0052C45.0737 38.7515 45.5686 38.4988 46.0634 38.2461C46.9785 37.7787 47.8933 37.3108 48.8074 36.8412C49.4495 36.5114 50.0922 36.1829 50.7354 35.8553C50.9786 35.7311 51.2216 35.6064 51.4643 35.4812C51.8022 35.3069 52.141 35.1344 52.4799 34.9622C52.5787 34.9108 52.6775 34.8593 52.7794 34.8063C53.4659 34.4606 54.1245 34.1763 54.889 34.4293C55.2219 34.7572 55.261 34.9942 55.306 35.4546C55.2967 36.0913 55.0909 36.6798 54.9055 37.2832C54.864 37.4251 54.8225 37.567 54.7798 37.7131C54.6477 38.1644 54.5131 38.6148 54.3779 39.065C54.1998 39.6587 54.0243 40.253 53.8502 40.8479C53.8087 40.9832 53.7672 41.1185 53.7245 41.2579C53.3541 42.5232 53.6157 43.4409 53.979 44.675C54.0574 44.9478 54.1357 45.2205 54.214 45.4932C54.337 45.9198 54.4607 46.3461 54.5858 46.772C54.7069 47.1854 54.8254 47.5995 54.9436 48.0138C55.0003 48.2031 55.0003 48.2031 55.0581 48.3963C55.2734 49.1591 55.3469 49.7252 55.1693 50.5037C54.889 50.7798 54.889 50.7798 54.5098 50.9053C53.6478 50.8659 52.988 50.5127 52.2284 50.1193C52.0951 50.0516 51.9618 49.9839 51.8245 49.9141C51.3853 49.6907 50.9472 49.4654 50.509 49.2401C50.2038 49.0844 49.8984 48.9289 49.593 48.7734C48.8722 48.4061 48.1519 48.0377 47.4319 47.6686C46.3744 47.1267 45.316 46.5866 44.2575 46.0466C43.498 45.6592 42.7388 45.2714 41.98 44.8827C41.7056 44.7424 41.4312 44.602 41.1568 44.4617C41.0314 44.3973 40.9059 44.3329 40.7767 44.2665C40.6048 44.1786 40.6048 44.1786 40.4293 44.089C40.3297 44.038 40.2301 43.9869 40.1275 43.9343C39.8498 43.7948 39.8498 43.7948 39.4714 43.6756C39.4414 43.7502 39.4115 43.8247 39.3807 43.9016C39.158 44.2997 38.8821 44.5753 38.548 44.8806C38.4609 44.8806 38.3738 44.8806 38.2841 44.8806C39.1267 48.9903 41.019 52.5317 44.5573 54.9046C46.8267 56.3469 49.1137 57.0116 51.7395 57.4656C51.7567 57.2041 51.7739 56.9426 51.7911 56.6811C51.906 56.2713 52.062 56.1118 52.3991 55.859C52.826 55.7897 52.826 55.7897 53.3267 55.7879C53.4154 55.7874 53.5042 55.7869 53.5957 55.7863C53.7828 55.786 53.97 55.7869 54.1571 55.7892C54.443 55.7921 54.7284 55.7892 55.0142 55.7858C55.1965 55.7861 55.3787 55.7868 55.561 55.7879C55.7262 55.7885 55.8914 55.7891 56.0616 55.7897C56.4885 55.859 56.4885 55.859 56.8056 56.0705C57.0946 56.5152 57.0865 56.8347 57.0909 57.3652C57.0917 57.4583 57.0925 57.5513 57.0934 57.6472C57.0943 57.8435 57.0939 58.0397 57.0922 58.236C57.0904 58.5358 57.0949 58.8351 57.0999 59.135C57.1 59.326 57.0998 59.5171 57.0991 59.7081C57.0992 59.8814 57.0993 60.0547 57.0994 60.2332C57.0162 60.6788 57.0162 60.6788 56.7361 61.0028C56.2833 61.2552 55.9935 61.2834 55.4785 61.2855C55.311 61.2862 55.1435 61.2868 54.971 61.2876C54.797 61.2855 54.623 61.2834 54.4438 61.2813C54.2699 61.2833 54.0959 61.2854 53.9167 61.2876C53.7492 61.2869 53.5817 61.2862 53.4091 61.2855C53.2565 61.2849 53.1039 61.2843 52.9466 61.2836C52.4479 61.2005 52.2269 61.0372 51.8715 60.6788C51.7782 60.3629 51.7782 60.3629 51.7643 60.0429C51.7548 59.8824 51.7548 59.8824 51.7452 59.7186C51.7433 59.6378 51.7415 59.5571 51.7395 59.4739C51.6334 59.4808 51.6334 59.4808 51.5252 59.488C47.7402 59.6207 43.9517 57.5932 41.2192 55.0724C39.9914 53.906 39.0395 52.619 38.1522 51.1731C38.1321 52.0594 38.1183 52.9456 38.1087 53.8321C38.1047 54.1337 38.0993 54.4352 38.0925 54.7367C38.0829 55.1701 38.0784 55.6033 38.0749 56.0368C38.0708 56.1717 38.0667 56.3066 38.0625 56.4455C38.0624 56.8032 38.0693 57.1179 38.1522 57.4656C38.5125 57.8139 38.5125 57.8139 38.9437 58.0011C39.5958 58.6629 39.8513 59.2845 39.8759 60.2039C39.8346 61.0308 39.6283 61.6667 39.0756 62.2854C38.2828 62.9272 37.5856 63.1563 36.5692 63.0887C35.6257 62.932 35.1354 62.5038 34.5286 61.7708C33.99 61.001 34.0056 59.7278 34.3189 58.8635Z" fill="white"/>
</g>
<defs>
<filter id="filter0_di_25_126" x="9.72748e-05" y="9.72748e-05" width="92.2" height="92.2" filterUnits="userSpaceOnUse" color-interpolation-filters="sRGB">
<feFlood flood-opacity="0" result="BackgroundImageFix"/>
<feColorMatrix in="SourceAlpha" type="matrix" values="0 0 0 0 0 0 0 0 0 0 0 0 0 0 0 0 0 0 127 0" result="hardAlpha"/>
<feOffset dy="4"/>
<feGaussianBlur stdDeviation="5.55"/>
<feComposite in2="hardAlpha" operator="out"/>
<feColorMatrix type="matrix" values="0 0 0 0 0 0 0 0 0 0 0 0 0 0 0 0 0 0 0.22 0"/>
<feBlend mode="normal" in2="BackgroundImageFix" result="effect1_dropShadow_25_126"/>
<feBlend mode="normal" in="SourceGraphic" in2="effect1_dropShadow_25_126" result="shape"/>
<feColorMatrix in="SourceAlpha" type="matrix" values="0 0 0 0 0 0 0 0 0 0 0 0 0 0 0 0 0 0 127 0" result="hardAlpha"/>
<feOffset dy="4"/>
<feGaussianBlur stdDeviation="2.9"/>
<feComposite in2="hardAlpha" operator="arithmetic" k2="-1" k3="1"/>
<feColorMatrix type="matrix" values="0 0 0 0 0.911538 0 0 0 0 0.911538 0 0 0 0 0.911538 0 0 0 0.61 0"/>
<feBlend mode="normal" in2="shape" result="effect2_innerShadow_25_126"/>
</filter>
</defs>
</svg>
